%TF.GenerationSoftware,KiCad,Pcbnew,9.0.1*%
%TF.CreationDate,2025-05-06T12:52:45-06:00*%
%TF.ProjectId,TwylaBorck_2025_STM32F103_RobotBrain,5477796c-6142-46f7-9263-6b5f32303235,rev?*%
%TF.SameCoordinates,Original*%
%TF.FileFunction,Soldermask,Bot*%
%TF.FilePolarity,Negative*%
%FSLAX46Y46*%
G04 Gerber Fmt 4.6, Leading zero omitted, Abs format (unit mm)*
G04 Created by KiCad (PCBNEW 9.0.1) date 2025-05-06 12:52:45*
%MOMM*%
%LPD*%
G01*
G04 APERTURE LIST*
G04 Aperture macros list*
%AMRoundRect*
0 Rectangle with rounded corners*
0 $1 Rounding radius*
0 $2 $3 $4 $5 $6 $7 $8 $9 X,Y pos of 4 corners*
0 Add a 4 corners polygon primitive as box body*
4,1,4,$2,$3,$4,$5,$6,$7,$8,$9,$2,$3,0*
0 Add four circle primitives for the rounded corners*
1,1,$1+$1,$2,$3*
1,1,$1+$1,$4,$5*
1,1,$1+$1,$6,$7*
1,1,$1+$1,$8,$9*
0 Add four rect primitives between the rounded corners*
20,1,$1+$1,$2,$3,$4,$5,0*
20,1,$1+$1,$4,$5,$6,$7,0*
20,1,$1+$1,$6,$7,$8,$9,0*
20,1,$1+$1,$8,$9,$2,$3,0*%
G04 Aperture macros list end*
%ADD10RoundRect,0.250000X-0.600000X-0.750000X0.600000X-0.750000X0.600000X0.750000X-0.600000X0.750000X0*%
%ADD11O,1.700000X2.000000*%
%ADD12R,1.700000X1.700000*%
%ADD13O,1.700000X1.700000*%
%ADD14RoundRect,0.250000X0.725000X-0.600000X0.725000X0.600000X-0.725000X0.600000X-0.725000X-0.600000X0*%
%ADD15O,1.950000X1.700000*%
%ADD16RoundRect,0.250000X-0.725000X0.600000X-0.725000X-0.600000X0.725000X-0.600000X0.725000X0.600000X0*%
%ADD17RoundRect,0.250000X-0.600000X-0.725000X0.600000X-0.725000X0.600000X0.725000X-0.600000X0.725000X0*%
%ADD18O,1.700000X1.950000*%
%ADD19C,1.000000*%
G04 APERTURE END LIST*
D10*
%TO.C,J6*%
X122580000Y-99900000D03*
D11*
X125080000Y-99900000D03*
%TD*%
D12*
%TO.C,J9*%
X178500000Y-49800000D03*
D13*
X178500000Y-47260000D03*
X178500000Y-44720000D03*
X178500000Y-42180000D03*
X178500000Y-39640000D03*
X178500000Y-37100000D03*
X178500000Y-34560000D03*
%TD*%
D14*
%TO.C,J8*%
X157890000Y-100070000D03*
D15*
X157890000Y-97570000D03*
X157890000Y-95070000D03*
X157890000Y-92570000D03*
X157890000Y-90070000D03*
%TD*%
D12*
%TO.C,J2*%
X176465000Y-79835000D03*
D13*
X176465000Y-77295000D03*
X176465000Y-74755000D03*
X176465000Y-72215000D03*
X176465000Y-69675000D03*
X176465000Y-67135000D03*
X176465000Y-64595000D03*
X176465000Y-62055000D03*
%TD*%
D12*
%TO.C,J4*%
X116160000Y-40040000D03*
D13*
X118700000Y-40040000D03*
X121240000Y-40040000D03*
X123780000Y-40040000D03*
%TD*%
D16*
%TO.C,J11*%
X98720000Y-46270000D03*
D15*
X98720000Y-48770000D03*
X98720000Y-51270000D03*
X98720000Y-53770000D03*
%TD*%
D12*
%TO.C,J3*%
X134460000Y-103485000D03*
D13*
X137000000Y-103485000D03*
X139540000Y-103485000D03*
X142080000Y-103485000D03*
%TD*%
D17*
%TO.C,J7*%
X152510000Y-49370000D03*
D18*
X155010000Y-49370000D03*
X157510000Y-49370000D03*
X160010000Y-49370000D03*
%TD*%
D10*
%TO.C,J5*%
X111750000Y-99875000D03*
D11*
X114250000Y-99875000D03*
%TD*%
D14*
%TO.C,J10*%
X97510000Y-78760000D03*
D15*
X97510000Y-76260000D03*
X97510000Y-73760000D03*
X97510000Y-71260000D03*
X97510000Y-68760000D03*
X97510000Y-66260000D03*
%TD*%
D19*
%TO.C,J1*%
X140580000Y-34300000D03*
X136180000Y-34300000D03*
%TD*%
M02*
