%TF.GenerationSoftware,KiCad,Pcbnew,9.0.1*%
%TF.CreationDate,2025-05-06T12:52:45-06:00*%
%TF.ProjectId,TwylaBorck_2025_STM32F103_RobotBrain,5477796c-6142-46f7-9263-6b5f32303235,rev?*%
%TF.SameCoordinates,Original*%
%TF.FileFunction,Copper,L2,Bot*%
%TF.FilePolarity,Positive*%
%FSLAX46Y46*%
G04 Gerber Fmt 4.6, Leading zero omitted, Abs format (unit mm)*
G04 Created by KiCad (PCBNEW 9.0.1) date 2025-05-06 12:52:45*
%MOMM*%
%LPD*%
G01*
G04 APERTURE LIST*
G04 Aperture macros list*
%AMRoundRect*
0 Rectangle with rounded corners*
0 $1 Rounding radius*
0 $2 $3 $4 $5 $6 $7 $8 $9 X,Y pos of 4 corners*
0 Add a 4 corners polygon primitive as box body*
4,1,4,$2,$3,$4,$5,$6,$7,$8,$9,$2,$3,0*
0 Add four circle primitives for the rounded corners*
1,1,$1+$1,$2,$3*
1,1,$1+$1,$4,$5*
1,1,$1+$1,$6,$7*
1,1,$1+$1,$8,$9*
0 Add four rect primitives between the rounded corners*
20,1,$1+$1,$2,$3,$4,$5,0*
20,1,$1+$1,$4,$5,$6,$7,0*
20,1,$1+$1,$6,$7,$8,$9,0*
20,1,$1+$1,$8,$9,$2,$3,0*%
G04 Aperture macros list end*
%TA.AperFunction,ComponentPad*%
%ADD10RoundRect,0.250000X-0.600000X-0.750000X0.600000X-0.750000X0.600000X0.750000X-0.600000X0.750000X0*%
%TD*%
%TA.AperFunction,ComponentPad*%
%ADD11O,1.700000X2.000000*%
%TD*%
%TA.AperFunction,ComponentPad*%
%ADD12R,1.700000X1.700000*%
%TD*%
%TA.AperFunction,ComponentPad*%
%ADD13O,1.700000X1.700000*%
%TD*%
%TA.AperFunction,ComponentPad*%
%ADD14RoundRect,0.250000X0.725000X-0.600000X0.725000X0.600000X-0.725000X0.600000X-0.725000X-0.600000X0*%
%TD*%
%TA.AperFunction,ComponentPad*%
%ADD15O,1.950000X1.700000*%
%TD*%
%TA.AperFunction,ComponentPad*%
%ADD16RoundRect,0.250000X-0.725000X0.600000X-0.725000X-0.600000X0.725000X-0.600000X0.725000X0.600000X0*%
%TD*%
%TA.AperFunction,ComponentPad*%
%ADD17RoundRect,0.250000X-0.600000X-0.725000X0.600000X-0.725000X0.600000X0.725000X-0.600000X0.725000X0*%
%TD*%
%TA.AperFunction,ComponentPad*%
%ADD18O,1.700000X1.950000*%
%TD*%
%TA.AperFunction,ViaPad*%
%ADD19C,0.600000*%
%TD*%
%TA.AperFunction,Conductor*%
%ADD20C,0.254000*%
%TD*%
%TA.AperFunction,Conductor*%
%ADD21C,0.381000*%
%TD*%
G04 APERTURE END LIST*
D10*
%TO.P,J6,1,Pin_1*%
%TO.N,+3V3*%
X122580000Y-99900000D03*
D11*
%TO.P,J6,2,Pin_2*%
%TO.N,GND*%
X125080000Y-99900000D03*
%TD*%
D12*
%TO.P,J9,1,Pin_1*%
%TO.N,+3V3*%
X178500000Y-49800000D03*
D13*
%TO.P,J9,2,Pin_2*%
%TO.N,/PS2_SCK*%
X178500000Y-47260000D03*
%TO.P,J9,3,Pin_3*%
%TO.N,unconnected-(J9-Pin_3-Pad3)*%
X178500000Y-44720000D03*
%TO.P,J9,4,Pin_4*%
%TO.N,/PS2_CS*%
X178500000Y-42180000D03*
%TO.P,J9,5,Pin_5*%
%TO.N,GND*%
X178500000Y-39640000D03*
%TO.P,J9,6,Pin_6*%
%TO.N,/PS2_MISO*%
X178500000Y-37100000D03*
%TO.P,J9,7,Pin_7*%
%TO.N,/PS2_MOSI*%
X178500000Y-34560000D03*
%TD*%
D14*
%TO.P,J8,1,Pin_1*%
%TO.N,/E2A*%
X157890000Y-100070000D03*
D15*
%TO.P,J8,2,Pin_2*%
%TO.N,/E2B*%
X157890000Y-97570000D03*
%TO.P,J8,3,Pin_3*%
%TO.N,/E1A*%
X157890000Y-95070000D03*
%TO.P,J8,4,Pin_4*%
%TO.N,/E1B*%
X157890000Y-92570000D03*
%TO.P,J8,5,Pin_5*%
%TO.N,/PWR_ADC*%
X157890000Y-90070000D03*
%TD*%
D12*
%TO.P,J2,1,Pin_1*%
%TO.N,+5V*%
X176465000Y-79835000D03*
D13*
%TO.P,J2,2,Pin_2*%
%TO.N,GND*%
X176465000Y-77295000D03*
%TO.P,J2,3,Pin_3*%
%TO.N,/IMU_I2C_SCL*%
X176465000Y-74755000D03*
%TO.P,J2,4,Pin_4*%
%TO.N,/IMU_I2C_SDA*%
X176465000Y-72215000D03*
%TO.P,J2,5,Pin_5*%
%TO.N,unconnected-(J2-Pin_5-Pad5)*%
X176465000Y-69675000D03*
%TO.P,J2,6,Pin_6*%
%TO.N,unconnected-(J2-Pin_6-Pad6)*%
X176465000Y-67135000D03*
%TO.P,J2,7,Pin_7*%
%TO.N,unconnected-(J2-Pin_7-Pad7)*%
X176465000Y-64595000D03*
%TO.P,J2,8,Pin_8*%
%TO.N,/IMU_INT*%
X176465000Y-62055000D03*
%TD*%
D12*
%TO.P,J4,1,Pin_1*%
%TO.N,+3V3*%
X116160000Y-40040000D03*
D13*
%TO.P,J4,2,Pin_2*%
%TO.N,/SWCLK*%
X118700000Y-40040000D03*
%TO.P,J4,3,Pin_3*%
%TO.N,GND*%
X121240000Y-40040000D03*
%TO.P,J4,4,Pin_4*%
%TO.N,/SWDIO*%
X123780000Y-40040000D03*
%TD*%
D16*
%TO.P,J11,1,Pin_1*%
%TO.N,+3V3*%
X98720000Y-46270000D03*
D15*
%TO.P,J11,2,Pin_2*%
%TO.N,/USER_TX*%
X98720000Y-48770000D03*
%TO.P,J11,3,Pin_3*%
%TO.N,/USER_RX*%
X98720000Y-51270000D03*
%TO.P,J11,4,Pin_4*%
%TO.N,GND*%
X98720000Y-53770000D03*
%TD*%
D12*
%TO.P,J3,1,Pin_1*%
%TO.N,+5V*%
X134460000Y-103485000D03*
D13*
%TO.P,J3,2,Pin_2*%
%TO.N,/ULTRA_TRIG*%
X137000000Y-103485000D03*
%TO.P,J3,3,Pin_3*%
%TO.N,/ULTRA_ECHO*%
X139540000Y-103485000D03*
%TO.P,J3,4,Pin_4*%
%TO.N,GND*%
X142080000Y-103485000D03*
%TD*%
D17*
%TO.P,J7,1,Pin_1*%
%TO.N,/AN2*%
X152510000Y-49370000D03*
D18*
%TO.P,J7,2,Pin_2*%
%TO.N,/AN1*%
X155010000Y-49370000D03*
%TO.P,J7,3,Pin_3*%
%TO.N,/BN2*%
X157510000Y-49370000D03*
%TO.P,J7,4,Pin_4*%
%TO.N,/BN1*%
X160010000Y-49370000D03*
%TD*%
D10*
%TO.P,J5,1,Pin_1*%
%TO.N,+5V*%
X111750000Y-99875000D03*
D11*
%TO.P,J5,2,Pin_2*%
%TO.N,GND*%
X114250000Y-99875000D03*
%TD*%
D14*
%TO.P,J10,1,Pin_1*%
%TO.N,+3V3*%
X97510000Y-78760000D03*
D15*
%TO.P,J10,2,Pin_2*%
%TO.N,/X1*%
X97510000Y-76260000D03*
%TO.P,J10,3,Pin_3*%
%TO.N,/X2*%
X97510000Y-73760000D03*
%TO.P,J10,4,Pin_4*%
%TO.N,/X3*%
X97510000Y-71260000D03*
%TO.P,J10,5,Pin_5*%
%TO.N,/X4*%
X97510000Y-68760000D03*
%TO.P,J10,6,Pin_6*%
%TO.N,GND*%
X97510000Y-66260000D03*
%TD*%
D19*
%TO.N,+3V3*%
X128600000Y-79500000D03*
X134160000Y-75304000D03*
X134100000Y-74050000D03*
X126847500Y-78461242D03*
%TO.N,GND*%
X135300000Y-31060000D03*
X135310000Y-31970000D03*
X138320000Y-48630000D03*
X101550000Y-104940000D03*
X136780000Y-35480000D03*
X103700000Y-95400000D03*
X137200000Y-59890000D03*
X135310000Y-36460000D03*
X100250000Y-97140000D03*
X148430000Y-76280000D03*
X133260000Y-70570000D03*
X160490000Y-38990000D03*
X156300000Y-38970000D03*
X99400000Y-93300000D03*
X135310000Y-75730000D03*
X129900000Y-102700000D03*
X141240000Y-79920000D03*
X116610000Y-74610000D03*
X162820000Y-30550000D03*
X150070000Y-72380000D03*
X125700000Y-78200000D03*
X174000000Y-92900000D03*
X132070000Y-71580000D03*
X133640000Y-85390000D03*
X141410000Y-36420000D03*
X145110000Y-70690000D03*
X168700000Y-80600000D03*
X173350000Y-99580000D03*
X135300000Y-74000000D03*
X153880000Y-30560000D03*
X148580000Y-83950000D03*
X169900000Y-78000000D03*
X135220000Y-88640000D03*
X141420000Y-37150000D03*
X141430000Y-31900000D03*
X141430000Y-31090000D03*
X157700000Y-38950000D03*
X175680000Y-106180000D03*
X148460000Y-78570000D03*
X129500000Y-78800000D03*
X137960000Y-77270000D03*
X148070000Y-63560000D03*
X148400000Y-32585000D03*
X129900000Y-107600000D03*
X156420000Y-36240000D03*
X130690000Y-76070000D03*
X133510000Y-59260000D03*
X142390000Y-77290000D03*
X173990000Y-90010000D03*
X142300000Y-74080000D03*
X147470000Y-58420000D03*
X135310000Y-37250000D03*
X147170000Y-41280000D03*
%TO.N,+5V*%
X170700000Y-79000000D03*
X129900000Y-106300000D03*
X170000000Y-80800000D03*
X102400000Y-95500000D03*
X100000000Y-94300000D03*
X129900000Y-104036000D03*
%TO.N,/BL_WAKEUP*%
X140617000Y-55500000D03*
X139800000Y-53500000D03*
%TD*%
D20*
%TO.N,+3V3*%
X134160000Y-75304000D02*
X134160000Y-74110000D01*
X127886258Y-79500000D02*
X126847500Y-78461242D01*
X134160000Y-74110000D02*
X134100000Y-74050000D01*
X128600000Y-79500000D02*
X127886258Y-79500000D01*
D21*
%TO.N,+5V*%
X170700000Y-79000000D02*
X170700000Y-80100000D01*
X101200000Y-95500000D02*
X100000000Y-94300000D01*
X102400000Y-95500000D02*
X101200000Y-95500000D01*
X129900000Y-104036000D02*
X129900000Y-106300000D01*
X170700000Y-80100000D02*
X170000000Y-80800000D01*
D20*
%TO.N,/BL_WAKEUP*%
X140617000Y-55500000D02*
X140617000Y-54317000D01*
X140617000Y-54317000D02*
X139800000Y-53500000D01*
%TD*%
%TA.AperFunction,Conductor*%
%TO.N,GND*%
G36*
X179103736Y-30250727D02*
G01*
X179393796Y-30268272D01*
X179408657Y-30270076D01*
X179690797Y-30321781D01*
X179705334Y-30325364D01*
X179979182Y-30410699D01*
X179993163Y-30416001D01*
X180254732Y-30533724D01*
X180267987Y-30540681D01*
X180513458Y-30689072D01*
X180525776Y-30697574D01*
X180751573Y-30874474D01*
X180762781Y-30884404D01*
X180965595Y-31087219D01*
X180975525Y-31098427D01*
X181152422Y-31324218D01*
X181160928Y-31336541D01*
X181309315Y-31582004D01*
X181316274Y-31595263D01*
X181433996Y-31856832D01*
X181439305Y-31870833D01*
X181524634Y-32144664D01*
X181528218Y-32159202D01*
X181579922Y-32441340D01*
X181581727Y-32456205D01*
X181589097Y-32578033D01*
X181595513Y-32684110D01*
X181599274Y-32746274D01*
X181599500Y-32753761D01*
X181599500Y-106746250D01*
X181599274Y-106753737D01*
X181581728Y-107043795D01*
X181579923Y-107058660D01*
X181528219Y-107340798D01*
X181524635Y-107355336D01*
X181439304Y-107629175D01*
X181433994Y-107643177D01*
X181316277Y-107904731D01*
X181309319Y-107917989D01*
X181160928Y-108163459D01*
X181152422Y-108175782D01*
X180975525Y-108401573D01*
X180965595Y-108412781D01*
X180762781Y-108615596D01*
X180751573Y-108625526D01*
X180525782Y-108802422D01*
X180513458Y-108810928D01*
X180267987Y-108959319D01*
X180254730Y-108966277D01*
X179993176Y-109083994D01*
X179979174Y-109089304D01*
X179705335Y-109174635D01*
X179690797Y-109178219D01*
X179408659Y-109229923D01*
X179393794Y-109231728D01*
X179200701Y-109243408D01*
X179103712Y-109249275D01*
X179096240Y-109249501D01*
X95103752Y-109249501D01*
X95096265Y-109249275D01*
X94806205Y-109231729D01*
X94791340Y-109229924D01*
X94509202Y-109178220D01*
X94494664Y-109174636D01*
X94220832Y-109089307D01*
X94206831Y-109083998D01*
X93945263Y-108966276D01*
X93932004Y-108959317D01*
X93686540Y-108810929D01*
X93674217Y-108802423D01*
X93448426Y-108625527D01*
X93437218Y-108615597D01*
X93234403Y-108412782D01*
X93224473Y-108401574D01*
X93224472Y-108401573D01*
X93047572Y-108175777D01*
X93039074Y-108163466D01*
X92890679Y-107917989D01*
X92883724Y-107904737D01*
X92766001Y-107643168D01*
X92760692Y-107629167D01*
X92752095Y-107601579D01*
X92675362Y-107355335D01*
X92671779Y-107340798D01*
X92620075Y-107058660D01*
X92618270Y-107043795D01*
X92600726Y-106753752D01*
X92600500Y-106746265D01*
X92600500Y-103957153D01*
X129099500Y-103957153D01*
X129099500Y-104114846D01*
X129130261Y-104269489D01*
X129130264Y-104269501D01*
X129190603Y-104415174D01*
X129193475Y-104420546D01*
X129191317Y-104421699D01*
X129208980Y-104478108D01*
X129209000Y-104480322D01*
X129209000Y-105855677D01*
X129191724Y-105914509D01*
X129193479Y-105915447D01*
X129190602Y-105920828D01*
X129130264Y-106066498D01*
X129130261Y-106066510D01*
X129099500Y-106221153D01*
X129099500Y-106378846D01*
X129130261Y-106533489D01*
X129130264Y-106533501D01*
X129190602Y-106679172D01*
X129190609Y-106679185D01*
X129278210Y-106810288D01*
X129278213Y-106810292D01*
X129389707Y-106921786D01*
X129389711Y-106921789D01*
X129520814Y-107009390D01*
X129520827Y-107009397D01*
X129666498Y-107069735D01*
X129666503Y-107069737D01*
X129821153Y-107100499D01*
X129821156Y-107100500D01*
X129821158Y-107100500D01*
X129978844Y-107100500D01*
X129978845Y-107100499D01*
X130133497Y-107069737D01*
X130279179Y-107009394D01*
X130410289Y-106921789D01*
X130521789Y-106810289D01*
X130609394Y-106679179D01*
X130669737Y-106533497D01*
X130700500Y-106378842D01*
X130700500Y-106221158D01*
X130700500Y-106221155D01*
X130700499Y-106221153D01*
X130669738Y-106066510D01*
X130669737Y-106066503D01*
X130609394Y-105920821D01*
X130609390Y-105920815D01*
X130606521Y-105915447D01*
X130608676Y-105914294D01*
X130591019Y-105857869D01*
X130591000Y-105855677D01*
X130591000Y-104480322D01*
X130608277Y-104421482D01*
X130606525Y-104420546D01*
X130609390Y-104415184D01*
X130609394Y-104415179D01*
X130669737Y-104269497D01*
X130700500Y-104114842D01*
X130700500Y-103957158D01*
X130700500Y-103957155D01*
X130700499Y-103957153D01*
X130669738Y-103802510D01*
X130669737Y-103802503D01*
X130669167Y-103801126D01*
X130609397Y-103656827D01*
X130609390Y-103656814D01*
X130521789Y-103525711D01*
X130521786Y-103525707D01*
X130410292Y-103414213D01*
X130410288Y-103414210D01*
X130279185Y-103326609D01*
X130279172Y-103326602D01*
X130133501Y-103266264D01*
X130133489Y-103266261D01*
X129978845Y-103235500D01*
X129978842Y-103235500D01*
X129821158Y-103235500D01*
X129821155Y-103235500D01*
X129666510Y-103266261D01*
X129666498Y-103266264D01*
X129520827Y-103326602D01*
X129520814Y-103326609D01*
X129389711Y-103414210D01*
X129389707Y-103414213D01*
X129278213Y-103525707D01*
X129278210Y-103525711D01*
X129190609Y-103656814D01*
X129190602Y-103656827D01*
X129130264Y-103802498D01*
X129130261Y-103802510D01*
X129099500Y-103957153D01*
X92600500Y-103957153D01*
X92600500Y-102587135D01*
X133109500Y-102587135D01*
X133109500Y-104382870D01*
X133109501Y-104382876D01*
X133115908Y-104442483D01*
X133166202Y-104577328D01*
X133166206Y-104577335D01*
X133252452Y-104692544D01*
X133252455Y-104692547D01*
X133367664Y-104778793D01*
X133367671Y-104778797D01*
X133502517Y-104829091D01*
X133502516Y-104829091D01*
X133509444Y-104829835D01*
X133562127Y-104835500D01*
X135357872Y-104835499D01*
X135417483Y-104829091D01*
X135552331Y-104778796D01*
X135667546Y-104692546D01*
X135753796Y-104577331D01*
X135802810Y-104445916D01*
X135844681Y-104389984D01*
X135910145Y-104365566D01*
X135978418Y-104380417D01*
X136006673Y-104401569D01*
X136120213Y-104515109D01*
X136292179Y-104640048D01*
X136292181Y-104640049D01*
X136292184Y-104640051D01*
X136481588Y-104736557D01*
X136683757Y-104802246D01*
X136893713Y-104835500D01*
X136893714Y-104835500D01*
X137106286Y-104835500D01*
X137106287Y-104835500D01*
X137316243Y-104802246D01*
X137518412Y-104736557D01*
X137707816Y-104640051D01*
X137794138Y-104577335D01*
X137879786Y-104515109D01*
X137879788Y-104515106D01*
X137879792Y-104515104D01*
X138030104Y-104364792D01*
X138030106Y-104364788D01*
X138030109Y-104364786D01*
X138155048Y-104192820D01*
X138155047Y-104192820D01*
X138155051Y-104192816D01*
X138159514Y-104184054D01*
X138207488Y-104133259D01*
X138275308Y-104116463D01*
X138341444Y-104138999D01*
X138380486Y-104184056D01*
X138384951Y-104192820D01*
X138509890Y-104364786D01*
X138660213Y-104515109D01*
X138832179Y-104640048D01*
X138832181Y-104640049D01*
X138832184Y-104640051D01*
X139021588Y-104736557D01*
X139223757Y-104802246D01*
X139433713Y-104835500D01*
X139433714Y-104835500D01*
X139646286Y-104835500D01*
X139646287Y-104835500D01*
X139856243Y-104802246D01*
X140058412Y-104736557D01*
X140247816Y-104640051D01*
X140334138Y-104577335D01*
X140419786Y-104515109D01*
X140419788Y-104515106D01*
X140419792Y-104515104D01*
X140570104Y-104364792D01*
X140570106Y-104364788D01*
X140570109Y-104364786D01*
X140695048Y-104192820D01*
X140695051Y-104192816D01*
X140699793Y-104183508D01*
X140747763Y-104132711D01*
X140815583Y-104115911D01*
X140881719Y-104138445D01*
X140920763Y-104183500D01*
X140925377Y-104192555D01*
X141050272Y-104364459D01*
X141050276Y-104364464D01*
X141200535Y-104514723D01*
X141200540Y-104514727D01*
X141372442Y-104639620D01*
X141561782Y-104736095D01*
X141763871Y-104801757D01*
X141830000Y-104812231D01*
X141830000Y-103918012D01*
X141887007Y-103950925D01*
X142014174Y-103985000D01*
X142145826Y-103985000D01*
X142272993Y-103950925D01*
X142330000Y-103918012D01*
X142330000Y-104812230D01*
X142396126Y-104801757D01*
X142396129Y-104801757D01*
X142598217Y-104736095D01*
X142787557Y-104639620D01*
X142959459Y-104514727D01*
X142959464Y-104514723D01*
X143109723Y-104364464D01*
X143109727Y-104364459D01*
X143234620Y-104192557D01*
X143331095Y-104003217D01*
X143396757Y-103801129D01*
X143396757Y-103801126D01*
X143407231Y-103735000D01*
X142513012Y-103735000D01*
X142545925Y-103677993D01*
X142580000Y-103550826D01*
X142580000Y-103419174D01*
X142545925Y-103292007D01*
X142513012Y-103235000D01*
X143407231Y-103235000D01*
X143396757Y-103168873D01*
X143396757Y-103168870D01*
X143331095Y-102966782D01*
X143234620Y-102777442D01*
X143109727Y-102605540D01*
X143109723Y-102605535D01*
X142959464Y-102455276D01*
X142959459Y-102455272D01*
X142787557Y-102330379D01*
X142598215Y-102233903D01*
X142396124Y-102168241D01*
X142330000Y-102157768D01*
X142330000Y-103051988D01*
X142272993Y-103019075D01*
X142145826Y-102985000D01*
X142014174Y-102985000D01*
X141887007Y-103019075D01*
X141830000Y-103051988D01*
X141830000Y-102157768D01*
X141829999Y-102157768D01*
X141763875Y-102168241D01*
X141561784Y-102233903D01*
X141372442Y-102330379D01*
X141200540Y-102455272D01*
X141200535Y-102455276D01*
X141050276Y-102605535D01*
X141050272Y-102605540D01*
X140925378Y-102777443D01*
X140920762Y-102786502D01*
X140872784Y-102837295D01*
X140804963Y-102854087D01*
X140738829Y-102831546D01*
X140699794Y-102786493D01*
X140695051Y-102777184D01*
X140695049Y-102777181D01*
X140695048Y-102777179D01*
X140570109Y-102605213D01*
X140419786Y-102454890D01*
X140247820Y-102329951D01*
X140058414Y-102233444D01*
X140058413Y-102233443D01*
X140058412Y-102233443D01*
X139856243Y-102167754D01*
X139856241Y-102167753D01*
X139856240Y-102167753D01*
X139694957Y-102142208D01*
X139646287Y-102134500D01*
X139433713Y-102134500D01*
X139385042Y-102142208D01*
X139223760Y-102167753D01*
X139021585Y-102233444D01*
X138832179Y-102329951D01*
X138660213Y-102454890D01*
X138509890Y-102605213D01*
X138384949Y-102777182D01*
X138380484Y-102785946D01*
X138332509Y-102836742D01*
X138264688Y-102853536D01*
X138198553Y-102830998D01*
X138159516Y-102785946D01*
X138155050Y-102777182D01*
X138030109Y-102605213D01*
X137879786Y-102454890D01*
X137707820Y-102329951D01*
X137518414Y-102233444D01*
X137518413Y-102233443D01*
X137518412Y-102233443D01*
X137316243Y-102167754D01*
X137316241Y-102167753D01*
X137316240Y-102167753D01*
X137154957Y-102142208D01*
X137106287Y-102134500D01*
X136893713Y-102134500D01*
X136845042Y-102142208D01*
X136683760Y-102167753D01*
X136481585Y-102233444D01*
X136292179Y-102329951D01*
X136120215Y-102454889D01*
X136006673Y-102568431D01*
X135945350Y-102601915D01*
X135875658Y-102596931D01*
X135819725Y-102555059D01*
X135802810Y-102524082D01*
X135753797Y-102392671D01*
X135753793Y-102392664D01*
X135667547Y-102277455D01*
X135667544Y-102277452D01*
X135552335Y-102191206D01*
X135552328Y-102191202D01*
X135417482Y-102140908D01*
X135417483Y-102140908D01*
X135357883Y-102134501D01*
X135357881Y-102134500D01*
X135357873Y-102134500D01*
X135357864Y-102134500D01*
X133562129Y-102134500D01*
X133562123Y-102134501D01*
X133502516Y-102140908D01*
X133367671Y-102191202D01*
X133367664Y-102191206D01*
X133252455Y-102277452D01*
X133252452Y-102277455D01*
X133166206Y-102392664D01*
X133166202Y-102392671D01*
X133115908Y-102527517D01*
X133109501Y-102587116D01*
X133109500Y-102587135D01*
X92600500Y-102587135D01*
X92600500Y-99074983D01*
X110399500Y-99074983D01*
X110399500Y-100675001D01*
X110399501Y-100675018D01*
X110410000Y-100777796D01*
X110410001Y-100777799D01*
X110465185Y-100944331D01*
X110465186Y-100944334D01*
X110557288Y-101093656D01*
X110681344Y-101217712D01*
X110830666Y-101309814D01*
X110997203Y-101364999D01*
X111099991Y-101375500D01*
X112400008Y-101375499D01*
X112502797Y-101364999D01*
X112669334Y-101309814D01*
X112818656Y-101217712D01*
X112942712Y-101093656D01*
X113034814Y-100944334D01*
X113034814Y-100944331D01*
X113038448Y-100938441D01*
X113090395Y-100891716D01*
X113159358Y-100880493D01*
X113223440Y-100908336D01*
X113231668Y-100915856D01*
X113370535Y-101054723D01*
X113370540Y-101054727D01*
X113542442Y-101179620D01*
X113731782Y-101276095D01*
X113933871Y-101341757D01*
X114000000Y-101352231D01*
X114000000Y-100308012D01*
X114057007Y-100340925D01*
X114184174Y-100375000D01*
X114315826Y-100375000D01*
X114442993Y-100340925D01*
X114500000Y-100308012D01*
X114500000Y-101352230D01*
X114566126Y-101341757D01*
X114566129Y-101341757D01*
X114768217Y-101276095D01*
X114957557Y-101179620D01*
X115129459Y-101054727D01*
X115129464Y-101054723D01*
X115279723Y-100904464D01*
X115279727Y-100904459D01*
X115404620Y-100732557D01*
X115501095Y-100543217D01*
X115566757Y-100341130D01*
X115566757Y-100341127D01*
X115600000Y-100131246D01*
X115600000Y-100125000D01*
X114683012Y-100125000D01*
X114715925Y-100067993D01*
X114750000Y-99940826D01*
X114750000Y-99809174D01*
X114715925Y-99682007D01*
X114683012Y-99625000D01*
X115600000Y-99625000D01*
X115600000Y-99618753D01*
X115566757Y-99408872D01*
X115566757Y-99408869D01*
X115501094Y-99206780D01*
X115473758Y-99153130D01*
X115473757Y-99153129D01*
X115446677Y-99099983D01*
X121229500Y-99099983D01*
X121229500Y-100700001D01*
X121229501Y-100700018D01*
X121240000Y-100802796D01*
X121240001Y-100802799D01*
X121273690Y-100904464D01*
X121295186Y-100969334D01*
X121387288Y-101118656D01*
X121511344Y-101242712D01*
X121660666Y-101334814D01*
X121827203Y-101389999D01*
X121929991Y-101400500D01*
X123230008Y-101400499D01*
X123332797Y-101389999D01*
X123499334Y-101334814D01*
X123648656Y-101242712D01*
X123772712Y-101118656D01*
X123864814Y-100969334D01*
X123864814Y-100969331D01*
X123868448Y-100963441D01*
X123920395Y-100916716D01*
X123989358Y-100905493D01*
X124053440Y-100933336D01*
X124061668Y-100940856D01*
X124200535Y-101079723D01*
X124200540Y-101079727D01*
X124372442Y-101204620D01*
X124561782Y-101301095D01*
X124763871Y-101366757D01*
X124830000Y-101377231D01*
X124830000Y-100333012D01*
X124887007Y-100365925D01*
X125014174Y-100400000D01*
X125145826Y-100400000D01*
X125272993Y-100365925D01*
X125330000Y-100333012D01*
X125330000Y-101377230D01*
X125396126Y-101366757D01*
X125396129Y-101366757D01*
X125598217Y-101301095D01*
X125787557Y-101204620D01*
X125959459Y-101079727D01*
X125959464Y-101079723D01*
X126109723Y-100929464D01*
X126109727Y-100929459D01*
X126234620Y-100757557D01*
X126331095Y-100568217D01*
X126396757Y-100366130D01*
X126396757Y-100366127D01*
X126430000Y-100156246D01*
X126430000Y-100150000D01*
X125513012Y-100150000D01*
X125545925Y-100092993D01*
X125580000Y-99965826D01*
X125580000Y-99834174D01*
X125545925Y-99707007D01*
X125513012Y-99650000D01*
X126430000Y-99650000D01*
X126430000Y-99643753D01*
X126396757Y-99433872D01*
X126396757Y-99433869D01*
X126331095Y-99231782D01*
X126234620Y-99042442D01*
X126109727Y-98870540D01*
X126109723Y-98870535D01*
X125959464Y-98720276D01*
X125959459Y-98720272D01*
X125787557Y-98595379D01*
X125598215Y-98498903D01*
X125396124Y-98433241D01*
X125330000Y-98422768D01*
X125330000Y-99466988D01*
X125272993Y-99434075D01*
X125145826Y-99400000D01*
X125014174Y-99400000D01*
X124887007Y-99434075D01*
X124830000Y-99466988D01*
X124830000Y-98422768D01*
X124829999Y-98422768D01*
X124763875Y-98433241D01*
X124561784Y-98498903D01*
X124372442Y-98595379D01*
X124200541Y-98720271D01*
X124061668Y-98859144D01*
X124000345Y-98892628D01*
X123930653Y-98887644D01*
X123874720Y-98845772D01*
X123868448Y-98836558D01*
X123799670Y-98725051D01*
X123772712Y-98681344D01*
X123648656Y-98557288D01*
X123499334Y-98465186D01*
X123332797Y-98410001D01*
X123332795Y-98410000D01*
X123230010Y-98399500D01*
X121929998Y-98399500D01*
X121929981Y-98399501D01*
X121827203Y-98410000D01*
X121827200Y-98410001D01*
X121660668Y-98465185D01*
X121660663Y-98465187D01*
X121511342Y-98557289D01*
X121387289Y-98681342D01*
X121295187Y-98830663D01*
X121295185Y-98830668D01*
X121276305Y-98887644D01*
X121240001Y-98997203D01*
X121240001Y-98997204D01*
X121240000Y-98997204D01*
X121229500Y-99099983D01*
X115446677Y-99099983D01*
X115404620Y-99017442D01*
X115279727Y-98845540D01*
X115279723Y-98845535D01*
X115129464Y-98695276D01*
X115129459Y-98695272D01*
X114957557Y-98570379D01*
X114768215Y-98473903D01*
X114566124Y-98408241D01*
X114500000Y-98397768D01*
X114500000Y-99441988D01*
X114442993Y-99409075D01*
X114315826Y-99375000D01*
X114184174Y-99375000D01*
X114057007Y-99409075D01*
X114000000Y-99441988D01*
X114000000Y-98397768D01*
X113999999Y-98397768D01*
X113933875Y-98408241D01*
X113731784Y-98473903D01*
X113542442Y-98570379D01*
X113370541Y-98695271D01*
X113231668Y-98834144D01*
X113170345Y-98867628D01*
X113100653Y-98862644D01*
X113044720Y-98820772D01*
X113038448Y-98811558D01*
X112985272Y-98725346D01*
X112942712Y-98656344D01*
X112818656Y-98532288D01*
X112669334Y-98440186D01*
X112502797Y-98385001D01*
X112502795Y-98385000D01*
X112400010Y-98374500D01*
X111099998Y-98374500D01*
X111099981Y-98374501D01*
X110997203Y-98385000D01*
X110997200Y-98385001D01*
X110830668Y-98440185D01*
X110830663Y-98440187D01*
X110681342Y-98532289D01*
X110557289Y-98656342D01*
X110465187Y-98805663D01*
X110465185Y-98805668D01*
X110443689Y-98870540D01*
X110410001Y-98972203D01*
X110410001Y-98972204D01*
X110410000Y-98972204D01*
X110399500Y-99074983D01*
X92600500Y-99074983D01*
X92600500Y-94221153D01*
X99199500Y-94221153D01*
X99199500Y-94378846D01*
X99230261Y-94533489D01*
X99230264Y-94533501D01*
X99290602Y-94679172D01*
X99290609Y-94679185D01*
X99378210Y-94810288D01*
X99378213Y-94810292D01*
X99489707Y-94921786D01*
X99489711Y-94921789D01*
X99620814Y-95009390D01*
X99620823Y-95009395D01*
X99766503Y-95069737D01*
X99772325Y-95071503D01*
X99771612Y-95073851D01*
X99823964Y-95101214D01*
X99825571Y-95102793D01*
X100759507Y-96036730D01*
X100759514Y-96036736D01*
X100872687Y-96112355D01*
X100872690Y-96112357D01*
X100998438Y-96164443D01*
X100998443Y-96164445D01*
X100998447Y-96164445D01*
X100998448Y-96164446D01*
X101131939Y-96191000D01*
X101131942Y-96191000D01*
X101955677Y-96191000D01*
X102014509Y-96208275D01*
X102015447Y-96206521D01*
X102020815Y-96209390D01*
X102020821Y-96209394D01*
X102020827Y-96209396D01*
X102020828Y-96209397D01*
X102166498Y-96269735D01*
X102166503Y-96269737D01*
X102295398Y-96295376D01*
X102321153Y-96300499D01*
X102321156Y-96300500D01*
X102321158Y-96300500D01*
X102478844Y-96300500D01*
X102478845Y-96300499D01*
X102633497Y-96269737D01*
X102779179Y-96209394D01*
X102910289Y-96121789D01*
X103021789Y-96010289D01*
X103109394Y-95879179D01*
X103169737Y-95733497D01*
X103200500Y-95578842D01*
X103200500Y-95421158D01*
X103200500Y-95421155D01*
X103200499Y-95421153D01*
X103169738Y-95266510D01*
X103169737Y-95266503D01*
X103132369Y-95176287D01*
X103109397Y-95120827D01*
X103109390Y-95120814D01*
X103021789Y-94989711D01*
X103021786Y-94989707D01*
X102910292Y-94878213D01*
X102910288Y-94878210D01*
X102779185Y-94790609D01*
X102779172Y-94790602D01*
X102633501Y-94730264D01*
X102633489Y-94730261D01*
X102478845Y-94699500D01*
X102478842Y-94699500D01*
X102321158Y-94699500D01*
X102321155Y-94699500D01*
X102166510Y-94730261D01*
X102166498Y-94730264D01*
X102020828Y-94790602D01*
X102015447Y-94793479D01*
X102014294Y-94791323D01*
X101957869Y-94808981D01*
X101955677Y-94809000D01*
X101537584Y-94809000D01*
X101470545Y-94789315D01*
X101449903Y-94772681D01*
X100812481Y-94135259D01*
X106349500Y-94135259D01*
X106349500Y-94364742D01*
X106371717Y-94533489D01*
X106379452Y-94592239D01*
X106437527Y-94808981D01*
X106438842Y-94813888D01*
X106526650Y-95025877D01*
X106526657Y-95025891D01*
X106552991Y-95071503D01*
X106613487Y-95176286D01*
X106641392Y-95224618D01*
X106781081Y-95406662D01*
X106781089Y-95406671D01*
X106943330Y-95568912D01*
X106943338Y-95568919D01*
X107125382Y-95708608D01*
X107125385Y-95708609D01*
X107125388Y-95708612D01*
X107324112Y-95823345D01*
X107324117Y-95823347D01*
X107324123Y-95823350D01*
X107415480Y-95861191D01*
X107536113Y-95911159D01*
X107757762Y-95970549D01*
X107985266Y-96000501D01*
X107985273Y-96000501D01*
X108214727Y-96000501D01*
X108214734Y-96000501D01*
X108442238Y-95970549D01*
X108663887Y-95911159D01*
X108875888Y-95823345D01*
X109074612Y-95708612D01*
X109256661Y-95568920D01*
X109256665Y-95568915D01*
X109256670Y-95568912D01*
X109418911Y-95406671D01*
X109418914Y-95406666D01*
X109418919Y-95406662D01*
X109558611Y-95224613D01*
X109673344Y-95025889D01*
X109761158Y-94813888D01*
X109820548Y-94592239D01*
X109850500Y-94364735D01*
X109850500Y-94135267D01*
X109820548Y-93907763D01*
X109761158Y-93686114D01*
X109696602Y-93530263D01*
X109673349Y-93474124D01*
X109673346Y-93474118D01*
X109673344Y-93474113D01*
X109558611Y-93275389D01*
X109558608Y-93275386D01*
X109558607Y-93275383D01*
X109418918Y-93093339D01*
X109418911Y-93093331D01*
X109256670Y-92931090D01*
X109256661Y-92931082D01*
X109074617Y-92791393D01*
X108875890Y-92676658D01*
X108875876Y-92676651D01*
X108663887Y-92588843D01*
X108442238Y-92529453D01*
X108404215Y-92524447D01*
X108214741Y-92499501D01*
X108214734Y-92499501D01*
X107985266Y-92499501D01*
X107985258Y-92499501D01*
X107768715Y-92528010D01*
X107757762Y-92529453D01*
X107664076Y-92554555D01*
X107536112Y-92588843D01*
X107324123Y-92676651D01*
X107324109Y-92676658D01*
X107125382Y-92791393D01*
X106943338Y-92931082D01*
X106781081Y-93093339D01*
X106641392Y-93275383D01*
X106526657Y-93474110D01*
X106526650Y-93474124D01*
X106438842Y-93686113D01*
X106379453Y-93907760D01*
X106379451Y-93907771D01*
X106349500Y-94135259D01*
X100812481Y-94135259D01*
X100802793Y-94125571D01*
X100773403Y-94071748D01*
X100771503Y-94072325D01*
X100769737Y-94066503D01*
X100709395Y-93920823D01*
X100709390Y-93920814D01*
X100621789Y-93789711D01*
X100621786Y-93789707D01*
X100510292Y-93678213D01*
X100510288Y-93678210D01*
X100379185Y-93590609D01*
X100379172Y-93590602D01*
X100233501Y-93530264D01*
X100233489Y-93530261D01*
X100078845Y-93499500D01*
X100078842Y-93499500D01*
X99921158Y-93499500D01*
X99921155Y-93499500D01*
X99766510Y-93530261D01*
X99766498Y-93530264D01*
X99620827Y-93590602D01*
X99620814Y-93590609D01*
X99489711Y-93678210D01*
X99489707Y-93678213D01*
X99378213Y-93789707D01*
X99378210Y-93789711D01*
X99290609Y-93920814D01*
X99290602Y-93920827D01*
X99230264Y-94066498D01*
X99230261Y-94066510D01*
X99199500Y-94221153D01*
X92600500Y-94221153D01*
X92600500Y-89963713D01*
X156414500Y-89963713D01*
X156414500Y-90176286D01*
X156447753Y-90386239D01*
X156513444Y-90588414D01*
X156609951Y-90777820D01*
X156734890Y-90949786D01*
X156885209Y-91100105D01*
X156885214Y-91100109D01*
X157049793Y-91219682D01*
X157092459Y-91275011D01*
X157098438Y-91344625D01*
X157065833Y-91406420D01*
X157049793Y-91420318D01*
X156885214Y-91539890D01*
X156885209Y-91539894D01*
X156734890Y-91690213D01*
X156609951Y-91862179D01*
X156513444Y-92051585D01*
X156447753Y-92253760D01*
X156414500Y-92463713D01*
X156414500Y-92676286D01*
X156447753Y-92886239D01*
X156513444Y-93088414D01*
X156609951Y-93277820D01*
X156734890Y-93449786D01*
X156885209Y-93600105D01*
X156885214Y-93600109D01*
X157049793Y-93719682D01*
X157092459Y-93775011D01*
X157098438Y-93844625D01*
X157065833Y-93906420D01*
X157049793Y-93920318D01*
X156885214Y-94039890D01*
X156885209Y-94039894D01*
X156734890Y-94190213D01*
X156609951Y-94362179D01*
X156513444Y-94551585D01*
X156447753Y-94753760D01*
X156428042Y-94878210D01*
X156414500Y-94963713D01*
X156414500Y-95176287D01*
X156447754Y-95386243D01*
X156510334Y-95578844D01*
X156513444Y-95588414D01*
X156609951Y-95777820D01*
X156734890Y-95949786D01*
X156885209Y-96100105D01*
X156885214Y-96100109D01*
X157049793Y-96219682D01*
X157092459Y-96275011D01*
X157098438Y-96344625D01*
X157065833Y-96406420D01*
X157049793Y-96420318D01*
X156885214Y-96539890D01*
X156885209Y-96539894D01*
X156734890Y-96690213D01*
X156609951Y-96862179D01*
X156513444Y-97051585D01*
X156447753Y-97253760D01*
X156414500Y-97463713D01*
X156414500Y-97676286D01*
X156447753Y-97886239D01*
X156513444Y-98088414D01*
X156609951Y-98277820D01*
X156734890Y-98449786D01*
X156873705Y-98588601D01*
X156907190Y-98649924D01*
X156902206Y-98719616D01*
X156860334Y-98775549D01*
X156851121Y-98781821D01*
X156696342Y-98877289D01*
X156572289Y-99001342D01*
X156480187Y-99150663D01*
X156480185Y-99150668D01*
X156461592Y-99206780D01*
X156425001Y-99317203D01*
X156425001Y-99317204D01*
X156425000Y-99317204D01*
X156414500Y-99419983D01*
X156414500Y-100720001D01*
X156414501Y-100720018D01*
X156425000Y-100822796D01*
X156425001Y-100822799D01*
X156464122Y-100940856D01*
X156480186Y-100989334D01*
X156572288Y-101138656D01*
X156696344Y-101262712D01*
X156845666Y-101354814D01*
X157012203Y-101409999D01*
X157114991Y-101420500D01*
X158665008Y-101420499D01*
X158767797Y-101409999D01*
X158934334Y-101354814D01*
X159083656Y-101262712D01*
X159207712Y-101138656D01*
X159299814Y-100989334D01*
X159354999Y-100822797D01*
X159365500Y-100720009D01*
X159365499Y-99419992D01*
X159354999Y-99317203D01*
X159299814Y-99150666D01*
X159207712Y-99001344D01*
X159083656Y-98877288D01*
X158934334Y-98785186D01*
X158934333Y-98785185D01*
X158928878Y-98781821D01*
X158882154Y-98729873D01*
X158870931Y-98660910D01*
X158898775Y-98596828D01*
X158906272Y-98588623D01*
X159045104Y-98449792D01*
X159052083Y-98440187D01*
X159170048Y-98277820D01*
X159170047Y-98277820D01*
X159170051Y-98277816D01*
X159266557Y-98088412D01*
X159332246Y-97886243D01*
X159365500Y-97676287D01*
X159365500Y-97463713D01*
X159332246Y-97253757D01*
X159266557Y-97051588D01*
X159170051Y-96862184D01*
X159170049Y-96862181D01*
X159170048Y-96862179D01*
X159045109Y-96690213D01*
X158894792Y-96539896D01*
X158894784Y-96539890D01*
X158730204Y-96420316D01*
X158687540Y-96364989D01*
X158681561Y-96295376D01*
X158714166Y-96233580D01*
X158730199Y-96219686D01*
X158894792Y-96100104D01*
X159045104Y-95949792D01*
X159045106Y-95949788D01*
X159045109Y-95949786D01*
X159170048Y-95777820D01*
X159170047Y-95777820D01*
X159170051Y-95777816D01*
X159266557Y-95588412D01*
X159332246Y-95386243D01*
X159365500Y-95176287D01*
X159365500Y-94963713D01*
X159332246Y-94753757D01*
X159266557Y-94551588D01*
X159170051Y-94362184D01*
X159170049Y-94362181D01*
X159170048Y-94362179D01*
X159055193Y-94204093D01*
X159045109Y-94190214D01*
X159045105Y-94190209D01*
X158990155Y-94135259D01*
X164349500Y-94135259D01*
X164349500Y-94364742D01*
X164371717Y-94533489D01*
X164379452Y-94592239D01*
X164437527Y-94808981D01*
X164438842Y-94813888D01*
X164526650Y-95025877D01*
X164526657Y-95025891D01*
X164552991Y-95071503D01*
X164613487Y-95176286D01*
X164641392Y-95224618D01*
X164781081Y-95406662D01*
X164781089Y-95406671D01*
X164943330Y-95568912D01*
X164943338Y-95568919D01*
X165125382Y-95708608D01*
X165125385Y-95708609D01*
X165125388Y-95708612D01*
X165324112Y-95823345D01*
X165324117Y-95823347D01*
X165324123Y-95823350D01*
X165415480Y-95861191D01*
X165536113Y-95911159D01*
X165757762Y-95970549D01*
X165985266Y-96000501D01*
X165985273Y-96000501D01*
X166214727Y-96000501D01*
X166214734Y-96000501D01*
X166442238Y-95970549D01*
X166663887Y-95911159D01*
X166875888Y-95823345D01*
X167074612Y-95708612D01*
X167256661Y-95568920D01*
X167256665Y-95568915D01*
X167256670Y-95568912D01*
X167418911Y-95406671D01*
X167418914Y-95406666D01*
X167418919Y-95406662D01*
X167558611Y-95224613D01*
X167673344Y-95025889D01*
X167761158Y-94813888D01*
X167820548Y-94592239D01*
X167850500Y-94364735D01*
X167850500Y-94135267D01*
X167820548Y-93907763D01*
X167761158Y-93686114D01*
X167696602Y-93530263D01*
X167673349Y-93474124D01*
X167673346Y-93474118D01*
X167673344Y-93474113D01*
X167558611Y-93275389D01*
X167558608Y-93275386D01*
X167558607Y-93275383D01*
X167418918Y-93093339D01*
X167418911Y-93093331D01*
X167256670Y-92931090D01*
X167256661Y-92931082D01*
X167074617Y-92791393D01*
X166875890Y-92676658D01*
X166875876Y-92676651D01*
X166663887Y-92588843D01*
X166442238Y-92529453D01*
X166404215Y-92524447D01*
X166214741Y-92499501D01*
X166214734Y-92499501D01*
X165985266Y-92499501D01*
X165985258Y-92499501D01*
X165768715Y-92528010D01*
X165757762Y-92529453D01*
X165664076Y-92554555D01*
X165536112Y-92588843D01*
X165324123Y-92676651D01*
X165324109Y-92676658D01*
X165125382Y-92791393D01*
X164943338Y-92931082D01*
X164781081Y-93093339D01*
X164641392Y-93275383D01*
X164526657Y-93474110D01*
X164526650Y-93474124D01*
X164438842Y-93686113D01*
X164379453Y-93907760D01*
X164379451Y-93907771D01*
X164349500Y-94135259D01*
X158990155Y-94135259D01*
X158894792Y-94039896D01*
X158884520Y-94032433D01*
X158730204Y-93920316D01*
X158687540Y-93864989D01*
X158681561Y-93795376D01*
X158714166Y-93733580D01*
X158730199Y-93719686D01*
X158894792Y-93600104D01*
X159045104Y-93449792D01*
X159045106Y-93449788D01*
X159045109Y-93449786D01*
X159170048Y-93277820D01*
X159170047Y-93277820D01*
X159170051Y-93277816D01*
X159266557Y-93088412D01*
X159332246Y-92886243D01*
X159365500Y-92676287D01*
X159365500Y-92463713D01*
X159332246Y-92253757D01*
X159266557Y-92051588D01*
X159170051Y-91862184D01*
X159170049Y-91862181D01*
X159170048Y-91862179D01*
X159045109Y-91690213D01*
X158894792Y-91539896D01*
X158894784Y-91539890D01*
X158730204Y-91420316D01*
X158687540Y-91364989D01*
X158681561Y-91295376D01*
X158714166Y-91233580D01*
X158730199Y-91219686D01*
X158894792Y-91100104D01*
X159045104Y-90949792D01*
X159045106Y-90949788D01*
X159045109Y-90949786D01*
X159170048Y-90777820D01*
X159170047Y-90777820D01*
X159170051Y-90777816D01*
X159266557Y-90588412D01*
X159332246Y-90386243D01*
X159365500Y-90176287D01*
X159365500Y-89963713D01*
X159332246Y-89753757D01*
X159266557Y-89551588D01*
X159170051Y-89362184D01*
X159170049Y-89362181D01*
X159170048Y-89362179D01*
X159045109Y-89190213D01*
X158894786Y-89039890D01*
X158722820Y-88914951D01*
X158533414Y-88818444D01*
X158533413Y-88818443D01*
X158533412Y-88818443D01*
X158331243Y-88752754D01*
X158331241Y-88752753D01*
X158331240Y-88752753D01*
X158169957Y-88727208D01*
X158121287Y-88719500D01*
X157658713Y-88719500D01*
X157610042Y-88727208D01*
X157448760Y-88752753D01*
X157246585Y-88818444D01*
X157057179Y-88914951D01*
X156885213Y-89039890D01*
X156734890Y-89190213D01*
X156609951Y-89362179D01*
X156513444Y-89551585D01*
X156447753Y-89753760D01*
X156414500Y-89963713D01*
X92600500Y-89963713D01*
X92600500Y-80721153D01*
X169199500Y-80721153D01*
X169199500Y-80878846D01*
X169230261Y-81033489D01*
X169230264Y-81033501D01*
X169290602Y-81179172D01*
X169290609Y-81179185D01*
X169378210Y-81310288D01*
X169378213Y-81310292D01*
X169489707Y-81421786D01*
X169489711Y-81421789D01*
X169620814Y-81509390D01*
X169620827Y-81509397D01*
X169766498Y-81569735D01*
X169766503Y-81569737D01*
X169921153Y-81600499D01*
X169921156Y-81600500D01*
X169921158Y-81600500D01*
X170078844Y-81600500D01*
X170078845Y-81600499D01*
X170233497Y-81569737D01*
X170379179Y-81509394D01*
X170510289Y-81421789D01*
X170621789Y-81310289D01*
X170709394Y-81179179D01*
X170769737Y-81033497D01*
X170769738Y-81033489D01*
X170771505Y-81027668D01*
X170773859Y-81028382D01*
X170801194Y-80976055D01*
X170802684Y-80974536D01*
X171236735Y-80540487D01*
X171312356Y-80427312D01*
X171364445Y-80301558D01*
X171370774Y-80269737D01*
X171391000Y-80168058D01*
X171391000Y-79444322D01*
X171408277Y-79385482D01*
X171406525Y-79384546D01*
X171409390Y-79379184D01*
X171409394Y-79379179D01*
X171469737Y-79233497D01*
X171500500Y-79078842D01*
X171500500Y-78921158D01*
X171500500Y-78921155D01*
X171500499Y-78921153D01*
X171476233Y-78799162D01*
X171469737Y-78766503D01*
X171459863Y-78742664D01*
X171409397Y-78620827D01*
X171409390Y-78620814D01*
X171321789Y-78489711D01*
X171321786Y-78489707D01*
X171210292Y-78378213D01*
X171210288Y-78378210D01*
X171079185Y-78290609D01*
X171079172Y-78290602D01*
X170933501Y-78230264D01*
X170933489Y-78230261D01*
X170778845Y-78199500D01*
X170778842Y-78199500D01*
X170621158Y-78199500D01*
X170621155Y-78199500D01*
X170466510Y-78230261D01*
X170466498Y-78230264D01*
X170320827Y-78290602D01*
X170320814Y-78290609D01*
X170189711Y-78378210D01*
X170189707Y-78378213D01*
X170078213Y-78489707D01*
X170078210Y-78489711D01*
X169990609Y-78620814D01*
X169990602Y-78620827D01*
X169930264Y-78766498D01*
X169930261Y-78766510D01*
X169899500Y-78921153D01*
X169899500Y-79078846D01*
X169930261Y-79233489D01*
X169930264Y-79233501D01*
X169990603Y-79379174D01*
X169993475Y-79384546D01*
X169991317Y-79385699D01*
X170008980Y-79442108D01*
X170009000Y-79444322D01*
X170009000Y-79762415D01*
X170000355Y-79791855D01*
X169993832Y-79821842D01*
X169990077Y-79826857D01*
X169989315Y-79829454D01*
X169972681Y-79850097D01*
X169825571Y-79997206D01*
X169771759Y-80026588D01*
X169772337Y-80028493D01*
X169766500Y-80030263D01*
X169620827Y-80090602D01*
X169620814Y-80090609D01*
X169489711Y-80178210D01*
X169489707Y-80178213D01*
X169378213Y-80289707D01*
X169378210Y-80289711D01*
X169290609Y-80420814D01*
X169290602Y-80420827D01*
X169230264Y-80566498D01*
X169230261Y-80566510D01*
X169199500Y-80721153D01*
X92600500Y-80721153D01*
X92600500Y-68653713D01*
X96034500Y-68653713D01*
X96034500Y-68866286D01*
X96067753Y-69076239D01*
X96133444Y-69278414D01*
X96229951Y-69467820D01*
X96354890Y-69639786D01*
X96505209Y-69790105D01*
X96505214Y-69790109D01*
X96669793Y-69909682D01*
X96712459Y-69965011D01*
X96718438Y-70034625D01*
X96685833Y-70096420D01*
X96669793Y-70110318D01*
X96505214Y-70229890D01*
X96505209Y-70229894D01*
X96354890Y-70380213D01*
X96229951Y-70552179D01*
X96133444Y-70741585D01*
X96067753Y-70943760D01*
X96034500Y-71153713D01*
X96034500Y-71366286D01*
X96067753Y-71576239D01*
X96133444Y-71778414D01*
X96229951Y-71967820D01*
X96354890Y-72139786D01*
X96505209Y-72290105D01*
X96505214Y-72290109D01*
X96669793Y-72409682D01*
X96712459Y-72465011D01*
X96718438Y-72534625D01*
X96685833Y-72596420D01*
X96669793Y-72610318D01*
X96505214Y-72729890D01*
X96505209Y-72729894D01*
X96354890Y-72880213D01*
X96229951Y-73052179D01*
X96133444Y-73241585D01*
X96067753Y-73443760D01*
X96034500Y-73653713D01*
X96034500Y-73866286D01*
X96067753Y-74076239D01*
X96067753Y-74076241D01*
X96067754Y-74076243D01*
X96119853Y-74236588D01*
X96133444Y-74278414D01*
X96229951Y-74467820D01*
X96354890Y-74639786D01*
X96505209Y-74790105D01*
X96505214Y-74790109D01*
X96669793Y-74909682D01*
X96712459Y-74965011D01*
X96718438Y-75034625D01*
X96685833Y-75096420D01*
X96669793Y-75110318D01*
X96505214Y-75229890D01*
X96505209Y-75229894D01*
X96354890Y-75380213D01*
X96229951Y-75552179D01*
X96133444Y-75741585D01*
X96067753Y-75943760D01*
X96042295Y-76104499D01*
X96034500Y-76153713D01*
X96034500Y-76366287D01*
X96067754Y-76576243D01*
X96132913Y-76776782D01*
X96133444Y-76778414D01*
X96229951Y-76967820D01*
X96354890Y-77139786D01*
X96493705Y-77278601D01*
X96527190Y-77339924D01*
X96522206Y-77409616D01*
X96480334Y-77465549D01*
X96471121Y-77471821D01*
X96316342Y-77567289D01*
X96192289Y-77691342D01*
X96100187Y-77840663D01*
X96100186Y-77840666D01*
X96045001Y-78007203D01*
X96045001Y-78007204D01*
X96045000Y-78007204D01*
X96034500Y-78109983D01*
X96034500Y-79410001D01*
X96034501Y-79410018D01*
X96045000Y-79512796D01*
X96045001Y-79512799D01*
X96100185Y-79679331D01*
X96100186Y-79679334D01*
X96192288Y-79828656D01*
X96316344Y-79952712D01*
X96465666Y-80044814D01*
X96632203Y-80099999D01*
X96734991Y-80110500D01*
X98285008Y-80110499D01*
X98387797Y-80099999D01*
X98554334Y-80044814D01*
X98703656Y-79952712D01*
X98827712Y-79828656D01*
X98919814Y-79679334D01*
X98974999Y-79512797D01*
X98985500Y-79410009D01*
X98985499Y-78382395D01*
X126047000Y-78382395D01*
X126047000Y-78540088D01*
X126077761Y-78694731D01*
X126077764Y-78694743D01*
X126138102Y-78840414D01*
X126138109Y-78840427D01*
X126225710Y-78971530D01*
X126225713Y-78971534D01*
X126337207Y-79083028D01*
X126337211Y-79083031D01*
X126468314Y-79170632D01*
X126468327Y-79170639D01*
X126536461Y-79198860D01*
X126614003Y-79230979D01*
X126721685Y-79252398D01*
X126783592Y-79284781D01*
X126785172Y-79286333D01*
X127398847Y-79900008D01*
X127451549Y-79952710D01*
X127486252Y-79987413D01*
X127486254Y-79987414D01*
X127589014Y-80056076D01*
X127589016Y-80056077D01*
X127589025Y-80056083D01*
X127614030Y-80066440D01*
X127636329Y-80075677D01*
X127672371Y-80090606D01*
X127703224Y-80103386D01*
X127824450Y-80127499D01*
X127824454Y-80127500D01*
X127824455Y-80127500D01*
X128060643Y-80127500D01*
X128127682Y-80147185D01*
X128129534Y-80148398D01*
X128220814Y-80209390D01*
X128220827Y-80209397D01*
X128366491Y-80269732D01*
X128366503Y-80269737D01*
X128521153Y-80300499D01*
X128521156Y-80300500D01*
X128521158Y-80300500D01*
X128678844Y-80300500D01*
X128678845Y-80300499D01*
X128833497Y-80269737D01*
X128979179Y-80209394D01*
X129110289Y-80121789D01*
X129221789Y-80010289D01*
X129309394Y-79879179D01*
X129369737Y-79733497D01*
X129400500Y-79578842D01*
X129400500Y-79421158D01*
X129400500Y-79421155D01*
X129400499Y-79421153D01*
X129393447Y-79385699D01*
X129369737Y-79266503D01*
X129330028Y-79170636D01*
X129309397Y-79120827D01*
X129309390Y-79120814D01*
X129221789Y-78989711D01*
X129221786Y-78989707D01*
X129110292Y-78878213D01*
X129110288Y-78878210D01*
X128979185Y-78790609D01*
X128979172Y-78790602D01*
X128833501Y-78730264D01*
X128833489Y-78730261D01*
X128678845Y-78699500D01*
X128678842Y-78699500D01*
X128521158Y-78699500D01*
X128521155Y-78699500D01*
X128366510Y-78730261D01*
X128366498Y-78730264D01*
X128220828Y-78790602D01*
X128220812Y-78790611D01*
X128211595Y-78796770D01*
X128144918Y-78817647D01*
X128077538Y-78799162D01*
X128055025Y-78781348D01*
X127672591Y-78398914D01*
X127639106Y-78337591D01*
X127638683Y-78335565D01*
X127617237Y-78227745D01*
X127602151Y-78191324D01*
X127556897Y-78082069D01*
X127556890Y-78082056D01*
X127469289Y-77950953D01*
X127469286Y-77950949D01*
X127357792Y-77839455D01*
X127357788Y-77839452D01*
X127226685Y-77751851D01*
X127226672Y-77751844D01*
X127081001Y-77691506D01*
X127080989Y-77691503D01*
X126926345Y-77660742D01*
X126926342Y-77660742D01*
X126768658Y-77660742D01*
X126768655Y-77660742D01*
X126614010Y-77691503D01*
X126613998Y-77691506D01*
X126468327Y-77751844D01*
X126468314Y-77751851D01*
X126337211Y-77839452D01*
X126337207Y-77839455D01*
X126225713Y-77950949D01*
X126225710Y-77950953D01*
X126138109Y-78082056D01*
X126138102Y-78082069D01*
X126077764Y-78227740D01*
X126077761Y-78227752D01*
X126047000Y-78382395D01*
X98985499Y-78382395D01*
X98985499Y-78109992D01*
X98974999Y-78007203D01*
X98919814Y-77840666D01*
X98827712Y-77691344D01*
X98703656Y-77567288D01*
X98554334Y-77475186D01*
X98554333Y-77475185D01*
X98548878Y-77471821D01*
X98502154Y-77419873D01*
X98490931Y-77350910D01*
X98518775Y-77286828D01*
X98526272Y-77278623D01*
X98665104Y-77139792D01*
X98790051Y-76967816D01*
X98886557Y-76778412D01*
X98952246Y-76576243D01*
X98985500Y-76366287D01*
X98985500Y-76153713D01*
X98952246Y-75943757D01*
X98886557Y-75741588D01*
X98790051Y-75552184D01*
X98790049Y-75552181D01*
X98790048Y-75552179D01*
X98665109Y-75380213D01*
X98514792Y-75229896D01*
X98508271Y-75225158D01*
X98350204Y-75110316D01*
X98307540Y-75054989D01*
X98301561Y-74985376D01*
X98334166Y-74923580D01*
X98350199Y-74909686D01*
X98514792Y-74790104D01*
X98665104Y-74639792D01*
X98665106Y-74639788D01*
X98665109Y-74639786D01*
X98790048Y-74467820D01*
X98790047Y-74467820D01*
X98790051Y-74467816D01*
X98886557Y-74278412D01*
X98952246Y-74076243D01*
X98968891Y-73971153D01*
X133299500Y-73971153D01*
X133299500Y-74128846D01*
X133330261Y-74283489D01*
X133330264Y-74283501D01*
X133390602Y-74429172D01*
X133390609Y-74429185D01*
X133478210Y-74560288D01*
X133478212Y-74560291D01*
X133496179Y-74578257D01*
X133510885Y-74605188D01*
X133527477Y-74631005D01*
X133528368Y-74637202D01*
X133529666Y-74639579D01*
X133532500Y-74665940D01*
X133532500Y-74764642D01*
X133512815Y-74831681D01*
X133511602Y-74833533D01*
X133450609Y-74924814D01*
X133450602Y-74924827D01*
X133390264Y-75070498D01*
X133390261Y-75070510D01*
X133359500Y-75225153D01*
X133359500Y-75382846D01*
X133390261Y-75537489D01*
X133390264Y-75537501D01*
X133450602Y-75683172D01*
X133450609Y-75683185D01*
X133538210Y-75814288D01*
X133538213Y-75814292D01*
X133649707Y-75925786D01*
X133649711Y-75925789D01*
X133780814Y-76013390D01*
X133780827Y-76013397D01*
X133922903Y-76072246D01*
X133926503Y-76073737D01*
X134042056Y-76096722D01*
X134081153Y-76104499D01*
X134081156Y-76104500D01*
X134081158Y-76104500D01*
X134238844Y-76104500D01*
X134238845Y-76104499D01*
X134393497Y-76073737D01*
X134539179Y-76013394D01*
X134670289Y-75925789D01*
X134781789Y-75814289D01*
X134869394Y-75683179D01*
X134929737Y-75537497D01*
X134960500Y-75382842D01*
X134960500Y-75225158D01*
X134960500Y-75225155D01*
X134960499Y-75225153D01*
X134937657Y-75110319D01*
X134929737Y-75070503D01*
X134894477Y-74985376D01*
X134869397Y-74924827D01*
X134869390Y-74924814D01*
X134808398Y-74833533D01*
X134787520Y-74766855D01*
X134787500Y-74764642D01*
X134787500Y-74499560D01*
X134806581Y-74434576D01*
X134806525Y-74434546D01*
X134806670Y-74434274D01*
X134807185Y-74432521D01*
X134808346Y-74430746D01*
X134809394Y-74429179D01*
X134869737Y-74283497D01*
X134900500Y-74128842D01*
X134900500Y-73971158D01*
X134900500Y-73971155D01*
X134900499Y-73971153D01*
X134881414Y-73875208D01*
X134869737Y-73816503D01*
X134869735Y-73816498D01*
X134809397Y-73670827D01*
X134809390Y-73670814D01*
X134721789Y-73539711D01*
X134721786Y-73539707D01*
X134610292Y-73428213D01*
X134610288Y-73428210D01*
X134479185Y-73340609D01*
X134479172Y-73340602D01*
X134333501Y-73280264D01*
X134333489Y-73280261D01*
X134178845Y-73249500D01*
X134178842Y-73249500D01*
X134021158Y-73249500D01*
X134021155Y-73249500D01*
X133866510Y-73280261D01*
X133866498Y-73280264D01*
X133720827Y-73340602D01*
X133720814Y-73340609D01*
X133589711Y-73428210D01*
X133589707Y-73428213D01*
X133478213Y-73539707D01*
X133478210Y-73539711D01*
X133390609Y-73670814D01*
X133390602Y-73670827D01*
X133330264Y-73816498D01*
X133330261Y-73816510D01*
X133299500Y-73971153D01*
X98968891Y-73971153D01*
X98985500Y-73866287D01*
X98985500Y-73653713D01*
X98952246Y-73443757D01*
X98886557Y-73241588D01*
X98790051Y-73052184D01*
X98790049Y-73052181D01*
X98790048Y-73052179D01*
X98665109Y-72880213D01*
X98514792Y-72729896D01*
X98514784Y-72729890D01*
X98350204Y-72610316D01*
X98307540Y-72554989D01*
X98301561Y-72485376D01*
X98334166Y-72423580D01*
X98350199Y-72409686D01*
X98514792Y-72290104D01*
X98665104Y-72139792D01*
X98665106Y-72139788D01*
X98665109Y-72139786D01*
X98790048Y-71967820D01*
X98790047Y-71967820D01*
X98790051Y-71967816D01*
X98886557Y-71778412D01*
X98952246Y-71576243D01*
X98985500Y-71366287D01*
X98985500Y-71153713D01*
X98952246Y-70943757D01*
X98886557Y-70741588D01*
X98790051Y-70552184D01*
X98790049Y-70552181D01*
X98790048Y-70552179D01*
X98665109Y-70380213D01*
X98514792Y-70229896D01*
X98464578Y-70193414D01*
X98350204Y-70110316D01*
X98307540Y-70054989D01*
X98301561Y-69985376D01*
X98334166Y-69923580D01*
X98350199Y-69909686D01*
X98514792Y-69790104D01*
X98665104Y-69639792D01*
X98665106Y-69639788D01*
X98665109Y-69639786D01*
X98790048Y-69467820D01*
X98790047Y-69467820D01*
X98790051Y-69467816D01*
X98886557Y-69278412D01*
X98952246Y-69076243D01*
X98985500Y-68866287D01*
X98985500Y-68653713D01*
X98952246Y-68443757D01*
X98886557Y-68241588D01*
X98790051Y-68052184D01*
X98790049Y-68052181D01*
X98790048Y-68052179D01*
X98665109Y-67880213D01*
X98514790Y-67729894D01*
X98514785Y-67729890D01*
X98349781Y-67610008D01*
X98307115Y-67554678D01*
X98301136Y-67485065D01*
X98333741Y-67423270D01*
X98349781Y-67409371D01*
X98514466Y-67289721D01*
X98664723Y-67139464D01*
X98664727Y-67139459D01*
X98789620Y-66967557D01*
X98886095Y-66778217D01*
X98951757Y-66576129D01*
X98951757Y-66576126D01*
X98962231Y-66510000D01*
X97914146Y-66510000D01*
X97952630Y-66443343D01*
X97985000Y-66322535D01*
X97985000Y-66197465D01*
X97952630Y-66076657D01*
X97914146Y-66010000D01*
X98962231Y-66010000D01*
X98951757Y-65943873D01*
X98951757Y-65943870D01*
X98886095Y-65741782D01*
X98789620Y-65552442D01*
X98664727Y-65380540D01*
X98664723Y-65380535D01*
X98514464Y-65230276D01*
X98514459Y-65230272D01*
X98342557Y-65105379D01*
X98153217Y-65008904D01*
X97951128Y-64943242D01*
X97760000Y-64912969D01*
X97760000Y-65855854D01*
X97693343Y-65817370D01*
X97572535Y-65785000D01*
X97447465Y-65785000D01*
X97326657Y-65817370D01*
X97260000Y-65855854D01*
X97260000Y-64912969D01*
X97068872Y-64943242D01*
X97068869Y-64943242D01*
X96866782Y-65008904D01*
X96677442Y-65105379D01*
X96505540Y-65230272D01*
X96505535Y-65230276D01*
X96355276Y-65380535D01*
X96355272Y-65380540D01*
X96230379Y-65552442D01*
X96133904Y-65741782D01*
X96068242Y-65943870D01*
X96068242Y-65943873D01*
X96057769Y-66010000D01*
X97105854Y-66010000D01*
X97067370Y-66076657D01*
X97035000Y-66197465D01*
X97035000Y-66322535D01*
X97067370Y-66443343D01*
X97105854Y-66510000D01*
X96057769Y-66510000D01*
X96068242Y-66576126D01*
X96068242Y-66576129D01*
X96133904Y-66778217D01*
X96230379Y-66967557D01*
X96355272Y-67139459D01*
X96355276Y-67139464D01*
X96505535Y-67289723D01*
X96505540Y-67289727D01*
X96670218Y-67409372D01*
X96712884Y-67464701D01*
X96718863Y-67534315D01*
X96686258Y-67596110D01*
X96670218Y-67610008D01*
X96505214Y-67729890D01*
X96505209Y-67729894D01*
X96354890Y-67880213D01*
X96229951Y-68052179D01*
X96133444Y-68241585D01*
X96067753Y-68443760D01*
X96034500Y-68653713D01*
X92600500Y-68653713D01*
X92600500Y-61948713D01*
X175114500Y-61948713D01*
X175114500Y-62161286D01*
X175147753Y-62371239D01*
X175213444Y-62573414D01*
X175309951Y-62762820D01*
X175434890Y-62934786D01*
X175585213Y-63085109D01*
X175757182Y-63210050D01*
X175765946Y-63214516D01*
X175816742Y-63262491D01*
X175833536Y-63330312D01*
X175810998Y-63396447D01*
X175765946Y-63435484D01*
X175757182Y-63439949D01*
X175585213Y-63564890D01*
X175434890Y-63715213D01*
X175309951Y-63887179D01*
X175213444Y-64076585D01*
X175147753Y-64278760D01*
X175114500Y-64488713D01*
X175114500Y-64701286D01*
X175147753Y-64911239D01*
X175213444Y-65113414D01*
X175309951Y-65302820D01*
X175434890Y-65474786D01*
X175585213Y-65625109D01*
X175757182Y-65750050D01*
X175765946Y-65754516D01*
X175816742Y-65802491D01*
X175833536Y-65870312D01*
X175810998Y-65936447D01*
X175765946Y-65975484D01*
X175757182Y-65979949D01*
X175585213Y-66104890D01*
X175434890Y-66255213D01*
X175309951Y-66427179D01*
X175213444Y-66616585D01*
X175147753Y-66818760D01*
X175114500Y-67028713D01*
X175114500Y-67241286D01*
X175141142Y-67409500D01*
X175147754Y-67451243D01*
X175197696Y-67604949D01*
X175213444Y-67653414D01*
X175309951Y-67842820D01*
X175434890Y-68014786D01*
X175585213Y-68165109D01*
X175757182Y-68290050D01*
X175765946Y-68294516D01*
X175816742Y-68342491D01*
X175833536Y-68410312D01*
X175810998Y-68476447D01*
X175765946Y-68515484D01*
X175757182Y-68519949D01*
X175585213Y-68644890D01*
X175434890Y-68795213D01*
X175309951Y-68967179D01*
X175213444Y-69156585D01*
X175147753Y-69358760D01*
X175130480Y-69467820D01*
X175114500Y-69568713D01*
X175114500Y-69781287D01*
X175115897Y-69790105D01*
X175146824Y-69985376D01*
X175147754Y-69991243D01*
X175186444Y-70110319D01*
X175213444Y-70193414D01*
X175309951Y-70382820D01*
X175434890Y-70554786D01*
X175585213Y-70705109D01*
X175757182Y-70830050D01*
X175765946Y-70834516D01*
X175816742Y-70882491D01*
X175833536Y-70950312D01*
X175810998Y-71016447D01*
X175765946Y-71055484D01*
X175757182Y-71059949D01*
X175585213Y-71184890D01*
X175434890Y-71335213D01*
X175309951Y-71507179D01*
X175213444Y-71696585D01*
X175147753Y-71898760D01*
X175136816Y-71967816D01*
X175114500Y-72108713D01*
X175114500Y-72321287D01*
X175147754Y-72531243D01*
X175173447Y-72610319D01*
X175213444Y-72733414D01*
X175309951Y-72922820D01*
X175434890Y-73094786D01*
X175585213Y-73245109D01*
X175757182Y-73370050D01*
X175765946Y-73374516D01*
X175816742Y-73422491D01*
X175833536Y-73490312D01*
X175810998Y-73556447D01*
X175765946Y-73595484D01*
X175757182Y-73599949D01*
X175585213Y-73724890D01*
X175434890Y-73875213D01*
X175309951Y-74047179D01*
X175213444Y-74236585D01*
X175213443Y-74236587D01*
X175213443Y-74236588D01*
X175199853Y-74278414D01*
X175147753Y-74438760D01*
X175114500Y-74648713D01*
X175114500Y-74861286D01*
X175147636Y-75070503D01*
X175147754Y-75071243D01*
X175197764Y-75225158D01*
X175213444Y-75273414D01*
X175309951Y-75462820D01*
X175434890Y-75634786D01*
X175585213Y-75785109D01*
X175757179Y-75910048D01*
X175757181Y-75910049D01*
X175757184Y-75910051D01*
X175766493Y-75914794D01*
X175817290Y-75962766D01*
X175834087Y-76030587D01*
X175811552Y-76096722D01*
X175766502Y-76135762D01*
X175757443Y-76140378D01*
X175585540Y-76265272D01*
X175585535Y-76265276D01*
X175435276Y-76415535D01*
X175435272Y-76415540D01*
X175310379Y-76587442D01*
X175213904Y-76776782D01*
X175148242Y-76978870D01*
X175148242Y-76978873D01*
X175137769Y-77045000D01*
X176031988Y-77045000D01*
X175999075Y-77102007D01*
X175965000Y-77229174D01*
X175965000Y-77360826D01*
X175999075Y-77487993D01*
X176031988Y-77545000D01*
X175137769Y-77545000D01*
X175148242Y-77611126D01*
X175148242Y-77611129D01*
X175213904Y-77813217D01*
X175310379Y-78002557D01*
X175435272Y-78174459D01*
X175435276Y-78174464D01*
X175548946Y-78288134D01*
X175582431Y-78349457D01*
X175577447Y-78419149D01*
X175535575Y-78475082D01*
X175504598Y-78491997D01*
X175372671Y-78541202D01*
X175372664Y-78541206D01*
X175257455Y-78627452D01*
X175257452Y-78627455D01*
X175171206Y-78742664D01*
X175171202Y-78742671D01*
X175120908Y-78877517D01*
X175116217Y-78921153D01*
X175114501Y-78937123D01*
X175114500Y-78937135D01*
X175114500Y-80732870D01*
X175114501Y-80732876D01*
X175120908Y-80792483D01*
X175171202Y-80927328D01*
X175171206Y-80927335D01*
X175257452Y-81042544D01*
X175257455Y-81042547D01*
X175372664Y-81128793D01*
X175372671Y-81128797D01*
X175507517Y-81179091D01*
X175507516Y-81179091D01*
X175514444Y-81179835D01*
X175567127Y-81185500D01*
X177362872Y-81185499D01*
X177422483Y-81179091D01*
X177557331Y-81128796D01*
X177672546Y-81042546D01*
X177758796Y-80927331D01*
X177809091Y-80792483D01*
X177815500Y-80732873D01*
X177815499Y-78937128D01*
X177809166Y-78878211D01*
X177809091Y-78877516D01*
X177758797Y-78742671D01*
X177758793Y-78742664D01*
X177672547Y-78627455D01*
X177672544Y-78627452D01*
X177557335Y-78541206D01*
X177557328Y-78541202D01*
X177425401Y-78491997D01*
X177369467Y-78450126D01*
X177345050Y-78384662D01*
X177359902Y-78316389D01*
X177381053Y-78288133D01*
X177494728Y-78174458D01*
X177619620Y-78002557D01*
X177716095Y-77813217D01*
X177781757Y-77611129D01*
X177781757Y-77611126D01*
X177792231Y-77545000D01*
X176898012Y-77545000D01*
X176930925Y-77487993D01*
X176965000Y-77360826D01*
X176965000Y-77229174D01*
X176930925Y-77102007D01*
X176898012Y-77045000D01*
X177792231Y-77045000D01*
X177781757Y-76978873D01*
X177781757Y-76978870D01*
X177716095Y-76776782D01*
X177619620Y-76587442D01*
X177494727Y-76415540D01*
X177494723Y-76415535D01*
X177344464Y-76265276D01*
X177344459Y-76265272D01*
X177172555Y-76140377D01*
X177163500Y-76135763D01*
X177112706Y-76087788D01*
X177095912Y-76019966D01*
X177118451Y-75953832D01*
X177163508Y-75914793D01*
X177172816Y-75910051D01*
X177304618Y-75814292D01*
X177344786Y-75785109D01*
X177344788Y-75785106D01*
X177344792Y-75785104D01*
X177495104Y-75634792D01*
X177495106Y-75634788D01*
X177495109Y-75634786D01*
X177620048Y-75462820D01*
X177620047Y-75462820D01*
X177620051Y-75462816D01*
X177716557Y-75273412D01*
X177782246Y-75071243D01*
X177815500Y-74861287D01*
X177815500Y-74648713D01*
X177782246Y-74438757D01*
X177716557Y-74236588D01*
X177620051Y-74047184D01*
X177620049Y-74047181D01*
X177620048Y-74047179D01*
X177495109Y-73875213D01*
X177344786Y-73724890D01*
X177172820Y-73599951D01*
X177172115Y-73599591D01*
X177164054Y-73595485D01*
X177113259Y-73547512D01*
X177096463Y-73479692D01*
X177118999Y-73413556D01*
X177164054Y-73374515D01*
X177172816Y-73370051D01*
X177213349Y-73340602D01*
X177344786Y-73245109D01*
X177344788Y-73245106D01*
X177344792Y-73245104D01*
X177495104Y-73094792D01*
X177495106Y-73094788D01*
X177495109Y-73094786D01*
X177620048Y-72922820D01*
X177620047Y-72922820D01*
X177620051Y-72922816D01*
X177716557Y-72733412D01*
X177782246Y-72531243D01*
X177815500Y-72321287D01*
X177815500Y-72108713D01*
X177782246Y-71898757D01*
X177716557Y-71696588D01*
X177620051Y-71507184D01*
X177620049Y-71507181D01*
X177620048Y-71507179D01*
X177495109Y-71335213D01*
X177344786Y-71184890D01*
X177172820Y-71059951D01*
X177172115Y-71059591D01*
X177164054Y-71055485D01*
X177113259Y-71007512D01*
X177096463Y-70939692D01*
X177118999Y-70873556D01*
X177164054Y-70834515D01*
X177172816Y-70830051D01*
X177294580Y-70741585D01*
X177344786Y-70705109D01*
X177344788Y-70705106D01*
X177344792Y-70705104D01*
X177495104Y-70554792D01*
X177495106Y-70554788D01*
X177495109Y-70554786D01*
X177620048Y-70382820D01*
X177620047Y-70382820D01*
X177620051Y-70382816D01*
X177716557Y-70193412D01*
X177782246Y-69991243D01*
X177815500Y-69781287D01*
X177815500Y-69568713D01*
X177782246Y-69358757D01*
X177716557Y-69156588D01*
X177620051Y-68967184D01*
X177620049Y-68967181D01*
X177620048Y-68967179D01*
X177495109Y-68795213D01*
X177344786Y-68644890D01*
X177172820Y-68519951D01*
X177172115Y-68519591D01*
X177164054Y-68515485D01*
X177113259Y-68467512D01*
X177096463Y-68399692D01*
X177118999Y-68333556D01*
X177164054Y-68294515D01*
X177172816Y-68290051D01*
X177239524Y-68241585D01*
X177344786Y-68165109D01*
X177344788Y-68165106D01*
X177344792Y-68165104D01*
X177495104Y-68014792D01*
X177495106Y-68014788D01*
X177495109Y-68014786D01*
X177620048Y-67842820D01*
X177620047Y-67842820D01*
X177620051Y-67842816D01*
X177716557Y-67653412D01*
X177782246Y-67451243D01*
X177815500Y-67241287D01*
X177815500Y-67028713D01*
X177782246Y-66818757D01*
X177716557Y-66616588D01*
X177620051Y-66427184D01*
X177620049Y-66427181D01*
X177620048Y-66427179D01*
X177495109Y-66255213D01*
X177344786Y-66104890D01*
X177172820Y-65979951D01*
X177172115Y-65979591D01*
X177164054Y-65975485D01*
X177113259Y-65927512D01*
X177096463Y-65859692D01*
X177118999Y-65793556D01*
X177164054Y-65754515D01*
X177172816Y-65750051D01*
X177194789Y-65734086D01*
X177344786Y-65625109D01*
X177344788Y-65625106D01*
X177344792Y-65625104D01*
X177495104Y-65474792D01*
X177495106Y-65474788D01*
X177495109Y-65474786D01*
X177620048Y-65302820D01*
X177620047Y-65302820D01*
X177620051Y-65302816D01*
X177716557Y-65113412D01*
X177782246Y-64911243D01*
X177815500Y-64701287D01*
X177815500Y-64488713D01*
X177782246Y-64278757D01*
X177716557Y-64076588D01*
X177620051Y-63887184D01*
X177620049Y-63887181D01*
X177620048Y-63887179D01*
X177495109Y-63715213D01*
X177344786Y-63564890D01*
X177172820Y-63439951D01*
X177172115Y-63439591D01*
X177164054Y-63435485D01*
X177113259Y-63387512D01*
X177096463Y-63319692D01*
X177118999Y-63253556D01*
X177164054Y-63214515D01*
X177172816Y-63210051D01*
X177194789Y-63194086D01*
X177344786Y-63085109D01*
X177344788Y-63085106D01*
X177344792Y-63085104D01*
X177495104Y-62934792D01*
X177495106Y-62934788D01*
X177495109Y-62934786D01*
X177620048Y-62762820D01*
X177620047Y-62762820D01*
X177620051Y-62762816D01*
X177716557Y-62573412D01*
X177782246Y-62371243D01*
X177815500Y-62161287D01*
X177815500Y-61948713D01*
X177782246Y-61738757D01*
X177716557Y-61536588D01*
X177620051Y-61347184D01*
X177620049Y-61347181D01*
X177620048Y-61347179D01*
X177495109Y-61175213D01*
X177344786Y-61024890D01*
X177172820Y-60899951D01*
X176983414Y-60803444D01*
X176983413Y-60803443D01*
X176983412Y-60803443D01*
X176781243Y-60737754D01*
X176781241Y-60737753D01*
X176781240Y-60737753D01*
X176619957Y-60712208D01*
X176571287Y-60704500D01*
X176358713Y-60704500D01*
X176310042Y-60712208D01*
X176148760Y-60737753D01*
X175946585Y-60803444D01*
X175757179Y-60899951D01*
X175585213Y-61024890D01*
X175434890Y-61175213D01*
X175309951Y-61347179D01*
X175213444Y-61536585D01*
X175147753Y-61738760D01*
X175114500Y-61948713D01*
X92600500Y-61948713D01*
X92600500Y-45619983D01*
X97244500Y-45619983D01*
X97244500Y-46920001D01*
X97244501Y-46920018D01*
X97255000Y-47022796D01*
X97255001Y-47022799D01*
X97310185Y-47189331D01*
X97310187Y-47189336D01*
X97402289Y-47338657D01*
X97526344Y-47462712D01*
X97681120Y-47558178D01*
X97727845Y-47610126D01*
X97739068Y-47679088D01*
X97711224Y-47743171D01*
X97703706Y-47751398D01*
X97564889Y-47890215D01*
X97439951Y-48062179D01*
X97343444Y-48251585D01*
X97277753Y-48453760D01*
X97252812Y-48611231D01*
X97244500Y-48663713D01*
X97244500Y-48876287D01*
X97252811Y-48928760D01*
X97277753Y-49086239D01*
X97343444Y-49288414D01*
X97439951Y-49477820D01*
X97564890Y-49649786D01*
X97715209Y-49800105D01*
X97715214Y-49800109D01*
X97879793Y-49919682D01*
X97922459Y-49975011D01*
X97928438Y-50044625D01*
X97895833Y-50106420D01*
X97879793Y-50120318D01*
X97715214Y-50239890D01*
X97715209Y-50239894D01*
X97564890Y-50390213D01*
X97439951Y-50562179D01*
X97343444Y-50751585D01*
X97277753Y-50953760D01*
X97244500Y-51163713D01*
X97244500Y-51376286D01*
X97277753Y-51586239D01*
X97343444Y-51788414D01*
X97439951Y-51977820D01*
X97564890Y-52149786D01*
X97715209Y-52300105D01*
X97715214Y-52300109D01*
X97880218Y-52419991D01*
X97922884Y-52475320D01*
X97928863Y-52544934D01*
X97896258Y-52606729D01*
X97880218Y-52620627D01*
X97715540Y-52740272D01*
X97715535Y-52740276D01*
X97565276Y-52890535D01*
X97565272Y-52890540D01*
X97440379Y-53062442D01*
X97343904Y-53251782D01*
X97278242Y-53453870D01*
X97278242Y-53453873D01*
X97267769Y-53520000D01*
X98315854Y-53520000D01*
X98277370Y-53586657D01*
X98245000Y-53707465D01*
X98245000Y-53832535D01*
X98277370Y-53953343D01*
X98315854Y-54020000D01*
X97267769Y-54020000D01*
X97278242Y-54086126D01*
X97278242Y-54086129D01*
X97343904Y-54288217D01*
X97440379Y-54477557D01*
X97565272Y-54649459D01*
X97565276Y-54649464D01*
X97715535Y-54799723D01*
X97715540Y-54799727D01*
X97887442Y-54924620D01*
X98076782Y-55021095D01*
X98278872Y-55086757D01*
X98470000Y-55117029D01*
X98470000Y-54174145D01*
X98536657Y-54212630D01*
X98657465Y-54245000D01*
X98782535Y-54245000D01*
X98903343Y-54212630D01*
X98970000Y-54174145D01*
X98970000Y-55117028D01*
X99161127Y-55086757D01*
X99363217Y-55021095D01*
X99552557Y-54924620D01*
X99724459Y-54799727D01*
X99724464Y-54799723D01*
X99874723Y-54649464D01*
X99874727Y-54649459D01*
X99999620Y-54477557D01*
X100096095Y-54288217D01*
X100161757Y-54086129D01*
X100161757Y-54086126D01*
X100172231Y-54020000D01*
X99124146Y-54020000D01*
X99162630Y-53953343D01*
X99195000Y-53832535D01*
X99195000Y-53707465D01*
X99162630Y-53586657D01*
X99124146Y-53520000D01*
X100172231Y-53520000D01*
X100161757Y-53453873D01*
X100161756Y-53453867D01*
X100161600Y-53453386D01*
X100161599Y-53453384D01*
X100151127Y-53421153D01*
X138999500Y-53421153D01*
X138999500Y-53578846D01*
X139030261Y-53733489D01*
X139030264Y-53733501D01*
X139090602Y-53879172D01*
X139090609Y-53879185D01*
X139178210Y-54010288D01*
X139178213Y-54010292D01*
X139289707Y-54121786D01*
X139289711Y-54121789D01*
X139420814Y-54209390D01*
X139420827Y-54209397D01*
X139488961Y-54237618D01*
X139566503Y-54269737D01*
X139674185Y-54291156D01*
X139736092Y-54323539D01*
X139737672Y-54325091D01*
X139953181Y-54540600D01*
X139986666Y-54601923D01*
X139989500Y-54628281D01*
X139989500Y-54960642D01*
X139969815Y-55027681D01*
X139968602Y-55029533D01*
X139907609Y-55120814D01*
X139907602Y-55120827D01*
X139847264Y-55266498D01*
X139847261Y-55266510D01*
X139816500Y-55421153D01*
X139816500Y-55578846D01*
X139847261Y-55733489D01*
X139847264Y-55733501D01*
X139907602Y-55879172D01*
X139907609Y-55879185D01*
X139995210Y-56010288D01*
X139995213Y-56010292D01*
X140106707Y-56121786D01*
X140106711Y-56121789D01*
X140237814Y-56209390D01*
X140237827Y-56209397D01*
X140383498Y-56269735D01*
X140383503Y-56269737D01*
X140538153Y-56300499D01*
X140538156Y-56300500D01*
X140538158Y-56300500D01*
X140695844Y-56300500D01*
X140695845Y-56300499D01*
X140850497Y-56269737D01*
X140996179Y-56209394D01*
X141127289Y-56121789D01*
X141238789Y-56010289D01*
X141326394Y-55879179D01*
X141386737Y-55733497D01*
X141417500Y-55578842D01*
X141417500Y-55421158D01*
X141417500Y-55421155D01*
X141417499Y-55421153D01*
X141386738Y-55266510D01*
X141386737Y-55266503D01*
X141386735Y-55266498D01*
X141326397Y-55120827D01*
X141326390Y-55120814D01*
X141265398Y-55029533D01*
X141244520Y-54962855D01*
X141244500Y-54960642D01*
X141244500Y-54255194D01*
X141220386Y-54133970D01*
X141220385Y-54133969D01*
X141220385Y-54133965D01*
X141200570Y-54086126D01*
X141173086Y-54019773D01*
X141173079Y-54019760D01*
X141104412Y-53916993D01*
X141066591Y-53879172D01*
X141017008Y-53829589D01*
X140625091Y-53437672D01*
X140591606Y-53376349D01*
X140591183Y-53374323D01*
X140569737Y-53266503D01*
X140554651Y-53230082D01*
X140509397Y-53120827D01*
X140509390Y-53120814D01*
X140421789Y-52989711D01*
X140421786Y-52989707D01*
X140310292Y-52878213D01*
X140310288Y-52878210D01*
X140179185Y-52790609D01*
X140179172Y-52790602D01*
X140033501Y-52730264D01*
X140033489Y-52730261D01*
X139878845Y-52699500D01*
X139878842Y-52699500D01*
X139721158Y-52699500D01*
X139721155Y-52699500D01*
X139566510Y-52730261D01*
X139566498Y-52730264D01*
X139420827Y-52790602D01*
X139420814Y-52790609D01*
X139289711Y-52878210D01*
X139289707Y-52878213D01*
X139178213Y-52989707D01*
X139178210Y-52989711D01*
X139090609Y-53120814D01*
X139090602Y-53120827D01*
X139030264Y-53266498D01*
X139030261Y-53266510D01*
X138999500Y-53421153D01*
X100151127Y-53421153D01*
X100096095Y-53251782D01*
X99999620Y-53062442D01*
X99874727Y-52890540D01*
X99874723Y-52890535D01*
X99724464Y-52740276D01*
X99724459Y-52740272D01*
X99559781Y-52620627D01*
X99517115Y-52565297D01*
X99511136Y-52495684D01*
X99543741Y-52433889D01*
X99559776Y-52419994D01*
X99724792Y-52300104D01*
X99875104Y-52149792D01*
X99875106Y-52149788D01*
X99875109Y-52149786D01*
X100000048Y-51977820D01*
X100000047Y-51977820D01*
X100000051Y-51977816D01*
X100096557Y-51788412D01*
X100162246Y-51586243D01*
X100195500Y-51376287D01*
X100195500Y-51163713D01*
X100162246Y-50953757D01*
X100096557Y-50751588D01*
X100000051Y-50562184D01*
X100000049Y-50562181D01*
X100000048Y-50562179D01*
X99875109Y-50390213D01*
X99724792Y-50239896D01*
X99672957Y-50202236D01*
X99560204Y-50120316D01*
X99517540Y-50064989D01*
X99511561Y-49995376D01*
X99544166Y-49933580D01*
X99560199Y-49919686D01*
X99724792Y-49800104D01*
X99875104Y-49649792D01*
X99875106Y-49649788D01*
X99875109Y-49649786D01*
X100000048Y-49477820D01*
X100000047Y-49477820D01*
X100000051Y-49477816D01*
X100096557Y-49288412D01*
X100162246Y-49086243D01*
X100195500Y-48876287D01*
X100195500Y-48663713D01*
X100184615Y-48594991D01*
X100184614Y-48594983D01*
X151159500Y-48594983D01*
X151159500Y-50145001D01*
X151159501Y-50145018D01*
X151170000Y-50247796D01*
X151170001Y-50247799D01*
X151215894Y-50386294D01*
X151225186Y-50414334D01*
X151317288Y-50563656D01*
X151441344Y-50687712D01*
X151590666Y-50779814D01*
X151757203Y-50834999D01*
X151859991Y-50845500D01*
X153160008Y-50845499D01*
X153262797Y-50834999D01*
X153429334Y-50779814D01*
X153578656Y-50687712D01*
X153702712Y-50563656D01*
X153794814Y-50414334D01*
X153794814Y-50414331D01*
X153798178Y-50408879D01*
X153850126Y-50362154D01*
X153919088Y-50350931D01*
X153983170Y-50378774D01*
X153991398Y-50386294D01*
X154130213Y-50525109D01*
X154302179Y-50650048D01*
X154302181Y-50650049D01*
X154302184Y-50650051D01*
X154491588Y-50746557D01*
X154693757Y-50812246D01*
X154903713Y-50845500D01*
X154903714Y-50845500D01*
X155116286Y-50845500D01*
X155116287Y-50845500D01*
X155326243Y-50812246D01*
X155528412Y-50746557D01*
X155717816Y-50650051D01*
X155739789Y-50634086D01*
X155889786Y-50525109D01*
X155889788Y-50525106D01*
X155889792Y-50525104D01*
X156040104Y-50374792D01*
X156159683Y-50210204D01*
X156215011Y-50167540D01*
X156284624Y-50161561D01*
X156346420Y-50194166D01*
X156360313Y-50210199D01*
X156462560Y-50350931D01*
X156479896Y-50374792D01*
X156630213Y-50525109D01*
X156802179Y-50650048D01*
X156802181Y-50650049D01*
X156802184Y-50650051D01*
X156991588Y-50746557D01*
X157193757Y-50812246D01*
X157403713Y-50845500D01*
X157403714Y-50845500D01*
X157616286Y-50845500D01*
X157616287Y-50845500D01*
X157826243Y-50812246D01*
X158028412Y-50746557D01*
X158217816Y-50650051D01*
X158239789Y-50634086D01*
X158389786Y-50525109D01*
X158389788Y-50525106D01*
X158389792Y-50525104D01*
X158540104Y-50374792D01*
X158659683Y-50210204D01*
X158715011Y-50167540D01*
X158784624Y-50161561D01*
X158846420Y-50194166D01*
X158860313Y-50210199D01*
X158962560Y-50350931D01*
X158979896Y-50374792D01*
X159130213Y-50525109D01*
X159302179Y-50650048D01*
X159302181Y-50650049D01*
X159302184Y-50650051D01*
X159491588Y-50746557D01*
X159693757Y-50812246D01*
X159903713Y-50845500D01*
X159903714Y-50845500D01*
X160116286Y-50845500D01*
X160116287Y-50845500D01*
X160326243Y-50812246D01*
X160528412Y-50746557D01*
X160717816Y-50650051D01*
X160739789Y-50634086D01*
X160889786Y-50525109D01*
X160889788Y-50525106D01*
X160889792Y-50525104D01*
X161040104Y-50374792D01*
X161040106Y-50374788D01*
X161040109Y-50374786D01*
X161165048Y-50202820D01*
X161165047Y-50202820D01*
X161165051Y-50202816D01*
X161261557Y-50013412D01*
X161327246Y-49811243D01*
X161360500Y-49601287D01*
X161360500Y-49138713D01*
X161327246Y-48928757D01*
X161261557Y-48726588D01*
X161165051Y-48537184D01*
X161165049Y-48537181D01*
X161165048Y-48537179D01*
X161040109Y-48365213D01*
X160889786Y-48214890D01*
X160717820Y-48089951D01*
X160528414Y-47993444D01*
X160528413Y-47993443D01*
X160528412Y-47993443D01*
X160326243Y-47927754D01*
X160326241Y-47927753D01*
X160326240Y-47927753D01*
X160164957Y-47902208D01*
X160116287Y-47894500D01*
X159903713Y-47894500D01*
X159855042Y-47902208D01*
X159693760Y-47927753D01*
X159491585Y-47993444D01*
X159302179Y-48089951D01*
X159130213Y-48214890D01*
X158979894Y-48365209D01*
X158979890Y-48365214D01*
X158860318Y-48529793D01*
X158804989Y-48572459D01*
X158735375Y-48578438D01*
X158673580Y-48545833D01*
X158659682Y-48529793D01*
X158540109Y-48365214D01*
X158540105Y-48365209D01*
X158389786Y-48214890D01*
X158217820Y-48089951D01*
X158028414Y-47993444D01*
X158028413Y-47993443D01*
X158028412Y-47993443D01*
X157826243Y-47927754D01*
X157826241Y-47927753D01*
X157826240Y-47927753D01*
X157664957Y-47902208D01*
X157616287Y-47894500D01*
X157403713Y-47894500D01*
X157355042Y-47902208D01*
X157193760Y-47927753D01*
X156991585Y-47993444D01*
X156802179Y-48089951D01*
X156630213Y-48214890D01*
X156479894Y-48365209D01*
X156479890Y-48365214D01*
X156360318Y-48529793D01*
X156304989Y-48572459D01*
X156235375Y-48578438D01*
X156173580Y-48545833D01*
X156159682Y-48529793D01*
X156040109Y-48365214D01*
X156040105Y-48365209D01*
X155889786Y-48214890D01*
X155717820Y-48089951D01*
X155528414Y-47993444D01*
X155528413Y-47993443D01*
X155528412Y-47993443D01*
X155326243Y-47927754D01*
X155326241Y-47927753D01*
X155326240Y-47927753D01*
X155164957Y-47902208D01*
X155116287Y-47894500D01*
X154903713Y-47894500D01*
X154855042Y-47902208D01*
X154693760Y-47927753D01*
X154491585Y-47993444D01*
X154302179Y-48089951D01*
X154130215Y-48214889D01*
X153991398Y-48353706D01*
X153930075Y-48387190D01*
X153860383Y-48382206D01*
X153804450Y-48340334D01*
X153798178Y-48331120D01*
X153702712Y-48176344D01*
X153578657Y-48052289D01*
X153578656Y-48052288D01*
X153441711Y-47967820D01*
X153429336Y-47960187D01*
X153429331Y-47960185D01*
X153427862Y-47959698D01*
X153262797Y-47905001D01*
X153262795Y-47905000D01*
X153160010Y-47894500D01*
X151859998Y-47894500D01*
X151859981Y-47894501D01*
X151757203Y-47905000D01*
X151757200Y-47905001D01*
X151590668Y-47960185D01*
X151590663Y-47960187D01*
X151441342Y-48052289D01*
X151317289Y-48176342D01*
X151225187Y-48325663D01*
X151225185Y-48325668D01*
X151220325Y-48340334D01*
X151170001Y-48492203D01*
X151170001Y-48492204D01*
X151170000Y-48492204D01*
X151159500Y-48594983D01*
X100184614Y-48594983D01*
X100170553Y-48506203D01*
X100162246Y-48453757D01*
X100096557Y-48251588D01*
X100000051Y-48062184D01*
X100000049Y-48062181D01*
X100000048Y-48062179D01*
X99875109Y-47890213D01*
X99736294Y-47751398D01*
X99702809Y-47690075D01*
X99707793Y-47620383D01*
X99749665Y-47564450D01*
X99758879Y-47558178D01*
X99764331Y-47554814D01*
X99764334Y-47554814D01*
X99913656Y-47462712D01*
X100037712Y-47338656D01*
X100129814Y-47189334D01*
X100184999Y-47022797D01*
X100195500Y-46920009D01*
X100195499Y-45619992D01*
X100184999Y-45517203D01*
X100129814Y-45350666D01*
X100037712Y-45201344D01*
X99971627Y-45135259D01*
X106349500Y-45135259D01*
X106349500Y-45364742D01*
X106369573Y-45517200D01*
X106379452Y-45592239D01*
X106386890Y-45619998D01*
X106438842Y-45813888D01*
X106526650Y-46025877D01*
X106526657Y-46025891D01*
X106641392Y-46224618D01*
X106781081Y-46406662D01*
X106781089Y-46406671D01*
X106943330Y-46568912D01*
X106943338Y-46568919D01*
X107125382Y-46708608D01*
X107125385Y-46708609D01*
X107125388Y-46708612D01*
X107324112Y-46823345D01*
X107324117Y-46823347D01*
X107324123Y-46823350D01*
X107415480Y-46861191D01*
X107536113Y-46911159D01*
X107757762Y-46970549D01*
X107985266Y-47000501D01*
X107985273Y-47000501D01*
X108214727Y-47000501D01*
X108214734Y-47000501D01*
X108442238Y-46970549D01*
X108663887Y-46911159D01*
X108875888Y-46823345D01*
X109074612Y-46708612D01*
X109256661Y-46568920D01*
X109256665Y-46568915D01*
X109256670Y-46568912D01*
X109418911Y-46406671D01*
X109418914Y-46406666D01*
X109418919Y-46406662D01*
X109558611Y-46224613D01*
X109673344Y-46025889D01*
X109761158Y-45813888D01*
X109820548Y-45592239D01*
X109850500Y-45364735D01*
X109850500Y-45135267D01*
X109850499Y-45135259D01*
X164349500Y-45135259D01*
X164349500Y-45364742D01*
X164369573Y-45517200D01*
X164379452Y-45592239D01*
X164386890Y-45619998D01*
X164438842Y-45813888D01*
X164526650Y-46025877D01*
X164526657Y-46025891D01*
X164641392Y-46224618D01*
X164781081Y-46406662D01*
X164781089Y-46406671D01*
X164943330Y-46568912D01*
X164943338Y-46568919D01*
X165125382Y-46708608D01*
X165125385Y-46708609D01*
X165125388Y-46708612D01*
X165324112Y-46823345D01*
X165324117Y-46823347D01*
X165324123Y-46823350D01*
X165415480Y-46861191D01*
X165536113Y-46911159D01*
X165757762Y-46970549D01*
X165985266Y-47000501D01*
X165985273Y-47000501D01*
X166214727Y-47000501D01*
X166214734Y-47000501D01*
X166442238Y-46970549D01*
X166663887Y-46911159D01*
X166875888Y-46823345D01*
X167074612Y-46708612D01*
X167256661Y-46568920D01*
X167256665Y-46568915D01*
X167256670Y-46568912D01*
X167418911Y-46406671D01*
X167418914Y-46406666D01*
X167418919Y-46406662D01*
X167558611Y-46224613D01*
X167673344Y-46025889D01*
X167761158Y-45813888D01*
X167820548Y-45592239D01*
X167850500Y-45364735D01*
X167850500Y-45135267D01*
X167820548Y-44907763D01*
X167761158Y-44686114D01*
X167697642Y-44532774D01*
X167673349Y-44474124D01*
X167673346Y-44474118D01*
X167673344Y-44474113D01*
X167558611Y-44275389D01*
X167558608Y-44275386D01*
X167558607Y-44275383D01*
X167418918Y-44093339D01*
X167418911Y-44093331D01*
X167256670Y-43931090D01*
X167256661Y-43931082D01*
X167074617Y-43791393D01*
X166875890Y-43676658D01*
X166875876Y-43676651D01*
X166663887Y-43588843D01*
X166442238Y-43529453D01*
X166404215Y-43524447D01*
X166214741Y-43499501D01*
X166214734Y-43499501D01*
X165985266Y-43499501D01*
X165985258Y-43499501D01*
X165768715Y-43528010D01*
X165757762Y-43529453D01*
X165664076Y-43554555D01*
X165536112Y-43588843D01*
X165324123Y-43676651D01*
X165324109Y-43676658D01*
X165125382Y-43791393D01*
X164943338Y-43931082D01*
X164781081Y-44093339D01*
X164641392Y-44275383D01*
X164526657Y-44474110D01*
X164526650Y-44474124D01*
X164438842Y-44686113D01*
X164379453Y-44907760D01*
X164379451Y-44907771D01*
X164349500Y-45135259D01*
X109850499Y-45135259D01*
X109820548Y-44907763D01*
X109761158Y-44686114D01*
X109697642Y-44532774D01*
X109673349Y-44474124D01*
X109673346Y-44474118D01*
X109673344Y-44474113D01*
X109558611Y-44275389D01*
X109558608Y-44275386D01*
X109558607Y-44275383D01*
X109418918Y-44093339D01*
X109418911Y-44093331D01*
X109256670Y-43931090D01*
X109256661Y-43931082D01*
X109074617Y-43791393D01*
X108875890Y-43676658D01*
X108875876Y-43676651D01*
X108663887Y-43588843D01*
X108442238Y-43529453D01*
X108404215Y-43524447D01*
X108214741Y-43499501D01*
X108214734Y-43499501D01*
X107985266Y-43499501D01*
X107985258Y-43499501D01*
X107768715Y-43528010D01*
X107757762Y-43529453D01*
X107664076Y-43554555D01*
X107536112Y-43588843D01*
X107324123Y-43676651D01*
X107324109Y-43676658D01*
X107125382Y-43791393D01*
X106943338Y-43931082D01*
X106781081Y-44093339D01*
X106641392Y-44275383D01*
X106526657Y-44474110D01*
X106526650Y-44474124D01*
X106438842Y-44686113D01*
X106379453Y-44907760D01*
X106379451Y-44907771D01*
X106349500Y-45135259D01*
X99971627Y-45135259D01*
X99913656Y-45077288D01*
X99764334Y-44985186D01*
X99597797Y-44930001D01*
X99597795Y-44930000D01*
X99495010Y-44919500D01*
X97944998Y-44919500D01*
X97944981Y-44919501D01*
X97842203Y-44930000D01*
X97842200Y-44930001D01*
X97675668Y-44985185D01*
X97675663Y-44985187D01*
X97526342Y-45077289D01*
X97402289Y-45201342D01*
X97310187Y-45350663D01*
X97310185Y-45350668D01*
X97284621Y-45427816D01*
X97255001Y-45517203D01*
X97255001Y-45517204D01*
X97255000Y-45517204D01*
X97244500Y-45619983D01*
X92600500Y-45619983D01*
X92600500Y-39142135D01*
X114809500Y-39142135D01*
X114809500Y-40937870D01*
X114809501Y-40937876D01*
X114815908Y-40997483D01*
X114866202Y-41132328D01*
X114866206Y-41132335D01*
X114952452Y-41247544D01*
X114952455Y-41247547D01*
X115067664Y-41333793D01*
X115067671Y-41333797D01*
X115202517Y-41384091D01*
X115202516Y-41384091D01*
X115209444Y-41384835D01*
X115262127Y-41390500D01*
X117057872Y-41390499D01*
X117117483Y-41384091D01*
X117252331Y-41333796D01*
X117367546Y-41247546D01*
X117453796Y-41132331D01*
X117502810Y-41000916D01*
X117544681Y-40944984D01*
X117610145Y-40920566D01*
X117678418Y-40935417D01*
X117706673Y-40956569D01*
X117820213Y-41070109D01*
X117992179Y-41195048D01*
X117992181Y-41195049D01*
X117992184Y-41195051D01*
X118181588Y-41291557D01*
X118383757Y-41357246D01*
X118593713Y-41390500D01*
X118593714Y-41390500D01*
X118806286Y-41390500D01*
X118806287Y-41390500D01*
X119016243Y-41357246D01*
X119218412Y-41291557D01*
X119407816Y-41195051D01*
X119494138Y-41132335D01*
X119579786Y-41070109D01*
X119579788Y-41070106D01*
X119579792Y-41070104D01*
X119730104Y-40919792D01*
X119730106Y-40919788D01*
X119730109Y-40919786D01*
X119817695Y-40799232D01*
X119855051Y-40747816D01*
X119859793Y-40738508D01*
X119907763Y-40687711D01*
X119975583Y-40670911D01*
X120041719Y-40693445D01*
X120080763Y-40738500D01*
X120085377Y-40747555D01*
X120210272Y-40919459D01*
X120210276Y-40919464D01*
X120360535Y-41069723D01*
X120360540Y-41069727D01*
X120532442Y-41194620D01*
X120721782Y-41291095D01*
X120923871Y-41356757D01*
X120990000Y-41367231D01*
X120990000Y-40473012D01*
X121047007Y-40505925D01*
X121174174Y-40540000D01*
X121305826Y-40540000D01*
X121432993Y-40505925D01*
X121490000Y-40473012D01*
X121490000Y-41367230D01*
X121556126Y-41356757D01*
X121556129Y-41356757D01*
X121758217Y-41291095D01*
X121947557Y-41194620D01*
X122119459Y-41069727D01*
X122119464Y-41069723D01*
X122269723Y-40919464D01*
X122269727Y-40919459D01*
X122394620Y-40747558D01*
X122399232Y-40738507D01*
X122447205Y-40687709D01*
X122515025Y-40670912D01*
X122581161Y-40693447D01*
X122620204Y-40738504D01*
X122624949Y-40747817D01*
X122749890Y-40919786D01*
X122900213Y-41070109D01*
X123072179Y-41195048D01*
X123072181Y-41195049D01*
X123072184Y-41195051D01*
X123261588Y-41291557D01*
X123463757Y-41357246D01*
X123673713Y-41390500D01*
X123673714Y-41390500D01*
X123886286Y-41390500D01*
X123886287Y-41390500D01*
X124096243Y-41357246D01*
X124298412Y-41291557D01*
X124487816Y-41195051D01*
X124574138Y-41132335D01*
X124659786Y-41070109D01*
X124659788Y-41070106D01*
X124659792Y-41070104D01*
X124810104Y-40919792D01*
X124810106Y-40919788D01*
X124810109Y-40919786D01*
X124935048Y-40747820D01*
X124935047Y-40747820D01*
X124935051Y-40747816D01*
X125031557Y-40558412D01*
X125097246Y-40356243D01*
X125130500Y-40146287D01*
X125130500Y-39933713D01*
X125097246Y-39723757D01*
X125031557Y-39521588D01*
X124935051Y-39332184D01*
X124935049Y-39332181D01*
X124935048Y-39332179D01*
X124810109Y-39160213D01*
X124659786Y-39009890D01*
X124487820Y-38884951D01*
X124298414Y-38788444D01*
X124298413Y-38788443D01*
X124298412Y-38788443D01*
X124096243Y-38722754D01*
X124096241Y-38722753D01*
X124096240Y-38722753D01*
X123934957Y-38697208D01*
X123886287Y-38689500D01*
X123673713Y-38689500D01*
X123625042Y-38697208D01*
X123463760Y-38722753D01*
X123261585Y-38788444D01*
X123072179Y-38884951D01*
X122900213Y-39009890D01*
X122749890Y-39160213D01*
X122624949Y-39332182D01*
X122620202Y-39341499D01*
X122572227Y-39392293D01*
X122504405Y-39409087D01*
X122438271Y-39386548D01*
X122399234Y-39341495D01*
X122394622Y-39332444D01*
X122269727Y-39160540D01*
X122269723Y-39160535D01*
X122119464Y-39010276D01*
X122119459Y-39010272D01*
X121947557Y-38885379D01*
X121758215Y-38788903D01*
X121556124Y-38723241D01*
X121490000Y-38712768D01*
X121490000Y-39606988D01*
X121432993Y-39574075D01*
X121305826Y-39540000D01*
X121174174Y-39540000D01*
X121047007Y-39574075D01*
X120990000Y-39606988D01*
X120990000Y-38712768D01*
X120989999Y-38712768D01*
X120923875Y-38723241D01*
X120721784Y-38788903D01*
X120532442Y-38885379D01*
X120360540Y-39010272D01*
X120360535Y-39010276D01*
X120210276Y-39160535D01*
X120210272Y-39160540D01*
X120085378Y-39332443D01*
X120080762Y-39341502D01*
X120032784Y-39392295D01*
X119964963Y-39409087D01*
X119898829Y-39386546D01*
X119859794Y-39341493D01*
X119855051Y-39332184D01*
X119855049Y-39332181D01*
X119855048Y-39332179D01*
X119730109Y-39160213D01*
X119579786Y-39009890D01*
X119407820Y-38884951D01*
X119218414Y-38788444D01*
X119218413Y-38788443D01*
X119218412Y-38788443D01*
X119016243Y-38722754D01*
X119016241Y-38722753D01*
X119016240Y-38722753D01*
X118854957Y-38697208D01*
X118806287Y-38689500D01*
X118593713Y-38689500D01*
X118545042Y-38697208D01*
X118383760Y-38722753D01*
X118181585Y-38788444D01*
X117992179Y-38884951D01*
X117820215Y-39009889D01*
X117706673Y-39123431D01*
X117645350Y-39156915D01*
X117575658Y-39151931D01*
X117519725Y-39110059D01*
X117502810Y-39079082D01*
X117453797Y-38947671D01*
X117453793Y-38947664D01*
X117367547Y-38832455D01*
X117367544Y-38832452D01*
X117252335Y-38746206D01*
X117252328Y-38746202D01*
X117117482Y-38695908D01*
X117117483Y-38695908D01*
X117057883Y-38689501D01*
X117057881Y-38689500D01*
X117057873Y-38689500D01*
X117057864Y-38689500D01*
X115262129Y-38689500D01*
X115262123Y-38689501D01*
X115202516Y-38695908D01*
X115067671Y-38746202D01*
X115067664Y-38746206D01*
X114952455Y-38832452D01*
X114952452Y-38832455D01*
X114866206Y-38947664D01*
X114866202Y-38947671D01*
X114815908Y-39082517D01*
X114809501Y-39142116D01*
X114809500Y-39142135D01*
X92600500Y-39142135D01*
X92600500Y-34373920D01*
X135429499Y-34373920D01*
X135458340Y-34518907D01*
X135458343Y-34518917D01*
X135514912Y-34655488D01*
X135514919Y-34655501D01*
X135597048Y-34778415D01*
X135597051Y-34778419D01*
X135701580Y-34882948D01*
X135701584Y-34882951D01*
X135824498Y-34965080D01*
X135824511Y-34965087D01*
X135961082Y-35021656D01*
X135961087Y-35021658D01*
X135961091Y-35021658D01*
X135961092Y-35021659D01*
X136106079Y-35050500D01*
X136106082Y-35050500D01*
X136253920Y-35050500D01*
X136351462Y-35031096D01*
X136398913Y-35021658D01*
X136535495Y-34965084D01*
X136658416Y-34882951D01*
X136762951Y-34778416D01*
X136845084Y-34655495D01*
X136901658Y-34518913D01*
X136930500Y-34373920D01*
X139829499Y-34373920D01*
X139858340Y-34518907D01*
X139858343Y-34518917D01*
X139914912Y-34655488D01*
X139914919Y-34655501D01*
X139997048Y-34778415D01*
X139997051Y-34778419D01*
X140101580Y-34882948D01*
X140101584Y-34882951D01*
X140224498Y-34965080D01*
X140224511Y-34965087D01*
X140361082Y-35021656D01*
X140361087Y-35021658D01*
X140361091Y-35021658D01*
X140361092Y-35021659D01*
X140506079Y-35050500D01*
X140506082Y-35050500D01*
X140653920Y-35050500D01*
X140751462Y-35031096D01*
X140798913Y-35021658D01*
X140935495Y-34965084D01*
X141058416Y-34882951D01*
X141162951Y-34778416D01*
X141245084Y-34655495D01*
X141301658Y-34518913D01*
X141309509Y-34479443D01*
X141314627Y-34453713D01*
X177149500Y-34453713D01*
X177149500Y-34666286D01*
X177167259Y-34778416D01*
X177182754Y-34876243D01*
X177230002Y-35021658D01*
X177248444Y-35078414D01*
X177344951Y-35267820D01*
X177469890Y-35439786D01*
X177620213Y-35590109D01*
X177792182Y-35715050D01*
X177800946Y-35719516D01*
X177851742Y-35767491D01*
X177868536Y-35835312D01*
X177845998Y-35901447D01*
X177800946Y-35940484D01*
X177792182Y-35944949D01*
X177620213Y-36069890D01*
X177469890Y-36220213D01*
X177344951Y-36392179D01*
X177248444Y-36581585D01*
X177182753Y-36783760D01*
X177149500Y-36993713D01*
X177149500Y-37206286D01*
X177182753Y-37416239D01*
X177248444Y-37618414D01*
X177344951Y-37807820D01*
X177469890Y-37979786D01*
X177620213Y-38130109D01*
X177792179Y-38255048D01*
X177792181Y-38255049D01*
X177792184Y-38255051D01*
X177801493Y-38259794D01*
X177852290Y-38307766D01*
X177869087Y-38375587D01*
X177846552Y-38441722D01*
X177801502Y-38480762D01*
X177792443Y-38485378D01*
X177620540Y-38610272D01*
X177620535Y-38610276D01*
X177470276Y-38760535D01*
X177470272Y-38760540D01*
X177345379Y-38932442D01*
X177248904Y-39121782D01*
X177183242Y-39323870D01*
X177183242Y-39323873D01*
X177172769Y-39390000D01*
X178066988Y-39390000D01*
X178034075Y-39447007D01*
X178000000Y-39574174D01*
X178000000Y-39705826D01*
X178034075Y-39832993D01*
X178066988Y-39890000D01*
X177172769Y-39890000D01*
X177183242Y-39956126D01*
X177183242Y-39956129D01*
X177248904Y-40158217D01*
X177345379Y-40347557D01*
X177470272Y-40519459D01*
X177470276Y-40519464D01*
X177620535Y-40669723D01*
X177620540Y-40669727D01*
X177792444Y-40794622D01*
X177801495Y-40799234D01*
X177852292Y-40847208D01*
X177869087Y-40915029D01*
X177846550Y-40981164D01*
X177801499Y-41020202D01*
X177792182Y-41024949D01*
X177620213Y-41149890D01*
X177469890Y-41300213D01*
X177344951Y-41472179D01*
X177248444Y-41661585D01*
X177182753Y-41863760D01*
X177149500Y-42073713D01*
X177149500Y-42286286D01*
X177182753Y-42496239D01*
X177248444Y-42698414D01*
X177344951Y-42887820D01*
X177469890Y-43059786D01*
X177620213Y-43210109D01*
X177792182Y-43335050D01*
X177800946Y-43339516D01*
X177851742Y-43387491D01*
X177868536Y-43455312D01*
X177845998Y-43521447D01*
X177800946Y-43560484D01*
X177792182Y-43564949D01*
X177620213Y-43689890D01*
X177469890Y-43840213D01*
X177344951Y-44012179D01*
X177248444Y-44201585D01*
X177182753Y-44403760D01*
X177149500Y-44613713D01*
X177149500Y-44826286D01*
X177182150Y-45032433D01*
X177182754Y-45036243D01*
X177236398Y-45201342D01*
X177248444Y-45238414D01*
X177344951Y-45427820D01*
X177469890Y-45599786D01*
X177620213Y-45750109D01*
X177792182Y-45875050D01*
X177800946Y-45879516D01*
X177851742Y-45927491D01*
X177868536Y-45995312D01*
X177845998Y-46061447D01*
X177800946Y-46100484D01*
X177792182Y-46104949D01*
X177620213Y-46229890D01*
X177469890Y-46380213D01*
X177344951Y-46552179D01*
X177248444Y-46741585D01*
X177182753Y-46943760D01*
X177149500Y-47153713D01*
X177149500Y-47366286D01*
X177179892Y-47558178D01*
X177182754Y-47576243D01*
X177236992Y-47743171D01*
X177248444Y-47778414D01*
X177344951Y-47967820D01*
X177469890Y-48139786D01*
X177583430Y-48253326D01*
X177616915Y-48314649D01*
X177611931Y-48384341D01*
X177570059Y-48440274D01*
X177539083Y-48457189D01*
X177407669Y-48506203D01*
X177407664Y-48506206D01*
X177292455Y-48592452D01*
X177292452Y-48592455D01*
X177206206Y-48707664D01*
X177206202Y-48707671D01*
X177155908Y-48842517D01*
X177152278Y-48876286D01*
X177149501Y-48902123D01*
X177149500Y-48902135D01*
X177149500Y-50697870D01*
X177149501Y-50697876D01*
X177155908Y-50757483D01*
X177206202Y-50892328D01*
X177206206Y-50892335D01*
X177292452Y-51007544D01*
X177292455Y-51007547D01*
X177407664Y-51093793D01*
X177407671Y-51093797D01*
X177542517Y-51144091D01*
X177542516Y-51144091D01*
X177549444Y-51144835D01*
X177602127Y-51150500D01*
X179397872Y-51150499D01*
X179457483Y-51144091D01*
X179592331Y-51093796D01*
X179707546Y-51007546D01*
X179793796Y-50892331D01*
X179844091Y-50757483D01*
X179850500Y-50697873D01*
X179850499Y-48902128D01*
X179844091Y-48842517D01*
X179800852Y-48726588D01*
X179793797Y-48707671D01*
X179793793Y-48707664D01*
X179707547Y-48592455D01*
X179707544Y-48592452D01*
X179592335Y-48506206D01*
X179592328Y-48506202D01*
X179460917Y-48457189D01*
X179404983Y-48415318D01*
X179380566Y-48349853D01*
X179395418Y-48281580D01*
X179416563Y-48253332D01*
X179530104Y-48139792D01*
X179655051Y-47967816D01*
X179751557Y-47778412D01*
X179817246Y-47576243D01*
X179850500Y-47366287D01*
X179850500Y-47153713D01*
X179817246Y-46943757D01*
X179751557Y-46741588D01*
X179655051Y-46552184D01*
X179655049Y-46552181D01*
X179655048Y-46552179D01*
X179530109Y-46380213D01*
X179379786Y-46229890D01*
X179207820Y-46104951D01*
X179207115Y-46104591D01*
X179199054Y-46100485D01*
X179148259Y-46052512D01*
X179131463Y-45984692D01*
X179153999Y-45918556D01*
X179199054Y-45879515D01*
X179207816Y-45875051D01*
X179270688Y-45829372D01*
X179379786Y-45750109D01*
X179379788Y-45750106D01*
X179379792Y-45750104D01*
X179530104Y-45599792D01*
X179530106Y-45599788D01*
X179530109Y-45599786D01*
X179655048Y-45427820D01*
X179655047Y-45427820D01*
X179655051Y-45427816D01*
X179751557Y-45238412D01*
X179817246Y-45036243D01*
X179850500Y-44826287D01*
X179850500Y-44613713D01*
X179817246Y-44403757D01*
X179751557Y-44201588D01*
X179655051Y-44012184D01*
X179655049Y-44012181D01*
X179655048Y-44012179D01*
X179530109Y-43840213D01*
X179379786Y-43689890D01*
X179207820Y-43564951D01*
X179207115Y-43564591D01*
X179199054Y-43560485D01*
X179148259Y-43512512D01*
X179131463Y-43444692D01*
X179153999Y-43378556D01*
X179199054Y-43339515D01*
X179207816Y-43335051D01*
X179229789Y-43319086D01*
X179379786Y-43210109D01*
X179379788Y-43210106D01*
X179379792Y-43210104D01*
X179530104Y-43059792D01*
X179530106Y-43059788D01*
X179530109Y-43059786D01*
X179655048Y-42887820D01*
X179655047Y-42887820D01*
X179655051Y-42887816D01*
X179751557Y-42698412D01*
X179817246Y-42496243D01*
X179850500Y-42286287D01*
X179850500Y-42073713D01*
X179817246Y-41863757D01*
X179751557Y-41661588D01*
X179655051Y-41472184D01*
X179655049Y-41472181D01*
X179655048Y-41472179D01*
X179530109Y-41300213D01*
X179379786Y-41149890D01*
X179207817Y-41024949D01*
X179198504Y-41020204D01*
X179147707Y-40972230D01*
X179130912Y-40904409D01*
X179153449Y-40838274D01*
X179198507Y-40799232D01*
X179207558Y-40794620D01*
X179379459Y-40669727D01*
X179379464Y-40669723D01*
X179529723Y-40519464D01*
X179529727Y-40519459D01*
X179654620Y-40347557D01*
X179751095Y-40158217D01*
X179816757Y-39956129D01*
X179816757Y-39956126D01*
X179827231Y-39890000D01*
X178933012Y-39890000D01*
X178965925Y-39832993D01*
X179000000Y-39705826D01*
X179000000Y-39574174D01*
X178965925Y-39447007D01*
X178933012Y-39390000D01*
X179827231Y-39390000D01*
X179816757Y-39323873D01*
X179816757Y-39323870D01*
X179751095Y-39121782D01*
X179654620Y-38932442D01*
X179529727Y-38760540D01*
X179529723Y-38760535D01*
X179379464Y-38610276D01*
X179379459Y-38610272D01*
X179207555Y-38485377D01*
X179198500Y-38480763D01*
X179147706Y-38432788D01*
X179130912Y-38364966D01*
X179153451Y-38298832D01*
X179198508Y-38259793D01*
X179207816Y-38255051D01*
X179287007Y-38197515D01*
X179379786Y-38130109D01*
X179379788Y-38130106D01*
X179379792Y-38130104D01*
X179530104Y-37979792D01*
X179530106Y-37979788D01*
X179530109Y-37979786D01*
X179655048Y-37807820D01*
X179655047Y-37807820D01*
X179655051Y-37807816D01*
X179751557Y-37618412D01*
X179817246Y-37416243D01*
X179850500Y-37206287D01*
X179850500Y-36993713D01*
X179817246Y-36783757D01*
X179751557Y-36581588D01*
X179655051Y-36392184D01*
X179655049Y-36392181D01*
X179655048Y-36392179D01*
X179530109Y-36220213D01*
X179379786Y-36069890D01*
X179207820Y-35944951D01*
X179207115Y-35944591D01*
X179199054Y-35940485D01*
X179148259Y-35892512D01*
X179131463Y-35824692D01*
X179153999Y-35758556D01*
X179199054Y-35719515D01*
X179207816Y-35715051D01*
X179229789Y-35699086D01*
X179379786Y-35590109D01*
X179379788Y-35590106D01*
X179379792Y-35590104D01*
X179530104Y-35439792D01*
X179530106Y-35439788D01*
X179530109Y-35439786D01*
X179655048Y-35267820D01*
X179655047Y-35267820D01*
X179655051Y-35267816D01*
X179751557Y-35078412D01*
X179817246Y-34876243D01*
X179850500Y-34666287D01*
X179850500Y-34453713D01*
X179817246Y-34243757D01*
X179751557Y-34041588D01*
X179655051Y-33852184D01*
X179655049Y-33852181D01*
X179655048Y-33852179D01*
X179530109Y-33680213D01*
X179379786Y-33529890D01*
X179207820Y-33404951D01*
X179018414Y-33308444D01*
X179018413Y-33308443D01*
X179018412Y-33308443D01*
X178816243Y-33242754D01*
X178816241Y-33242753D01*
X178816240Y-33242753D01*
X178654957Y-33217208D01*
X178606287Y-33209500D01*
X178393713Y-33209500D01*
X178345042Y-33217208D01*
X178183760Y-33242753D01*
X177981585Y-33308444D01*
X177792179Y-33404951D01*
X177620213Y-33529890D01*
X177469890Y-33680213D01*
X177344951Y-33852179D01*
X177248444Y-34041585D01*
X177182753Y-34243760D01*
X177149500Y-34453713D01*
X141314627Y-34453713D01*
X141320409Y-34424649D01*
X141330500Y-34373920D01*
X141330500Y-34226079D01*
X141301659Y-34081092D01*
X141301658Y-34081091D01*
X141301658Y-34081087D01*
X141285296Y-34041585D01*
X141245087Y-33944511D01*
X141245080Y-33944498D01*
X141162951Y-33821584D01*
X141162948Y-33821580D01*
X141058419Y-33717051D01*
X141058415Y-33717048D01*
X140935501Y-33634919D01*
X140935488Y-33634912D01*
X140798917Y-33578343D01*
X140798907Y-33578340D01*
X140653920Y-33549500D01*
X140653918Y-33549500D01*
X140506082Y-33549500D01*
X140506080Y-33549500D01*
X140361092Y-33578340D01*
X140361082Y-33578343D01*
X140224511Y-33634912D01*
X140224498Y-33634919D01*
X140101584Y-33717048D01*
X140101580Y-33717051D01*
X139997051Y-33821580D01*
X139997048Y-33821584D01*
X139914919Y-33944498D01*
X139914912Y-33944511D01*
X139858343Y-34081082D01*
X139858340Y-34081092D01*
X139829500Y-34226079D01*
X139829500Y-34226082D01*
X139829500Y-34373918D01*
X139829500Y-34373920D01*
X139829499Y-34373920D01*
X136930500Y-34373920D01*
X136930500Y-34373918D01*
X136930500Y-34226082D01*
X136930500Y-34226079D01*
X136901659Y-34081092D01*
X136901658Y-34081091D01*
X136901658Y-34081087D01*
X136885296Y-34041585D01*
X136845087Y-33944511D01*
X136845080Y-33944498D01*
X136762951Y-33821584D01*
X136762948Y-33821580D01*
X136658419Y-33717051D01*
X136658415Y-33717048D01*
X136535501Y-33634919D01*
X136535488Y-33634912D01*
X136398917Y-33578343D01*
X136398907Y-33578340D01*
X136253920Y-33549500D01*
X136253918Y-33549500D01*
X136106082Y-33549500D01*
X136106080Y-33549500D01*
X135961092Y-33578340D01*
X135961082Y-33578343D01*
X135824511Y-33634912D01*
X135824498Y-33634919D01*
X135701584Y-33717048D01*
X135701580Y-33717051D01*
X135597051Y-33821580D01*
X135597048Y-33821584D01*
X135514919Y-33944498D01*
X135514912Y-33944511D01*
X135458343Y-34081082D01*
X135458340Y-34081092D01*
X135429500Y-34226079D01*
X135429500Y-34226082D01*
X135429500Y-34373918D01*
X135429500Y-34373920D01*
X135429499Y-34373920D01*
X92600500Y-34373920D01*
X92600500Y-32753751D01*
X92600726Y-32746264D01*
X92618271Y-32456206D01*
X92620076Y-32441341D01*
X92671780Y-32159203D01*
X92675364Y-32144665D01*
X92760696Y-31870822D01*
X92765998Y-31856842D01*
X92883727Y-31595256D01*
X92890678Y-31582011D01*
X93039079Y-31336527D01*
X93047566Y-31324231D01*
X93224480Y-31098417D01*
X93234395Y-31087226D01*
X93437226Y-30884396D01*
X93448417Y-30874481D01*
X93674230Y-30697567D01*
X93686526Y-30689080D01*
X93932016Y-30540676D01*
X93945249Y-30533731D01*
X94206841Y-30415998D01*
X94220821Y-30410696D01*
X94494668Y-30325362D01*
X94509198Y-30321780D01*
X94791344Y-30270075D01*
X94806201Y-30268271D01*
X95096248Y-30250727D01*
X95103735Y-30250501D01*
X95165893Y-30250501D01*
X179034108Y-30250501D01*
X179096249Y-30250501D01*
X179103736Y-30250727D01*
G37*
%TD.AperFunction*%
%TD*%
M02*
