M48
; DRILL file {KiCad 9.0.1} date 2025-05-06T12:52:50-0600
; FORMAT={-:-/ absolute / metric / decimal}
; #@! TF.CreationDate,2025-05-06T12:52:50-06:00
; #@! TF.GenerationSoftware,Kicad,Pcbnew,9.0.1
; #@! TF.FileFunction,Plated,1,2,PTH
FMAT,2
METRIC
; #@! TA.AperFunction,Plated,PTH,ViaDrill
T1C0.300
; #@! TA.AperFunction,Plated,PTH,ComponentDrill
T2C0.950
; #@! TA.AperFunction,Plated,PTH,ComponentDrill
T3C1.000
%
G90
G05
T1
X99.4Y-93.3
X100.0Y-94.3
X100.25Y-97.14
X101.55Y-104.94
X102.4Y-95.5
X103.7Y-95.4
X116.61Y-74.61
X125.7Y-78.2
X126.847Y-78.461
X128.6Y-79.5
X129.5Y-78.8
X129.9Y-102.7
X129.9Y-104.036
X129.9Y-106.3
X129.9Y-107.6
X130.69Y-76.07
X132.07Y-71.58
X133.26Y-70.57
X133.51Y-59.26
X133.64Y-85.39
X134.1Y-74.05
X134.16Y-75.304
X135.22Y-88.64
X135.3Y-31.06
X135.3Y-74.0
X135.31Y-31.97
X135.31Y-36.46
X135.31Y-37.25
X135.31Y-75.73
X136.78Y-35.48
X137.2Y-59.89
X137.96Y-77.27
X138.32Y-48.63
X139.8Y-53.5
X140.617Y-55.5
X141.24Y-79.92
X141.41Y-36.42
X141.42Y-37.15
X141.43Y-31.09
X141.43Y-31.9
X142.3Y-74.08
X142.39Y-77.29
X145.11Y-70.69
X147.17Y-41.28
X147.47Y-58.42
X148.07Y-63.56
X148.4Y-32.585
X148.43Y-76.28
X148.46Y-78.57
X148.58Y-83.95
X150.07Y-72.38
X153.88Y-30.56
X156.3Y-38.97
X156.42Y-36.24
X157.7Y-38.95
X160.49Y-38.99
X162.82Y-30.55
X168.7Y-80.6
X169.9Y-78.0
X170.0Y-80.8
X170.7Y-79.0
X173.35Y-99.58
X173.99Y-90.01
X174.0Y-92.9
X175.68Y-106.18
T2
X97.51Y-66.26
X97.51Y-68.76
X97.51Y-71.26
X97.51Y-73.76
X97.51Y-76.26
X97.51Y-78.76
X98.72Y-46.27
X98.72Y-48.77
X98.72Y-51.27
X98.72Y-53.77
X152.51Y-49.37
X155.01Y-49.37
X157.51Y-49.37
X157.89Y-90.07
X157.89Y-92.57
X157.89Y-95.07
X157.89Y-97.57
X157.89Y-100.07
X160.01Y-49.37
T3
X111.75Y-99.875
X114.25Y-99.875
X116.16Y-40.04
X118.7Y-40.04
X121.24Y-40.04
X122.58Y-99.9
X123.78Y-40.04
X125.08Y-99.9
X134.46Y-103.485
X137.0Y-103.485
X139.54Y-103.485
X142.08Y-103.485
X176.465Y-62.055
X176.465Y-64.595
X176.465Y-67.135
X176.465Y-69.675
X176.465Y-72.215
X176.465Y-74.755
X176.465Y-77.295
X176.465Y-79.835
X178.5Y-34.56
X178.5Y-37.1
X178.5Y-39.64
X178.5Y-42.18
X178.5Y-44.72
X178.5Y-47.26
X178.5Y-49.8
M30
