%TF.GenerationSoftware,KiCad,Pcbnew,9.0.1*%
%TF.CreationDate,2025-05-06T12:52:45-06:00*%
%TF.ProjectId,TwylaBorck_2025_STM32F103_RobotBrain,5477796c-6142-46f7-9263-6b5f32303235,rev?*%
%TF.SameCoordinates,Original*%
%TF.FileFunction,Paste,Top*%
%TF.FilePolarity,Positive*%
%FSLAX46Y46*%
G04 Gerber Fmt 4.6, Leading zero omitted, Abs format (unit mm)*
G04 Created by KiCad (PCBNEW 9.0.1) date 2025-05-06 12:52:45*
%MOMM*%
%LPD*%
G01*
G04 APERTURE LIST*
G04 Aperture macros list*
%AMRoundRect*
0 Rectangle with rounded corners*
0 $1 Rounding radius*
0 $2 $3 $4 $5 $6 $7 $8 $9 X,Y pos of 4 corners*
0 Add a 4 corners polygon primitive as box body*
4,1,4,$2,$3,$4,$5,$6,$7,$8,$9,$2,$3,0*
0 Add four circle primitives for the rounded corners*
1,1,$1+$1,$2,$3*
1,1,$1+$1,$4,$5*
1,1,$1+$1,$6,$7*
1,1,$1+$1,$8,$9*
0 Add four rect primitives between the rounded corners*
20,1,$1+$1,$2,$3,$4,$5,0*
20,1,$1+$1,$4,$5,$6,$7,0*
20,1,$1+$1,$6,$7,$8,$9,0*
20,1,$1+$1,$8,$9,$2,$3,0*%
G04 Aperture macros list end*
%ADD10RoundRect,0.250000X-0.450000X0.350000X-0.450000X-0.350000X0.450000X-0.350000X0.450000X0.350000X0*%
%ADD11RoundRect,0.075000X0.075000X-0.700000X0.075000X0.700000X-0.075000X0.700000X-0.075000X-0.700000X0*%
%ADD12RoundRect,0.075000X0.700000X-0.075000X0.700000X0.075000X-0.700000X0.075000X-0.700000X-0.075000X0*%
%ADD13RoundRect,0.250000X0.350000X0.450000X-0.350000X0.450000X-0.350000X-0.450000X0.350000X-0.450000X0*%
%ADD14RoundRect,0.250000X0.450000X-0.350000X0.450000X0.350000X-0.450000X0.350000X-0.450000X-0.350000X0*%
%ADD15RoundRect,0.250000X-0.337500X-0.475000X0.337500X-0.475000X0.337500X0.475000X-0.337500X0.475000X0*%
%ADD16RoundRect,0.250000X0.450000X-0.325000X0.450000X0.325000X-0.450000X0.325000X-0.450000X-0.325000X0*%
%ADD17RoundRect,0.150000X-0.587500X-0.150000X0.587500X-0.150000X0.587500X0.150000X-0.587500X0.150000X0*%
%ADD18RoundRect,0.250000X-0.450000X0.325000X-0.450000X-0.325000X0.450000X-0.325000X0.450000X0.325000X0*%
%ADD19RoundRect,0.250000X-0.350000X-0.450000X0.350000X-0.450000X0.350000X0.450000X-0.350000X0.450000X0*%
%ADD20R,1.000000X1.000000*%
%ADD21RoundRect,0.250000X0.337500X0.475000X-0.337500X0.475000X-0.337500X-0.475000X0.337500X-0.475000X0*%
%ADD22R,1.400000X0.600000*%
%ADD23R,1.400000X0.400000*%
%ADD24R,0.400000X1.400000*%
%ADD25RoundRect,0.250000X-0.475000X0.337500X-0.475000X-0.337500X0.475000X-0.337500X0.475000X0.337500X0*%
%ADD26RoundRect,0.150000X-0.150000X0.512500X-0.150000X-0.512500X0.150000X-0.512500X0.150000X0.512500X0*%
%ADD27R,1.400000X1.200000*%
%ADD28R,2.300000X1.500000*%
%ADD29RoundRect,0.250000X0.325000X0.450000X-0.325000X0.450000X-0.325000X-0.450000X0.325000X-0.450000X0*%
%ADD30RoundRect,0.250000X0.475000X-0.337500X0.475000X0.337500X-0.475000X0.337500X-0.475000X-0.337500X0*%
%ADD31RoundRect,0.250000X-0.250000X0.525000X-0.250000X-0.525000X0.250000X-0.525000X0.250000X0.525000X0*%
%ADD32R,1.200000X2.500000*%
%ADD33R,0.500000X2.000000*%
%ADD34R,2.000000X1.700000*%
G04 APERTURE END LIST*
D10*
%TO.C,R2*%
X137680000Y-41715000D03*
X137680000Y-43715000D03*
%TD*%
D11*
%TO.C,U1*%
X136990000Y-72760000D03*
X137490000Y-72760000D03*
X137990000Y-72760000D03*
X138490000Y-72760000D03*
X138990000Y-72760000D03*
X139490000Y-72760000D03*
X139990000Y-72760000D03*
X140490000Y-72760000D03*
X140990000Y-72760000D03*
X141490000Y-72760000D03*
X141990000Y-72760000D03*
X142490000Y-72760000D03*
X142990000Y-72760000D03*
X143490000Y-72760000D03*
X143990000Y-72760000D03*
X144490000Y-72760000D03*
D12*
X146415000Y-70835000D03*
X146415000Y-70335000D03*
X146415000Y-69835000D03*
X146415000Y-69335000D03*
X146415000Y-68835000D03*
X146415000Y-68335000D03*
X146415000Y-67835000D03*
X146415000Y-67335000D03*
X146415000Y-66835000D03*
X146415000Y-66335000D03*
X146415000Y-65835000D03*
X146415000Y-65335000D03*
X146415000Y-64835000D03*
X146415000Y-64335000D03*
X146415000Y-63835000D03*
X146415000Y-63335000D03*
D11*
X144490000Y-61410000D03*
X143990000Y-61410000D03*
X143490000Y-61410000D03*
X142990000Y-61410000D03*
X142490000Y-61410000D03*
X141990000Y-61410000D03*
X141490000Y-61410000D03*
X140990000Y-61410000D03*
X140490000Y-61410000D03*
X139990000Y-61410000D03*
X139490000Y-61410000D03*
X138990000Y-61410000D03*
X138490000Y-61410000D03*
X137990000Y-61410000D03*
X137490000Y-61410000D03*
X136990000Y-61410000D03*
D12*
X135065000Y-63335000D03*
X135065000Y-63835000D03*
X135065000Y-64335000D03*
X135065000Y-64835000D03*
X135065000Y-65335000D03*
X135065000Y-65835000D03*
X135065000Y-66335000D03*
X135065000Y-66835000D03*
X135065000Y-67335000D03*
X135065000Y-67835000D03*
X135065000Y-68335000D03*
X135065000Y-68835000D03*
X135065000Y-69335000D03*
X135065000Y-69835000D03*
X135065000Y-70335000D03*
X135065000Y-70835000D03*
%TD*%
D13*
%TO.C,R9*%
X128117500Y-81300000D03*
X126117500Y-81300000D03*
%TD*%
D14*
%TO.C,R3*%
X139860000Y-43735000D03*
X139860000Y-41735000D03*
%TD*%
D15*
%TO.C,C12*%
X97200000Y-97150000D03*
X99275000Y-97150000D03*
%TD*%
D16*
%TO.C,D4*%
X148410000Y-33500000D03*
X148410000Y-31450000D03*
%TD*%
D17*
%TO.C,Q1*%
X126210000Y-77360000D03*
X126210000Y-79260000D03*
X128085000Y-78310000D03*
%TD*%
D18*
%TO.C,D3*%
X130690000Y-75155000D03*
X130690000Y-77205000D03*
%TD*%
D19*
%TO.C,R5*%
X145347500Y-81570000D03*
X147347500Y-81570000D03*
%TD*%
D20*
%TO.C,LED1*%
X97150000Y-100700000D03*
X97150000Y-103900000D03*
X101550000Y-103900000D03*
X101550000Y-100700000D03*
%TD*%
D18*
%TO.C,F1*%
X142670000Y-40210000D03*
X142670000Y-42260000D03*
%TD*%
D21*
%TO.C,C9*%
X138337500Y-75730000D03*
X136262500Y-75730000D03*
%TD*%
D13*
%TO.C,R10*%
X128117500Y-75210000D03*
X126117500Y-75210000D03*
%TD*%
D19*
%TO.C,R8*%
X175000000Y-86410000D03*
X177000000Y-86410000D03*
%TD*%
D22*
%TO.C,MDBT42T-AT1*%
X155200000Y-30540000D03*
D23*
X155200000Y-31340000D03*
X155200000Y-32040000D03*
X155200000Y-32740000D03*
X155200000Y-33440000D03*
X155200000Y-34140000D03*
X155200000Y-34840000D03*
X155200000Y-35540000D03*
X155200000Y-36240000D03*
D24*
X156300000Y-37740000D03*
X157000000Y-37740000D03*
X157700000Y-37740000D03*
X158400000Y-37740000D03*
X159100000Y-37740000D03*
X159800000Y-37740000D03*
X160500000Y-37740000D03*
D23*
X161600000Y-36240000D03*
X161600000Y-35540000D03*
D22*
X161600000Y-30540000D03*
%TD*%
D21*
%TO.C,C2*%
X135577500Y-60340000D03*
X133502500Y-60340000D03*
%TD*%
D10*
%TO.C,R6*%
X132960000Y-75150000D03*
X132960000Y-77150000D03*
%TD*%
D14*
%TO.C,R7*%
X150640000Y-33475000D03*
X150640000Y-31475000D03*
%TD*%
D25*
%TO.C,C4*%
X148960000Y-70302500D03*
X148960000Y-72377500D03*
%TD*%
D26*
%TO.C,U2*%
X139730000Y-47510000D03*
X138780000Y-47510000D03*
X137830000Y-47510000D03*
X137830000Y-49785000D03*
X138780000Y-49785000D03*
X139730000Y-49785000D03*
%TD*%
D15*
%TO.C,C5*%
X145352500Y-76290000D03*
X147427500Y-76290000D03*
%TD*%
D27*
%TO.C,Y2*%
X137952500Y-79920000D03*
X140152500Y-79920000D03*
X140152500Y-78220000D03*
X137952500Y-78220000D03*
%TD*%
D28*
%TO.C,SW1*%
X134220000Y-84280000D03*
X140920000Y-84280000D03*
%TD*%
D15*
%TO.C,C6*%
X145352500Y-78580000D03*
X147427500Y-78580000D03*
%TD*%
D29*
%TO.C,D2*%
X149492500Y-83950000D03*
X147442500Y-83950000D03*
%TD*%
D21*
%TO.C,C1*%
X134137500Y-72690000D03*
X132062500Y-72690000D03*
%TD*%
D20*
%TO.C,LED2*%
X177760000Y-103740000D03*
X177760000Y-100540000D03*
X173360000Y-100540000D03*
X173360000Y-103740000D03*
%TD*%
D15*
%TO.C,C8*%
X140312500Y-76140000D03*
X142387500Y-76140000D03*
%TD*%
D13*
%TO.C,R1*%
X121300000Y-69810000D03*
X119300000Y-69810000D03*
%TD*%
D30*
%TO.C,C3*%
X147470000Y-61457500D03*
X147470000Y-59382500D03*
%TD*%
D31*
%TO.C,SW2*%
X177200000Y-88835000D03*
X177200000Y-94085000D03*
X174000000Y-88835000D03*
X174000000Y-94085000D03*
%TD*%
D16*
%TO.C,D1*%
X147160000Y-42210000D03*
X147160000Y-40160000D03*
%TD*%
D32*
%TO.C,S1*%
X121610000Y-72880000D03*
X119110000Y-72880000D03*
X116610000Y-72880000D03*
X121610000Y-78380000D03*
X119110000Y-78380000D03*
X116610000Y-78380000D03*
%TD*%
D21*
%TO.C,C11*%
X177747500Y-107320000D03*
X175672500Y-107320000D03*
%TD*%
D33*
%TO.C,J1*%
X139980000Y-37000000D03*
X139180000Y-37000000D03*
X138380000Y-37000000D03*
X137580000Y-37000000D03*
X136780000Y-37000000D03*
D34*
X142830000Y-36900000D03*
X142830000Y-31450000D03*
X133930000Y-36900000D03*
X133930000Y-31450000D03*
%TD*%
D21*
%TO.C,C7*%
X138247500Y-88630000D03*
X136172500Y-88630000D03*
%TD*%
D14*
%TO.C,R4*%
X144880000Y-42215000D03*
X144880000Y-40215000D03*
%TD*%
M02*
