%TF.GenerationSoftware,KiCad,Pcbnew,9.0.1*%
%TF.CreationDate,2025-05-06T12:21:24-06:00*%
%TF.ProjectId,2025_04_STM32F103_RobotBrain,32303235-5f30-4345-9f53-544d33324631,rev?*%
%TF.SameCoordinates,Original*%
%TF.FileFunction,Copper,L1,Top*%
%TF.FilePolarity,Positive*%
%FSLAX46Y46*%
G04 Gerber Fmt 4.6, Leading zero omitted, Abs format (unit mm)*
G04 Created by KiCad (PCBNEW 9.0.1) date 2025-05-06 12:21:24*
%MOMM*%
%LPD*%
G01*
G04 APERTURE LIST*
G04 Aperture macros list*
%AMRoundRect*
0 Rectangle with rounded corners*
0 $1 Rounding radius*
0 $2 $3 $4 $5 $6 $7 $8 $9 X,Y pos of 4 corners*
0 Add a 4 corners polygon primitive as box body*
4,1,4,$2,$3,$4,$5,$6,$7,$8,$9,$2,$3,0*
0 Add four circle primitives for the rounded corners*
1,1,$1+$1,$2,$3*
1,1,$1+$1,$4,$5*
1,1,$1+$1,$6,$7*
1,1,$1+$1,$8,$9*
0 Add four rect primitives between the rounded corners*
20,1,$1+$1,$2,$3,$4,$5,0*
20,1,$1+$1,$4,$5,$6,$7,0*
20,1,$1+$1,$6,$7,$8,$9,0*
20,1,$1+$1,$8,$9,$2,$3,0*%
G04 Aperture macros list end*
%TA.AperFunction,SMDPad,CuDef*%
%ADD10RoundRect,0.250000X-0.450000X0.350000X-0.450000X-0.350000X0.450000X-0.350000X0.450000X0.350000X0*%
%TD*%
%TA.AperFunction,SMDPad,CuDef*%
%ADD11RoundRect,0.075000X0.075000X-0.700000X0.075000X0.700000X-0.075000X0.700000X-0.075000X-0.700000X0*%
%TD*%
%TA.AperFunction,SMDPad,CuDef*%
%ADD12RoundRect,0.075000X0.700000X-0.075000X0.700000X0.075000X-0.700000X0.075000X-0.700000X-0.075000X0*%
%TD*%
%TA.AperFunction,SMDPad,CuDef*%
%ADD13RoundRect,0.250000X0.350000X0.450000X-0.350000X0.450000X-0.350000X-0.450000X0.350000X-0.450000X0*%
%TD*%
%TA.AperFunction,SMDPad,CuDef*%
%ADD14RoundRect,0.250000X0.450000X-0.350000X0.450000X0.350000X-0.450000X0.350000X-0.450000X-0.350000X0*%
%TD*%
%TA.AperFunction,SMDPad,CuDef*%
%ADD15RoundRect,0.250000X-0.337500X-0.475000X0.337500X-0.475000X0.337500X0.475000X-0.337500X0.475000X0*%
%TD*%
%TA.AperFunction,ComponentPad*%
%ADD16RoundRect,0.250000X-0.600000X-0.750000X0.600000X-0.750000X0.600000X0.750000X-0.600000X0.750000X0*%
%TD*%
%TA.AperFunction,ComponentPad*%
%ADD17O,1.700000X2.000000*%
%TD*%
%TA.AperFunction,ComponentPad*%
%ADD18R,1.700000X1.700000*%
%TD*%
%TA.AperFunction,ComponentPad*%
%ADD19O,1.700000X1.700000*%
%TD*%
%TA.AperFunction,ComponentPad*%
%ADD20RoundRect,0.250000X0.725000X-0.600000X0.725000X0.600000X-0.725000X0.600000X-0.725000X-0.600000X0*%
%TD*%
%TA.AperFunction,ComponentPad*%
%ADD21O,1.950000X1.700000*%
%TD*%
%TA.AperFunction,SMDPad,CuDef*%
%ADD22RoundRect,0.250000X0.450000X-0.325000X0.450000X0.325000X-0.450000X0.325000X-0.450000X-0.325000X0*%
%TD*%
%TA.AperFunction,SMDPad,CuDef*%
%ADD23RoundRect,0.150000X-0.587500X-0.150000X0.587500X-0.150000X0.587500X0.150000X-0.587500X0.150000X0*%
%TD*%
%TA.AperFunction,SMDPad,CuDef*%
%ADD24RoundRect,0.250000X-0.450000X0.325000X-0.450000X-0.325000X0.450000X-0.325000X0.450000X0.325000X0*%
%TD*%
%TA.AperFunction,SMDPad,CuDef*%
%ADD25RoundRect,0.250000X-0.350000X-0.450000X0.350000X-0.450000X0.350000X0.450000X-0.350000X0.450000X0*%
%TD*%
%TA.AperFunction,SMDPad,CuDef*%
%ADD26R,1.000000X1.000000*%
%TD*%
%TA.AperFunction,SMDPad,CuDef*%
%ADD27RoundRect,0.250000X0.337500X0.475000X-0.337500X0.475000X-0.337500X-0.475000X0.337500X-0.475000X0*%
%TD*%
%TA.AperFunction,ComponentPad*%
%ADD28RoundRect,0.250000X-0.725000X0.600000X-0.725000X-0.600000X0.725000X-0.600000X0.725000X0.600000X0*%
%TD*%
%TA.AperFunction,SMDPad,CuDef*%
%ADD29R,1.400000X0.600000*%
%TD*%
%TA.AperFunction,SMDPad,CuDef*%
%ADD30R,1.400000X0.400000*%
%TD*%
%TA.AperFunction,SMDPad,CuDef*%
%ADD31R,0.400000X1.400000*%
%TD*%
%TA.AperFunction,SMDPad,CuDef*%
%ADD32RoundRect,0.250000X-0.475000X0.337500X-0.475000X-0.337500X0.475000X-0.337500X0.475000X0.337500X0*%
%TD*%
%TA.AperFunction,SMDPad,CuDef*%
%ADD33RoundRect,0.150000X-0.150000X0.512500X-0.150000X-0.512500X0.150000X-0.512500X0.150000X0.512500X0*%
%TD*%
%TA.AperFunction,ComponentPad*%
%ADD34RoundRect,0.250000X-0.600000X-0.725000X0.600000X-0.725000X0.600000X0.725000X-0.600000X0.725000X0*%
%TD*%
%TA.AperFunction,ComponentPad*%
%ADD35O,1.700000X1.950000*%
%TD*%
%TA.AperFunction,SMDPad,CuDef*%
%ADD36R,1.400000X1.200000*%
%TD*%
%TA.AperFunction,SMDPad,CuDef*%
%ADD37R,2.300000X1.500000*%
%TD*%
%TA.AperFunction,SMDPad,CuDef*%
%ADD38RoundRect,0.250000X0.325000X0.450000X-0.325000X0.450000X-0.325000X-0.450000X0.325000X-0.450000X0*%
%TD*%
%TA.AperFunction,SMDPad,CuDef*%
%ADD39RoundRect,0.250000X0.475000X-0.337500X0.475000X0.337500X-0.475000X0.337500X-0.475000X-0.337500X0*%
%TD*%
%TA.AperFunction,SMDPad,CuDef*%
%ADD40RoundRect,0.250000X-0.250000X0.525000X-0.250000X-0.525000X0.250000X-0.525000X0.250000X0.525000X0*%
%TD*%
%TA.AperFunction,SMDPad,CuDef*%
%ADD41R,1.200000X2.500000*%
%TD*%
%TA.AperFunction,SMDPad,CuDef*%
%ADD42R,0.500000X2.000000*%
%TD*%
%TA.AperFunction,SMDPad,CuDef*%
%ADD43R,2.000000X1.700000*%
%TD*%
%TA.AperFunction,ViaPad*%
%ADD44C,0.600000*%
%TD*%
%TA.AperFunction,Conductor*%
%ADD45C,0.254000*%
%TD*%
%TA.AperFunction,Conductor*%
%ADD46C,0.381000*%
%TD*%
%TA.AperFunction,Conductor*%
%ADD47C,0.508000*%
%TD*%
%TA.AperFunction,Conductor*%
%ADD48C,0.200000*%
%TD*%
G04 APERTURE END LIST*
D10*
%TO.P,R2,1*%
%TO.N,/D+*%
X137680000Y-41715000D03*
%TO.P,R2,2*%
%TO.N,/USB_CONN_D+*%
X137680000Y-43715000D03*
%TD*%
D11*
%TO.P,U1,1,VBAT*%
%TO.N,unconnected-(U1-VBAT-Pad1)*%
X136990000Y-72760000D03*
%TO.P,U1,2,PC13*%
%TO.N,/USER_LED*%
X137490000Y-72760000D03*
%TO.P,U1,3,PC14*%
%TO.N,unconnected-(U1-PC14-Pad3)*%
X137990000Y-72760000D03*
%TO.P,U1,4,PC15*%
%TO.N,unconnected-(U1-PC15-Pad4)*%
X138490000Y-72760000D03*
%TO.P,U1,5,RCC_OSC_IN*%
%TO.N,/OSC_IN*%
X138990000Y-72760000D03*
%TO.P,U1,6,RCC_OSC_OUT*%
%TO.N,/OSC_OUT*%
X139490000Y-72760000D03*
%TO.P,U1,7,NRST*%
%TO.N,/RESET*%
X139990000Y-72760000D03*
%TO.P,U1,8,PC0*%
%TO.N,unconnected-(U1-PC0-Pad8)*%
X140490000Y-72760000D03*
%TO.P,U1,9,PC1*%
%TO.N,unconnected-(U1-PC1-Pad9)*%
X140990000Y-72760000D03*
%TO.P,U1,10,PC2*%
%TO.N,unconnected-(U1-PC2-Pad10)*%
X141490000Y-72760000D03*
%TO.P,U1,11,PC3*%
%TO.N,unconnected-(U1-PC3-Pad11)*%
X141990000Y-72760000D03*
%TO.P,U1,12,VSSA*%
%TO.N,GND*%
X142490000Y-72760000D03*
%TO.P,U1,13,VDDA*%
%TO.N,+3V3*%
X142990000Y-72760000D03*
%TO.P,U1,14,PA0*%
%TO.N,/ULTRA_TRIG*%
X143490000Y-72760000D03*
%TO.P,U1,15,PA1*%
%TO.N,Net-(U1-PA1)*%
X143990000Y-72760000D03*
%TO.P,U1,16,PA2*%
X144490000Y-72760000D03*
D12*
%TO.P,U1,17,PA3*%
%TO.N,/ULTRA_ECHO*%
X146415000Y-70835000D03*
%TO.P,U1,18,VSS*%
%TO.N,GND*%
X146415000Y-70335000D03*
%TO.P,U1,19,VDD*%
%TO.N,+3V3*%
X146415000Y-69835000D03*
%TO.P,U1,20,PA4*%
%TO.N,/PWR_ADC*%
X146415000Y-69335000D03*
%TO.P,U1,21,PA5*%
%TO.N,unconnected-(U1-PA5-Pad21)*%
X146415000Y-68835000D03*
%TO.P,U1,22,PA6*%
%TO.N,/E1B*%
X146415000Y-68335000D03*
%TO.P,U1,23,PA7*%
%TO.N,/E1A*%
X146415000Y-67835000D03*
%TO.P,U1,24,PC4*%
%TO.N,unconnected-(U1-PC4-Pad24)*%
X146415000Y-67335000D03*
%TO.P,U1,25,PC5*%
%TO.N,unconnected-(U1-PC5-Pad25)*%
X146415000Y-66835000D03*
%TO.P,U1,26,PB0*%
%TO.N,/uBUTTON*%
X146415000Y-66335000D03*
%TO.P,U1,27,PB1*%
%TO.N,unconnected-(U1-PB1-Pad27)*%
X146415000Y-65835000D03*
%TO.P,U1,28,PB2*%
%TO.N,/IMU_INT*%
X146415000Y-65335000D03*
%TO.P,U1,29,PB10*%
%TO.N,/IMU_I2C_SCL*%
X146415000Y-64835000D03*
%TO.P,U1,30,PB11*%
%TO.N,/IMU_I2C_SDA*%
X146415000Y-64335000D03*
%TO.P,U1,31,VSS*%
%TO.N,GND*%
X146415000Y-63835000D03*
%TO.P,U1,32,VDD*%
%TO.N,+3V3*%
X146415000Y-63335000D03*
D11*
%TO.P,U1,33,PB12*%
%TO.N,/PS2_CS*%
X144490000Y-61410000D03*
%TO.P,U1,34,PB13*%
%TO.N,/PS2_SCK*%
X143990000Y-61410000D03*
%TO.P,U1,35,PB14*%
%TO.N,/PS2_MISO*%
X143490000Y-61410000D03*
%TO.P,U1,36,PB15*%
%TO.N,/PS2_MOSI*%
X142990000Y-61410000D03*
%TO.P,U1,37,PC6*%
%TO.N,/AN1*%
X142490000Y-61410000D03*
%TO.P,U1,38,PC7*%
%TO.N,/AN2*%
X141990000Y-61410000D03*
%TO.P,U1,39,PC8*%
%TO.N,/BN1*%
X141490000Y-61410000D03*
%TO.P,U1,40,PC9*%
%TO.N,/BN2*%
X140990000Y-61410000D03*
%TO.P,U1,41,PA8*%
%TO.N,/BL_WAKEUP*%
X140490000Y-61410000D03*
%TO.P,U1,42,PA9*%
%TO.N,/BL_RX*%
X139990000Y-61410000D03*
%TO.P,U1,43,PA10*%
%TO.N,/BL_TX*%
X139490000Y-61410000D03*
%TO.P,U1,44,USB_DM*%
%TO.N,/USB_D-*%
X138990000Y-61410000D03*
%TO.P,U1,45,USB_DP*%
%TO.N,/USB_D+*%
X138490000Y-61410000D03*
%TO.P,U1,46,SYS_JTMS-SWDIO*%
%TO.N,/SWDIO*%
X137990000Y-61410000D03*
%TO.P,U1,47,VSS*%
%TO.N,GND*%
X137490000Y-61410000D03*
%TO.P,U1,48,VDD*%
%TO.N,+3V3*%
X136990000Y-61410000D03*
D12*
%TO.P,U1,49,SYS_JTCK-SWCLK*%
%TO.N,/SWCLK*%
X135065000Y-63335000D03*
%TO.P,U1,50,PA15*%
%TO.N,unconnected-(U1-PA15-Pad50)*%
X135065000Y-63835000D03*
%TO.P,U1,51,PC10*%
%TO.N,/USER_TX*%
X135065000Y-64335000D03*
%TO.P,U1,52,PC11*%
%TO.N,/USER_RX*%
X135065000Y-64835000D03*
%TO.P,U1,53,PC12*%
%TO.N,/X4*%
X135065000Y-65335000D03*
%TO.P,U1,54,PD2*%
%TO.N,/X3*%
X135065000Y-65835000D03*
%TO.P,U1,55,PB3*%
%TO.N,/X2*%
X135065000Y-66335000D03*
%TO.P,U1,56,PB4*%
%TO.N,/X1*%
X135065000Y-66835000D03*
%TO.P,U1,57,PB5*%
%TO.N,unconnected-(U1-PB5-Pad57)*%
X135065000Y-67335000D03*
%TO.P,U1,58,PB6*%
%TO.N,/E2B*%
X135065000Y-67835000D03*
%TO.P,U1,59,PB7*%
%TO.N,/E2A*%
X135065000Y-68335000D03*
%TO.P,U1,60,BOOT0*%
%TO.N,/BOOT*%
X135065000Y-68835000D03*
%TO.P,U1,61,PB8*%
%TO.N,unconnected-(U1-PB8-Pad61)*%
X135065000Y-69335000D03*
%TO.P,U1,62,PB9*%
%TO.N,/RGB_DIN*%
X135065000Y-69835000D03*
%TO.P,U1,63,VSS*%
%TO.N,GND*%
X135065000Y-70335000D03*
%TO.P,U1,64,VDD*%
%TO.N,+3V3*%
X135065000Y-70835000D03*
%TD*%
D13*
%TO.P,R9,1*%
%TO.N,+5V*%
X128117500Y-81300000D03*
%TO.P,R9,2*%
%TO.N,Net-(LED1-DIN)*%
X126117500Y-81300000D03*
%TD*%
D14*
%TO.P,R3,1*%
%TO.N,/USB_CONN_D-*%
X139860000Y-43735000D03*
%TO.P,R3,2*%
%TO.N,/D-*%
X139860000Y-41735000D03*
%TD*%
D15*
%TO.P,C12,1*%
%TO.N,+5V*%
X97200000Y-97150000D03*
%TO.P,C12,2*%
%TO.N,GND*%
X99275000Y-97150000D03*
%TD*%
D16*
%TO.P,J6,1,Pin_1*%
%TO.N,+3V3*%
X122580000Y-99900000D03*
D17*
%TO.P,J6,2,Pin_2*%
%TO.N,GND*%
X125080000Y-99900000D03*
%TD*%
D18*
%TO.P,J9,1,Pin_1*%
%TO.N,+3V3*%
X178500000Y-49800000D03*
D19*
%TO.P,J9,2,Pin_2*%
%TO.N,/PS2_SCK*%
X178500000Y-47260000D03*
%TO.P,J9,3,Pin_3*%
%TO.N,unconnected-(J9-Pin_3-Pad3)*%
X178500000Y-44720000D03*
%TO.P,J9,4,Pin_4*%
%TO.N,/PS2_CS*%
X178500000Y-42180000D03*
%TO.P,J9,5,Pin_5*%
%TO.N,GND*%
X178500000Y-39640000D03*
%TO.P,J9,6,Pin_6*%
%TO.N,/PS2_MISO*%
X178500000Y-37100000D03*
%TO.P,J9,7,Pin_7*%
%TO.N,/PS2_MOSI*%
X178500000Y-34560000D03*
%TD*%
D20*
%TO.P,J8,1,Pin_1*%
%TO.N,/E2A*%
X157890000Y-100070000D03*
D21*
%TO.P,J8,2,Pin_2*%
%TO.N,/E2B*%
X157890000Y-97570000D03*
%TO.P,J8,3,Pin_3*%
%TO.N,/E1A*%
X157890000Y-95070000D03*
%TO.P,J8,4,Pin_4*%
%TO.N,/E1B*%
X157890000Y-92570000D03*
%TO.P,J8,5,Pin_5*%
%TO.N,/PWR_ADC*%
X157890000Y-90070000D03*
%TD*%
D18*
%TO.P,J2,1,Pin_1*%
%TO.N,+5V*%
X176465000Y-79835000D03*
D19*
%TO.P,J2,2,Pin_2*%
%TO.N,GND*%
X176465000Y-77295000D03*
%TO.P,J2,3,Pin_3*%
%TO.N,/IMU_I2C_SCL*%
X176465000Y-74755000D03*
%TO.P,J2,4,Pin_4*%
%TO.N,/IMU_I2C_SDA*%
X176465000Y-72215000D03*
%TO.P,J2,5,Pin_5*%
%TO.N,unconnected-(J2-Pin_5-Pad5)*%
X176465000Y-69675000D03*
%TO.P,J2,6,Pin_6*%
%TO.N,unconnected-(J2-Pin_6-Pad6)*%
X176465000Y-67135000D03*
%TO.P,J2,7,Pin_7*%
%TO.N,unconnected-(J2-Pin_7-Pad7)*%
X176465000Y-64595000D03*
%TO.P,J2,8,Pin_8*%
%TO.N,/IMU_INT*%
X176465000Y-62055000D03*
%TD*%
D22*
%TO.P,D4,1,K*%
%TO.N,GND*%
X148410000Y-33500000D03*
%TO.P,D4,2,A*%
%TO.N,Net-(D4-A)*%
X148410000Y-31450000D03*
%TD*%
D23*
%TO.P,Q1,1,G*%
%TO.N,+3V3*%
X126210000Y-77360000D03*
%TO.P,Q1,2,S*%
%TO.N,Net-(LED1-DIN)*%
X126210000Y-79260000D03*
%TO.P,Q1,3,D*%
%TO.N,/RGB_DIN*%
X128085000Y-78310000D03*
%TD*%
D24*
%TO.P,D3,1,K*%
%TO.N,GND*%
X130690000Y-75155000D03*
%TO.P,D3,2,A*%
%TO.N,Net-(D3-A)*%
X130690000Y-77205000D03*
%TD*%
D25*
%TO.P,R5,1*%
%TO.N,+3V3*%
X145347500Y-81570000D03*
%TO.P,R5,2*%
%TO.N,Net-(D2-A)*%
X147347500Y-81570000D03*
%TD*%
D26*
%TO.P,LED1,1,VDD*%
%TO.N,+5V*%
X97150000Y-100700000D03*
%TO.P,LED1,2,DOUT*%
%TO.N,Net-(LED1-DOUT)*%
X97150000Y-103900000D03*
%TO.P,LED1,3,VSS*%
%TO.N,GND*%
X101550000Y-103900000D03*
%TO.P,LED1,4,DIN*%
%TO.N,Net-(LED1-DIN)*%
X101550000Y-100700000D03*
%TD*%
D24*
%TO.P,F1,1*%
%TO.N,Net-(J1-VBUS)*%
X142670000Y-40210000D03*
%TO.P,F1,2*%
%TO.N,Vusb*%
X142670000Y-42260000D03*
%TD*%
D27*
%TO.P,C9,1*%
%TO.N,/OSC_IN*%
X138337500Y-75730000D03*
%TO.P,C9,2*%
%TO.N,GND*%
X136262500Y-75730000D03*
%TD*%
D13*
%TO.P,R10,1*%
%TO.N,/RGB_DIN*%
X128117500Y-75210000D03*
%TO.P,R10,2*%
%TO.N,+3V3*%
X126117500Y-75210000D03*
%TD*%
D18*
%TO.P,J4,1,Pin_1*%
%TO.N,+3V3*%
X116160000Y-40040000D03*
D19*
%TO.P,J4,2,Pin_2*%
%TO.N,/SWCLK*%
X118700000Y-40040000D03*
%TO.P,J4,3,Pin_3*%
%TO.N,GND*%
X121240000Y-40040000D03*
%TO.P,J4,4,Pin_4*%
%TO.N,/SWDIO*%
X123780000Y-40040000D03*
%TD*%
D25*
%TO.P,R8,1*%
%TO.N,+3V3*%
X175000000Y-86410000D03*
%TO.P,R8,2*%
%TO.N,/uBUTTON*%
X177000000Y-86410000D03*
%TD*%
D28*
%TO.P,J11,1,Pin_1*%
%TO.N,+3V3*%
X98720000Y-46270000D03*
D21*
%TO.P,J11,2,Pin_2*%
%TO.N,/USER_TX*%
X98720000Y-48770000D03*
%TO.P,J11,3,Pin_3*%
%TO.N,/USER_RX*%
X98720000Y-51270000D03*
%TO.P,J11,4,Pin_4*%
%TO.N,GND*%
X98720000Y-53770000D03*
%TD*%
D29*
%TO.P,MDBT42T-AT1,1,GND@1*%
%TO.N,GND*%
X155200000Y-30540000D03*
D30*
%TO.P,MDBT42T-AT1,2,NC@2*%
%TO.N,unconnected-(MDBT42T-AT1-NC@2-Pad2)*%
X155200000Y-31340000D03*
%TO.P,MDBT42T-AT1,3,NC@3*%
%TO.N,unconnected-(MDBT42T-AT1-NC@3-Pad3)*%
X155200000Y-32040000D03*
%TO.P,MDBT42T-AT1,4,RESET*%
%TO.N,unconnected-(MDBT42T-AT1-RESET-Pad4)*%
X155200000Y-32740000D03*
%TO.P,MDBT42T-AT1,5,INDICATOR*%
%TO.N,Net-(MDBT42T-AT1-INDICATOR)*%
X155200000Y-33440000D03*
%TO.P,MDBT42T-AT1,6,WAKEUP*%
%TO.N,/BL_WAKEUP*%
X155200000Y-34140000D03*
%TO.P,MDBT42T-AT1,7,TX*%
%TO.N,/BL_TX*%
X155200000Y-34840000D03*
%TO.P,MDBT42T-AT1,8,RX*%
%TO.N,/BL_RX*%
X155200000Y-35540000D03*
%TO.P,MDBT42T-AT1,9,UART_PD*%
%TO.N,GND*%
X155200000Y-36240000D03*
D31*
%TO.P,MDBT42T-AT1,10,GND@10*%
X156300000Y-37740000D03*
%TO.P,MDBT42T-AT1,11,ADC*%
%TO.N,unconnected-(MDBT42T-AT1-ADC-Pad11)*%
X157000000Y-37740000D03*
%TO.P,MDBT42T-AT1,12,FLASH_DEFAULT*%
%TO.N,GND*%
X157700000Y-37740000D03*
%TO.P,MDBT42T-AT1,13,RTS/XL2*%
%TO.N,unconnected-(MDBT42T-AT1-RTS{slash}XL2-Pad13)*%
X158400000Y-37740000D03*
%TO.P,MDBT42T-AT1,14,CTS/XL1*%
%TO.N,unconnected-(MDBT42T-AT1-CTS{slash}XL1-Pad14)*%
X159100000Y-37740000D03*
%TO.P,MDBT42T-AT1,15,VDD*%
%TO.N,+3V3*%
X159800000Y-37740000D03*
%TO.P,MDBT42T-AT1,16,GND@16*%
%TO.N,GND*%
X160500000Y-37740000D03*
D30*
%TO.P,MDBT42T-AT1,17,DCC*%
%TO.N,unconnected-(MDBT42T-AT1-DCC-Pad17)*%
X161600000Y-36240000D03*
%TO.P,MDBT42T-AT1,18,DEC4*%
%TO.N,unconnected-(MDBT42T-AT1-DEC4-Pad18)*%
X161600000Y-35540000D03*
D29*
%TO.P,MDBT42T-AT1,19,GND@19*%
%TO.N,GND*%
X161600000Y-30540000D03*
%TD*%
D27*
%TO.P,C2,1*%
%TO.N,+3V3*%
X135577500Y-60340000D03*
%TO.P,C2,2*%
%TO.N,GND*%
X133502500Y-60340000D03*
%TD*%
D10*
%TO.P,R6,1*%
%TO.N,/USER_LED*%
X132960000Y-75150000D03*
%TO.P,R6,2*%
%TO.N,Net-(D3-A)*%
X132960000Y-77150000D03*
%TD*%
D14*
%TO.P,R7,1*%
%TO.N,Net-(MDBT42T-AT1-INDICATOR)*%
X150640000Y-33475000D03*
%TO.P,R7,2*%
%TO.N,Net-(D4-A)*%
X150640000Y-31475000D03*
%TD*%
D32*
%TO.P,C4,1*%
%TO.N,+3V3*%
X148960000Y-70302500D03*
%TO.P,C4,2*%
%TO.N,GND*%
X148960000Y-72377500D03*
%TD*%
D33*
%TO.P,U2,1,I/O1*%
%TO.N,/USB_CONN_D-*%
X139730000Y-47510000D03*
%TO.P,U2,2,GND*%
%TO.N,GND*%
X138780000Y-47510000D03*
%TO.P,U2,3,I/O2*%
%TO.N,/USB_CONN_D+*%
X137830000Y-47510000D03*
%TO.P,U2,4,I/O2*%
%TO.N,/USB_D+*%
X137830000Y-49785000D03*
%TO.P,U2,5,VBUS*%
%TO.N,Vusb*%
X138780000Y-49785000D03*
%TO.P,U2,6,I/O1*%
%TO.N,/USB_D-*%
X139730000Y-49785000D03*
%TD*%
D15*
%TO.P,C5,1*%
%TO.N,+3V3*%
X145352500Y-76290000D03*
%TO.P,C5,2*%
%TO.N,GND*%
X147427500Y-76290000D03*
%TD*%
D18*
%TO.P,J3,1,Pin_1*%
%TO.N,+5V*%
X134460000Y-103485000D03*
D19*
%TO.P,J3,2,Pin_2*%
%TO.N,/ULTRA_TRIG*%
X137000000Y-103485000D03*
%TO.P,J3,3,Pin_3*%
%TO.N,/ULTRA_ECHO*%
X139540000Y-103485000D03*
%TO.P,J3,4,Pin_4*%
%TO.N,GND*%
X142080000Y-103485000D03*
%TD*%
D34*
%TO.P,J7,1,Pin_1*%
%TO.N,/AN2*%
X152510000Y-49370000D03*
D35*
%TO.P,J7,2,Pin_2*%
%TO.N,/AN1*%
X155010000Y-49370000D03*
%TO.P,J7,3,Pin_3*%
%TO.N,/BN2*%
X157510000Y-49370000D03*
%TO.P,J7,4,Pin_4*%
%TO.N,/BN1*%
X160010000Y-49370000D03*
%TD*%
D36*
%TO.P,Y2,1,1*%
%TO.N,/OSC_IN*%
X137952500Y-79920000D03*
%TO.P,Y2,2,2*%
%TO.N,GND*%
X140152500Y-79920000D03*
%TO.P,Y2,3,3*%
%TO.N,/OSC_OUT*%
X140152500Y-78220000D03*
%TO.P,Y2,4,4*%
%TO.N,GND*%
X137952500Y-78220000D03*
%TD*%
D37*
%TO.P,SW1,1,A*%
%TO.N,GND*%
X134220000Y-84280000D03*
%TO.P,SW1,2,B*%
%TO.N,/RESET*%
X140920000Y-84280000D03*
%TD*%
D15*
%TO.P,C6,1*%
%TO.N,+3V3*%
X145352500Y-78580000D03*
%TO.P,C6,2*%
%TO.N,GND*%
X147427500Y-78580000D03*
%TD*%
D16*
%TO.P,J5,1,Pin_1*%
%TO.N,+5V*%
X111750000Y-99875000D03*
D17*
%TO.P,J5,2,Pin_2*%
%TO.N,GND*%
X114250000Y-99875000D03*
%TD*%
D38*
%TO.P,D2,1,K*%
%TO.N,GND*%
X149492500Y-83950000D03*
%TO.P,D2,2,A*%
%TO.N,Net-(D2-A)*%
X147442500Y-83950000D03*
%TD*%
D27*
%TO.P,C1,1*%
%TO.N,+3V3*%
X134137500Y-72690000D03*
%TO.P,C1,2*%
%TO.N,GND*%
X132062500Y-72690000D03*
%TD*%
D26*
%TO.P,LED2,1,VDD*%
%TO.N,+5V*%
X177760000Y-103740000D03*
%TO.P,LED2,2,DOUT*%
%TO.N,unconnected-(LED2-DOUT-Pad2)*%
X177760000Y-100540000D03*
%TO.P,LED2,3,VSS*%
%TO.N,GND*%
X173360000Y-100540000D03*
%TO.P,LED2,4,DIN*%
%TO.N,Net-(LED1-DOUT)*%
X173360000Y-103740000D03*
%TD*%
D15*
%TO.P,C8,1*%
%TO.N,/OSC_OUT*%
X140312500Y-76140000D03*
%TO.P,C8,2*%
%TO.N,GND*%
X142387500Y-76140000D03*
%TD*%
D13*
%TO.P,R1,1*%
%TO.N,/BOOT*%
X121300000Y-69810000D03*
%TO.P,R1,2*%
%TO.N,Net-(R1-Pad2)*%
X119300000Y-69810000D03*
%TD*%
D20*
%TO.P,J10,1,Pin_1*%
%TO.N,+3V3*%
X97510000Y-78760000D03*
D21*
%TO.P,J10,2,Pin_2*%
%TO.N,/X1*%
X97510000Y-76260000D03*
%TO.P,J10,3,Pin_3*%
%TO.N,/X2*%
X97510000Y-73760000D03*
%TO.P,J10,4,Pin_4*%
%TO.N,/X3*%
X97510000Y-71260000D03*
%TO.P,J10,5,Pin_5*%
%TO.N,/X4*%
X97510000Y-68760000D03*
%TO.P,J10,6,Pin_6*%
%TO.N,GND*%
X97510000Y-66260000D03*
%TD*%
D39*
%TO.P,C3,1*%
%TO.N,+3V3*%
X147470000Y-61457500D03*
%TO.P,C3,2*%
%TO.N,GND*%
X147470000Y-59382500D03*
%TD*%
D40*
%TO.P,SW2,1,A*%
%TO.N,/uBUTTON*%
X177200000Y-88835000D03*
X177200000Y-94085000D03*
%TO.P,SW2,2,B*%
%TO.N,GND*%
X174000000Y-88835000D03*
X174000000Y-94085000D03*
%TD*%
D22*
%TO.P,D1,1,K*%
%TO.N,GND*%
X147160000Y-42210000D03*
%TO.P,D1,2,A*%
%TO.N,Net-(D1-A)*%
X147160000Y-40160000D03*
%TD*%
D41*
%TO.P,S1,1*%
%TO.N,+3V3*%
X121610000Y-72880000D03*
%TO.P,S1,2*%
%TO.N,Net-(R1-Pad2)*%
X119110000Y-72880000D03*
%TO.P,S1,3*%
%TO.N,GND*%
X116610000Y-72880000D03*
%TO.P,S1,4*%
%TO.N,unconnected-(S1-Pad4)*%
X121610000Y-78380000D03*
%TO.P,S1,5*%
%TO.N,unconnected-(S1-Pad5)*%
X119110000Y-78380000D03*
%TO.P,S1,6*%
%TO.N,unconnected-(S1-Pad6)*%
X116610000Y-78380000D03*
%TD*%
D27*
%TO.P,C11,1*%
%TO.N,+5V*%
X177747500Y-107320000D03*
%TO.P,C11,2*%
%TO.N,GND*%
X175672500Y-107320000D03*
%TD*%
D42*
%TO.P,J1,1,VBUS*%
%TO.N,Net-(J1-VBUS)*%
X139980000Y-37000000D03*
%TO.P,J1,2,D-*%
%TO.N,/D-*%
X139180000Y-37000000D03*
%TO.P,J1,3,D+*%
%TO.N,/D+*%
X138380000Y-37000000D03*
%TO.P,J1,4,ID*%
%TO.N,unconnected-(J1-ID-Pad4)*%
X137580000Y-37000000D03*
%TO.P,J1,5,GND*%
%TO.N,GND*%
X136780000Y-37000000D03*
D43*
%TO.P,J1,6,Shield*%
X142830000Y-36900000D03*
X142830000Y-31450000D03*
X133930000Y-36900000D03*
X133930000Y-31450000D03*
%TD*%
D27*
%TO.P,C7,1*%
%TO.N,/RESET*%
X138247500Y-88630000D03*
%TO.P,C7,2*%
%TO.N,GND*%
X136172500Y-88630000D03*
%TD*%
D14*
%TO.P,R4,1*%
%TO.N,Vusb*%
X144880000Y-42215000D03*
%TO.P,R4,2*%
%TO.N,Net-(D1-A)*%
X144880000Y-40215000D03*
%TD*%
D44*
%TO.N,/USER_LED*%
X134764500Y-74100000D03*
X133200000Y-74100000D03*
%TO.N,+5V*%
X129900000Y-106300000D03*
X129900000Y-104036000D03*
X100000000Y-94300000D03*
X102400000Y-95500000D03*
X170000000Y-80800000D03*
X170700000Y-79000000D03*
%TO.N,+3V3*%
X126847500Y-78461242D03*
X128600000Y-79500000D03*
%TO.N,/BL_WAKEUP*%
X139800000Y-53500000D03*
X140617000Y-55500000D03*
%TO.N,GND*%
X135300000Y-31060000D03*
X135310000Y-31970000D03*
X138320000Y-48630000D03*
X101550000Y-104940000D03*
X136780000Y-35480000D03*
X137200000Y-59890000D03*
X135310000Y-36460000D03*
X100250000Y-97140000D03*
X148430000Y-76280000D03*
X133260000Y-70570000D03*
X160490000Y-38990000D03*
X156300000Y-38970000D03*
X135310000Y-75730000D03*
X141240000Y-79920000D03*
X116610000Y-74610000D03*
X162820000Y-30550000D03*
X150070000Y-72380000D03*
X174000000Y-92900000D03*
X132070000Y-71580000D03*
X133640000Y-85390000D03*
X141410000Y-36420000D03*
X145110000Y-70690000D03*
X173350000Y-99580000D03*
X153880000Y-30560000D03*
X148580000Y-83950000D03*
X135220000Y-88640000D03*
X141420000Y-37150000D03*
X141430000Y-31900000D03*
X141430000Y-31090000D03*
X157700000Y-38950000D03*
X175680000Y-106180000D03*
X148460000Y-78570000D03*
X137960000Y-77270000D03*
X148070000Y-63560000D03*
X148400000Y-32585000D03*
X156420000Y-36240000D03*
X130690000Y-76070000D03*
X133510000Y-59260000D03*
X142390000Y-77290000D03*
X173990000Y-90010000D03*
X142300000Y-74080000D03*
X147470000Y-58420000D03*
X135310000Y-37250000D03*
X147170000Y-41280000D03*
%TD*%
D45*
%TO.N,/E1A*%
X146800000Y-67857000D02*
X150081744Y-67857000D01*
X150081744Y-67857000D02*
X159648000Y-77423256D01*
X159648000Y-77423256D02*
X159648000Y-93312000D01*
X159648000Y-93312000D02*
X157890000Y-95070000D01*
%TO.N,/ULTRA_ECHO*%
X149995500Y-75100000D02*
X150395500Y-75500000D01*
%TO.N,Net-(D4-A)*%
X150640000Y-31475000D02*
X148435000Y-31475000D01*
X148435000Y-31475000D02*
X148410000Y-31450000D01*
%TO.N,Net-(MDBT42T-AT1-INDICATOR)*%
X155200000Y-33440000D02*
X150675000Y-33440000D01*
X150675000Y-33440000D02*
X150640000Y-33475000D01*
%TO.N,/USER_LED*%
X132960000Y-75150000D02*
X132960000Y-74340000D01*
X132960000Y-74340000D02*
X133200000Y-74100000D01*
X134764500Y-74100000D02*
X136997008Y-74100000D01*
X136997008Y-74100000D02*
X137490000Y-73607008D01*
X137490000Y-73607008D02*
X137490000Y-72760000D01*
D46*
%TO.N,+5V*%
X129900000Y-106300000D02*
X158263000Y-106300000D01*
X129900000Y-103485000D02*
X115360000Y-103485000D01*
X129900000Y-103485000D02*
X129900000Y-104036000D01*
X158263000Y-106300000D02*
X170000000Y-94563000D01*
X111750000Y-97667500D02*
X104567500Y-97667500D01*
X100000000Y-94300000D02*
X100000000Y-94350000D01*
X100000000Y-94350000D02*
X97200000Y-97150000D01*
X104567500Y-97667500D02*
X102400000Y-95500000D01*
X177760000Y-102323000D02*
X177760000Y-103740000D01*
X176465000Y-79835000D02*
X171535000Y-79835000D01*
X171535000Y-79835000D02*
X170700000Y-79000000D01*
X170000000Y-80800000D02*
X170000000Y-94563000D01*
X170000000Y-94563000D02*
X177760000Y-102323000D01*
%TO.N,+3V3*%
X178616500Y-61163818D02*
X178500000Y-61047318D01*
X178500000Y-61047318D02*
X178500000Y-49800000D01*
D45*
X166842500Y-61457500D02*
X172700000Y-55600000D01*
D46*
X175000000Y-93574144D02*
X176677356Y-95251500D01*
X177722644Y-95251500D02*
X178616500Y-94357644D01*
X175000000Y-86410000D02*
X175000000Y-93574144D01*
X176677356Y-95251500D02*
X177722644Y-95251500D01*
X178616500Y-94357644D02*
X178616500Y-61163818D01*
D45*
X178500000Y-49800000D02*
X181472000Y-46828000D01*
X181472000Y-46828000D02*
X181472000Y-35866056D01*
X181472000Y-35866056D02*
X178987944Y-33382000D01*
X159800000Y-35784000D02*
X159800000Y-37740000D01*
X178987944Y-33382000D02*
X162202000Y-33382000D01*
X162202000Y-33382000D02*
X159800000Y-35784000D01*
X147470000Y-61457500D02*
X166842500Y-61457500D01*
X172700000Y-55600000D02*
X178500000Y-49800000D01*
X126847500Y-78461242D02*
X126847500Y-77997500D01*
X134137500Y-77596842D02*
X132234342Y-79500000D01*
X134137500Y-72690000D02*
X134137500Y-77596842D01*
X132234342Y-79500000D02*
X128600000Y-79500000D01*
X126847500Y-77997500D02*
X126210000Y-77360000D01*
D46*
X126117500Y-75210000D02*
X126117500Y-77267500D01*
X126117500Y-77267500D02*
X126210000Y-77360000D01*
X121610000Y-72880000D02*
X123787500Y-72880000D01*
X123787500Y-72880000D02*
X126117500Y-75210000D01*
D45*
%TO.N,/BOOT*%
X122253000Y-68857000D02*
X134195992Y-68857000D01*
X121300000Y-69810000D02*
X122253000Y-68857000D01*
X134217992Y-68835000D02*
X135065000Y-68835000D01*
X134195992Y-68857000D02*
X134217992Y-68835000D01*
D46*
%TO.N,+3V3*%
X116160000Y-40040000D02*
X117401500Y-38798500D01*
X117401500Y-38798500D02*
X119214247Y-38798500D01*
X119214247Y-38798500D02*
X119941500Y-39525753D01*
X119941500Y-39525753D02*
X119941500Y-44704000D01*
X119941500Y-44704000D02*
X135577500Y-60340000D01*
X98720000Y-46270000D02*
X104950000Y-40040000D01*
X104950000Y-40040000D02*
X116160000Y-40040000D01*
X97510000Y-78760000D02*
X96143500Y-77393500D01*
X96143500Y-77393500D02*
X96143500Y-48846500D01*
X96143500Y-48846500D02*
X98720000Y-46270000D01*
%TO.N,+5V*%
X97200000Y-97150000D02*
X97200000Y-100650000D01*
X97200000Y-100650000D02*
X97150000Y-100700000D01*
%TO.N,+3V3*%
X122580000Y-99900000D02*
X132733500Y-89746500D01*
X132733500Y-89746500D02*
X138857644Y-89746500D01*
X138857644Y-89746500D02*
X145347500Y-83256644D01*
X145347500Y-83256644D02*
X145347500Y-81570000D01*
%TO.N,+5V*%
X134460000Y-103485000D02*
X129900000Y-103485000D01*
X115360000Y-103485000D02*
X111750000Y-99875000D01*
X111750000Y-99875000D02*
X111750000Y-97667500D01*
X111750000Y-97667500D02*
X128117500Y-81300000D01*
D45*
%TO.N,/E1B*%
X146415000Y-68335000D02*
X149916276Y-68335000D01*
X149916276Y-68335000D02*
X158500000Y-76918724D01*
X158500000Y-77100000D02*
X159193000Y-77793000D01*
X159193000Y-77793000D02*
X159193000Y-91267000D01*
X158500000Y-76918724D02*
X158500000Y-77100000D01*
X159193000Y-91267000D02*
X157890000Y-92570000D01*
%TO.N,/PWR_ADC*%
X146415000Y-69335000D02*
X150272809Y-69335000D01*
X150272809Y-69335000D02*
X157890000Y-76952191D01*
X157890000Y-76952191D02*
X157890000Y-90070000D01*
%TO.N,/ULTRA_ECHO*%
X150395500Y-92629500D02*
X150395500Y-75500000D01*
X146415000Y-70835000D02*
X146415000Y-73715000D01*
X146415000Y-73715000D02*
X147800000Y-75100000D01*
X147800000Y-75100000D02*
X149995500Y-75100000D01*
D46*
%TO.N,+5V*%
X177760000Y-103740000D02*
X177760000Y-107307500D01*
X177760000Y-107307500D02*
X177747500Y-107320000D01*
D45*
%TO.N,/uBUTTON*%
X177200000Y-88835000D02*
X177200000Y-94085000D01*
%TO.N,/E2B*%
X135065000Y-67835000D02*
X118505532Y-67835000D01*
X96284500Y-101378500D02*
X100474000Y-105568000D01*
X154541342Y-105568000D02*
X160129342Y-99980000D01*
X118505532Y-67835000D02*
X96284500Y-90056032D01*
X96284500Y-90056032D02*
X96284500Y-101378500D01*
X100474000Y-105568000D02*
X154541342Y-105568000D01*
X160129342Y-99980000D02*
X160129342Y-99809342D01*
X160129342Y-99809342D02*
X157890000Y-97570000D01*
%TO.N,/E2A*%
X101095000Y-99499000D02*
X101095000Y-96538468D01*
X100645000Y-96088468D02*
X100645000Y-86339000D01*
X100645000Y-86339000D02*
X118627000Y-68357000D01*
X101095000Y-96538468D02*
X100645000Y-96088468D01*
X118627000Y-68357000D02*
X135300000Y-68357000D01*
X100722000Y-99872000D02*
X101095000Y-99499000D01*
X100722000Y-101528000D02*
X100722000Y-99872000D01*
X103857000Y-104663000D02*
X100722000Y-101528000D01*
X153297000Y-104663000D02*
X103857000Y-104663000D01*
X157890000Y-100070000D02*
X153297000Y-104663000D01*
%TO.N,/PS2_MISO*%
X143490000Y-61410000D02*
X143490000Y-60375525D01*
X143490000Y-60375525D02*
X152282525Y-51583000D01*
X152282525Y-51583000D02*
X160874880Y-51582999D01*
X160874880Y-51582999D02*
X164222000Y-48235879D01*
X164222000Y-44472107D02*
X171594107Y-37100000D01*
X164222000Y-48235879D02*
X164222000Y-44472107D01*
X171594107Y-37100000D02*
X178500000Y-37100000D01*
%TO.N,/PS2_MOSI*%
X142990000Y-61410000D02*
X142990000Y-60176936D01*
X142990000Y-60176936D02*
X152038936Y-51128000D01*
X152038936Y-51128000D02*
X160686412Y-51128000D01*
X160686412Y-51128000D02*
X161643000Y-50171411D01*
X161643000Y-50171411D02*
X161643000Y-44857000D01*
X161643000Y-44857000D02*
X171800000Y-34700000D01*
X171800000Y-34700000D02*
X174260000Y-34700000D01*
X174260000Y-34700000D02*
X174400000Y-34560000D01*
X174400000Y-34560000D02*
X178500000Y-34560000D01*
X174134107Y-34560000D02*
X174400000Y-34560000D01*
%TO.N,/AN1*%
X142490000Y-61410000D02*
X142490000Y-60033468D01*
X151850468Y-50673000D02*
X153707000Y-50673000D01*
X142490000Y-60033468D02*
X151850468Y-50673000D01*
X153707000Y-50673000D02*
X155010000Y-49370000D01*
%TO.N,/BN2*%
X157510000Y-49370000D02*
X158813000Y-50673000D01*
X158813000Y-50673000D02*
X160497944Y-50673000D01*
X160042944Y-47612000D02*
X151475190Y-47612000D01*
X160497944Y-50673000D02*
X161188000Y-49982944D01*
X151475190Y-47612000D02*
X140990000Y-58097190D01*
X140990000Y-58097190D02*
X140990000Y-61410000D01*
X161188000Y-49982944D02*
X161188000Y-48757056D01*
X161188000Y-48757056D02*
X160042944Y-47612000D01*
%TO.N,/BN1*%
X141490000Y-61410000D02*
X141490000Y-58240658D01*
X158707000Y-48067000D02*
X160010000Y-49370000D01*
X141490000Y-58240658D02*
X151663658Y-48067000D01*
X151663658Y-48067000D02*
X158707000Y-48067000D01*
%TO.N,/AN2*%
X152510000Y-49370000D02*
X141990000Y-59890000D01*
X141990000Y-59890000D02*
X141990000Y-61410000D01*
%TO.N,/BL_WAKEUP*%
X140490000Y-61410000D02*
X140490000Y-55627000D01*
X140490000Y-55627000D02*
X140617000Y-55500000D01*
X151145000Y-37055000D02*
X154060000Y-34140000D01*
X139800000Y-53500000D02*
X151145000Y-42155000D01*
X151145000Y-42155000D02*
X151145000Y-37055000D01*
X154060000Y-34140000D02*
X155200000Y-34140000D01*
%TO.N,/BL_RX*%
X155200000Y-35540000D02*
X154246000Y-35540000D01*
X154246000Y-35540000D02*
X152055000Y-37731000D01*
X152055000Y-43045000D02*
X139990000Y-55110000D01*
X152055000Y-37731000D02*
X152055000Y-43045000D01*
X139990000Y-55110000D02*
X139990000Y-61410000D01*
%TO.N,/BL_TX*%
X139490000Y-54710000D02*
X151600000Y-42600000D01*
X139490000Y-61410000D02*
X139490000Y-54710000D01*
X154060000Y-34840000D02*
X155200000Y-34840000D01*
X151600000Y-42600000D02*
X151600000Y-37300000D01*
X151600000Y-37300000D02*
X154060000Y-34840000D01*
%TO.N,/PS2_SCK*%
X178500000Y-47260000D02*
X179678000Y-46082000D01*
X179678000Y-41692056D02*
X178987944Y-41002000D01*
X179678000Y-46082000D02*
X179678000Y-41692056D01*
X143990000Y-60518992D02*
X143990000Y-61410000D01*
X178987944Y-41002000D02*
X173003895Y-41002000D01*
X173003895Y-41002000D02*
X156213895Y-57792000D01*
X156213895Y-57792000D02*
X146716992Y-57792000D01*
X146716992Y-57792000D02*
X143990000Y-60518992D01*
%TO.N,/PS2_CS*%
X144490000Y-61410000D02*
X145602000Y-60298000D01*
X160382000Y-60298000D02*
X178500000Y-42180000D01*
X145602000Y-60298000D02*
X160382000Y-60298000D01*
%TO.N,/uBUTTON*%
X177000000Y-86410000D02*
X156925000Y-66335000D01*
X156925000Y-66335000D02*
X146415000Y-66335000D01*
X177000000Y-86410000D02*
X177000000Y-88635000D01*
X177000000Y-88635000D02*
X177200000Y-88835000D01*
%TO.N,/IMU_I2C_SDA*%
X168563000Y-64357000D02*
X146200000Y-64357000D01*
X172498000Y-60422000D02*
X168563000Y-64357000D01*
X177141411Y-60422000D02*
X172498000Y-60422000D01*
X178098000Y-74787944D02*
X178098000Y-61378588D01*
X178098000Y-61378588D02*
X177141411Y-60422000D01*
X175287000Y-75242944D02*
X175977056Y-75933000D01*
X176952944Y-75933000D02*
X178098000Y-74787944D01*
X175977056Y-75933000D02*
X176952944Y-75933000D01*
X175287000Y-73393000D02*
X175287000Y-75242944D01*
X176465000Y-72215000D02*
X175287000Y-73393000D01*
%TO.N,/IMU_I2C_SCL*%
X176465000Y-74755000D02*
X177643000Y-73577000D01*
X177643000Y-73577000D02*
X177643000Y-61567056D01*
X177643000Y-61567056D02*
X176952944Y-60877000D01*
X176952944Y-60877000D02*
X175977056Y-60877000D01*
X175977056Y-60877000D02*
X172019056Y-64835000D01*
X172019056Y-64835000D02*
X146415000Y-64835000D01*
%TO.N,/IMU_INT*%
X176465000Y-62055000D02*
X173185000Y-65335000D01*
X173185000Y-65335000D02*
X146415000Y-65335000D01*
%TO.N,/SWDIO*%
X123780000Y-40040000D02*
X137990000Y-54250000D01*
X137990000Y-54250000D02*
X137990000Y-61410000D01*
%TO.N,/SWCLK*%
X118700000Y-40040000D02*
X118700000Y-48700000D01*
X118700000Y-48700000D02*
X133335000Y-63335000D01*
X133335000Y-63335000D02*
X135065000Y-63335000D01*
%TO.N,/USER_RX*%
X98720000Y-51270000D02*
X112285000Y-64835000D01*
X112285000Y-64835000D02*
X135065000Y-64835000D01*
%TO.N,/USER_TX*%
X98720000Y-48770000D02*
X114285000Y-64335000D01*
X114285000Y-64335000D02*
X135065000Y-64335000D01*
%TO.N,/X1*%
X97510000Y-76260000D02*
X106935000Y-66835000D01*
X106935000Y-66835000D02*
X135065000Y-66835000D01*
%TO.N,/X2*%
X97510000Y-73760000D02*
X104935000Y-66335000D01*
X104935000Y-66335000D02*
X135065000Y-66335000D01*
%TO.N,/X3*%
X97510000Y-71260000D02*
X102935000Y-65835000D01*
X102935000Y-65835000D02*
X135065000Y-65835000D01*
%TO.N,/X4*%
X97510000Y-68760000D02*
X100935000Y-65335000D01*
X100935000Y-65335000D02*
X135065000Y-65335000D01*
%TO.N,/ULTRA_ECHO*%
X139540000Y-103485000D02*
X150395500Y-92629500D01*
%TO.N,/ULTRA_TRIG*%
X137000000Y-103485000D02*
X146300000Y-94185000D01*
X146300000Y-94185000D02*
X146300000Y-75428992D01*
X144734008Y-73863000D02*
X143745992Y-73863000D01*
X146300000Y-75428992D02*
X144734008Y-73863000D01*
X143490000Y-73607008D02*
X143490000Y-72760000D01*
X143745992Y-73863000D02*
X143490000Y-73607008D01*
%TO.N,/RESET*%
X138247500Y-88630000D02*
X138247500Y-86952500D01*
X138247500Y-86952500D02*
X140920000Y-84280000D01*
X140920000Y-84280000D02*
X141868000Y-83332000D01*
X141868000Y-83332000D02*
X141868000Y-77656127D01*
X141868000Y-77656127D02*
X141228000Y-77016127D01*
X141228000Y-77016127D02*
X141228000Y-74845008D01*
X141228000Y-74845008D02*
X139990000Y-73607008D01*
X139990000Y-73607008D02*
X139990000Y-72760000D01*
%TO.N,Net-(LED1-DOUT)*%
X97150000Y-103900000D02*
X102150000Y-108900000D01*
X102150000Y-108900000D02*
X168200000Y-108900000D01*
X168200000Y-108900000D02*
X173360000Y-103740000D01*
%TO.N,Net-(LED1-DIN)*%
X115700000Y-81300000D02*
X101100000Y-95900000D01*
X101550000Y-96350000D02*
X101550000Y-100700000D01*
X126117500Y-81300000D02*
X115700000Y-81300000D01*
X101100000Y-95900000D02*
X101550000Y-96350000D01*
X126210000Y-79260000D02*
X126210000Y-81207500D01*
X126210000Y-81207500D02*
X126117500Y-81300000D01*
%TO.N,/RGB_DIN*%
X128117500Y-75210000D02*
X128117500Y-74510000D01*
X132792500Y-69835000D02*
X135065000Y-69835000D01*
X128117500Y-74510000D02*
X132792500Y-69835000D01*
X128117500Y-75210000D02*
X128117500Y-78277500D01*
X128117500Y-78277500D02*
X128085000Y-78310000D01*
%TO.N,Net-(R1-Pad2)*%
X119110000Y-72880000D02*
X119110000Y-70000000D01*
X119110000Y-70000000D02*
X119300000Y-69810000D01*
%TO.N,Net-(U1-PA1)*%
X143990000Y-72760000D02*
X144490000Y-72760000D01*
%TO.N,+3V3*%
X147295000Y-63335000D02*
X147470000Y-63160000D01*
X133780000Y-71210000D02*
X133780000Y-72332500D01*
D47*
X145352500Y-78580000D02*
X145352500Y-76290000D01*
D45*
X135647500Y-60270000D02*
X135577500Y-60340000D01*
X148492500Y-69835000D02*
X148960000Y-70302500D01*
X147470000Y-63160000D02*
X147470000Y-61457500D01*
X142990000Y-72760000D02*
X142990000Y-70305000D01*
X142990000Y-70305000D02*
X142520000Y-69835000D01*
X136660000Y-60270000D02*
X135647500Y-60270000D01*
X136990000Y-61410000D02*
X136990000Y-60600000D01*
X144930000Y-69385000D02*
X144480000Y-69835000D01*
X142990000Y-73927500D02*
X145352500Y-76290000D01*
X145155000Y-63335000D02*
X144930000Y-63560000D01*
X136990000Y-60600000D02*
X136660000Y-60270000D01*
X133780000Y-72332500D02*
X134137500Y-72690000D01*
X144480000Y-69835000D02*
X142520000Y-69835000D01*
X144930000Y-63560000D02*
X144930000Y-69385000D01*
X137615000Y-69835000D02*
X136990000Y-69210000D01*
X136990000Y-69210000D02*
X136990000Y-61410000D01*
X142990000Y-72760000D02*
X142990000Y-73927500D01*
D47*
X145347500Y-78585000D02*
X145352500Y-78580000D01*
X145347500Y-81570000D02*
X145347500Y-78585000D01*
D45*
X136990000Y-69210000D02*
X136990000Y-70450000D01*
X134155000Y-70835000D02*
X133780000Y-71210000D01*
X146415000Y-69835000D02*
X148492500Y-69835000D01*
X146415000Y-63335000D02*
X147295000Y-63335000D01*
X136605000Y-70835000D02*
X135065000Y-70835000D01*
X146415000Y-69835000D02*
X144480000Y-69835000D01*
X135065000Y-70835000D02*
X134155000Y-70835000D01*
X146415000Y-63335000D02*
X145155000Y-63335000D01*
X142520000Y-69835000D02*
X137615000Y-69835000D01*
X136990000Y-70450000D02*
X136605000Y-70835000D01*
%TO.N,GND*%
X145465000Y-70335000D02*
X145110000Y-70690000D01*
D47*
X137960000Y-77270000D02*
X137960000Y-78212500D01*
X148430000Y-76280000D02*
X147437500Y-76280000D01*
X173360000Y-99590000D02*
X173350000Y-99580000D01*
X135310000Y-75730000D02*
X136262500Y-75730000D01*
D46*
X160500000Y-38980000D02*
X160490000Y-38990000D01*
D47*
X175672500Y-106187500D02*
X175680000Y-106180000D01*
X100240000Y-97150000D02*
X100250000Y-97140000D01*
D45*
X135065000Y-70335000D02*
X133495000Y-70335000D01*
D47*
X174000000Y-88835000D02*
X174000000Y-90000000D01*
D46*
X160500000Y-37740000D02*
X160500000Y-38980000D01*
D47*
X173360000Y-100540000D02*
X173360000Y-99590000D01*
X137960000Y-78212500D02*
X137952500Y-78220000D01*
X147437500Y-78570000D02*
X147427500Y-78580000D01*
X141240000Y-79920000D02*
X140152500Y-79920000D01*
X136172500Y-88630000D02*
X135230000Y-88630000D01*
D45*
X138780000Y-48170000D02*
X138320000Y-48630000D01*
D47*
X148410000Y-33500000D02*
X148410000Y-32595000D01*
D45*
X138780000Y-47510000D02*
X138780000Y-48170000D01*
D47*
X135230000Y-88630000D02*
X135220000Y-88640000D01*
X133510000Y-60332500D02*
X133502500Y-60340000D01*
D45*
X137490000Y-61410000D02*
X137490000Y-60180000D01*
X133495000Y-70335000D02*
X133260000Y-70570000D01*
D47*
X142390000Y-76142500D02*
X142387500Y-76140000D01*
D45*
X137490000Y-60180000D02*
X137200000Y-59890000D01*
D47*
X132070000Y-71580000D02*
X132070000Y-72682500D01*
D45*
X146415000Y-63835000D02*
X147795000Y-63835000D01*
D47*
X132070000Y-72682500D02*
X132062500Y-72690000D01*
D46*
X155200000Y-30540000D02*
X155180000Y-30560000D01*
D45*
X147795000Y-63835000D02*
X148070000Y-63560000D01*
D47*
X133640000Y-85390000D02*
X133640000Y-84860000D01*
X174000000Y-94085000D02*
X174000000Y-92900000D01*
D46*
X136780000Y-37000000D02*
X136780000Y-35480000D01*
D47*
X116610000Y-74610000D02*
X116610000Y-72880000D01*
D46*
X155200000Y-36240000D02*
X156420000Y-36240000D01*
X155180000Y-30560000D02*
X153880000Y-30560000D01*
D47*
X147170000Y-42200000D02*
X147160000Y-42210000D01*
X174000000Y-90000000D02*
X173990000Y-90010000D01*
X142390000Y-77290000D02*
X142390000Y-76142500D01*
X148962500Y-72380000D02*
X148960000Y-72377500D01*
X130690000Y-76070000D02*
X130690000Y-75155000D01*
D46*
X156300000Y-37740000D02*
X156300000Y-38970000D01*
X157700000Y-37740000D02*
X157700000Y-38950000D01*
D47*
X147470000Y-58420000D02*
X147470000Y-59382500D01*
D45*
X142490000Y-72760000D02*
X142490000Y-73890000D01*
D47*
X133510000Y-59260000D02*
X133510000Y-60332500D01*
X148580000Y-83950000D02*
X149492500Y-83950000D01*
X175672500Y-107320000D02*
X175672500Y-106187500D01*
X147170000Y-41280000D02*
X147170000Y-42200000D01*
X133640000Y-84860000D02*
X134220000Y-84280000D01*
X101550000Y-103900000D02*
X101550000Y-104940000D01*
D45*
X142490000Y-73890000D02*
X142300000Y-74080000D01*
D47*
X147437500Y-76280000D02*
X147427500Y-76290000D01*
D45*
X146415000Y-70335000D02*
X145465000Y-70335000D01*
D47*
X148460000Y-78570000D02*
X147437500Y-78570000D01*
X148410000Y-32595000D02*
X148400000Y-32585000D01*
D46*
X161600000Y-30540000D02*
X162810000Y-30540000D01*
D47*
X150070000Y-72380000D02*
X148962500Y-72380000D01*
D46*
X162810000Y-30540000D02*
X162820000Y-30550000D01*
D47*
X99275000Y-97150000D02*
X100240000Y-97150000D01*
D45*
%TO.N,/OSC_OUT*%
X140312500Y-75032500D02*
X140312500Y-76140000D01*
X139490000Y-74210000D02*
X140312500Y-75032500D01*
X140312500Y-78060000D02*
X140152500Y-78220000D01*
X139490000Y-72760000D02*
X139490000Y-74210000D01*
X140312500Y-76140000D02*
X140312500Y-78060000D01*
%TO.N,/OSC_IN*%
X138690000Y-79920000D02*
X139030000Y-79580000D01*
X137952500Y-79920000D02*
X138690000Y-79920000D01*
X138990000Y-73830000D02*
X138410000Y-74410000D01*
X139030000Y-76422500D02*
X138337500Y-75730000D01*
X138410000Y-74410000D02*
X138410000Y-75657500D01*
X139030000Y-79580000D02*
X139030000Y-76422500D01*
X138990000Y-72760000D02*
X138990000Y-73830000D01*
X138410000Y-75657500D02*
X138337500Y-75730000D01*
D47*
%TO.N,Net-(D1-A)*%
X147105000Y-40215000D02*
X144880000Y-40215000D01*
X147160000Y-40160000D02*
X147105000Y-40215000D01*
D48*
%TO.N,/D+*%
X138555000Y-38675001D02*
X138555000Y-40095000D01*
X138380000Y-38500001D02*
X138555000Y-38675001D01*
X138380000Y-37000000D02*
X138380000Y-38500001D01*
X138555000Y-40095000D02*
X137680000Y-40970000D01*
X137680000Y-40970000D02*
X137680000Y-41715000D01*
%TO.N,/D-*%
X139180000Y-38500001D02*
X139005000Y-38675001D01*
X139005000Y-40095000D02*
X139860000Y-40950000D01*
X139860000Y-40950000D02*
X139860000Y-41735000D01*
X139180000Y-37000000D02*
X139180000Y-38500001D01*
X139005000Y-38675001D02*
X139005000Y-40095000D01*
D46*
%TO.N,Net-(J1-VBUS)*%
X139980000Y-37000000D02*
X139980000Y-38590000D01*
X140330000Y-38940000D02*
X142300000Y-38940000D01*
X142300000Y-38940000D02*
X142670000Y-39310000D01*
X142670000Y-39310000D02*
X142670000Y-40210000D01*
X139980000Y-38590000D02*
X140330000Y-38940000D01*
D48*
%TO.N,/USB_CONN_D+*%
X138554999Y-45998197D02*
X137830000Y-46723196D01*
X137830000Y-46723196D02*
X137830000Y-47510000D01*
X137680000Y-43715000D02*
X138554999Y-44589999D01*
X138554999Y-44589999D02*
X138554999Y-45998197D01*
%TO.N,/USB_CONN_D-*%
X139730000Y-46536802D02*
X139730000Y-47510000D01*
X139005001Y-45811803D02*
X139730000Y-46536802D01*
X139005001Y-44589999D02*
X139005001Y-45811803D01*
X139860000Y-43735000D02*
X139005001Y-44589999D01*
D45*
%TO.N,Vusb*%
X138780000Y-49230000D02*
X139340000Y-48670000D01*
X139340000Y-48670000D02*
X142290000Y-48670000D01*
X142290000Y-48670000D02*
X142670000Y-48290000D01*
X138780000Y-49785000D02*
X138780000Y-49230000D01*
D47*
X142715000Y-42215000D02*
X142670000Y-42260000D01*
X144880000Y-42215000D02*
X142715000Y-42215000D01*
D45*
X142670000Y-48290000D02*
X142670000Y-42260000D01*
D48*
%TO.N,/USB_D+*%
X137830000Y-50778751D02*
X137830000Y-49785000D01*
X138490000Y-60247499D02*
X138515000Y-60222499D01*
X138490000Y-61410000D02*
X138490000Y-60247499D01*
X137830000Y-50778751D02*
X138515000Y-51463750D01*
X138515000Y-60222499D02*
X138515000Y-51463750D01*
%TO.N,/USB_D-*%
X138965000Y-51543751D02*
X139730000Y-50778751D01*
X138990000Y-60247499D02*
X138965000Y-60222499D01*
X139730000Y-50778751D02*
X139730000Y-49785000D01*
X138965000Y-60222499D02*
X138965000Y-51543751D01*
X138990000Y-61410000D02*
X138990000Y-60247499D01*
D47*
%TO.N,Net-(D2-A)*%
X147347500Y-83855000D02*
X147442500Y-83950000D01*
X147347500Y-81570000D02*
X147347500Y-83855000D01*
D45*
%TO.N,Net-(D3-A)*%
X130745000Y-77150000D02*
X130690000Y-77205000D01*
X132960000Y-77150000D02*
X130745000Y-77150000D01*
%TD*%
%TA.AperFunction,Conductor*%
%TO.N,GND*%
G36*
X141923832Y-35959685D02*
G01*
X141969587Y-36012489D01*
X141980786Y-36062660D01*
X141998645Y-37714660D01*
X141979686Y-37781908D01*
X141927380Y-37828231D01*
X141874652Y-37840000D01*
X141114000Y-37840000D01*
X141046961Y-37820315D01*
X141001206Y-37767511D01*
X140990000Y-37716000D01*
X140990000Y-36064000D01*
X141009685Y-35996961D01*
X141062489Y-35951206D01*
X141114000Y-35940000D01*
X141856793Y-35940000D01*
X141923832Y-35959685D01*
G37*
%TD.AperFunction*%
%TD*%
%TA.AperFunction,Conductor*%
%TO.N,GND*%
G36*
X142013832Y-30549685D02*
G01*
X142059587Y-30602489D01*
X142070786Y-30652660D01*
X142088645Y-32304660D01*
X142069686Y-32371908D01*
X142017380Y-32418231D01*
X141964652Y-32430000D01*
X141204000Y-32430000D01*
X141136961Y-32410315D01*
X141091206Y-32357511D01*
X141080000Y-32306000D01*
X141080000Y-30654000D01*
X141099685Y-30586961D01*
X141152489Y-30541206D01*
X141204000Y-30530000D01*
X141946793Y-30530000D01*
X142013832Y-30549685D01*
G37*
%TD.AperFunction*%
%TD*%
%TA.AperFunction,Conductor*%
%TO.N,GND*%
G36*
X135703832Y-35959685D02*
G01*
X135749587Y-36012489D01*
X135760786Y-36062660D01*
X135778645Y-37714660D01*
X135759686Y-37781908D01*
X135707380Y-37828231D01*
X135654652Y-37840000D01*
X134894000Y-37840000D01*
X134826961Y-37820315D01*
X134781206Y-37767511D01*
X134770000Y-37716000D01*
X134770000Y-36064000D01*
X134789685Y-35996961D01*
X134842489Y-35951206D01*
X134894000Y-35940000D01*
X135636793Y-35940000D01*
X135703832Y-35959685D01*
G37*
%TD.AperFunction*%
%TD*%
%TA.AperFunction,Conductor*%
%TO.N,GND*%
G36*
X135653832Y-30559685D02*
G01*
X135699587Y-30612489D01*
X135710786Y-30662660D01*
X135728645Y-32314660D01*
X135709686Y-32381908D01*
X135657380Y-32428231D01*
X135604652Y-32440000D01*
X134844000Y-32440000D01*
X134776961Y-32420315D01*
X134731206Y-32367511D01*
X134720000Y-32316000D01*
X134720000Y-30664000D01*
X134739685Y-30596961D01*
X134792489Y-30551206D01*
X134844000Y-30540000D01*
X135586793Y-30540000D01*
X135653832Y-30559685D01*
G37*
%TD.AperFunction*%
%TD*%
M02*
