%TF.GenerationSoftware,KiCad,Pcbnew,9.0.1*%
%TF.CreationDate,2025-05-06T12:21:24-06:00*%
%TF.ProjectId,2025_04_STM32F103_RobotBrain,32303235-5f30-4345-9f53-544d33324631,rev?*%
%TF.SameCoordinates,Original*%
%TF.FileFunction,Legend,Top*%
%TF.FilePolarity,Positive*%
%FSLAX46Y46*%
G04 Gerber Fmt 4.6, Leading zero omitted, Abs format (unit mm)*
G04 Created by KiCad (PCBNEW 9.0.1) date 2025-05-06 12:21:24*
%MOMM*%
%LPD*%
G01*
G04 APERTURE LIST*
%ADD10C,0.100000*%
%ADD11C,0.150000*%
%ADD12C,0.254000*%
%ADD13C,0.120000*%
%ADD14C,0.127000*%
%ADD15C,0.200000*%
G04 APERTURE END LIST*
D10*
X94703884Y-31828721D02*
X95037217Y-31828721D01*
X95180074Y-32352531D02*
X94703884Y-32352531D01*
X94703884Y-32352531D02*
X94703884Y-31352531D01*
X94703884Y-31352531D02*
X95180074Y-31352531D01*
X95608646Y-32352531D02*
X95608646Y-31685864D01*
X95608646Y-31781102D02*
X95656265Y-31733483D01*
X95656265Y-31733483D02*
X95751503Y-31685864D01*
X95751503Y-31685864D02*
X95894360Y-31685864D01*
X95894360Y-31685864D02*
X95989598Y-31733483D01*
X95989598Y-31733483D02*
X96037217Y-31828721D01*
X96037217Y-31828721D02*
X96037217Y-32352531D01*
X96037217Y-31828721D02*
X96084836Y-31733483D01*
X96084836Y-31733483D02*
X96180074Y-31685864D01*
X96180074Y-31685864D02*
X96322931Y-31685864D01*
X96322931Y-31685864D02*
X96418170Y-31733483D01*
X96418170Y-31733483D02*
X96465789Y-31828721D01*
X96465789Y-31828721D02*
X96465789Y-32352531D01*
X96941979Y-32352531D02*
X96941979Y-31352531D01*
X96941979Y-31733483D02*
X97037217Y-31685864D01*
X97037217Y-31685864D02*
X97227693Y-31685864D01*
X97227693Y-31685864D02*
X97322931Y-31733483D01*
X97322931Y-31733483D02*
X97370550Y-31781102D01*
X97370550Y-31781102D02*
X97418169Y-31876340D01*
X97418169Y-31876340D02*
X97418169Y-32162054D01*
X97418169Y-32162054D02*
X97370550Y-32257292D01*
X97370550Y-32257292D02*
X97322931Y-32304912D01*
X97322931Y-32304912D02*
X97227693Y-32352531D01*
X97227693Y-32352531D02*
X97037217Y-32352531D01*
X97037217Y-32352531D02*
X96941979Y-32304912D01*
X98227693Y-32304912D02*
X98132455Y-32352531D01*
X98132455Y-32352531D02*
X97941979Y-32352531D01*
X97941979Y-32352531D02*
X97846741Y-32304912D01*
X97846741Y-32304912D02*
X97799122Y-32209673D01*
X97799122Y-32209673D02*
X97799122Y-31828721D01*
X97799122Y-31828721D02*
X97846741Y-31733483D01*
X97846741Y-31733483D02*
X97941979Y-31685864D01*
X97941979Y-31685864D02*
X98132455Y-31685864D01*
X98132455Y-31685864D02*
X98227693Y-31733483D01*
X98227693Y-31733483D02*
X98275312Y-31828721D01*
X98275312Y-31828721D02*
X98275312Y-31923959D01*
X98275312Y-31923959D02*
X97799122Y-32019197D01*
X99132455Y-32352531D02*
X99132455Y-31352531D01*
X99132455Y-32304912D02*
X99037217Y-32352531D01*
X99037217Y-32352531D02*
X98846741Y-32352531D01*
X98846741Y-32352531D02*
X98751503Y-32304912D01*
X98751503Y-32304912D02*
X98703884Y-32257292D01*
X98703884Y-32257292D02*
X98656265Y-32162054D01*
X98656265Y-32162054D02*
X98656265Y-31876340D01*
X98656265Y-31876340D02*
X98703884Y-31781102D01*
X98703884Y-31781102D02*
X98751503Y-31733483D01*
X98751503Y-31733483D02*
X98846741Y-31685864D01*
X98846741Y-31685864D02*
X99037217Y-31685864D01*
X99037217Y-31685864D02*
X99132455Y-31733483D01*
X100037217Y-32352531D02*
X100037217Y-31352531D01*
X100037217Y-32304912D02*
X99941979Y-32352531D01*
X99941979Y-32352531D02*
X99751503Y-32352531D01*
X99751503Y-32352531D02*
X99656265Y-32304912D01*
X99656265Y-32304912D02*
X99608646Y-32257292D01*
X99608646Y-32257292D02*
X99561027Y-32162054D01*
X99561027Y-32162054D02*
X99561027Y-31876340D01*
X99561027Y-31876340D02*
X99608646Y-31781102D01*
X99608646Y-31781102D02*
X99656265Y-31733483D01*
X99656265Y-31733483D02*
X99751503Y-31685864D01*
X99751503Y-31685864D02*
X99941979Y-31685864D01*
X99941979Y-31685864D02*
X100037217Y-31733483D01*
X100894360Y-32304912D02*
X100799122Y-32352531D01*
X100799122Y-32352531D02*
X100608646Y-32352531D01*
X100608646Y-32352531D02*
X100513408Y-32304912D01*
X100513408Y-32304912D02*
X100465789Y-32209673D01*
X100465789Y-32209673D02*
X100465789Y-31828721D01*
X100465789Y-31828721D02*
X100513408Y-31733483D01*
X100513408Y-31733483D02*
X100608646Y-31685864D01*
X100608646Y-31685864D02*
X100799122Y-31685864D01*
X100799122Y-31685864D02*
X100894360Y-31733483D01*
X100894360Y-31733483D02*
X100941979Y-31828721D01*
X100941979Y-31828721D02*
X100941979Y-31923959D01*
X100941979Y-31923959D02*
X100465789Y-32019197D01*
X101799122Y-32352531D02*
X101799122Y-31352531D01*
X101799122Y-32304912D02*
X101703884Y-32352531D01*
X101703884Y-32352531D02*
X101513408Y-32352531D01*
X101513408Y-32352531D02*
X101418170Y-32304912D01*
X101418170Y-32304912D02*
X101370551Y-32257292D01*
X101370551Y-32257292D02*
X101322932Y-32162054D01*
X101322932Y-32162054D02*
X101322932Y-31876340D01*
X101322932Y-31876340D02*
X101370551Y-31781102D01*
X101370551Y-31781102D02*
X101418170Y-31733483D01*
X101418170Y-31733483D02*
X101513408Y-31685864D01*
X101513408Y-31685864D02*
X101703884Y-31685864D01*
X101703884Y-31685864D02*
X101799122Y-31733483D01*
X102989599Y-32304912D02*
X103132456Y-32352531D01*
X103132456Y-32352531D02*
X103370551Y-32352531D01*
X103370551Y-32352531D02*
X103465789Y-32304912D01*
X103465789Y-32304912D02*
X103513408Y-32257292D01*
X103513408Y-32257292D02*
X103561027Y-32162054D01*
X103561027Y-32162054D02*
X103561027Y-32066816D01*
X103561027Y-32066816D02*
X103513408Y-31971578D01*
X103513408Y-31971578D02*
X103465789Y-31923959D01*
X103465789Y-31923959D02*
X103370551Y-31876340D01*
X103370551Y-31876340D02*
X103180075Y-31828721D01*
X103180075Y-31828721D02*
X103084837Y-31781102D01*
X103084837Y-31781102D02*
X103037218Y-31733483D01*
X103037218Y-31733483D02*
X102989599Y-31638245D01*
X102989599Y-31638245D02*
X102989599Y-31543007D01*
X102989599Y-31543007D02*
X103037218Y-31447769D01*
X103037218Y-31447769D02*
X103084837Y-31400150D01*
X103084837Y-31400150D02*
X103180075Y-31352531D01*
X103180075Y-31352531D02*
X103418170Y-31352531D01*
X103418170Y-31352531D02*
X103561027Y-31400150D01*
X103894361Y-31685864D02*
X104132456Y-32352531D01*
X104370551Y-31685864D02*
X104132456Y-32352531D01*
X104132456Y-32352531D02*
X104037218Y-32590626D01*
X104037218Y-32590626D02*
X103989599Y-32638245D01*
X103989599Y-32638245D02*
X103894361Y-32685864D01*
X104703885Y-32304912D02*
X104799123Y-32352531D01*
X104799123Y-32352531D02*
X104989599Y-32352531D01*
X104989599Y-32352531D02*
X105084837Y-32304912D01*
X105084837Y-32304912D02*
X105132456Y-32209673D01*
X105132456Y-32209673D02*
X105132456Y-32162054D01*
X105132456Y-32162054D02*
X105084837Y-32066816D01*
X105084837Y-32066816D02*
X104989599Y-32019197D01*
X104989599Y-32019197D02*
X104846742Y-32019197D01*
X104846742Y-32019197D02*
X104751504Y-31971578D01*
X104751504Y-31971578D02*
X104703885Y-31876340D01*
X104703885Y-31876340D02*
X104703885Y-31828721D01*
X104703885Y-31828721D02*
X104751504Y-31733483D01*
X104751504Y-31733483D02*
X104846742Y-31685864D01*
X104846742Y-31685864D02*
X104989599Y-31685864D01*
X104989599Y-31685864D02*
X105084837Y-31733483D01*
X105418171Y-31685864D02*
X105799123Y-31685864D01*
X105561028Y-31352531D02*
X105561028Y-32209673D01*
X105561028Y-32209673D02*
X105608647Y-32304912D01*
X105608647Y-32304912D02*
X105703885Y-32352531D01*
X105703885Y-32352531D02*
X105799123Y-32352531D01*
X106513409Y-32304912D02*
X106418171Y-32352531D01*
X106418171Y-32352531D02*
X106227695Y-32352531D01*
X106227695Y-32352531D02*
X106132457Y-32304912D01*
X106132457Y-32304912D02*
X106084838Y-32209673D01*
X106084838Y-32209673D02*
X106084838Y-31828721D01*
X106084838Y-31828721D02*
X106132457Y-31733483D01*
X106132457Y-31733483D02*
X106227695Y-31685864D01*
X106227695Y-31685864D02*
X106418171Y-31685864D01*
X106418171Y-31685864D02*
X106513409Y-31733483D01*
X106513409Y-31733483D02*
X106561028Y-31828721D01*
X106561028Y-31828721D02*
X106561028Y-31923959D01*
X106561028Y-31923959D02*
X106084838Y-32019197D01*
X106989600Y-32352531D02*
X106989600Y-31685864D01*
X106989600Y-31781102D02*
X107037219Y-31733483D01*
X107037219Y-31733483D02*
X107132457Y-31685864D01*
X107132457Y-31685864D02*
X107275314Y-31685864D01*
X107275314Y-31685864D02*
X107370552Y-31733483D01*
X107370552Y-31733483D02*
X107418171Y-31828721D01*
X107418171Y-31828721D02*
X107418171Y-32352531D01*
X107418171Y-31828721D02*
X107465790Y-31733483D01*
X107465790Y-31733483D02*
X107561028Y-31685864D01*
X107561028Y-31685864D02*
X107703885Y-31685864D01*
X107703885Y-31685864D02*
X107799124Y-31733483D01*
X107799124Y-31733483D02*
X107846743Y-31828721D01*
X107846743Y-31828721D02*
X107846743Y-32352531D01*
X108275314Y-32304912D02*
X108370552Y-32352531D01*
X108370552Y-32352531D02*
X108561028Y-32352531D01*
X108561028Y-32352531D02*
X108656266Y-32304912D01*
X108656266Y-32304912D02*
X108703885Y-32209673D01*
X108703885Y-32209673D02*
X108703885Y-32162054D01*
X108703885Y-32162054D02*
X108656266Y-32066816D01*
X108656266Y-32066816D02*
X108561028Y-32019197D01*
X108561028Y-32019197D02*
X108418171Y-32019197D01*
X108418171Y-32019197D02*
X108322933Y-31971578D01*
X108322933Y-31971578D02*
X108275314Y-31876340D01*
X108275314Y-31876340D02*
X108275314Y-31828721D01*
X108275314Y-31828721D02*
X108322933Y-31733483D01*
X108322933Y-31733483D02*
X108418171Y-31685864D01*
X108418171Y-31685864D02*
X108561028Y-31685864D01*
X108561028Y-31685864D02*
X108656266Y-31733483D01*
X109894362Y-32352531D02*
X109894362Y-31352531D01*
X109894362Y-31352531D02*
X110275314Y-31352531D01*
X110275314Y-31352531D02*
X110370552Y-31400150D01*
X110370552Y-31400150D02*
X110418171Y-31447769D01*
X110418171Y-31447769D02*
X110465790Y-31543007D01*
X110465790Y-31543007D02*
X110465790Y-31685864D01*
X110465790Y-31685864D02*
X110418171Y-31781102D01*
X110418171Y-31781102D02*
X110370552Y-31828721D01*
X110370552Y-31828721D02*
X110275314Y-31876340D01*
X110275314Y-31876340D02*
X109894362Y-31876340D01*
X110894362Y-32352531D02*
X110894362Y-31685864D01*
X110894362Y-31876340D02*
X110941981Y-31781102D01*
X110941981Y-31781102D02*
X110989600Y-31733483D01*
X110989600Y-31733483D02*
X111084838Y-31685864D01*
X111084838Y-31685864D02*
X111180076Y-31685864D01*
X111656267Y-32352531D02*
X111561029Y-32304912D01*
X111561029Y-32304912D02*
X111513410Y-32257292D01*
X111513410Y-32257292D02*
X111465791Y-32162054D01*
X111465791Y-32162054D02*
X111465791Y-31876340D01*
X111465791Y-31876340D02*
X111513410Y-31781102D01*
X111513410Y-31781102D02*
X111561029Y-31733483D01*
X111561029Y-31733483D02*
X111656267Y-31685864D01*
X111656267Y-31685864D02*
X111799124Y-31685864D01*
X111799124Y-31685864D02*
X111894362Y-31733483D01*
X111894362Y-31733483D02*
X111941981Y-31781102D01*
X111941981Y-31781102D02*
X111989600Y-31876340D01*
X111989600Y-31876340D02*
X111989600Y-32162054D01*
X111989600Y-32162054D02*
X111941981Y-32257292D01*
X111941981Y-32257292D02*
X111894362Y-32304912D01*
X111894362Y-32304912D02*
X111799124Y-32352531D01*
X111799124Y-32352531D02*
X111656267Y-32352531D01*
X112846743Y-31685864D02*
X112846743Y-32495388D01*
X112846743Y-32495388D02*
X112799124Y-32590626D01*
X112799124Y-32590626D02*
X112751505Y-32638245D01*
X112751505Y-32638245D02*
X112656267Y-32685864D01*
X112656267Y-32685864D02*
X112513410Y-32685864D01*
X112513410Y-32685864D02*
X112418172Y-32638245D01*
X112846743Y-32304912D02*
X112751505Y-32352531D01*
X112751505Y-32352531D02*
X112561029Y-32352531D01*
X112561029Y-32352531D02*
X112465791Y-32304912D01*
X112465791Y-32304912D02*
X112418172Y-32257292D01*
X112418172Y-32257292D02*
X112370553Y-32162054D01*
X112370553Y-32162054D02*
X112370553Y-31876340D01*
X112370553Y-31876340D02*
X112418172Y-31781102D01*
X112418172Y-31781102D02*
X112465791Y-31733483D01*
X112465791Y-31733483D02*
X112561029Y-31685864D01*
X112561029Y-31685864D02*
X112751505Y-31685864D01*
X112751505Y-31685864D02*
X112846743Y-31733483D01*
X113322934Y-32352531D02*
X113322934Y-31685864D01*
X113322934Y-31876340D02*
X113370553Y-31781102D01*
X113370553Y-31781102D02*
X113418172Y-31733483D01*
X113418172Y-31733483D02*
X113513410Y-31685864D01*
X113513410Y-31685864D02*
X113608648Y-31685864D01*
X114370553Y-32352531D02*
X114370553Y-31828721D01*
X114370553Y-31828721D02*
X114322934Y-31733483D01*
X114322934Y-31733483D02*
X114227696Y-31685864D01*
X114227696Y-31685864D02*
X114037220Y-31685864D01*
X114037220Y-31685864D02*
X113941982Y-31733483D01*
X114370553Y-32304912D02*
X114275315Y-32352531D01*
X114275315Y-32352531D02*
X114037220Y-32352531D01*
X114037220Y-32352531D02*
X113941982Y-32304912D01*
X113941982Y-32304912D02*
X113894363Y-32209673D01*
X113894363Y-32209673D02*
X113894363Y-32114435D01*
X113894363Y-32114435D02*
X113941982Y-32019197D01*
X113941982Y-32019197D02*
X114037220Y-31971578D01*
X114037220Y-31971578D02*
X114275315Y-31971578D01*
X114275315Y-31971578D02*
X114370553Y-31923959D01*
X114846744Y-32352531D02*
X114846744Y-31685864D01*
X114846744Y-31781102D02*
X114894363Y-31733483D01*
X114894363Y-31733483D02*
X114989601Y-31685864D01*
X114989601Y-31685864D02*
X115132458Y-31685864D01*
X115132458Y-31685864D02*
X115227696Y-31733483D01*
X115227696Y-31733483D02*
X115275315Y-31828721D01*
X115275315Y-31828721D02*
X115275315Y-32352531D01*
X115275315Y-31828721D02*
X115322934Y-31733483D01*
X115322934Y-31733483D02*
X115418172Y-31685864D01*
X115418172Y-31685864D02*
X115561029Y-31685864D01*
X115561029Y-31685864D02*
X115656268Y-31733483D01*
X115656268Y-31733483D02*
X115703887Y-31828721D01*
X115703887Y-31828721D02*
X115703887Y-32352531D01*
X116180077Y-32352531D02*
X116180077Y-31685864D01*
X116180077Y-31781102D02*
X116227696Y-31733483D01*
X116227696Y-31733483D02*
X116322934Y-31685864D01*
X116322934Y-31685864D02*
X116465791Y-31685864D01*
X116465791Y-31685864D02*
X116561029Y-31733483D01*
X116561029Y-31733483D02*
X116608648Y-31828721D01*
X116608648Y-31828721D02*
X116608648Y-32352531D01*
X116608648Y-31828721D02*
X116656267Y-31733483D01*
X116656267Y-31733483D02*
X116751505Y-31685864D01*
X116751505Y-31685864D02*
X116894362Y-31685864D01*
X116894362Y-31685864D02*
X116989601Y-31733483D01*
X116989601Y-31733483D02*
X117037220Y-31828721D01*
X117037220Y-31828721D02*
X117037220Y-32352531D01*
X117513410Y-32352531D02*
X117513410Y-31685864D01*
X117513410Y-31352531D02*
X117465791Y-31400150D01*
X117465791Y-31400150D02*
X117513410Y-31447769D01*
X117513410Y-31447769D02*
X117561029Y-31400150D01*
X117561029Y-31400150D02*
X117513410Y-31352531D01*
X117513410Y-31352531D02*
X117513410Y-31447769D01*
X117989600Y-31685864D02*
X117989600Y-32352531D01*
X117989600Y-31781102D02*
X118037219Y-31733483D01*
X118037219Y-31733483D02*
X118132457Y-31685864D01*
X118132457Y-31685864D02*
X118275314Y-31685864D01*
X118275314Y-31685864D02*
X118370552Y-31733483D01*
X118370552Y-31733483D02*
X118418171Y-31828721D01*
X118418171Y-31828721D02*
X118418171Y-32352531D01*
X119322933Y-31685864D02*
X119322933Y-32495388D01*
X119322933Y-32495388D02*
X119275314Y-32590626D01*
X119275314Y-32590626D02*
X119227695Y-32638245D01*
X119227695Y-32638245D02*
X119132457Y-32685864D01*
X119132457Y-32685864D02*
X118989600Y-32685864D01*
X118989600Y-32685864D02*
X118894362Y-32638245D01*
X119322933Y-32304912D02*
X119227695Y-32352531D01*
X119227695Y-32352531D02*
X119037219Y-32352531D01*
X119037219Y-32352531D02*
X118941981Y-32304912D01*
X118941981Y-32304912D02*
X118894362Y-32257292D01*
X118894362Y-32257292D02*
X118846743Y-32162054D01*
X118846743Y-32162054D02*
X118846743Y-31876340D01*
X118846743Y-31876340D02*
X118894362Y-31781102D01*
X118894362Y-31781102D02*
X118941981Y-31733483D01*
X118941981Y-31733483D02*
X119037219Y-31685864D01*
X119037219Y-31685864D02*
X119227695Y-31685864D01*
X119227695Y-31685864D02*
X119322933Y-31733483D01*
X94561027Y-32962475D02*
X95132455Y-32962475D01*
X94846741Y-33962475D02*
X94846741Y-32962475D01*
X95370551Y-33295808D02*
X95561027Y-33962475D01*
X95561027Y-33962475D02*
X95751503Y-33486284D01*
X95751503Y-33486284D02*
X95941979Y-33962475D01*
X95941979Y-33962475D02*
X96132455Y-33295808D01*
X96418170Y-33295808D02*
X96656265Y-33962475D01*
X96894360Y-33295808D02*
X96656265Y-33962475D01*
X96656265Y-33962475D02*
X96561027Y-34200570D01*
X96561027Y-34200570D02*
X96513408Y-34248189D01*
X96513408Y-34248189D02*
X96418170Y-34295808D01*
X97418170Y-33962475D02*
X97322932Y-33914856D01*
X97322932Y-33914856D02*
X97275313Y-33819617D01*
X97275313Y-33819617D02*
X97275313Y-32962475D01*
X98227694Y-33962475D02*
X98227694Y-33438665D01*
X98227694Y-33438665D02*
X98180075Y-33343427D01*
X98180075Y-33343427D02*
X98084837Y-33295808D01*
X98084837Y-33295808D02*
X97894361Y-33295808D01*
X97894361Y-33295808D02*
X97799123Y-33343427D01*
X98227694Y-33914856D02*
X98132456Y-33962475D01*
X98132456Y-33962475D02*
X97894361Y-33962475D01*
X97894361Y-33962475D02*
X97799123Y-33914856D01*
X97799123Y-33914856D02*
X97751504Y-33819617D01*
X97751504Y-33819617D02*
X97751504Y-33724379D01*
X97751504Y-33724379D02*
X97799123Y-33629141D01*
X97799123Y-33629141D02*
X97894361Y-33581522D01*
X97894361Y-33581522D02*
X98132456Y-33581522D01*
X98132456Y-33581522D02*
X98227694Y-33533903D01*
X99799123Y-33438665D02*
X99941980Y-33486284D01*
X99941980Y-33486284D02*
X99989599Y-33533903D01*
X99989599Y-33533903D02*
X100037218Y-33629141D01*
X100037218Y-33629141D02*
X100037218Y-33771998D01*
X100037218Y-33771998D02*
X99989599Y-33867236D01*
X99989599Y-33867236D02*
X99941980Y-33914856D01*
X99941980Y-33914856D02*
X99846742Y-33962475D01*
X99846742Y-33962475D02*
X99465790Y-33962475D01*
X99465790Y-33962475D02*
X99465790Y-32962475D01*
X99465790Y-32962475D02*
X99799123Y-32962475D01*
X99799123Y-32962475D02*
X99894361Y-33010094D01*
X99894361Y-33010094D02*
X99941980Y-33057713D01*
X99941980Y-33057713D02*
X99989599Y-33152951D01*
X99989599Y-33152951D02*
X99989599Y-33248189D01*
X99989599Y-33248189D02*
X99941980Y-33343427D01*
X99941980Y-33343427D02*
X99894361Y-33391046D01*
X99894361Y-33391046D02*
X99799123Y-33438665D01*
X99799123Y-33438665D02*
X99465790Y-33438665D01*
X100608647Y-33962475D02*
X100513409Y-33914856D01*
X100513409Y-33914856D02*
X100465790Y-33867236D01*
X100465790Y-33867236D02*
X100418171Y-33771998D01*
X100418171Y-33771998D02*
X100418171Y-33486284D01*
X100418171Y-33486284D02*
X100465790Y-33391046D01*
X100465790Y-33391046D02*
X100513409Y-33343427D01*
X100513409Y-33343427D02*
X100608647Y-33295808D01*
X100608647Y-33295808D02*
X100751504Y-33295808D01*
X100751504Y-33295808D02*
X100846742Y-33343427D01*
X100846742Y-33343427D02*
X100894361Y-33391046D01*
X100894361Y-33391046D02*
X100941980Y-33486284D01*
X100941980Y-33486284D02*
X100941980Y-33771998D01*
X100941980Y-33771998D02*
X100894361Y-33867236D01*
X100894361Y-33867236D02*
X100846742Y-33914856D01*
X100846742Y-33914856D02*
X100751504Y-33962475D01*
X100751504Y-33962475D02*
X100608647Y-33962475D01*
X101370552Y-33962475D02*
X101370552Y-33295808D01*
X101370552Y-33486284D02*
X101418171Y-33391046D01*
X101418171Y-33391046D02*
X101465790Y-33343427D01*
X101465790Y-33343427D02*
X101561028Y-33295808D01*
X101561028Y-33295808D02*
X101656266Y-33295808D01*
X102418171Y-33914856D02*
X102322933Y-33962475D01*
X102322933Y-33962475D02*
X102132457Y-33962475D01*
X102132457Y-33962475D02*
X102037219Y-33914856D01*
X102037219Y-33914856D02*
X101989600Y-33867236D01*
X101989600Y-33867236D02*
X101941981Y-33771998D01*
X101941981Y-33771998D02*
X101941981Y-33486284D01*
X101941981Y-33486284D02*
X101989600Y-33391046D01*
X101989600Y-33391046D02*
X102037219Y-33343427D01*
X102037219Y-33343427D02*
X102132457Y-33295808D01*
X102132457Y-33295808D02*
X102322933Y-33295808D01*
X102322933Y-33295808D02*
X102418171Y-33343427D01*
X102846743Y-33962475D02*
X102846743Y-32962475D01*
X102941981Y-33581522D02*
X103227695Y-33962475D01*
X103227695Y-33295808D02*
X102846743Y-33676760D01*
X94703884Y-35572419D02*
X94703884Y-34572419D01*
X94703884Y-34572419D02*
X95037217Y-35286704D01*
X95037217Y-35286704D02*
X95370550Y-34572419D01*
X95370550Y-34572419D02*
X95370550Y-35572419D01*
X96275312Y-35572419D02*
X96275312Y-35048609D01*
X96275312Y-35048609D02*
X96227693Y-34953371D01*
X96227693Y-34953371D02*
X96132455Y-34905752D01*
X96132455Y-34905752D02*
X95941979Y-34905752D01*
X95941979Y-34905752D02*
X95846741Y-34953371D01*
X96275312Y-35524800D02*
X96180074Y-35572419D01*
X96180074Y-35572419D02*
X95941979Y-35572419D01*
X95941979Y-35572419D02*
X95846741Y-35524800D01*
X95846741Y-35524800D02*
X95799122Y-35429561D01*
X95799122Y-35429561D02*
X95799122Y-35334323D01*
X95799122Y-35334323D02*
X95846741Y-35239085D01*
X95846741Y-35239085D02*
X95941979Y-35191466D01*
X95941979Y-35191466D02*
X96180074Y-35191466D01*
X96180074Y-35191466D02*
X96275312Y-35143847D01*
X96656265Y-34905752D02*
X96894360Y-35572419D01*
X97132455Y-34905752D02*
X96894360Y-35572419D01*
X96894360Y-35572419D02*
X96799122Y-35810514D01*
X96799122Y-35810514D02*
X96751503Y-35858133D01*
X96751503Y-35858133D02*
X96656265Y-35905752D01*
X98227694Y-34667657D02*
X98275313Y-34620038D01*
X98275313Y-34620038D02*
X98370551Y-34572419D01*
X98370551Y-34572419D02*
X98608646Y-34572419D01*
X98608646Y-34572419D02*
X98703884Y-34620038D01*
X98703884Y-34620038D02*
X98751503Y-34667657D01*
X98751503Y-34667657D02*
X98799122Y-34762895D01*
X98799122Y-34762895D02*
X98799122Y-34858133D01*
X98799122Y-34858133D02*
X98751503Y-35000990D01*
X98751503Y-35000990D02*
X98180075Y-35572419D01*
X98180075Y-35572419D02*
X98799122Y-35572419D01*
X99418170Y-34572419D02*
X99513408Y-34572419D01*
X99513408Y-34572419D02*
X99608646Y-34620038D01*
X99608646Y-34620038D02*
X99656265Y-34667657D01*
X99656265Y-34667657D02*
X99703884Y-34762895D01*
X99703884Y-34762895D02*
X99751503Y-34953371D01*
X99751503Y-34953371D02*
X99751503Y-35191466D01*
X99751503Y-35191466D02*
X99703884Y-35381942D01*
X99703884Y-35381942D02*
X99656265Y-35477180D01*
X99656265Y-35477180D02*
X99608646Y-35524800D01*
X99608646Y-35524800D02*
X99513408Y-35572419D01*
X99513408Y-35572419D02*
X99418170Y-35572419D01*
X99418170Y-35572419D02*
X99322932Y-35524800D01*
X99322932Y-35524800D02*
X99275313Y-35477180D01*
X99275313Y-35477180D02*
X99227694Y-35381942D01*
X99227694Y-35381942D02*
X99180075Y-35191466D01*
X99180075Y-35191466D02*
X99180075Y-34953371D01*
X99180075Y-34953371D02*
X99227694Y-34762895D01*
X99227694Y-34762895D02*
X99275313Y-34667657D01*
X99275313Y-34667657D02*
X99322932Y-34620038D01*
X99322932Y-34620038D02*
X99418170Y-34572419D01*
X100132456Y-34667657D02*
X100180075Y-34620038D01*
X100180075Y-34620038D02*
X100275313Y-34572419D01*
X100275313Y-34572419D02*
X100513408Y-34572419D01*
X100513408Y-34572419D02*
X100608646Y-34620038D01*
X100608646Y-34620038D02*
X100656265Y-34667657D01*
X100656265Y-34667657D02*
X100703884Y-34762895D01*
X100703884Y-34762895D02*
X100703884Y-34858133D01*
X100703884Y-34858133D02*
X100656265Y-35000990D01*
X100656265Y-35000990D02*
X100084837Y-35572419D01*
X100084837Y-35572419D02*
X100703884Y-35572419D01*
X101608646Y-34572419D02*
X101132456Y-34572419D01*
X101132456Y-34572419D02*
X101084837Y-35048609D01*
X101084837Y-35048609D02*
X101132456Y-35000990D01*
X101132456Y-35000990D02*
X101227694Y-34953371D01*
X101227694Y-34953371D02*
X101465789Y-34953371D01*
X101465789Y-34953371D02*
X101561027Y-35000990D01*
X101561027Y-35000990D02*
X101608646Y-35048609D01*
X101608646Y-35048609D02*
X101656265Y-35143847D01*
X101656265Y-35143847D02*
X101656265Y-35381942D01*
X101656265Y-35381942D02*
X101608646Y-35477180D01*
X101608646Y-35477180D02*
X101561027Y-35524800D01*
X101561027Y-35524800D02*
X101465789Y-35572419D01*
X101465789Y-35572419D02*
X101227694Y-35572419D01*
X101227694Y-35572419D02*
X101132456Y-35524800D01*
X101132456Y-35524800D02*
X101084837Y-35477180D01*
D11*
X162585000Y-80945000D02*
X166585000Y-80945000D01*
X162585000Y-80945000D02*
X162585000Y-76945000D01*
X173165000Y-60945000D02*
X165165000Y-60945000D01*
X111104819Y-96030476D02*
X111104819Y-96506666D01*
X111104819Y-96506666D02*
X111581009Y-96554285D01*
X111581009Y-96554285D02*
X111533390Y-96506666D01*
X111533390Y-96506666D02*
X111485771Y-96411428D01*
X111485771Y-96411428D02*
X111485771Y-96173333D01*
X111485771Y-96173333D02*
X111533390Y-96078095D01*
X111533390Y-96078095D02*
X111581009Y-96030476D01*
X111581009Y-96030476D02*
X111676247Y-95982857D01*
X111676247Y-95982857D02*
X111914342Y-95982857D01*
X111914342Y-95982857D02*
X112009580Y-96030476D01*
X112009580Y-96030476D02*
X112057200Y-96078095D01*
X112057200Y-96078095D02*
X112104819Y-96173333D01*
X112104819Y-96173333D02*
X112104819Y-96411428D01*
X112104819Y-96411428D02*
X112057200Y-96506666D01*
X112057200Y-96506666D02*
X112009580Y-96554285D01*
X111104819Y-95697142D02*
X112104819Y-95363809D01*
X112104819Y-95363809D02*
X111104819Y-95030476D01*
X101840476Y-73304819D02*
X102507142Y-74304819D01*
X102507142Y-73304819D02*
X101840476Y-74304819D01*
X102840476Y-73400057D02*
X102888095Y-73352438D01*
X102888095Y-73352438D02*
X102983333Y-73304819D01*
X102983333Y-73304819D02*
X103221428Y-73304819D01*
X103221428Y-73304819D02*
X103316666Y-73352438D01*
X103316666Y-73352438D02*
X103364285Y-73400057D01*
X103364285Y-73400057D02*
X103411904Y-73495295D01*
X103411904Y-73495295D02*
X103411904Y-73590533D01*
X103411904Y-73590533D02*
X103364285Y-73733390D01*
X103364285Y-73733390D02*
X102792857Y-74304819D01*
X102792857Y-74304819D02*
X103411904Y-74304819D01*
X139531009Y-101531904D02*
X139531009Y-101198571D01*
X140054819Y-101055714D02*
X140054819Y-101531904D01*
X140054819Y-101531904D02*
X139054819Y-101531904D01*
X139054819Y-101531904D02*
X139054819Y-101055714D01*
X139959580Y-100055714D02*
X140007200Y-100103333D01*
X140007200Y-100103333D02*
X140054819Y-100246190D01*
X140054819Y-100246190D02*
X140054819Y-100341428D01*
X140054819Y-100341428D02*
X140007200Y-100484285D01*
X140007200Y-100484285D02*
X139911961Y-100579523D01*
X139911961Y-100579523D02*
X139816723Y-100627142D01*
X139816723Y-100627142D02*
X139626247Y-100674761D01*
X139626247Y-100674761D02*
X139483390Y-100674761D01*
X139483390Y-100674761D02*
X139292914Y-100627142D01*
X139292914Y-100627142D02*
X139197676Y-100579523D01*
X139197676Y-100579523D02*
X139102438Y-100484285D01*
X139102438Y-100484285D02*
X139054819Y-100341428D01*
X139054819Y-100341428D02*
X139054819Y-100246190D01*
X139054819Y-100246190D02*
X139102438Y-100103333D01*
X139102438Y-100103333D02*
X139150057Y-100055714D01*
X140054819Y-99627142D02*
X139054819Y-99627142D01*
X139531009Y-99627142D02*
X139531009Y-99055714D01*
X140054819Y-99055714D02*
X139054819Y-99055714D01*
X139054819Y-98389047D02*
X139054819Y-98198571D01*
X139054819Y-98198571D02*
X139102438Y-98103333D01*
X139102438Y-98103333D02*
X139197676Y-98008095D01*
X139197676Y-98008095D02*
X139388152Y-97960476D01*
X139388152Y-97960476D02*
X139721485Y-97960476D01*
X139721485Y-97960476D02*
X139911961Y-98008095D01*
X139911961Y-98008095D02*
X140007200Y-98103333D01*
X140007200Y-98103333D02*
X140054819Y-98198571D01*
X140054819Y-98198571D02*
X140054819Y-98389047D01*
X140054819Y-98389047D02*
X140007200Y-98484285D01*
X140007200Y-98484285D02*
X139911961Y-98579523D01*
X139911961Y-98579523D02*
X139721485Y-98627142D01*
X139721485Y-98627142D02*
X139388152Y-98627142D01*
X139388152Y-98627142D02*
X139197676Y-98579523D01*
X139197676Y-98579523D02*
X139102438Y-98484285D01*
X139102438Y-98484285D02*
X139054819Y-98389047D01*
X151809524Y-92521009D02*
X152142857Y-92521009D01*
X152285714Y-93044819D02*
X151809524Y-93044819D01*
X151809524Y-93044819D02*
X151809524Y-92044819D01*
X151809524Y-92044819D02*
X152285714Y-92044819D01*
X153238095Y-93044819D02*
X152666667Y-93044819D01*
X152952381Y-93044819D02*
X152952381Y-92044819D01*
X152952381Y-92044819D02*
X152857143Y-92187676D01*
X152857143Y-92187676D02*
X152761905Y-92282914D01*
X152761905Y-92282914D02*
X152666667Y-92330533D01*
X154000000Y-92521009D02*
X154142857Y-92568628D01*
X154142857Y-92568628D02*
X154190476Y-92616247D01*
X154190476Y-92616247D02*
X154238095Y-92711485D01*
X154238095Y-92711485D02*
X154238095Y-92854342D01*
X154238095Y-92854342D02*
X154190476Y-92949580D01*
X154190476Y-92949580D02*
X154142857Y-92997200D01*
X154142857Y-92997200D02*
X154047619Y-93044819D01*
X154047619Y-93044819D02*
X153666667Y-93044819D01*
X153666667Y-93044819D02*
X153666667Y-92044819D01*
X153666667Y-92044819D02*
X154000000Y-92044819D01*
X154000000Y-92044819D02*
X154095238Y-92092438D01*
X154095238Y-92092438D02*
X154142857Y-92140057D01*
X154142857Y-92140057D02*
X154190476Y-92235295D01*
X154190476Y-92235295D02*
X154190476Y-92330533D01*
X154190476Y-92330533D02*
X154142857Y-92425771D01*
X154142857Y-92425771D02*
X154095238Y-92473390D01*
X154095238Y-92473390D02*
X154000000Y-92521009D01*
X154000000Y-92521009D02*
X153666667Y-92521009D01*
X155149104Y-46008094D02*
X155149104Y-45531904D01*
X155434819Y-46103332D02*
X154434819Y-45769999D01*
X154434819Y-45769999D02*
X155434819Y-45436666D01*
X155434819Y-45103332D02*
X154434819Y-45103332D01*
X154434819Y-45103332D02*
X155434819Y-44531904D01*
X155434819Y-44531904D02*
X154434819Y-44531904D01*
X155434819Y-43531904D02*
X155434819Y-44103332D01*
X155434819Y-43817618D02*
X154434819Y-43817618D01*
X154434819Y-43817618D02*
X154577676Y-43912856D01*
X154577676Y-43912856D02*
X154672914Y-44008094D01*
X154672914Y-44008094D02*
X154720533Y-44103332D01*
X173396667Y-69234819D02*
X174063333Y-70234819D01*
X174063333Y-69234819D02*
X173396667Y-70234819D01*
X120722438Y-44441904D02*
X120674819Y-44537142D01*
X120674819Y-44537142D02*
X120674819Y-44679999D01*
X120674819Y-44679999D02*
X120722438Y-44822856D01*
X120722438Y-44822856D02*
X120817676Y-44918094D01*
X120817676Y-44918094D02*
X120912914Y-44965713D01*
X120912914Y-44965713D02*
X121103390Y-45013332D01*
X121103390Y-45013332D02*
X121246247Y-45013332D01*
X121246247Y-45013332D02*
X121436723Y-44965713D01*
X121436723Y-44965713D02*
X121531961Y-44918094D01*
X121531961Y-44918094D02*
X121627200Y-44822856D01*
X121627200Y-44822856D02*
X121674819Y-44679999D01*
X121674819Y-44679999D02*
X121674819Y-44584761D01*
X121674819Y-44584761D02*
X121627200Y-44441904D01*
X121627200Y-44441904D02*
X121579580Y-44394285D01*
X121579580Y-44394285D02*
X121246247Y-44394285D01*
X121246247Y-44394285D02*
X121246247Y-44584761D01*
X121674819Y-43965713D02*
X120674819Y-43965713D01*
X120674819Y-43965713D02*
X121674819Y-43394285D01*
X121674819Y-43394285D02*
X120674819Y-43394285D01*
X121674819Y-42918094D02*
X120674819Y-42918094D01*
X120674819Y-42918094D02*
X120674819Y-42679999D01*
X120674819Y-42679999D02*
X120722438Y-42537142D01*
X120722438Y-42537142D02*
X120817676Y-42441904D01*
X120817676Y-42441904D02*
X120912914Y-42394285D01*
X120912914Y-42394285D02*
X121103390Y-42346666D01*
X121103390Y-42346666D02*
X121246247Y-42346666D01*
X121246247Y-42346666D02*
X121436723Y-42394285D01*
X121436723Y-42394285D02*
X121531961Y-42441904D01*
X121531961Y-42441904D02*
X121627200Y-42537142D01*
X121627200Y-42537142D02*
X121674819Y-42679999D01*
X121674819Y-42679999D02*
X121674819Y-42918094D01*
X172888572Y-34964819D02*
X172888572Y-33964819D01*
X172888572Y-33964819D02*
X173221905Y-34679104D01*
X173221905Y-34679104D02*
X173555238Y-33964819D01*
X173555238Y-33964819D02*
X173555238Y-34964819D01*
X174221905Y-33964819D02*
X174412381Y-33964819D01*
X174412381Y-33964819D02*
X174507619Y-34012438D01*
X174507619Y-34012438D02*
X174602857Y-34107676D01*
X174602857Y-34107676D02*
X174650476Y-34298152D01*
X174650476Y-34298152D02*
X174650476Y-34631485D01*
X174650476Y-34631485D02*
X174602857Y-34821961D01*
X174602857Y-34821961D02*
X174507619Y-34917200D01*
X174507619Y-34917200D02*
X174412381Y-34964819D01*
X174412381Y-34964819D02*
X174221905Y-34964819D01*
X174221905Y-34964819D02*
X174126667Y-34917200D01*
X174126667Y-34917200D02*
X174031429Y-34821961D01*
X174031429Y-34821961D02*
X173983810Y-34631485D01*
X173983810Y-34631485D02*
X173983810Y-34298152D01*
X173983810Y-34298152D02*
X174031429Y-34107676D01*
X174031429Y-34107676D02*
X174126667Y-34012438D01*
X174126667Y-34012438D02*
X174221905Y-33964819D01*
X175031429Y-34917200D02*
X175174286Y-34964819D01*
X175174286Y-34964819D02*
X175412381Y-34964819D01*
X175412381Y-34964819D02*
X175507619Y-34917200D01*
X175507619Y-34917200D02*
X175555238Y-34869580D01*
X175555238Y-34869580D02*
X175602857Y-34774342D01*
X175602857Y-34774342D02*
X175602857Y-34679104D01*
X175602857Y-34679104D02*
X175555238Y-34583866D01*
X175555238Y-34583866D02*
X175507619Y-34536247D01*
X175507619Y-34536247D02*
X175412381Y-34488628D01*
X175412381Y-34488628D02*
X175221905Y-34441009D01*
X175221905Y-34441009D02*
X175126667Y-34393390D01*
X175126667Y-34393390D02*
X175079048Y-34345771D01*
X175079048Y-34345771D02*
X175031429Y-34250533D01*
X175031429Y-34250533D02*
X175031429Y-34155295D01*
X175031429Y-34155295D02*
X175079048Y-34060057D01*
X175079048Y-34060057D02*
X175126667Y-34012438D01*
X175126667Y-34012438D02*
X175221905Y-33964819D01*
X175221905Y-33964819D02*
X175460000Y-33964819D01*
X175460000Y-33964819D02*
X175602857Y-34012438D01*
X176031429Y-34964819D02*
X176031429Y-33964819D01*
X101981905Y-45694819D02*
X102600952Y-45694819D01*
X102600952Y-45694819D02*
X102267619Y-46075771D01*
X102267619Y-46075771D02*
X102410476Y-46075771D01*
X102410476Y-46075771D02*
X102505714Y-46123390D01*
X102505714Y-46123390D02*
X102553333Y-46171009D01*
X102553333Y-46171009D02*
X102600952Y-46266247D01*
X102600952Y-46266247D02*
X102600952Y-46504342D01*
X102600952Y-46504342D02*
X102553333Y-46599580D01*
X102553333Y-46599580D02*
X102505714Y-46647200D01*
X102505714Y-46647200D02*
X102410476Y-46694819D01*
X102410476Y-46694819D02*
X102124762Y-46694819D01*
X102124762Y-46694819D02*
X102029524Y-46647200D01*
X102029524Y-46647200D02*
X101981905Y-46599580D01*
X102886667Y-45694819D02*
X103220000Y-46694819D01*
X103220000Y-46694819D02*
X103553333Y-45694819D01*
X103791429Y-45694819D02*
X104410476Y-45694819D01*
X104410476Y-45694819D02*
X104077143Y-46075771D01*
X104077143Y-46075771D02*
X104220000Y-46075771D01*
X104220000Y-46075771D02*
X104315238Y-46123390D01*
X104315238Y-46123390D02*
X104362857Y-46171009D01*
X104362857Y-46171009D02*
X104410476Y-46266247D01*
X104410476Y-46266247D02*
X104410476Y-46504342D01*
X104410476Y-46504342D02*
X104362857Y-46599580D01*
X104362857Y-46599580D02*
X104315238Y-46647200D01*
X104315238Y-46647200D02*
X104220000Y-46694819D01*
X104220000Y-46694819D02*
X103934286Y-46694819D01*
X103934286Y-46694819D02*
X103839048Y-46647200D01*
X103839048Y-46647200D02*
X103791429Y-46599580D01*
X152130952Y-100181009D02*
X152464285Y-100181009D01*
X152607142Y-100704819D02*
X152130952Y-100704819D01*
X152130952Y-100704819D02*
X152130952Y-99704819D01*
X152130952Y-99704819D02*
X152607142Y-99704819D01*
X152988095Y-99800057D02*
X153035714Y-99752438D01*
X153035714Y-99752438D02*
X153130952Y-99704819D01*
X153130952Y-99704819D02*
X153369047Y-99704819D01*
X153369047Y-99704819D02*
X153464285Y-99752438D01*
X153464285Y-99752438D02*
X153511904Y-99800057D01*
X153511904Y-99800057D02*
X153559523Y-99895295D01*
X153559523Y-99895295D02*
X153559523Y-99990533D01*
X153559523Y-99990533D02*
X153511904Y-100133390D01*
X153511904Y-100133390D02*
X152940476Y-100704819D01*
X152940476Y-100704819D02*
X153559523Y-100704819D01*
X153940476Y-100419104D02*
X154416666Y-100419104D01*
X153845238Y-100704819D02*
X154178571Y-99704819D01*
X154178571Y-99704819D02*
X154511904Y-100704819D01*
X101918095Y-48274819D02*
X102489523Y-48274819D01*
X102203809Y-49274819D02*
X102203809Y-48274819D01*
X102727619Y-48274819D02*
X103394285Y-49274819D01*
X103394285Y-48274819D02*
X102727619Y-49274819D01*
X102448095Y-53532438D02*
X102352857Y-53484819D01*
X102352857Y-53484819D02*
X102210000Y-53484819D01*
X102210000Y-53484819D02*
X102067143Y-53532438D01*
X102067143Y-53532438D02*
X101971905Y-53627676D01*
X101971905Y-53627676D02*
X101924286Y-53722914D01*
X101924286Y-53722914D02*
X101876667Y-53913390D01*
X101876667Y-53913390D02*
X101876667Y-54056247D01*
X101876667Y-54056247D02*
X101924286Y-54246723D01*
X101924286Y-54246723D02*
X101971905Y-54341961D01*
X101971905Y-54341961D02*
X102067143Y-54437200D01*
X102067143Y-54437200D02*
X102210000Y-54484819D01*
X102210000Y-54484819D02*
X102305238Y-54484819D01*
X102305238Y-54484819D02*
X102448095Y-54437200D01*
X102448095Y-54437200D02*
X102495714Y-54389580D01*
X102495714Y-54389580D02*
X102495714Y-54056247D01*
X102495714Y-54056247D02*
X102305238Y-54056247D01*
X102924286Y-54484819D02*
X102924286Y-53484819D01*
X102924286Y-53484819D02*
X103495714Y-54484819D01*
X103495714Y-54484819D02*
X103495714Y-53484819D01*
X103971905Y-54484819D02*
X103971905Y-53484819D01*
X103971905Y-53484819D02*
X104210000Y-53484819D01*
X104210000Y-53484819D02*
X104352857Y-53532438D01*
X104352857Y-53532438D02*
X104448095Y-53627676D01*
X104448095Y-53627676D02*
X104495714Y-53722914D01*
X104495714Y-53722914D02*
X104543333Y-53913390D01*
X104543333Y-53913390D02*
X104543333Y-54056247D01*
X104543333Y-54056247D02*
X104495714Y-54246723D01*
X104495714Y-54246723D02*
X104448095Y-54341961D01*
X104448095Y-54341961D02*
X104352857Y-54437200D01*
X104352857Y-54437200D02*
X104210000Y-54484819D01*
X104210000Y-54484819D02*
X103971905Y-54484819D01*
X134746667Y-107414819D02*
X134746667Y-106414819D01*
X134746667Y-106891009D02*
X135318095Y-106891009D01*
X135318095Y-107414819D02*
X135318095Y-106414819D01*
X136365714Y-107319580D02*
X136318095Y-107367200D01*
X136318095Y-107367200D02*
X136175238Y-107414819D01*
X136175238Y-107414819D02*
X136080000Y-107414819D01*
X136080000Y-107414819D02*
X135937143Y-107367200D01*
X135937143Y-107367200D02*
X135841905Y-107271961D01*
X135841905Y-107271961D02*
X135794286Y-107176723D01*
X135794286Y-107176723D02*
X135746667Y-106986247D01*
X135746667Y-106986247D02*
X135746667Y-106843390D01*
X135746667Y-106843390D02*
X135794286Y-106652914D01*
X135794286Y-106652914D02*
X135841905Y-106557676D01*
X135841905Y-106557676D02*
X135937143Y-106462438D01*
X135937143Y-106462438D02*
X136080000Y-106414819D01*
X136080000Y-106414819D02*
X136175238Y-106414819D01*
X136175238Y-106414819D02*
X136318095Y-106462438D01*
X136318095Y-106462438D02*
X136365714Y-106510057D01*
X136794286Y-107033866D02*
X137556191Y-107033866D01*
X137984762Y-107367200D02*
X138127619Y-107414819D01*
X138127619Y-107414819D02*
X138365714Y-107414819D01*
X138365714Y-107414819D02*
X138460952Y-107367200D01*
X138460952Y-107367200D02*
X138508571Y-107319580D01*
X138508571Y-107319580D02*
X138556190Y-107224342D01*
X138556190Y-107224342D02*
X138556190Y-107129104D01*
X138556190Y-107129104D02*
X138508571Y-107033866D01*
X138508571Y-107033866D02*
X138460952Y-106986247D01*
X138460952Y-106986247D02*
X138365714Y-106938628D01*
X138365714Y-106938628D02*
X138175238Y-106891009D01*
X138175238Y-106891009D02*
X138080000Y-106843390D01*
X138080000Y-106843390D02*
X138032381Y-106795771D01*
X138032381Y-106795771D02*
X137984762Y-106700533D01*
X137984762Y-106700533D02*
X137984762Y-106605295D01*
X137984762Y-106605295D02*
X138032381Y-106510057D01*
X138032381Y-106510057D02*
X138080000Y-106462438D01*
X138080000Y-106462438D02*
X138175238Y-106414819D01*
X138175238Y-106414819D02*
X138413333Y-106414819D01*
X138413333Y-106414819D02*
X138556190Y-106462438D01*
X139556190Y-107414819D02*
X139222857Y-106938628D01*
X138984762Y-107414819D02*
X138984762Y-106414819D01*
X138984762Y-106414819D02*
X139365714Y-106414819D01*
X139365714Y-106414819D02*
X139460952Y-106462438D01*
X139460952Y-106462438D02*
X139508571Y-106510057D01*
X139508571Y-106510057D02*
X139556190Y-106605295D01*
X139556190Y-106605295D02*
X139556190Y-106748152D01*
X139556190Y-106748152D02*
X139508571Y-106843390D01*
X139508571Y-106843390D02*
X139460952Y-106891009D01*
X139460952Y-106891009D02*
X139365714Y-106938628D01*
X139365714Y-106938628D02*
X138984762Y-106938628D01*
X140175238Y-106414819D02*
X140270476Y-106414819D01*
X140270476Y-106414819D02*
X140365714Y-106462438D01*
X140365714Y-106462438D02*
X140413333Y-106510057D01*
X140413333Y-106510057D02*
X140460952Y-106605295D01*
X140460952Y-106605295D02*
X140508571Y-106795771D01*
X140508571Y-106795771D02*
X140508571Y-107033866D01*
X140508571Y-107033866D02*
X140460952Y-107224342D01*
X140460952Y-107224342D02*
X140413333Y-107319580D01*
X140413333Y-107319580D02*
X140365714Y-107367200D01*
X140365714Y-107367200D02*
X140270476Y-107414819D01*
X140270476Y-107414819D02*
X140175238Y-107414819D01*
X140175238Y-107414819D02*
X140080000Y-107367200D01*
X140080000Y-107367200D02*
X140032381Y-107319580D01*
X140032381Y-107319580D02*
X139984762Y-107224342D01*
X139984762Y-107224342D02*
X139937143Y-107033866D01*
X139937143Y-107033866D02*
X139937143Y-106795771D01*
X139937143Y-106795771D02*
X139984762Y-106605295D01*
X139984762Y-106605295D02*
X140032381Y-106510057D01*
X140032381Y-106510057D02*
X140080000Y-106462438D01*
X140080000Y-106462438D02*
X140175238Y-106414819D01*
X141365714Y-106748152D02*
X141365714Y-107414819D01*
X141127619Y-106367200D02*
X140889524Y-107081485D01*
X140889524Y-107081485D02*
X141508571Y-107081485D01*
X115824819Y-44888094D02*
X115824819Y-44269047D01*
X115824819Y-44269047D02*
X116205771Y-44602380D01*
X116205771Y-44602380D02*
X116205771Y-44459523D01*
X116205771Y-44459523D02*
X116253390Y-44364285D01*
X116253390Y-44364285D02*
X116301009Y-44316666D01*
X116301009Y-44316666D02*
X116396247Y-44269047D01*
X116396247Y-44269047D02*
X116634342Y-44269047D01*
X116634342Y-44269047D02*
X116729580Y-44316666D01*
X116729580Y-44316666D02*
X116777200Y-44364285D01*
X116777200Y-44364285D02*
X116824819Y-44459523D01*
X116824819Y-44459523D02*
X116824819Y-44745237D01*
X116824819Y-44745237D02*
X116777200Y-44840475D01*
X116777200Y-44840475D02*
X116729580Y-44888094D01*
X115824819Y-43983332D02*
X116824819Y-43649999D01*
X116824819Y-43649999D02*
X115824819Y-43316666D01*
X115824819Y-43078570D02*
X115824819Y-42459523D01*
X115824819Y-42459523D02*
X116205771Y-42792856D01*
X116205771Y-42792856D02*
X116205771Y-42649999D01*
X116205771Y-42649999D02*
X116253390Y-42554761D01*
X116253390Y-42554761D02*
X116301009Y-42507142D01*
X116301009Y-42507142D02*
X116396247Y-42459523D01*
X116396247Y-42459523D02*
X116634342Y-42459523D01*
X116634342Y-42459523D02*
X116729580Y-42507142D01*
X116729580Y-42507142D02*
X116777200Y-42554761D01*
X116777200Y-42554761D02*
X116824819Y-42649999D01*
X116824819Y-42649999D02*
X116824819Y-42935713D01*
X116824819Y-42935713D02*
X116777200Y-43030951D01*
X116777200Y-43030951D02*
X116729580Y-43078570D01*
X151980952Y-95081009D02*
X152314285Y-95081009D01*
X152457142Y-95604819D02*
X151980952Y-95604819D01*
X151980952Y-95604819D02*
X151980952Y-94604819D01*
X151980952Y-94604819D02*
X152457142Y-94604819D01*
X153409523Y-95604819D02*
X152838095Y-95604819D01*
X153123809Y-95604819D02*
X153123809Y-94604819D01*
X153123809Y-94604819D02*
X153028571Y-94747676D01*
X153028571Y-94747676D02*
X152933333Y-94842914D01*
X152933333Y-94842914D02*
X152838095Y-94890533D01*
X153790476Y-95319104D02*
X154266666Y-95319104D01*
X153695238Y-95604819D02*
X154028571Y-94604819D01*
X154028571Y-94604819D02*
X154361904Y-95604819D01*
X175296667Y-44194819D02*
X175963333Y-45194819D01*
X175963333Y-44194819D02*
X175296667Y-45194819D01*
X102583333Y-51864819D02*
X102250000Y-51388628D01*
X102011905Y-51864819D02*
X102011905Y-50864819D01*
X102011905Y-50864819D02*
X102392857Y-50864819D01*
X102392857Y-50864819D02*
X102488095Y-50912438D01*
X102488095Y-50912438D02*
X102535714Y-50960057D01*
X102535714Y-50960057D02*
X102583333Y-51055295D01*
X102583333Y-51055295D02*
X102583333Y-51198152D01*
X102583333Y-51198152D02*
X102535714Y-51293390D01*
X102535714Y-51293390D02*
X102488095Y-51341009D01*
X102488095Y-51341009D02*
X102392857Y-51388628D01*
X102392857Y-51388628D02*
X102011905Y-51388628D01*
X102916667Y-50864819D02*
X103583333Y-51864819D01*
X103583333Y-50864819D02*
X102916667Y-51864819D01*
X101730476Y-68354819D02*
X102397142Y-69354819D01*
X102397142Y-68354819D02*
X101730476Y-69354819D01*
X103206666Y-68688152D02*
X103206666Y-69354819D01*
X102968571Y-68307200D02*
X102730476Y-69021485D01*
X102730476Y-69021485D02*
X103349523Y-69021485D01*
X171909524Y-75107200D02*
X172052381Y-75154819D01*
X172052381Y-75154819D02*
X172290476Y-75154819D01*
X172290476Y-75154819D02*
X172385714Y-75107200D01*
X172385714Y-75107200D02*
X172433333Y-75059580D01*
X172433333Y-75059580D02*
X172480952Y-74964342D01*
X172480952Y-74964342D02*
X172480952Y-74869104D01*
X172480952Y-74869104D02*
X172433333Y-74773866D01*
X172433333Y-74773866D02*
X172385714Y-74726247D01*
X172385714Y-74726247D02*
X172290476Y-74678628D01*
X172290476Y-74678628D02*
X172100000Y-74631009D01*
X172100000Y-74631009D02*
X172004762Y-74583390D01*
X172004762Y-74583390D02*
X171957143Y-74535771D01*
X171957143Y-74535771D02*
X171909524Y-74440533D01*
X171909524Y-74440533D02*
X171909524Y-74345295D01*
X171909524Y-74345295D02*
X171957143Y-74250057D01*
X171957143Y-74250057D02*
X172004762Y-74202438D01*
X172004762Y-74202438D02*
X172100000Y-74154819D01*
X172100000Y-74154819D02*
X172338095Y-74154819D01*
X172338095Y-74154819D02*
X172480952Y-74202438D01*
X173480952Y-75059580D02*
X173433333Y-75107200D01*
X173433333Y-75107200D02*
X173290476Y-75154819D01*
X173290476Y-75154819D02*
X173195238Y-75154819D01*
X173195238Y-75154819D02*
X173052381Y-75107200D01*
X173052381Y-75107200D02*
X172957143Y-75011961D01*
X172957143Y-75011961D02*
X172909524Y-74916723D01*
X172909524Y-74916723D02*
X172861905Y-74726247D01*
X172861905Y-74726247D02*
X172861905Y-74583390D01*
X172861905Y-74583390D02*
X172909524Y-74392914D01*
X172909524Y-74392914D02*
X172957143Y-74297676D01*
X172957143Y-74297676D02*
X173052381Y-74202438D01*
X173052381Y-74202438D02*
X173195238Y-74154819D01*
X173195238Y-74154819D02*
X173290476Y-74154819D01*
X173290476Y-74154819D02*
X173433333Y-74202438D01*
X173433333Y-74202438D02*
X173480952Y-74250057D01*
X174385714Y-75154819D02*
X173909524Y-75154819D01*
X173909524Y-75154819D02*
X173909524Y-74154819D01*
X171845714Y-72587200D02*
X171988571Y-72634819D01*
X171988571Y-72634819D02*
X172226666Y-72634819D01*
X172226666Y-72634819D02*
X172321904Y-72587200D01*
X172321904Y-72587200D02*
X172369523Y-72539580D01*
X172369523Y-72539580D02*
X172417142Y-72444342D01*
X172417142Y-72444342D02*
X172417142Y-72349104D01*
X172417142Y-72349104D02*
X172369523Y-72253866D01*
X172369523Y-72253866D02*
X172321904Y-72206247D01*
X172321904Y-72206247D02*
X172226666Y-72158628D01*
X172226666Y-72158628D02*
X172036190Y-72111009D01*
X172036190Y-72111009D02*
X171940952Y-72063390D01*
X171940952Y-72063390D02*
X171893333Y-72015771D01*
X171893333Y-72015771D02*
X171845714Y-71920533D01*
X171845714Y-71920533D02*
X171845714Y-71825295D01*
X171845714Y-71825295D02*
X171893333Y-71730057D01*
X171893333Y-71730057D02*
X171940952Y-71682438D01*
X171940952Y-71682438D02*
X172036190Y-71634819D01*
X172036190Y-71634819D02*
X172274285Y-71634819D01*
X172274285Y-71634819D02*
X172417142Y-71682438D01*
X172845714Y-72634819D02*
X172845714Y-71634819D01*
X172845714Y-71634819D02*
X173083809Y-71634819D01*
X173083809Y-71634819D02*
X173226666Y-71682438D01*
X173226666Y-71682438D02*
X173321904Y-71777676D01*
X173321904Y-71777676D02*
X173369523Y-71872914D01*
X173369523Y-71872914D02*
X173417142Y-72063390D01*
X173417142Y-72063390D02*
X173417142Y-72206247D01*
X173417142Y-72206247D02*
X173369523Y-72396723D01*
X173369523Y-72396723D02*
X173321904Y-72491961D01*
X173321904Y-72491961D02*
X173226666Y-72587200D01*
X173226666Y-72587200D02*
X173083809Y-72634819D01*
X173083809Y-72634819D02*
X172845714Y-72634819D01*
X173798095Y-72349104D02*
X174274285Y-72349104D01*
X173702857Y-72634819D02*
X174036190Y-71634819D01*
X174036190Y-71634819D02*
X174369523Y-72634819D01*
X121590476Y-106174819D02*
X121590476Y-105174819D01*
X121590476Y-105174819D02*
X121971428Y-105174819D01*
X121971428Y-105174819D02*
X122066666Y-105222438D01*
X122066666Y-105222438D02*
X122114285Y-105270057D01*
X122114285Y-105270057D02*
X122161904Y-105365295D01*
X122161904Y-105365295D02*
X122161904Y-105508152D01*
X122161904Y-105508152D02*
X122114285Y-105603390D01*
X122114285Y-105603390D02*
X122066666Y-105651009D01*
X122066666Y-105651009D02*
X121971428Y-105698628D01*
X121971428Y-105698628D02*
X121590476Y-105698628D01*
X122780952Y-105174819D02*
X122971428Y-105174819D01*
X122971428Y-105174819D02*
X123066666Y-105222438D01*
X123066666Y-105222438D02*
X123161904Y-105317676D01*
X123161904Y-105317676D02*
X123209523Y-105508152D01*
X123209523Y-105508152D02*
X123209523Y-105841485D01*
X123209523Y-105841485D02*
X123161904Y-106031961D01*
X123161904Y-106031961D02*
X123066666Y-106127200D01*
X123066666Y-106127200D02*
X122971428Y-106174819D01*
X122971428Y-106174819D02*
X122780952Y-106174819D01*
X122780952Y-106174819D02*
X122685714Y-106127200D01*
X122685714Y-106127200D02*
X122590476Y-106031961D01*
X122590476Y-106031961D02*
X122542857Y-105841485D01*
X122542857Y-105841485D02*
X122542857Y-105508152D01*
X122542857Y-105508152D02*
X122590476Y-105317676D01*
X122590476Y-105317676D02*
X122685714Y-105222438D01*
X122685714Y-105222438D02*
X122780952Y-105174819D01*
X123542857Y-105174819D02*
X123780952Y-106174819D01*
X123780952Y-106174819D02*
X123971428Y-105460533D01*
X123971428Y-105460533D02*
X124161904Y-106174819D01*
X124161904Y-106174819D02*
X124400000Y-105174819D01*
X124780952Y-105651009D02*
X125114285Y-105651009D01*
X125257142Y-106174819D02*
X124780952Y-106174819D01*
X124780952Y-106174819D02*
X124780952Y-105174819D01*
X124780952Y-105174819D02*
X125257142Y-105174819D01*
X126257142Y-106174819D02*
X125923809Y-105698628D01*
X125685714Y-106174819D02*
X125685714Y-105174819D01*
X125685714Y-105174819D02*
X126066666Y-105174819D01*
X126066666Y-105174819D02*
X126161904Y-105222438D01*
X126161904Y-105222438D02*
X126209523Y-105270057D01*
X126209523Y-105270057D02*
X126257142Y-105365295D01*
X126257142Y-105365295D02*
X126257142Y-105508152D01*
X126257142Y-105508152D02*
X126209523Y-105603390D01*
X126209523Y-105603390D02*
X126161904Y-105651009D01*
X126161904Y-105651009D02*
X126066666Y-105698628D01*
X126066666Y-105698628D02*
X125685714Y-105698628D01*
X124622438Y-96021904D02*
X124574819Y-96117142D01*
X124574819Y-96117142D02*
X124574819Y-96259999D01*
X124574819Y-96259999D02*
X124622438Y-96402856D01*
X124622438Y-96402856D02*
X124717676Y-96498094D01*
X124717676Y-96498094D02*
X124812914Y-96545713D01*
X124812914Y-96545713D02*
X125003390Y-96593332D01*
X125003390Y-96593332D02*
X125146247Y-96593332D01*
X125146247Y-96593332D02*
X125336723Y-96545713D01*
X125336723Y-96545713D02*
X125431961Y-96498094D01*
X125431961Y-96498094D02*
X125527200Y-96402856D01*
X125527200Y-96402856D02*
X125574819Y-96259999D01*
X125574819Y-96259999D02*
X125574819Y-96164761D01*
X125574819Y-96164761D02*
X125527200Y-96021904D01*
X125527200Y-96021904D02*
X125479580Y-95974285D01*
X125479580Y-95974285D02*
X125146247Y-95974285D01*
X125146247Y-95974285D02*
X125146247Y-96164761D01*
X125574819Y-95545713D02*
X124574819Y-95545713D01*
X124574819Y-95545713D02*
X125574819Y-94974285D01*
X125574819Y-94974285D02*
X124574819Y-94974285D01*
X125574819Y-94498094D02*
X124574819Y-94498094D01*
X124574819Y-94498094D02*
X124574819Y-94259999D01*
X124574819Y-94259999D02*
X124622438Y-94117142D01*
X124622438Y-94117142D02*
X124717676Y-94021904D01*
X124717676Y-94021904D02*
X124812914Y-93974285D01*
X124812914Y-93974285D02*
X125003390Y-93926666D01*
X125003390Y-93926666D02*
X125146247Y-93926666D01*
X125146247Y-93926666D02*
X125336723Y-93974285D01*
X125336723Y-93974285D02*
X125431961Y-94021904D01*
X125431961Y-94021904D02*
X125527200Y-94117142D01*
X125527200Y-94117142D02*
X125574819Y-94259999D01*
X125574819Y-94259999D02*
X125574819Y-94498094D01*
X173621905Y-49344819D02*
X174240952Y-49344819D01*
X174240952Y-49344819D02*
X173907619Y-49725771D01*
X173907619Y-49725771D02*
X174050476Y-49725771D01*
X174050476Y-49725771D02*
X174145714Y-49773390D01*
X174145714Y-49773390D02*
X174193333Y-49821009D01*
X174193333Y-49821009D02*
X174240952Y-49916247D01*
X174240952Y-49916247D02*
X174240952Y-50154342D01*
X174240952Y-50154342D02*
X174193333Y-50249580D01*
X174193333Y-50249580D02*
X174145714Y-50297200D01*
X174145714Y-50297200D02*
X174050476Y-50344819D01*
X174050476Y-50344819D02*
X173764762Y-50344819D01*
X173764762Y-50344819D02*
X173669524Y-50297200D01*
X173669524Y-50297200D02*
X173621905Y-50249580D01*
X174526667Y-49344819D02*
X174860000Y-50344819D01*
X174860000Y-50344819D02*
X175193333Y-49344819D01*
X175431429Y-49344819D02*
X176050476Y-49344819D01*
X176050476Y-49344819D02*
X175717143Y-49725771D01*
X175717143Y-49725771D02*
X175860000Y-49725771D01*
X175860000Y-49725771D02*
X175955238Y-49773390D01*
X175955238Y-49773390D02*
X176002857Y-49821009D01*
X176002857Y-49821009D02*
X176050476Y-49916247D01*
X176050476Y-49916247D02*
X176050476Y-50154342D01*
X176050476Y-50154342D02*
X176002857Y-50249580D01*
X176002857Y-50249580D02*
X175955238Y-50297200D01*
X175955238Y-50297200D02*
X175860000Y-50344819D01*
X175860000Y-50344819D02*
X175574286Y-50344819D01*
X175574286Y-50344819D02*
X175479048Y-50297200D01*
X175479048Y-50297200D02*
X175431429Y-50249580D01*
X113792438Y-96061904D02*
X113744819Y-96157142D01*
X113744819Y-96157142D02*
X113744819Y-96299999D01*
X113744819Y-96299999D02*
X113792438Y-96442856D01*
X113792438Y-96442856D02*
X113887676Y-96538094D01*
X113887676Y-96538094D02*
X113982914Y-96585713D01*
X113982914Y-96585713D02*
X114173390Y-96633332D01*
X114173390Y-96633332D02*
X114316247Y-96633332D01*
X114316247Y-96633332D02*
X114506723Y-96585713D01*
X114506723Y-96585713D02*
X114601961Y-96538094D01*
X114601961Y-96538094D02*
X114697200Y-96442856D01*
X114697200Y-96442856D02*
X114744819Y-96299999D01*
X114744819Y-96299999D02*
X114744819Y-96204761D01*
X114744819Y-96204761D02*
X114697200Y-96061904D01*
X114697200Y-96061904D02*
X114649580Y-96014285D01*
X114649580Y-96014285D02*
X114316247Y-96014285D01*
X114316247Y-96014285D02*
X114316247Y-96204761D01*
X114744819Y-95585713D02*
X113744819Y-95585713D01*
X113744819Y-95585713D02*
X114744819Y-95014285D01*
X114744819Y-95014285D02*
X113744819Y-95014285D01*
X114744819Y-94538094D02*
X113744819Y-94538094D01*
X113744819Y-94538094D02*
X113744819Y-94299999D01*
X113744819Y-94299999D02*
X113792438Y-94157142D01*
X113792438Y-94157142D02*
X113887676Y-94061904D01*
X113887676Y-94061904D02*
X113982914Y-94014285D01*
X113982914Y-94014285D02*
X114173390Y-93966666D01*
X114173390Y-93966666D02*
X114316247Y-93966666D01*
X114316247Y-93966666D02*
X114506723Y-94014285D01*
X114506723Y-94014285D02*
X114601961Y-94061904D01*
X114601961Y-94061904D02*
X114697200Y-94157142D01*
X114697200Y-94157142D02*
X114744819Y-94299999D01*
X114744819Y-94299999D02*
X114744819Y-94538094D01*
X101901905Y-78454819D02*
X102520952Y-78454819D01*
X102520952Y-78454819D02*
X102187619Y-78835771D01*
X102187619Y-78835771D02*
X102330476Y-78835771D01*
X102330476Y-78835771D02*
X102425714Y-78883390D01*
X102425714Y-78883390D02*
X102473333Y-78931009D01*
X102473333Y-78931009D02*
X102520952Y-79026247D01*
X102520952Y-79026247D02*
X102520952Y-79264342D01*
X102520952Y-79264342D02*
X102473333Y-79359580D01*
X102473333Y-79359580D02*
X102425714Y-79407200D01*
X102425714Y-79407200D02*
X102330476Y-79454819D01*
X102330476Y-79454819D02*
X102044762Y-79454819D01*
X102044762Y-79454819D02*
X101949524Y-79407200D01*
X101949524Y-79407200D02*
X101901905Y-79359580D01*
X102806667Y-78454819D02*
X103140000Y-79454819D01*
X103140000Y-79454819D02*
X103473333Y-78454819D01*
X103711429Y-78454819D02*
X104330476Y-78454819D01*
X104330476Y-78454819D02*
X103997143Y-78835771D01*
X103997143Y-78835771D02*
X104140000Y-78835771D01*
X104140000Y-78835771D02*
X104235238Y-78883390D01*
X104235238Y-78883390D02*
X104282857Y-78931009D01*
X104282857Y-78931009D02*
X104330476Y-79026247D01*
X104330476Y-79026247D02*
X104330476Y-79264342D01*
X104330476Y-79264342D02*
X104282857Y-79359580D01*
X104282857Y-79359580D02*
X104235238Y-79407200D01*
X104235238Y-79407200D02*
X104140000Y-79454819D01*
X104140000Y-79454819D02*
X103854286Y-79454819D01*
X103854286Y-79454819D02*
X103759048Y-79407200D01*
X103759048Y-79407200D02*
X103711429Y-79359580D01*
X165354819Y-79348220D02*
X164354819Y-79348220D01*
X164354819Y-79348220D02*
X165069104Y-79014887D01*
X165069104Y-79014887D02*
X164354819Y-78681554D01*
X164354819Y-78681554D02*
X165354819Y-78681554D01*
X165354819Y-78205363D02*
X164354819Y-78205363D01*
X164354819Y-78205363D02*
X164354819Y-77824411D01*
X164354819Y-77824411D02*
X164402438Y-77729173D01*
X164402438Y-77729173D02*
X164450057Y-77681554D01*
X164450057Y-77681554D02*
X164545295Y-77633935D01*
X164545295Y-77633935D02*
X164688152Y-77633935D01*
X164688152Y-77633935D02*
X164783390Y-77681554D01*
X164783390Y-77681554D02*
X164831009Y-77729173D01*
X164831009Y-77729173D02*
X164878628Y-77824411D01*
X164878628Y-77824411D02*
X164878628Y-78205363D01*
X164354819Y-77205363D02*
X165164342Y-77205363D01*
X165164342Y-77205363D02*
X165259580Y-77157744D01*
X165259580Y-77157744D02*
X165307200Y-77110125D01*
X165307200Y-77110125D02*
X165354819Y-77014887D01*
X165354819Y-77014887D02*
X165354819Y-76824411D01*
X165354819Y-76824411D02*
X165307200Y-76729173D01*
X165307200Y-76729173D02*
X165259580Y-76681554D01*
X165259580Y-76681554D02*
X165164342Y-76633935D01*
X165164342Y-76633935D02*
X164354819Y-76633935D01*
X164354819Y-74967268D02*
X164354819Y-75157744D01*
X164354819Y-75157744D02*
X164402438Y-75252982D01*
X164402438Y-75252982D02*
X164450057Y-75300601D01*
X164450057Y-75300601D02*
X164592914Y-75395839D01*
X164592914Y-75395839D02*
X164783390Y-75443458D01*
X164783390Y-75443458D02*
X165164342Y-75443458D01*
X165164342Y-75443458D02*
X165259580Y-75395839D01*
X165259580Y-75395839D02*
X165307200Y-75348220D01*
X165307200Y-75348220D02*
X165354819Y-75252982D01*
X165354819Y-75252982D02*
X165354819Y-75062506D01*
X165354819Y-75062506D02*
X165307200Y-74967268D01*
X165307200Y-74967268D02*
X165259580Y-74919649D01*
X165259580Y-74919649D02*
X165164342Y-74872030D01*
X165164342Y-74872030D02*
X164926247Y-74872030D01*
X164926247Y-74872030D02*
X164831009Y-74919649D01*
X164831009Y-74919649D02*
X164783390Y-74967268D01*
X164783390Y-74967268D02*
X164735771Y-75062506D01*
X164735771Y-75062506D02*
X164735771Y-75252982D01*
X164735771Y-75252982D02*
X164783390Y-75348220D01*
X164783390Y-75348220D02*
X164831009Y-75395839D01*
X164831009Y-75395839D02*
X164926247Y-75443458D01*
X164354819Y-74252982D02*
X164354819Y-74157744D01*
X164354819Y-74157744D02*
X164402438Y-74062506D01*
X164402438Y-74062506D02*
X164450057Y-74014887D01*
X164450057Y-74014887D02*
X164545295Y-73967268D01*
X164545295Y-73967268D02*
X164735771Y-73919649D01*
X164735771Y-73919649D02*
X164973866Y-73919649D01*
X164973866Y-73919649D02*
X165164342Y-73967268D01*
X165164342Y-73967268D02*
X165259580Y-74014887D01*
X165259580Y-74014887D02*
X165307200Y-74062506D01*
X165307200Y-74062506D02*
X165354819Y-74157744D01*
X165354819Y-74157744D02*
X165354819Y-74252982D01*
X165354819Y-74252982D02*
X165307200Y-74348220D01*
X165307200Y-74348220D02*
X165259580Y-74395839D01*
X165259580Y-74395839D02*
X165164342Y-74443458D01*
X165164342Y-74443458D02*
X164973866Y-74491077D01*
X164973866Y-74491077D02*
X164735771Y-74491077D01*
X164735771Y-74491077D02*
X164545295Y-74443458D01*
X164545295Y-74443458D02*
X164450057Y-74395839D01*
X164450057Y-74395839D02*
X164402438Y-74348220D01*
X164402438Y-74348220D02*
X164354819Y-74252982D01*
X164354819Y-73014887D02*
X164354819Y-73491077D01*
X164354819Y-73491077D02*
X164831009Y-73538696D01*
X164831009Y-73538696D02*
X164783390Y-73491077D01*
X164783390Y-73491077D02*
X164735771Y-73395839D01*
X164735771Y-73395839D02*
X164735771Y-73157744D01*
X164735771Y-73157744D02*
X164783390Y-73062506D01*
X164783390Y-73062506D02*
X164831009Y-73014887D01*
X164831009Y-73014887D02*
X164926247Y-72967268D01*
X164926247Y-72967268D02*
X165164342Y-72967268D01*
X165164342Y-72967268D02*
X165259580Y-73014887D01*
X165259580Y-73014887D02*
X165307200Y-73062506D01*
X165307200Y-73062506D02*
X165354819Y-73157744D01*
X165354819Y-73157744D02*
X165354819Y-73395839D01*
X165354819Y-73395839D02*
X165307200Y-73491077D01*
X165307200Y-73491077D02*
X165259580Y-73538696D01*
X164354819Y-72348220D02*
X164354819Y-72252982D01*
X164354819Y-72252982D02*
X164402438Y-72157744D01*
X164402438Y-72157744D02*
X164450057Y-72110125D01*
X164450057Y-72110125D02*
X164545295Y-72062506D01*
X164545295Y-72062506D02*
X164735771Y-72014887D01*
X164735771Y-72014887D02*
X164973866Y-72014887D01*
X164973866Y-72014887D02*
X165164342Y-72062506D01*
X165164342Y-72062506D02*
X165259580Y-72110125D01*
X165259580Y-72110125D02*
X165307200Y-72157744D01*
X165307200Y-72157744D02*
X165354819Y-72252982D01*
X165354819Y-72252982D02*
X165354819Y-72348220D01*
X165354819Y-72348220D02*
X165307200Y-72443458D01*
X165307200Y-72443458D02*
X165259580Y-72491077D01*
X165259580Y-72491077D02*
X165164342Y-72538696D01*
X165164342Y-72538696D02*
X164973866Y-72586315D01*
X164973866Y-72586315D02*
X164735771Y-72586315D01*
X164735771Y-72586315D02*
X164545295Y-72538696D01*
X164545295Y-72538696D02*
X164450057Y-72491077D01*
X164450057Y-72491077D02*
X164402438Y-72443458D01*
X164402438Y-72443458D02*
X164354819Y-72348220D01*
X151761905Y-90259104D02*
X152238095Y-90259104D01*
X151666667Y-90544819D02*
X152000000Y-89544819D01*
X152000000Y-89544819D02*
X152333333Y-90544819D01*
X152666667Y-90544819D02*
X152666667Y-89544819D01*
X152666667Y-89544819D02*
X152904762Y-89544819D01*
X152904762Y-89544819D02*
X153047619Y-89592438D01*
X153047619Y-89592438D02*
X153142857Y-89687676D01*
X153142857Y-89687676D02*
X153190476Y-89782914D01*
X153190476Y-89782914D02*
X153238095Y-89973390D01*
X153238095Y-89973390D02*
X153238095Y-90116247D01*
X153238095Y-90116247D02*
X153190476Y-90306723D01*
X153190476Y-90306723D02*
X153142857Y-90401961D01*
X153142857Y-90401961D02*
X153047619Y-90497200D01*
X153047619Y-90497200D02*
X152904762Y-90544819D01*
X152904762Y-90544819D02*
X152666667Y-90544819D01*
X154238095Y-90449580D02*
X154190476Y-90497200D01*
X154190476Y-90497200D02*
X154047619Y-90544819D01*
X154047619Y-90544819D02*
X153952381Y-90544819D01*
X153952381Y-90544819D02*
X153809524Y-90497200D01*
X153809524Y-90497200D02*
X153714286Y-90401961D01*
X153714286Y-90401961D02*
X153666667Y-90306723D01*
X153666667Y-90306723D02*
X153619048Y-90116247D01*
X153619048Y-90116247D02*
X153619048Y-89973390D01*
X153619048Y-89973390D02*
X153666667Y-89782914D01*
X153666667Y-89782914D02*
X153714286Y-89687676D01*
X153714286Y-89687676D02*
X153809524Y-89592438D01*
X153809524Y-89592438D02*
X153952381Y-89544819D01*
X153952381Y-89544819D02*
X154047619Y-89544819D01*
X154047619Y-89544819D02*
X154190476Y-89592438D01*
X154190476Y-89592438D02*
X154238095Y-89640057D01*
X129663180Y-84766666D02*
X130329847Y-84766666D01*
X129663180Y-85195237D02*
X130186989Y-85195237D01*
X130186989Y-85195237D02*
X130282228Y-85147618D01*
X130282228Y-85147618D02*
X130329847Y-85052380D01*
X130329847Y-85052380D02*
X130329847Y-84909523D01*
X130329847Y-84909523D02*
X130282228Y-84814285D01*
X130282228Y-84814285D02*
X130234608Y-84766666D01*
X130329847Y-84290475D02*
X129329847Y-84290475D01*
X129329847Y-84290475D02*
X129329847Y-83909523D01*
X129329847Y-83909523D02*
X129377466Y-83814285D01*
X129377466Y-83814285D02*
X129425085Y-83766666D01*
X129425085Y-83766666D02*
X129520323Y-83719047D01*
X129520323Y-83719047D02*
X129663180Y-83719047D01*
X129663180Y-83719047D02*
X129758418Y-83766666D01*
X129758418Y-83766666D02*
X129806037Y-83814285D01*
X129806037Y-83814285D02*
X129853656Y-83909523D01*
X129853656Y-83909523D02*
X129853656Y-84290475D01*
X131939791Y-85933333D02*
X131463600Y-86266666D01*
X131939791Y-86504761D02*
X130939791Y-86504761D01*
X130939791Y-86504761D02*
X130939791Y-86123809D01*
X130939791Y-86123809D02*
X130987410Y-86028571D01*
X130987410Y-86028571D02*
X131035029Y-85980952D01*
X131035029Y-85980952D02*
X131130267Y-85933333D01*
X131130267Y-85933333D02*
X131273124Y-85933333D01*
X131273124Y-85933333D02*
X131368362Y-85980952D01*
X131368362Y-85980952D02*
X131415981Y-86028571D01*
X131415981Y-86028571D02*
X131463600Y-86123809D01*
X131463600Y-86123809D02*
X131463600Y-86504761D01*
X131415981Y-85504761D02*
X131415981Y-85171428D01*
X131939791Y-85028571D02*
X131939791Y-85504761D01*
X131939791Y-85504761D02*
X130939791Y-85504761D01*
X130939791Y-85504761D02*
X130939791Y-85028571D01*
X131892172Y-84647618D02*
X131939791Y-84504761D01*
X131939791Y-84504761D02*
X131939791Y-84266666D01*
X131939791Y-84266666D02*
X131892172Y-84171428D01*
X131892172Y-84171428D02*
X131844552Y-84123809D01*
X131844552Y-84123809D02*
X131749314Y-84076190D01*
X131749314Y-84076190D02*
X131654076Y-84076190D01*
X131654076Y-84076190D02*
X131558838Y-84123809D01*
X131558838Y-84123809D02*
X131511219Y-84171428D01*
X131511219Y-84171428D02*
X131463600Y-84266666D01*
X131463600Y-84266666D02*
X131415981Y-84457142D01*
X131415981Y-84457142D02*
X131368362Y-84552380D01*
X131368362Y-84552380D02*
X131320743Y-84599999D01*
X131320743Y-84599999D02*
X131225505Y-84647618D01*
X131225505Y-84647618D02*
X131130267Y-84647618D01*
X131130267Y-84647618D02*
X131035029Y-84599999D01*
X131035029Y-84599999D02*
X130987410Y-84552380D01*
X130987410Y-84552380D02*
X130939791Y-84457142D01*
X130939791Y-84457142D02*
X130939791Y-84219047D01*
X130939791Y-84219047D02*
X130987410Y-84076190D01*
X131415981Y-83647618D02*
X131415981Y-83314285D01*
X131939791Y-83171428D02*
X131939791Y-83647618D01*
X131939791Y-83647618D02*
X130939791Y-83647618D01*
X130939791Y-83647618D02*
X130939791Y-83171428D01*
X130939791Y-82885713D02*
X130939791Y-82314285D01*
X131939791Y-82599999D02*
X130939791Y-82599999D01*
X94744819Y-103877619D02*
X94268628Y-104210952D01*
X94744819Y-104449047D02*
X93744819Y-104449047D01*
X93744819Y-104449047D02*
X93744819Y-104068095D01*
X93744819Y-104068095D02*
X93792438Y-103972857D01*
X93792438Y-103972857D02*
X93840057Y-103925238D01*
X93840057Y-103925238D02*
X93935295Y-103877619D01*
X93935295Y-103877619D02*
X94078152Y-103877619D01*
X94078152Y-103877619D02*
X94173390Y-103925238D01*
X94173390Y-103925238D02*
X94221009Y-103972857D01*
X94221009Y-103972857D02*
X94268628Y-104068095D01*
X94268628Y-104068095D02*
X94268628Y-104449047D01*
X93792438Y-102925238D02*
X93744819Y-103020476D01*
X93744819Y-103020476D02*
X93744819Y-103163333D01*
X93744819Y-103163333D02*
X93792438Y-103306190D01*
X93792438Y-103306190D02*
X93887676Y-103401428D01*
X93887676Y-103401428D02*
X93982914Y-103449047D01*
X93982914Y-103449047D02*
X94173390Y-103496666D01*
X94173390Y-103496666D02*
X94316247Y-103496666D01*
X94316247Y-103496666D02*
X94506723Y-103449047D01*
X94506723Y-103449047D02*
X94601961Y-103401428D01*
X94601961Y-103401428D02*
X94697200Y-103306190D01*
X94697200Y-103306190D02*
X94744819Y-103163333D01*
X94744819Y-103163333D02*
X94744819Y-103068095D01*
X94744819Y-103068095D02*
X94697200Y-102925238D01*
X94697200Y-102925238D02*
X94649580Y-102877619D01*
X94649580Y-102877619D02*
X94316247Y-102877619D01*
X94316247Y-102877619D02*
X94316247Y-103068095D01*
X94221009Y-102115714D02*
X94268628Y-101972857D01*
X94268628Y-101972857D02*
X94316247Y-101925238D01*
X94316247Y-101925238D02*
X94411485Y-101877619D01*
X94411485Y-101877619D02*
X94554342Y-101877619D01*
X94554342Y-101877619D02*
X94649580Y-101925238D01*
X94649580Y-101925238D02*
X94697200Y-101972857D01*
X94697200Y-101972857D02*
X94744819Y-102068095D01*
X94744819Y-102068095D02*
X94744819Y-102449047D01*
X94744819Y-102449047D02*
X93744819Y-102449047D01*
X93744819Y-102449047D02*
X93744819Y-102115714D01*
X93744819Y-102115714D02*
X93792438Y-102020476D01*
X93792438Y-102020476D02*
X93840057Y-101972857D01*
X93840057Y-101972857D02*
X93935295Y-101925238D01*
X93935295Y-101925238D02*
X94030533Y-101925238D01*
X94030533Y-101925238D02*
X94125771Y-101972857D01*
X94125771Y-101972857D02*
X94173390Y-102020476D01*
X94173390Y-102020476D02*
X94221009Y-102115714D01*
X94221009Y-102115714D02*
X94221009Y-102449047D01*
X94744819Y-100163333D02*
X94744819Y-100734761D01*
X94744819Y-100449047D02*
X93744819Y-100449047D01*
X93744819Y-100449047D02*
X93887676Y-100544285D01*
X93887676Y-100544285D02*
X93982914Y-100639523D01*
X93982914Y-100639523D02*
X94030533Y-100734761D01*
X173259523Y-79444819D02*
X172783333Y-79444819D01*
X172783333Y-79444819D02*
X172735714Y-79921009D01*
X172735714Y-79921009D02*
X172783333Y-79873390D01*
X172783333Y-79873390D02*
X172878571Y-79825771D01*
X172878571Y-79825771D02*
X173116666Y-79825771D01*
X173116666Y-79825771D02*
X173211904Y-79873390D01*
X173211904Y-79873390D02*
X173259523Y-79921009D01*
X173259523Y-79921009D02*
X173307142Y-80016247D01*
X173307142Y-80016247D02*
X173307142Y-80254342D01*
X173307142Y-80254342D02*
X173259523Y-80349580D01*
X173259523Y-80349580D02*
X173211904Y-80397200D01*
X173211904Y-80397200D02*
X173116666Y-80444819D01*
X173116666Y-80444819D02*
X172878571Y-80444819D01*
X172878571Y-80444819D02*
X172783333Y-80397200D01*
X172783333Y-80397200D02*
X172735714Y-80349580D01*
X173592857Y-79444819D02*
X173926190Y-80444819D01*
X173926190Y-80444819D02*
X174259523Y-79444819D01*
X172155238Y-62584819D02*
X172155238Y-61584819D01*
X172631428Y-62584819D02*
X172631428Y-61584819D01*
X172631428Y-61584819D02*
X173202856Y-62584819D01*
X173202856Y-62584819D02*
X173202856Y-61584819D01*
X173536190Y-61584819D02*
X174107618Y-61584819D01*
X173821904Y-62584819D02*
X173821904Y-61584819D01*
X124347200Y-46779046D02*
X124394819Y-46636189D01*
X124394819Y-46636189D02*
X124394819Y-46398094D01*
X124394819Y-46398094D02*
X124347200Y-46302856D01*
X124347200Y-46302856D02*
X124299580Y-46255237D01*
X124299580Y-46255237D02*
X124204342Y-46207618D01*
X124204342Y-46207618D02*
X124109104Y-46207618D01*
X124109104Y-46207618D02*
X124013866Y-46255237D01*
X124013866Y-46255237D02*
X123966247Y-46302856D01*
X123966247Y-46302856D02*
X123918628Y-46398094D01*
X123918628Y-46398094D02*
X123871009Y-46588570D01*
X123871009Y-46588570D02*
X123823390Y-46683808D01*
X123823390Y-46683808D02*
X123775771Y-46731427D01*
X123775771Y-46731427D02*
X123680533Y-46779046D01*
X123680533Y-46779046D02*
X123585295Y-46779046D01*
X123585295Y-46779046D02*
X123490057Y-46731427D01*
X123490057Y-46731427D02*
X123442438Y-46683808D01*
X123442438Y-46683808D02*
X123394819Y-46588570D01*
X123394819Y-46588570D02*
X123394819Y-46350475D01*
X123394819Y-46350475D02*
X123442438Y-46207618D01*
X123394819Y-45874284D02*
X124394819Y-45636189D01*
X124394819Y-45636189D02*
X123680533Y-45445713D01*
X123680533Y-45445713D02*
X124394819Y-45255237D01*
X124394819Y-45255237D02*
X123394819Y-45017142D01*
X124394819Y-44636189D02*
X123394819Y-44636189D01*
X123394819Y-44636189D02*
X123394819Y-44398094D01*
X123394819Y-44398094D02*
X123442438Y-44255237D01*
X123442438Y-44255237D02*
X123537676Y-44159999D01*
X123537676Y-44159999D02*
X123632914Y-44112380D01*
X123632914Y-44112380D02*
X123823390Y-44064761D01*
X123823390Y-44064761D02*
X123966247Y-44064761D01*
X123966247Y-44064761D02*
X124156723Y-44112380D01*
X124156723Y-44112380D02*
X124251961Y-44159999D01*
X124251961Y-44159999D02*
X124347200Y-44255237D01*
X124347200Y-44255237D02*
X124394819Y-44398094D01*
X124394819Y-44398094D02*
X124394819Y-44636189D01*
X124394819Y-43636189D02*
X123394819Y-43636189D01*
X123394819Y-42969523D02*
X123394819Y-42779047D01*
X123394819Y-42779047D02*
X123442438Y-42683809D01*
X123442438Y-42683809D02*
X123537676Y-42588571D01*
X123537676Y-42588571D02*
X123728152Y-42540952D01*
X123728152Y-42540952D02*
X124061485Y-42540952D01*
X124061485Y-42540952D02*
X124251961Y-42588571D01*
X124251961Y-42588571D02*
X124347200Y-42683809D01*
X124347200Y-42683809D02*
X124394819Y-42779047D01*
X124394819Y-42779047D02*
X124394819Y-42969523D01*
X124394819Y-42969523D02*
X124347200Y-43064761D01*
X124347200Y-43064761D02*
X124251961Y-43159999D01*
X124251961Y-43159999D02*
X124061485Y-43207618D01*
X124061485Y-43207618D02*
X123728152Y-43207618D01*
X123728152Y-43207618D02*
X123537676Y-43159999D01*
X123537676Y-43159999D02*
X123442438Y-43064761D01*
X123442438Y-43064761D02*
X123394819Y-42969523D01*
X172318095Y-76942438D02*
X172222857Y-76894819D01*
X172222857Y-76894819D02*
X172080000Y-76894819D01*
X172080000Y-76894819D02*
X171937143Y-76942438D01*
X171937143Y-76942438D02*
X171841905Y-77037676D01*
X171841905Y-77037676D02*
X171794286Y-77132914D01*
X171794286Y-77132914D02*
X171746667Y-77323390D01*
X171746667Y-77323390D02*
X171746667Y-77466247D01*
X171746667Y-77466247D02*
X171794286Y-77656723D01*
X171794286Y-77656723D02*
X171841905Y-77751961D01*
X171841905Y-77751961D02*
X171937143Y-77847200D01*
X171937143Y-77847200D02*
X172080000Y-77894819D01*
X172080000Y-77894819D02*
X172175238Y-77894819D01*
X172175238Y-77894819D02*
X172318095Y-77847200D01*
X172318095Y-77847200D02*
X172365714Y-77799580D01*
X172365714Y-77799580D02*
X172365714Y-77466247D01*
X172365714Y-77466247D02*
X172175238Y-77466247D01*
X172794286Y-77894819D02*
X172794286Y-76894819D01*
X172794286Y-76894819D02*
X173365714Y-77894819D01*
X173365714Y-77894819D02*
X173365714Y-76894819D01*
X173841905Y-77894819D02*
X173841905Y-76894819D01*
X173841905Y-76894819D02*
X174080000Y-76894819D01*
X174080000Y-76894819D02*
X174222857Y-76942438D01*
X174222857Y-76942438D02*
X174318095Y-77037676D01*
X174318095Y-77037676D02*
X174365714Y-77132914D01*
X174365714Y-77132914D02*
X174413333Y-77323390D01*
X174413333Y-77323390D02*
X174413333Y-77466247D01*
X174413333Y-77466247D02*
X174365714Y-77656723D01*
X174365714Y-77656723D02*
X174318095Y-77751961D01*
X174318095Y-77751961D02*
X174222857Y-77847200D01*
X174222857Y-77847200D02*
X174080000Y-77894819D01*
X174080000Y-77894819D02*
X173841905Y-77894819D01*
X122034819Y-96348094D02*
X122034819Y-95729047D01*
X122034819Y-95729047D02*
X122415771Y-96062380D01*
X122415771Y-96062380D02*
X122415771Y-95919523D01*
X122415771Y-95919523D02*
X122463390Y-95824285D01*
X122463390Y-95824285D02*
X122511009Y-95776666D01*
X122511009Y-95776666D02*
X122606247Y-95729047D01*
X122606247Y-95729047D02*
X122844342Y-95729047D01*
X122844342Y-95729047D02*
X122939580Y-95776666D01*
X122939580Y-95776666D02*
X122987200Y-95824285D01*
X122987200Y-95824285D02*
X123034819Y-95919523D01*
X123034819Y-95919523D02*
X123034819Y-96205237D01*
X123034819Y-96205237D02*
X122987200Y-96300475D01*
X122987200Y-96300475D02*
X122939580Y-96348094D01*
X122034819Y-95443332D02*
X123034819Y-95109999D01*
X123034819Y-95109999D02*
X122034819Y-94776666D01*
X122034819Y-94538570D02*
X122034819Y-93919523D01*
X122034819Y-93919523D02*
X122415771Y-94252856D01*
X122415771Y-94252856D02*
X122415771Y-94109999D01*
X122415771Y-94109999D02*
X122463390Y-94014761D01*
X122463390Y-94014761D02*
X122511009Y-93967142D01*
X122511009Y-93967142D02*
X122606247Y-93919523D01*
X122606247Y-93919523D02*
X122844342Y-93919523D01*
X122844342Y-93919523D02*
X122939580Y-93967142D01*
X122939580Y-93967142D02*
X122987200Y-94014761D01*
X122987200Y-94014761D02*
X123034819Y-94109999D01*
X123034819Y-94109999D02*
X123034819Y-94395713D01*
X123034819Y-94395713D02*
X122987200Y-94490951D01*
X122987200Y-94490951D02*
X122939580Y-94538570D01*
X173524286Y-47637200D02*
X173667143Y-47684819D01*
X173667143Y-47684819D02*
X173905238Y-47684819D01*
X173905238Y-47684819D02*
X174000476Y-47637200D01*
X174000476Y-47637200D02*
X174048095Y-47589580D01*
X174048095Y-47589580D02*
X174095714Y-47494342D01*
X174095714Y-47494342D02*
X174095714Y-47399104D01*
X174095714Y-47399104D02*
X174048095Y-47303866D01*
X174048095Y-47303866D02*
X174000476Y-47256247D01*
X174000476Y-47256247D02*
X173905238Y-47208628D01*
X173905238Y-47208628D02*
X173714762Y-47161009D01*
X173714762Y-47161009D02*
X173619524Y-47113390D01*
X173619524Y-47113390D02*
X173571905Y-47065771D01*
X173571905Y-47065771D02*
X173524286Y-46970533D01*
X173524286Y-46970533D02*
X173524286Y-46875295D01*
X173524286Y-46875295D02*
X173571905Y-46780057D01*
X173571905Y-46780057D02*
X173619524Y-46732438D01*
X173619524Y-46732438D02*
X173714762Y-46684819D01*
X173714762Y-46684819D02*
X173952857Y-46684819D01*
X173952857Y-46684819D02*
X174095714Y-46732438D01*
X175095714Y-47589580D02*
X175048095Y-47637200D01*
X175048095Y-47637200D02*
X174905238Y-47684819D01*
X174905238Y-47684819D02*
X174810000Y-47684819D01*
X174810000Y-47684819D02*
X174667143Y-47637200D01*
X174667143Y-47637200D02*
X174571905Y-47541961D01*
X174571905Y-47541961D02*
X174524286Y-47446723D01*
X174524286Y-47446723D02*
X174476667Y-47256247D01*
X174476667Y-47256247D02*
X174476667Y-47113390D01*
X174476667Y-47113390D02*
X174524286Y-46922914D01*
X174524286Y-46922914D02*
X174571905Y-46827676D01*
X174571905Y-46827676D02*
X174667143Y-46732438D01*
X174667143Y-46732438D02*
X174810000Y-46684819D01*
X174810000Y-46684819D02*
X174905238Y-46684819D01*
X174905238Y-46684819D02*
X175048095Y-46732438D01*
X175048095Y-46732438D02*
X175095714Y-46780057D01*
X175524286Y-47684819D02*
X175524286Y-46684819D01*
X176095714Y-47684819D02*
X175667143Y-47113390D01*
X176095714Y-46684819D02*
X175524286Y-47256247D01*
X96685714Y-39899847D02*
X96685714Y-40709370D01*
X96685714Y-40709370D02*
X96733333Y-40804608D01*
X96733333Y-40804608D02*
X96780952Y-40852228D01*
X96780952Y-40852228D02*
X96876190Y-40899847D01*
X96876190Y-40899847D02*
X97066666Y-40899847D01*
X97066666Y-40899847D02*
X97161904Y-40852228D01*
X97161904Y-40852228D02*
X97209523Y-40804608D01*
X97209523Y-40804608D02*
X97257142Y-40709370D01*
X97257142Y-40709370D02*
X97257142Y-39899847D01*
X97685714Y-40852228D02*
X97828571Y-40899847D01*
X97828571Y-40899847D02*
X98066666Y-40899847D01*
X98066666Y-40899847D02*
X98161904Y-40852228D01*
X98161904Y-40852228D02*
X98209523Y-40804608D01*
X98209523Y-40804608D02*
X98257142Y-40709370D01*
X98257142Y-40709370D02*
X98257142Y-40614132D01*
X98257142Y-40614132D02*
X98209523Y-40518894D01*
X98209523Y-40518894D02*
X98161904Y-40471275D01*
X98161904Y-40471275D02*
X98066666Y-40423656D01*
X98066666Y-40423656D02*
X97876190Y-40376037D01*
X97876190Y-40376037D02*
X97780952Y-40328418D01*
X97780952Y-40328418D02*
X97733333Y-40280799D01*
X97733333Y-40280799D02*
X97685714Y-40185561D01*
X97685714Y-40185561D02*
X97685714Y-40090323D01*
X97685714Y-40090323D02*
X97733333Y-39995085D01*
X97733333Y-39995085D02*
X97780952Y-39947466D01*
X97780952Y-39947466D02*
X97876190Y-39899847D01*
X97876190Y-39899847D02*
X98114285Y-39899847D01*
X98114285Y-39899847D02*
X98257142Y-39947466D01*
X98685714Y-40376037D02*
X99019047Y-40376037D01*
X99161904Y-40899847D02*
X98685714Y-40899847D01*
X98685714Y-40899847D02*
X98685714Y-39899847D01*
X98685714Y-39899847D02*
X99161904Y-39899847D01*
X100161904Y-40899847D02*
X99828571Y-40423656D01*
X99590476Y-40899847D02*
X99590476Y-39899847D01*
X99590476Y-39899847D02*
X99971428Y-39899847D01*
X99971428Y-39899847D02*
X100066666Y-39947466D01*
X100066666Y-39947466D02*
X100114285Y-39995085D01*
X100114285Y-39995085D02*
X100161904Y-40090323D01*
X100161904Y-40090323D02*
X100161904Y-40233180D01*
X100161904Y-40233180D02*
X100114285Y-40328418D01*
X100114285Y-40328418D02*
X100066666Y-40376037D01*
X100066666Y-40376037D02*
X99971428Y-40423656D01*
X99971428Y-40423656D02*
X99590476Y-40423656D01*
X96804762Y-41509791D02*
X96804762Y-42319314D01*
X96804762Y-42319314D02*
X96852381Y-42414552D01*
X96852381Y-42414552D02*
X96900000Y-42462172D01*
X96900000Y-42462172D02*
X96995238Y-42509791D01*
X96995238Y-42509791D02*
X97185714Y-42509791D01*
X97185714Y-42509791D02*
X97280952Y-42462172D01*
X97280952Y-42462172D02*
X97328571Y-42414552D01*
X97328571Y-42414552D02*
X97376190Y-42319314D01*
X97376190Y-42319314D02*
X97376190Y-41509791D01*
X97804762Y-42224076D02*
X98280952Y-42224076D01*
X97709524Y-42509791D02*
X98042857Y-41509791D01*
X98042857Y-41509791D02*
X98376190Y-42509791D01*
X99280952Y-42509791D02*
X98947619Y-42033600D01*
X98709524Y-42509791D02*
X98709524Y-41509791D01*
X98709524Y-41509791D02*
X99090476Y-41509791D01*
X99090476Y-41509791D02*
X99185714Y-41557410D01*
X99185714Y-41557410D02*
X99233333Y-41605029D01*
X99233333Y-41605029D02*
X99280952Y-41700267D01*
X99280952Y-41700267D02*
X99280952Y-41843124D01*
X99280952Y-41843124D02*
X99233333Y-41938362D01*
X99233333Y-41938362D02*
X99185714Y-41985981D01*
X99185714Y-41985981D02*
X99090476Y-42033600D01*
X99090476Y-42033600D02*
X98709524Y-42033600D01*
X99566667Y-41509791D02*
X100138095Y-41509791D01*
X99852381Y-42509791D02*
X99852381Y-41509791D01*
X136404819Y-101473808D02*
X136404819Y-100902380D01*
X137404819Y-101188094D02*
X136404819Y-101188094D01*
X137404819Y-99997618D02*
X136928628Y-100330951D01*
X137404819Y-100569046D02*
X136404819Y-100569046D01*
X136404819Y-100569046D02*
X136404819Y-100188094D01*
X136404819Y-100188094D02*
X136452438Y-100092856D01*
X136452438Y-100092856D02*
X136500057Y-100045237D01*
X136500057Y-100045237D02*
X136595295Y-99997618D01*
X136595295Y-99997618D02*
X136738152Y-99997618D01*
X136738152Y-99997618D02*
X136833390Y-100045237D01*
X136833390Y-100045237D02*
X136881009Y-100092856D01*
X136881009Y-100092856D02*
X136928628Y-100188094D01*
X136928628Y-100188094D02*
X136928628Y-100569046D01*
X137404819Y-99569046D02*
X136404819Y-99569046D01*
X136452438Y-98569047D02*
X136404819Y-98664285D01*
X136404819Y-98664285D02*
X136404819Y-98807142D01*
X136404819Y-98807142D02*
X136452438Y-98949999D01*
X136452438Y-98949999D02*
X136547676Y-99045237D01*
X136547676Y-99045237D02*
X136642914Y-99092856D01*
X136642914Y-99092856D02*
X136833390Y-99140475D01*
X136833390Y-99140475D02*
X136976247Y-99140475D01*
X136976247Y-99140475D02*
X137166723Y-99092856D01*
X137166723Y-99092856D02*
X137261961Y-99045237D01*
X137261961Y-99045237D02*
X137357200Y-98949999D01*
X137357200Y-98949999D02*
X137404819Y-98807142D01*
X137404819Y-98807142D02*
X137404819Y-98711904D01*
X137404819Y-98711904D02*
X137357200Y-98569047D01*
X137357200Y-98569047D02*
X137309580Y-98521428D01*
X137309580Y-98521428D02*
X136976247Y-98521428D01*
X136976247Y-98521428D02*
X136976247Y-98711904D01*
X95960000Y-60516037D02*
X96293333Y-60516037D01*
X96436190Y-61039847D02*
X95960000Y-61039847D01*
X95960000Y-61039847D02*
X95960000Y-60039847D01*
X95960000Y-60039847D02*
X96436190Y-60039847D01*
X96769524Y-60039847D02*
X97436190Y-61039847D01*
X97436190Y-60039847D02*
X96769524Y-61039847D01*
X97674286Y-60039847D02*
X98245714Y-60039847D01*
X97960000Y-61039847D02*
X97960000Y-60039847D01*
X99150476Y-61039847D02*
X98817143Y-60563656D01*
X98579048Y-61039847D02*
X98579048Y-60039847D01*
X98579048Y-60039847D02*
X98960000Y-60039847D01*
X98960000Y-60039847D02*
X99055238Y-60087466D01*
X99055238Y-60087466D02*
X99102857Y-60135085D01*
X99102857Y-60135085D02*
X99150476Y-60230323D01*
X99150476Y-60230323D02*
X99150476Y-60373180D01*
X99150476Y-60373180D02*
X99102857Y-60468418D01*
X99102857Y-60468418D02*
X99055238Y-60516037D01*
X99055238Y-60516037D02*
X98960000Y-60563656D01*
X98960000Y-60563656D02*
X98579048Y-60563656D01*
X99531429Y-60754132D02*
X100007619Y-60754132D01*
X99436191Y-61039847D02*
X99769524Y-60039847D01*
X99769524Y-60039847D02*
X100102857Y-61039847D01*
X96960000Y-61697410D02*
X96864762Y-61649791D01*
X96864762Y-61649791D02*
X96721905Y-61649791D01*
X96721905Y-61649791D02*
X96579048Y-61697410D01*
X96579048Y-61697410D02*
X96483810Y-61792648D01*
X96483810Y-61792648D02*
X96436191Y-61887886D01*
X96436191Y-61887886D02*
X96388572Y-62078362D01*
X96388572Y-62078362D02*
X96388572Y-62221219D01*
X96388572Y-62221219D02*
X96436191Y-62411695D01*
X96436191Y-62411695D02*
X96483810Y-62506933D01*
X96483810Y-62506933D02*
X96579048Y-62602172D01*
X96579048Y-62602172D02*
X96721905Y-62649791D01*
X96721905Y-62649791D02*
X96817143Y-62649791D01*
X96817143Y-62649791D02*
X96960000Y-62602172D01*
X96960000Y-62602172D02*
X97007619Y-62554552D01*
X97007619Y-62554552D02*
X97007619Y-62221219D01*
X97007619Y-62221219D02*
X96817143Y-62221219D01*
X97436191Y-62649791D02*
X97436191Y-61649791D01*
X97436191Y-61649791D02*
X97817143Y-61649791D01*
X97817143Y-61649791D02*
X97912381Y-61697410D01*
X97912381Y-61697410D02*
X97960000Y-61745029D01*
X97960000Y-61745029D02*
X98007619Y-61840267D01*
X98007619Y-61840267D02*
X98007619Y-61983124D01*
X98007619Y-61983124D02*
X97960000Y-62078362D01*
X97960000Y-62078362D02*
X97912381Y-62125981D01*
X97912381Y-62125981D02*
X97817143Y-62173600D01*
X97817143Y-62173600D02*
X97436191Y-62173600D01*
X98436191Y-62649791D02*
X98436191Y-61649791D01*
X99102857Y-61649791D02*
X99293333Y-61649791D01*
X99293333Y-61649791D02*
X99388571Y-61697410D01*
X99388571Y-61697410D02*
X99483809Y-61792648D01*
X99483809Y-61792648D02*
X99531428Y-61983124D01*
X99531428Y-61983124D02*
X99531428Y-62316457D01*
X99531428Y-62316457D02*
X99483809Y-62506933D01*
X99483809Y-62506933D02*
X99388571Y-62602172D01*
X99388571Y-62602172D02*
X99293333Y-62649791D01*
X99293333Y-62649791D02*
X99102857Y-62649791D01*
X99102857Y-62649791D02*
X99007619Y-62602172D01*
X99007619Y-62602172D02*
X98912381Y-62506933D01*
X98912381Y-62506933D02*
X98864762Y-62316457D01*
X98864762Y-62316457D02*
X98864762Y-61983124D01*
X98864762Y-61983124D02*
X98912381Y-61792648D01*
X98912381Y-61792648D02*
X99007619Y-61697410D01*
X99007619Y-61697410D02*
X99102857Y-61649791D01*
X173958095Y-39292438D02*
X173862857Y-39244819D01*
X173862857Y-39244819D02*
X173720000Y-39244819D01*
X173720000Y-39244819D02*
X173577143Y-39292438D01*
X173577143Y-39292438D02*
X173481905Y-39387676D01*
X173481905Y-39387676D02*
X173434286Y-39482914D01*
X173434286Y-39482914D02*
X173386667Y-39673390D01*
X173386667Y-39673390D02*
X173386667Y-39816247D01*
X173386667Y-39816247D02*
X173434286Y-40006723D01*
X173434286Y-40006723D02*
X173481905Y-40101961D01*
X173481905Y-40101961D02*
X173577143Y-40197200D01*
X173577143Y-40197200D02*
X173720000Y-40244819D01*
X173720000Y-40244819D02*
X173815238Y-40244819D01*
X173815238Y-40244819D02*
X173958095Y-40197200D01*
X173958095Y-40197200D02*
X174005714Y-40149580D01*
X174005714Y-40149580D02*
X174005714Y-39816247D01*
X174005714Y-39816247D02*
X173815238Y-39816247D01*
X174434286Y-40244819D02*
X174434286Y-39244819D01*
X174434286Y-39244819D02*
X175005714Y-40244819D01*
X175005714Y-40244819D02*
X175005714Y-39244819D01*
X175481905Y-40244819D02*
X175481905Y-39244819D01*
X175481905Y-39244819D02*
X175720000Y-39244819D01*
X175720000Y-39244819D02*
X175862857Y-39292438D01*
X175862857Y-39292438D02*
X175958095Y-39387676D01*
X175958095Y-39387676D02*
X176005714Y-39482914D01*
X176005714Y-39482914D02*
X176053333Y-39673390D01*
X176053333Y-39673390D02*
X176053333Y-39816247D01*
X176053333Y-39816247D02*
X176005714Y-40006723D01*
X176005714Y-40006723D02*
X175958095Y-40101961D01*
X175958095Y-40101961D02*
X175862857Y-40197200D01*
X175862857Y-40197200D02*
X175720000Y-40244819D01*
X175720000Y-40244819D02*
X175481905Y-40244819D01*
X101778095Y-65792438D02*
X101682857Y-65744819D01*
X101682857Y-65744819D02*
X101540000Y-65744819D01*
X101540000Y-65744819D02*
X101397143Y-65792438D01*
X101397143Y-65792438D02*
X101301905Y-65887676D01*
X101301905Y-65887676D02*
X101254286Y-65982914D01*
X101254286Y-65982914D02*
X101206667Y-66173390D01*
X101206667Y-66173390D02*
X101206667Y-66316247D01*
X101206667Y-66316247D02*
X101254286Y-66506723D01*
X101254286Y-66506723D02*
X101301905Y-66601961D01*
X101301905Y-66601961D02*
X101397143Y-66697200D01*
X101397143Y-66697200D02*
X101540000Y-66744819D01*
X101540000Y-66744819D02*
X101635238Y-66744819D01*
X101635238Y-66744819D02*
X101778095Y-66697200D01*
X101778095Y-66697200D02*
X101825714Y-66649580D01*
X101825714Y-66649580D02*
X101825714Y-66316247D01*
X101825714Y-66316247D02*
X101635238Y-66316247D01*
X102254286Y-66744819D02*
X102254286Y-65744819D01*
X102254286Y-65744819D02*
X102825714Y-66744819D01*
X102825714Y-66744819D02*
X102825714Y-65744819D01*
X103301905Y-66744819D02*
X103301905Y-65744819D01*
X103301905Y-65744819D02*
X103540000Y-65744819D01*
X103540000Y-65744819D02*
X103682857Y-65792438D01*
X103682857Y-65792438D02*
X103778095Y-65887676D01*
X103778095Y-65887676D02*
X103825714Y-65982914D01*
X103825714Y-65982914D02*
X103873333Y-66173390D01*
X103873333Y-66173390D02*
X103873333Y-66316247D01*
X103873333Y-66316247D02*
X103825714Y-66506723D01*
X103825714Y-66506723D02*
X103778095Y-66601961D01*
X103778095Y-66601961D02*
X103682857Y-66697200D01*
X103682857Y-66697200D02*
X103540000Y-66744819D01*
X103540000Y-66744819D02*
X103301905Y-66744819D01*
X101730476Y-70894819D02*
X102397142Y-71894819D01*
X102397142Y-70894819D02*
X101730476Y-71894819D01*
X102682857Y-70894819D02*
X103301904Y-70894819D01*
X103301904Y-70894819D02*
X102968571Y-71275771D01*
X102968571Y-71275771D02*
X103111428Y-71275771D01*
X103111428Y-71275771D02*
X103206666Y-71323390D01*
X103206666Y-71323390D02*
X103254285Y-71371009D01*
X103254285Y-71371009D02*
X103301904Y-71466247D01*
X103301904Y-71466247D02*
X103301904Y-71704342D01*
X103301904Y-71704342D02*
X103254285Y-71799580D01*
X103254285Y-71799580D02*
X103206666Y-71847200D01*
X103206666Y-71847200D02*
X103111428Y-71894819D01*
X103111428Y-71894819D02*
X102825714Y-71894819D01*
X102825714Y-71894819D02*
X102730476Y-71847200D01*
X102730476Y-71847200D02*
X102682857Y-71799580D01*
X101840476Y-75764819D02*
X102507142Y-76764819D01*
X102507142Y-75764819D02*
X101840476Y-76764819D01*
X103411904Y-76764819D02*
X102840476Y-76764819D01*
X103126190Y-76764819D02*
X103126190Y-75764819D01*
X103126190Y-75764819D02*
X103030952Y-75907676D01*
X103030952Y-75907676D02*
X102935714Y-76002914D01*
X102935714Y-76002914D02*
X102840476Y-76050533D01*
X173326667Y-66694819D02*
X173993333Y-67694819D01*
X173993333Y-66694819D02*
X173326667Y-67694819D01*
X175003333Y-42589580D02*
X174955714Y-42637200D01*
X174955714Y-42637200D02*
X174812857Y-42684819D01*
X174812857Y-42684819D02*
X174717619Y-42684819D01*
X174717619Y-42684819D02*
X174574762Y-42637200D01*
X174574762Y-42637200D02*
X174479524Y-42541961D01*
X174479524Y-42541961D02*
X174431905Y-42446723D01*
X174431905Y-42446723D02*
X174384286Y-42256247D01*
X174384286Y-42256247D02*
X174384286Y-42113390D01*
X174384286Y-42113390D02*
X174431905Y-41922914D01*
X174431905Y-41922914D02*
X174479524Y-41827676D01*
X174479524Y-41827676D02*
X174574762Y-41732438D01*
X174574762Y-41732438D02*
X174717619Y-41684819D01*
X174717619Y-41684819D02*
X174812857Y-41684819D01*
X174812857Y-41684819D02*
X174955714Y-41732438D01*
X174955714Y-41732438D02*
X175003333Y-41780057D01*
X175384286Y-42637200D02*
X175527143Y-42684819D01*
X175527143Y-42684819D02*
X175765238Y-42684819D01*
X175765238Y-42684819D02*
X175860476Y-42637200D01*
X175860476Y-42637200D02*
X175908095Y-42589580D01*
X175908095Y-42589580D02*
X175955714Y-42494342D01*
X175955714Y-42494342D02*
X175955714Y-42399104D01*
X175955714Y-42399104D02*
X175908095Y-42303866D01*
X175908095Y-42303866D02*
X175860476Y-42256247D01*
X175860476Y-42256247D02*
X175765238Y-42208628D01*
X175765238Y-42208628D02*
X175574762Y-42161009D01*
X175574762Y-42161009D02*
X175479524Y-42113390D01*
X175479524Y-42113390D02*
X175431905Y-42065771D01*
X175431905Y-42065771D02*
X175384286Y-41970533D01*
X175384286Y-41970533D02*
X175384286Y-41875295D01*
X175384286Y-41875295D02*
X175431905Y-41780057D01*
X175431905Y-41780057D02*
X175479524Y-41732438D01*
X175479524Y-41732438D02*
X175574762Y-41684819D01*
X175574762Y-41684819D02*
X175812857Y-41684819D01*
X175812857Y-41684819D02*
X175955714Y-41732438D01*
X169599847Y-93465237D02*
X170409370Y-93465237D01*
X170409370Y-93465237D02*
X170504608Y-93417618D01*
X170504608Y-93417618D02*
X170552228Y-93369999D01*
X170552228Y-93369999D02*
X170599847Y-93274761D01*
X170599847Y-93274761D02*
X170599847Y-93084285D01*
X170599847Y-93084285D02*
X170552228Y-92989047D01*
X170552228Y-92989047D02*
X170504608Y-92941428D01*
X170504608Y-92941428D02*
X170409370Y-92893809D01*
X170409370Y-92893809D02*
X169599847Y-92893809D01*
X170552228Y-92465237D02*
X170599847Y-92322380D01*
X170599847Y-92322380D02*
X170599847Y-92084285D01*
X170599847Y-92084285D02*
X170552228Y-91989047D01*
X170552228Y-91989047D02*
X170504608Y-91941428D01*
X170504608Y-91941428D02*
X170409370Y-91893809D01*
X170409370Y-91893809D02*
X170314132Y-91893809D01*
X170314132Y-91893809D02*
X170218894Y-91941428D01*
X170218894Y-91941428D02*
X170171275Y-91989047D01*
X170171275Y-91989047D02*
X170123656Y-92084285D01*
X170123656Y-92084285D02*
X170076037Y-92274761D01*
X170076037Y-92274761D02*
X170028418Y-92369999D01*
X170028418Y-92369999D02*
X169980799Y-92417618D01*
X169980799Y-92417618D02*
X169885561Y-92465237D01*
X169885561Y-92465237D02*
X169790323Y-92465237D01*
X169790323Y-92465237D02*
X169695085Y-92417618D01*
X169695085Y-92417618D02*
X169647466Y-92369999D01*
X169647466Y-92369999D02*
X169599847Y-92274761D01*
X169599847Y-92274761D02*
X169599847Y-92036666D01*
X169599847Y-92036666D02*
X169647466Y-91893809D01*
X170076037Y-91465237D02*
X170076037Y-91131904D01*
X170599847Y-90989047D02*
X170599847Y-91465237D01*
X170599847Y-91465237D02*
X169599847Y-91465237D01*
X169599847Y-91465237D02*
X169599847Y-90989047D01*
X170599847Y-89989047D02*
X170123656Y-90322380D01*
X170599847Y-90560475D02*
X169599847Y-90560475D01*
X169599847Y-90560475D02*
X169599847Y-90179523D01*
X169599847Y-90179523D02*
X169647466Y-90084285D01*
X169647466Y-90084285D02*
X169695085Y-90036666D01*
X169695085Y-90036666D02*
X169790323Y-89989047D01*
X169790323Y-89989047D02*
X169933180Y-89989047D01*
X169933180Y-89989047D02*
X170028418Y-90036666D01*
X170028418Y-90036666D02*
X170076037Y-90084285D01*
X170076037Y-90084285D02*
X170123656Y-90179523D01*
X170123656Y-90179523D02*
X170123656Y-90560475D01*
X171685981Y-93631904D02*
X171733600Y-93489047D01*
X171733600Y-93489047D02*
X171781219Y-93441428D01*
X171781219Y-93441428D02*
X171876457Y-93393809D01*
X171876457Y-93393809D02*
X172019314Y-93393809D01*
X172019314Y-93393809D02*
X172114552Y-93441428D01*
X172114552Y-93441428D02*
X172162172Y-93489047D01*
X172162172Y-93489047D02*
X172209791Y-93584285D01*
X172209791Y-93584285D02*
X172209791Y-93965237D01*
X172209791Y-93965237D02*
X171209791Y-93965237D01*
X171209791Y-93965237D02*
X171209791Y-93631904D01*
X171209791Y-93631904D02*
X171257410Y-93536666D01*
X171257410Y-93536666D02*
X171305029Y-93489047D01*
X171305029Y-93489047D02*
X171400267Y-93441428D01*
X171400267Y-93441428D02*
X171495505Y-93441428D01*
X171495505Y-93441428D02*
X171590743Y-93489047D01*
X171590743Y-93489047D02*
X171638362Y-93536666D01*
X171638362Y-93536666D02*
X171685981Y-93631904D01*
X171685981Y-93631904D02*
X171685981Y-93965237D01*
X171209791Y-92965237D02*
X172019314Y-92965237D01*
X172019314Y-92965237D02*
X172114552Y-92917618D01*
X172114552Y-92917618D02*
X172162172Y-92869999D01*
X172162172Y-92869999D02*
X172209791Y-92774761D01*
X172209791Y-92774761D02*
X172209791Y-92584285D01*
X172209791Y-92584285D02*
X172162172Y-92489047D01*
X172162172Y-92489047D02*
X172114552Y-92441428D01*
X172114552Y-92441428D02*
X172019314Y-92393809D01*
X172019314Y-92393809D02*
X171209791Y-92393809D01*
X171209791Y-92060475D02*
X171209791Y-91489047D01*
X172209791Y-91774761D02*
X171209791Y-91774761D01*
X171209791Y-91298570D02*
X171209791Y-90727142D01*
X172209791Y-91012856D02*
X171209791Y-91012856D01*
X171209791Y-90203332D02*
X171209791Y-90012856D01*
X171209791Y-90012856D02*
X171257410Y-89917618D01*
X171257410Y-89917618D02*
X171352648Y-89822380D01*
X171352648Y-89822380D02*
X171543124Y-89774761D01*
X171543124Y-89774761D02*
X171876457Y-89774761D01*
X171876457Y-89774761D02*
X172066933Y-89822380D01*
X172066933Y-89822380D02*
X172162172Y-89917618D01*
X172162172Y-89917618D02*
X172209791Y-90012856D01*
X172209791Y-90012856D02*
X172209791Y-90203332D01*
X172209791Y-90203332D02*
X172162172Y-90298570D01*
X172162172Y-90298570D02*
X172066933Y-90393808D01*
X172066933Y-90393808D02*
X171876457Y-90441427D01*
X171876457Y-90441427D02*
X171543124Y-90441427D01*
X171543124Y-90441427D02*
X171352648Y-90393808D01*
X171352648Y-90393808D02*
X171257410Y-90298570D01*
X171257410Y-90298570D02*
X171209791Y-90203332D01*
X172209791Y-89346189D02*
X171209791Y-89346189D01*
X171209791Y-89346189D02*
X172209791Y-88774761D01*
X172209791Y-88774761D02*
X171209791Y-88774761D01*
X160031009Y-45558571D02*
X160078628Y-45415714D01*
X160078628Y-45415714D02*
X160126247Y-45368095D01*
X160126247Y-45368095D02*
X160221485Y-45320476D01*
X160221485Y-45320476D02*
X160364342Y-45320476D01*
X160364342Y-45320476D02*
X160459580Y-45368095D01*
X160459580Y-45368095D02*
X160507200Y-45415714D01*
X160507200Y-45415714D02*
X160554819Y-45510952D01*
X160554819Y-45510952D02*
X160554819Y-45891904D01*
X160554819Y-45891904D02*
X159554819Y-45891904D01*
X159554819Y-45891904D02*
X159554819Y-45558571D01*
X159554819Y-45558571D02*
X159602438Y-45463333D01*
X159602438Y-45463333D02*
X159650057Y-45415714D01*
X159650057Y-45415714D02*
X159745295Y-45368095D01*
X159745295Y-45368095D02*
X159840533Y-45368095D01*
X159840533Y-45368095D02*
X159935771Y-45415714D01*
X159935771Y-45415714D02*
X159983390Y-45463333D01*
X159983390Y-45463333D02*
X160031009Y-45558571D01*
X160031009Y-45558571D02*
X160031009Y-45891904D01*
X160554819Y-44891904D02*
X159554819Y-44891904D01*
X159554819Y-44891904D02*
X160554819Y-44320476D01*
X160554819Y-44320476D02*
X159554819Y-44320476D01*
X160554819Y-43320476D02*
X160554819Y-43891904D01*
X160554819Y-43606190D02*
X159554819Y-43606190D01*
X159554819Y-43606190D02*
X159697676Y-43701428D01*
X159697676Y-43701428D02*
X159792914Y-43796666D01*
X159792914Y-43796666D02*
X159840533Y-43891904D01*
X172918572Y-37634819D02*
X172918572Y-36634819D01*
X172918572Y-36634819D02*
X173251905Y-37349104D01*
X173251905Y-37349104D02*
X173585238Y-36634819D01*
X173585238Y-36634819D02*
X173585238Y-37634819D01*
X174061429Y-37634819D02*
X174061429Y-36634819D01*
X174490000Y-37587200D02*
X174632857Y-37634819D01*
X174632857Y-37634819D02*
X174870952Y-37634819D01*
X174870952Y-37634819D02*
X174966190Y-37587200D01*
X174966190Y-37587200D02*
X175013809Y-37539580D01*
X175013809Y-37539580D02*
X175061428Y-37444342D01*
X175061428Y-37444342D02*
X175061428Y-37349104D01*
X175061428Y-37349104D02*
X175013809Y-37253866D01*
X175013809Y-37253866D02*
X174966190Y-37206247D01*
X174966190Y-37206247D02*
X174870952Y-37158628D01*
X174870952Y-37158628D02*
X174680476Y-37111009D01*
X174680476Y-37111009D02*
X174585238Y-37063390D01*
X174585238Y-37063390D02*
X174537619Y-37015771D01*
X174537619Y-37015771D02*
X174490000Y-36920533D01*
X174490000Y-36920533D02*
X174490000Y-36825295D01*
X174490000Y-36825295D02*
X174537619Y-36730057D01*
X174537619Y-36730057D02*
X174585238Y-36682438D01*
X174585238Y-36682438D02*
X174680476Y-36634819D01*
X174680476Y-36634819D02*
X174918571Y-36634819D01*
X174918571Y-36634819D02*
X175061428Y-36682438D01*
X175680476Y-36634819D02*
X175870952Y-36634819D01*
X175870952Y-36634819D02*
X175966190Y-36682438D01*
X175966190Y-36682438D02*
X176061428Y-36777676D01*
X176061428Y-36777676D02*
X176109047Y-36968152D01*
X176109047Y-36968152D02*
X176109047Y-37301485D01*
X176109047Y-37301485D02*
X176061428Y-37491961D01*
X176061428Y-37491961D02*
X175966190Y-37587200D01*
X175966190Y-37587200D02*
X175870952Y-37634819D01*
X175870952Y-37634819D02*
X175680476Y-37634819D01*
X175680476Y-37634819D02*
X175585238Y-37587200D01*
X175585238Y-37587200D02*
X175490000Y-37491961D01*
X175490000Y-37491961D02*
X175442381Y-37301485D01*
X175442381Y-37301485D02*
X175442381Y-36968152D01*
X175442381Y-36968152D02*
X175490000Y-36777676D01*
X175490000Y-36777676D02*
X175585238Y-36682438D01*
X175585238Y-36682438D02*
X175680476Y-36634819D01*
X173306667Y-64024819D02*
X173973333Y-65024819D01*
X173973333Y-64024819D02*
X173306667Y-65024819D01*
X177516191Y-53667200D02*
X177659048Y-53714819D01*
X177659048Y-53714819D02*
X177897143Y-53714819D01*
X177897143Y-53714819D02*
X177992381Y-53667200D01*
X177992381Y-53667200D02*
X178040000Y-53619580D01*
X178040000Y-53619580D02*
X178087619Y-53524342D01*
X178087619Y-53524342D02*
X178087619Y-53429104D01*
X178087619Y-53429104D02*
X178040000Y-53333866D01*
X178040000Y-53333866D02*
X177992381Y-53286247D01*
X177992381Y-53286247D02*
X177897143Y-53238628D01*
X177897143Y-53238628D02*
X177706667Y-53191009D01*
X177706667Y-53191009D02*
X177611429Y-53143390D01*
X177611429Y-53143390D02*
X177563810Y-53095771D01*
X177563810Y-53095771D02*
X177516191Y-53000533D01*
X177516191Y-53000533D02*
X177516191Y-52905295D01*
X177516191Y-52905295D02*
X177563810Y-52810057D01*
X177563810Y-52810057D02*
X177611429Y-52762438D01*
X177611429Y-52762438D02*
X177706667Y-52714819D01*
X177706667Y-52714819D02*
X177944762Y-52714819D01*
X177944762Y-52714819D02*
X178087619Y-52762438D01*
X178516191Y-53714819D02*
X178516191Y-52714819D01*
X178516191Y-52714819D02*
X178897143Y-52714819D01*
X178897143Y-52714819D02*
X178992381Y-52762438D01*
X178992381Y-52762438D02*
X179040000Y-52810057D01*
X179040000Y-52810057D02*
X179087619Y-52905295D01*
X179087619Y-52905295D02*
X179087619Y-53048152D01*
X179087619Y-53048152D02*
X179040000Y-53143390D01*
X179040000Y-53143390D02*
X178992381Y-53191009D01*
X178992381Y-53191009D02*
X178897143Y-53238628D01*
X178897143Y-53238628D02*
X178516191Y-53238628D01*
X179516191Y-53714819D02*
X179516191Y-52714819D01*
X153147619Y-40924819D02*
X153147619Y-39924819D01*
X153147619Y-39924819D02*
X153480952Y-40639104D01*
X153480952Y-40639104D02*
X153814285Y-39924819D01*
X153814285Y-39924819D02*
X153814285Y-40924819D01*
X154290476Y-40924819D02*
X154290476Y-39924819D01*
X154290476Y-39924819D02*
X154528571Y-39924819D01*
X154528571Y-39924819D02*
X154671428Y-39972438D01*
X154671428Y-39972438D02*
X154766666Y-40067676D01*
X154766666Y-40067676D02*
X154814285Y-40162914D01*
X154814285Y-40162914D02*
X154861904Y-40353390D01*
X154861904Y-40353390D02*
X154861904Y-40496247D01*
X154861904Y-40496247D02*
X154814285Y-40686723D01*
X154814285Y-40686723D02*
X154766666Y-40781961D01*
X154766666Y-40781961D02*
X154671428Y-40877200D01*
X154671428Y-40877200D02*
X154528571Y-40924819D01*
X154528571Y-40924819D02*
X154290476Y-40924819D01*
X155623809Y-40401009D02*
X155766666Y-40448628D01*
X155766666Y-40448628D02*
X155814285Y-40496247D01*
X155814285Y-40496247D02*
X155861904Y-40591485D01*
X155861904Y-40591485D02*
X155861904Y-40734342D01*
X155861904Y-40734342D02*
X155814285Y-40829580D01*
X155814285Y-40829580D02*
X155766666Y-40877200D01*
X155766666Y-40877200D02*
X155671428Y-40924819D01*
X155671428Y-40924819D02*
X155290476Y-40924819D01*
X155290476Y-40924819D02*
X155290476Y-39924819D01*
X155290476Y-39924819D02*
X155623809Y-39924819D01*
X155623809Y-39924819D02*
X155719047Y-39972438D01*
X155719047Y-39972438D02*
X155766666Y-40020057D01*
X155766666Y-40020057D02*
X155814285Y-40115295D01*
X155814285Y-40115295D02*
X155814285Y-40210533D01*
X155814285Y-40210533D02*
X155766666Y-40305771D01*
X155766666Y-40305771D02*
X155719047Y-40353390D01*
X155719047Y-40353390D02*
X155623809Y-40401009D01*
X155623809Y-40401009D02*
X155290476Y-40401009D01*
X156147619Y-39924819D02*
X156719047Y-39924819D01*
X156433333Y-40924819D02*
X156433333Y-39924819D01*
X157480952Y-40258152D02*
X157480952Y-40924819D01*
X157242857Y-39877200D02*
X157004762Y-40591485D01*
X157004762Y-40591485D02*
X157623809Y-40591485D01*
X157957143Y-40020057D02*
X158004762Y-39972438D01*
X158004762Y-39972438D02*
X158100000Y-39924819D01*
X158100000Y-39924819D02*
X158338095Y-39924819D01*
X158338095Y-39924819D02*
X158433333Y-39972438D01*
X158433333Y-39972438D02*
X158480952Y-40020057D01*
X158480952Y-40020057D02*
X158528571Y-40115295D01*
X158528571Y-40115295D02*
X158528571Y-40210533D01*
X158528571Y-40210533D02*
X158480952Y-40353390D01*
X158480952Y-40353390D02*
X157909524Y-40924819D01*
X157909524Y-40924819D02*
X158528571Y-40924819D01*
X158814286Y-39924819D02*
X159385714Y-39924819D01*
X159100000Y-40924819D02*
X159100000Y-39924819D01*
X159719048Y-40543866D02*
X160480953Y-40543866D01*
X160909524Y-40639104D02*
X161385714Y-40639104D01*
X160814286Y-40924819D02*
X161147619Y-39924819D01*
X161147619Y-39924819D02*
X161480952Y-40924819D01*
X161671429Y-39924819D02*
X162242857Y-39924819D01*
X161957143Y-40924819D02*
X161957143Y-39924819D01*
X163100000Y-40924819D02*
X162528572Y-40924819D01*
X162814286Y-40924819D02*
X162814286Y-39924819D01*
X162814286Y-39924819D02*
X162719048Y-40067676D01*
X162719048Y-40067676D02*
X162623810Y-40162914D01*
X162623810Y-40162914D02*
X162528572Y-40210533D01*
X141612438Y-100931904D02*
X141564819Y-101027142D01*
X141564819Y-101027142D02*
X141564819Y-101169999D01*
X141564819Y-101169999D02*
X141612438Y-101312856D01*
X141612438Y-101312856D02*
X141707676Y-101408094D01*
X141707676Y-101408094D02*
X141802914Y-101455713D01*
X141802914Y-101455713D02*
X141993390Y-101503332D01*
X141993390Y-101503332D02*
X142136247Y-101503332D01*
X142136247Y-101503332D02*
X142326723Y-101455713D01*
X142326723Y-101455713D02*
X142421961Y-101408094D01*
X142421961Y-101408094D02*
X142517200Y-101312856D01*
X142517200Y-101312856D02*
X142564819Y-101169999D01*
X142564819Y-101169999D02*
X142564819Y-101074761D01*
X142564819Y-101074761D02*
X142517200Y-100931904D01*
X142517200Y-100931904D02*
X142469580Y-100884285D01*
X142469580Y-100884285D02*
X142136247Y-100884285D01*
X142136247Y-100884285D02*
X142136247Y-101074761D01*
X142564819Y-100455713D02*
X141564819Y-100455713D01*
X141564819Y-100455713D02*
X142564819Y-99884285D01*
X142564819Y-99884285D02*
X141564819Y-99884285D01*
X142564819Y-99408094D02*
X141564819Y-99408094D01*
X141564819Y-99408094D02*
X141564819Y-99169999D01*
X141564819Y-99169999D02*
X141612438Y-99027142D01*
X141612438Y-99027142D02*
X141707676Y-98931904D01*
X141707676Y-98931904D02*
X141802914Y-98884285D01*
X141802914Y-98884285D02*
X141993390Y-98836666D01*
X141993390Y-98836666D02*
X142136247Y-98836666D01*
X142136247Y-98836666D02*
X142326723Y-98884285D01*
X142326723Y-98884285D02*
X142421961Y-98931904D01*
X142421961Y-98931904D02*
X142517200Y-99027142D01*
X142517200Y-99027142D02*
X142564819Y-99169999D01*
X142564819Y-99169999D02*
X142564819Y-99408094D01*
X152659104Y-46068094D02*
X152659104Y-45591904D01*
X152944819Y-46163332D02*
X151944819Y-45829999D01*
X151944819Y-45829999D02*
X152944819Y-45496666D01*
X152944819Y-45163332D02*
X151944819Y-45163332D01*
X151944819Y-45163332D02*
X152944819Y-44591904D01*
X152944819Y-44591904D02*
X151944819Y-44591904D01*
X152040057Y-44163332D02*
X151992438Y-44115713D01*
X151992438Y-44115713D02*
X151944819Y-44020475D01*
X151944819Y-44020475D02*
X151944819Y-43782380D01*
X151944819Y-43782380D02*
X151992438Y-43687142D01*
X151992438Y-43687142D02*
X152040057Y-43639523D01*
X152040057Y-43639523D02*
X152135295Y-43591904D01*
X152135295Y-43591904D02*
X152230533Y-43591904D01*
X152230533Y-43591904D02*
X152373390Y-43639523D01*
X152373390Y-43639523D02*
X152944819Y-44210951D01*
X152944819Y-44210951D02*
X152944819Y-43591904D01*
X119117200Y-46861904D02*
X119164819Y-46719047D01*
X119164819Y-46719047D02*
X119164819Y-46480952D01*
X119164819Y-46480952D02*
X119117200Y-46385714D01*
X119117200Y-46385714D02*
X119069580Y-46338095D01*
X119069580Y-46338095D02*
X118974342Y-46290476D01*
X118974342Y-46290476D02*
X118879104Y-46290476D01*
X118879104Y-46290476D02*
X118783866Y-46338095D01*
X118783866Y-46338095D02*
X118736247Y-46385714D01*
X118736247Y-46385714D02*
X118688628Y-46480952D01*
X118688628Y-46480952D02*
X118641009Y-46671428D01*
X118641009Y-46671428D02*
X118593390Y-46766666D01*
X118593390Y-46766666D02*
X118545771Y-46814285D01*
X118545771Y-46814285D02*
X118450533Y-46861904D01*
X118450533Y-46861904D02*
X118355295Y-46861904D01*
X118355295Y-46861904D02*
X118260057Y-46814285D01*
X118260057Y-46814285D02*
X118212438Y-46766666D01*
X118212438Y-46766666D02*
X118164819Y-46671428D01*
X118164819Y-46671428D02*
X118164819Y-46433333D01*
X118164819Y-46433333D02*
X118212438Y-46290476D01*
X118164819Y-45957142D02*
X119164819Y-45719047D01*
X119164819Y-45719047D02*
X118450533Y-45528571D01*
X118450533Y-45528571D02*
X119164819Y-45338095D01*
X119164819Y-45338095D02*
X118164819Y-45100000D01*
X119069580Y-44147619D02*
X119117200Y-44195238D01*
X119117200Y-44195238D02*
X119164819Y-44338095D01*
X119164819Y-44338095D02*
X119164819Y-44433333D01*
X119164819Y-44433333D02*
X119117200Y-44576190D01*
X119117200Y-44576190D02*
X119021961Y-44671428D01*
X119021961Y-44671428D02*
X118926723Y-44719047D01*
X118926723Y-44719047D02*
X118736247Y-44766666D01*
X118736247Y-44766666D02*
X118593390Y-44766666D01*
X118593390Y-44766666D02*
X118402914Y-44719047D01*
X118402914Y-44719047D02*
X118307676Y-44671428D01*
X118307676Y-44671428D02*
X118212438Y-44576190D01*
X118212438Y-44576190D02*
X118164819Y-44433333D01*
X118164819Y-44433333D02*
X118164819Y-44338095D01*
X118164819Y-44338095D02*
X118212438Y-44195238D01*
X118212438Y-44195238D02*
X118260057Y-44147619D01*
X119164819Y-43242857D02*
X119164819Y-43719047D01*
X119164819Y-43719047D02*
X118164819Y-43719047D01*
X119164819Y-42909523D02*
X118164819Y-42909523D01*
X119164819Y-42338095D02*
X118593390Y-42766666D01*
X118164819Y-42338095D02*
X118736247Y-42909523D01*
X117387619Y-35662228D02*
X117530476Y-35709847D01*
X117530476Y-35709847D02*
X117768571Y-35709847D01*
X117768571Y-35709847D02*
X117863809Y-35662228D01*
X117863809Y-35662228D02*
X117911428Y-35614608D01*
X117911428Y-35614608D02*
X117959047Y-35519370D01*
X117959047Y-35519370D02*
X117959047Y-35424132D01*
X117959047Y-35424132D02*
X117911428Y-35328894D01*
X117911428Y-35328894D02*
X117863809Y-35281275D01*
X117863809Y-35281275D02*
X117768571Y-35233656D01*
X117768571Y-35233656D02*
X117578095Y-35186037D01*
X117578095Y-35186037D02*
X117482857Y-35138418D01*
X117482857Y-35138418D02*
X117435238Y-35090799D01*
X117435238Y-35090799D02*
X117387619Y-34995561D01*
X117387619Y-34995561D02*
X117387619Y-34900323D01*
X117387619Y-34900323D02*
X117435238Y-34805085D01*
X117435238Y-34805085D02*
X117482857Y-34757466D01*
X117482857Y-34757466D02*
X117578095Y-34709847D01*
X117578095Y-34709847D02*
X117816190Y-34709847D01*
X117816190Y-34709847D02*
X117959047Y-34757466D01*
X118244762Y-34709847D02*
X118816190Y-34709847D01*
X118530476Y-35709847D02*
X118530476Y-34709847D01*
X119149524Y-35328894D02*
X119911429Y-35328894D01*
X120863809Y-35709847D02*
X120387619Y-35709847D01*
X120387619Y-35709847D02*
X120387619Y-34709847D01*
X121197143Y-35709847D02*
X121197143Y-34709847D01*
X121673333Y-35709847D02*
X121673333Y-34709847D01*
X121673333Y-34709847D02*
X122244761Y-35709847D01*
X122244761Y-35709847D02*
X122244761Y-34709847D01*
X122720952Y-35709847D02*
X122720952Y-34709847D01*
X123292380Y-35709847D02*
X122863809Y-35138418D01*
X123292380Y-34709847D02*
X122720952Y-35281275D01*
X118649523Y-37700743D02*
X118601904Y-37653124D01*
X118601904Y-37653124D02*
X118506666Y-37510267D01*
X118506666Y-37510267D02*
X118459047Y-37415029D01*
X118459047Y-37415029D02*
X118411428Y-37272172D01*
X118411428Y-37272172D02*
X118363809Y-37034076D01*
X118363809Y-37034076D02*
X118363809Y-36843600D01*
X118363809Y-36843600D02*
X118411428Y-36605505D01*
X118411428Y-36605505D02*
X118459047Y-36462648D01*
X118459047Y-36462648D02*
X118506666Y-36367410D01*
X118506666Y-36367410D02*
X118601904Y-36224552D01*
X118601904Y-36224552D02*
X118649523Y-36176933D01*
X118982857Y-37272172D02*
X119125714Y-37319791D01*
X119125714Y-37319791D02*
X119363809Y-37319791D01*
X119363809Y-37319791D02*
X119459047Y-37272172D01*
X119459047Y-37272172D02*
X119506666Y-37224552D01*
X119506666Y-37224552D02*
X119554285Y-37129314D01*
X119554285Y-37129314D02*
X119554285Y-37034076D01*
X119554285Y-37034076D02*
X119506666Y-36938838D01*
X119506666Y-36938838D02*
X119459047Y-36891219D01*
X119459047Y-36891219D02*
X119363809Y-36843600D01*
X119363809Y-36843600D02*
X119173333Y-36795981D01*
X119173333Y-36795981D02*
X119078095Y-36748362D01*
X119078095Y-36748362D02*
X119030476Y-36700743D01*
X119030476Y-36700743D02*
X118982857Y-36605505D01*
X118982857Y-36605505D02*
X118982857Y-36510267D01*
X118982857Y-36510267D02*
X119030476Y-36415029D01*
X119030476Y-36415029D02*
X119078095Y-36367410D01*
X119078095Y-36367410D02*
X119173333Y-36319791D01*
X119173333Y-36319791D02*
X119411428Y-36319791D01*
X119411428Y-36319791D02*
X119554285Y-36367410D01*
X119887619Y-36319791D02*
X120125714Y-37319791D01*
X120125714Y-37319791D02*
X120316190Y-36605505D01*
X120316190Y-36605505D02*
X120506666Y-37319791D01*
X120506666Y-37319791D02*
X120744762Y-36319791D01*
X121125714Y-37319791D02*
X121125714Y-36319791D01*
X121125714Y-36319791D02*
X121363809Y-36319791D01*
X121363809Y-36319791D02*
X121506666Y-36367410D01*
X121506666Y-36367410D02*
X121601904Y-36462648D01*
X121601904Y-36462648D02*
X121649523Y-36557886D01*
X121649523Y-36557886D02*
X121697142Y-36748362D01*
X121697142Y-36748362D02*
X121697142Y-36891219D01*
X121697142Y-36891219D02*
X121649523Y-37081695D01*
X121649523Y-37081695D02*
X121601904Y-37176933D01*
X121601904Y-37176933D02*
X121506666Y-37272172D01*
X121506666Y-37272172D02*
X121363809Y-37319791D01*
X121363809Y-37319791D02*
X121125714Y-37319791D01*
X122030476Y-37700743D02*
X122078095Y-37653124D01*
X122078095Y-37653124D02*
X122173333Y-37510267D01*
X122173333Y-37510267D02*
X122220952Y-37415029D01*
X122220952Y-37415029D02*
X122268571Y-37272172D01*
X122268571Y-37272172D02*
X122316190Y-37034076D01*
X122316190Y-37034076D02*
X122316190Y-36843600D01*
X122316190Y-36843600D02*
X122268571Y-36605505D01*
X122268571Y-36605505D02*
X122220952Y-36462648D01*
X122220952Y-36462648D02*
X122173333Y-36367410D01*
X122173333Y-36367410D02*
X122078095Y-36224552D01*
X122078095Y-36224552D02*
X122030476Y-36176933D01*
X133934819Y-100830476D02*
X133934819Y-101306666D01*
X133934819Y-101306666D02*
X134411009Y-101354285D01*
X134411009Y-101354285D02*
X134363390Y-101306666D01*
X134363390Y-101306666D02*
X134315771Y-101211428D01*
X134315771Y-101211428D02*
X134315771Y-100973333D01*
X134315771Y-100973333D02*
X134363390Y-100878095D01*
X134363390Y-100878095D02*
X134411009Y-100830476D01*
X134411009Y-100830476D02*
X134506247Y-100782857D01*
X134506247Y-100782857D02*
X134744342Y-100782857D01*
X134744342Y-100782857D02*
X134839580Y-100830476D01*
X134839580Y-100830476D02*
X134887200Y-100878095D01*
X134887200Y-100878095D02*
X134934819Y-100973333D01*
X134934819Y-100973333D02*
X134934819Y-101211428D01*
X134934819Y-101211428D02*
X134887200Y-101306666D01*
X134887200Y-101306666D02*
X134839580Y-101354285D01*
X133934819Y-100497142D02*
X134934819Y-100163809D01*
X134934819Y-100163809D02*
X133934819Y-99830476D01*
X110860476Y-106044819D02*
X110860476Y-105044819D01*
X110860476Y-105044819D02*
X111241428Y-105044819D01*
X111241428Y-105044819D02*
X111336666Y-105092438D01*
X111336666Y-105092438D02*
X111384285Y-105140057D01*
X111384285Y-105140057D02*
X111431904Y-105235295D01*
X111431904Y-105235295D02*
X111431904Y-105378152D01*
X111431904Y-105378152D02*
X111384285Y-105473390D01*
X111384285Y-105473390D02*
X111336666Y-105521009D01*
X111336666Y-105521009D02*
X111241428Y-105568628D01*
X111241428Y-105568628D02*
X110860476Y-105568628D01*
X112050952Y-105044819D02*
X112241428Y-105044819D01*
X112241428Y-105044819D02*
X112336666Y-105092438D01*
X112336666Y-105092438D02*
X112431904Y-105187676D01*
X112431904Y-105187676D02*
X112479523Y-105378152D01*
X112479523Y-105378152D02*
X112479523Y-105711485D01*
X112479523Y-105711485D02*
X112431904Y-105901961D01*
X112431904Y-105901961D02*
X112336666Y-105997200D01*
X112336666Y-105997200D02*
X112241428Y-106044819D01*
X112241428Y-106044819D02*
X112050952Y-106044819D01*
X112050952Y-106044819D02*
X111955714Y-105997200D01*
X111955714Y-105997200D02*
X111860476Y-105901961D01*
X111860476Y-105901961D02*
X111812857Y-105711485D01*
X111812857Y-105711485D02*
X111812857Y-105378152D01*
X111812857Y-105378152D02*
X111860476Y-105187676D01*
X111860476Y-105187676D02*
X111955714Y-105092438D01*
X111955714Y-105092438D02*
X112050952Y-105044819D01*
X112812857Y-105044819D02*
X113050952Y-106044819D01*
X113050952Y-106044819D02*
X113241428Y-105330533D01*
X113241428Y-105330533D02*
X113431904Y-106044819D01*
X113431904Y-106044819D02*
X113670000Y-105044819D01*
X114050952Y-105521009D02*
X114384285Y-105521009D01*
X114527142Y-106044819D02*
X114050952Y-106044819D01*
X114050952Y-106044819D02*
X114050952Y-105044819D01*
X114050952Y-105044819D02*
X114527142Y-105044819D01*
X115527142Y-106044819D02*
X115193809Y-105568628D01*
X114955714Y-106044819D02*
X114955714Y-105044819D01*
X114955714Y-105044819D02*
X115336666Y-105044819D01*
X115336666Y-105044819D02*
X115431904Y-105092438D01*
X115431904Y-105092438D02*
X115479523Y-105140057D01*
X115479523Y-105140057D02*
X115527142Y-105235295D01*
X115527142Y-105235295D02*
X115527142Y-105378152D01*
X115527142Y-105378152D02*
X115479523Y-105473390D01*
X115479523Y-105473390D02*
X115431904Y-105521009D01*
X115431904Y-105521009D02*
X115336666Y-105568628D01*
X115336666Y-105568628D02*
X114955714Y-105568628D01*
X180854819Y-103487619D02*
X180378628Y-103820952D01*
X180854819Y-104059047D02*
X179854819Y-104059047D01*
X179854819Y-104059047D02*
X179854819Y-103678095D01*
X179854819Y-103678095D02*
X179902438Y-103582857D01*
X179902438Y-103582857D02*
X179950057Y-103535238D01*
X179950057Y-103535238D02*
X180045295Y-103487619D01*
X180045295Y-103487619D02*
X180188152Y-103487619D01*
X180188152Y-103487619D02*
X180283390Y-103535238D01*
X180283390Y-103535238D02*
X180331009Y-103582857D01*
X180331009Y-103582857D02*
X180378628Y-103678095D01*
X180378628Y-103678095D02*
X180378628Y-104059047D01*
X179902438Y-102535238D02*
X179854819Y-102630476D01*
X179854819Y-102630476D02*
X179854819Y-102773333D01*
X179854819Y-102773333D02*
X179902438Y-102916190D01*
X179902438Y-102916190D02*
X179997676Y-103011428D01*
X179997676Y-103011428D02*
X180092914Y-103059047D01*
X180092914Y-103059047D02*
X180283390Y-103106666D01*
X180283390Y-103106666D02*
X180426247Y-103106666D01*
X180426247Y-103106666D02*
X180616723Y-103059047D01*
X180616723Y-103059047D02*
X180711961Y-103011428D01*
X180711961Y-103011428D02*
X180807200Y-102916190D01*
X180807200Y-102916190D02*
X180854819Y-102773333D01*
X180854819Y-102773333D02*
X180854819Y-102678095D01*
X180854819Y-102678095D02*
X180807200Y-102535238D01*
X180807200Y-102535238D02*
X180759580Y-102487619D01*
X180759580Y-102487619D02*
X180426247Y-102487619D01*
X180426247Y-102487619D02*
X180426247Y-102678095D01*
X180331009Y-101725714D02*
X180378628Y-101582857D01*
X180378628Y-101582857D02*
X180426247Y-101535238D01*
X180426247Y-101535238D02*
X180521485Y-101487619D01*
X180521485Y-101487619D02*
X180664342Y-101487619D01*
X180664342Y-101487619D02*
X180759580Y-101535238D01*
X180759580Y-101535238D02*
X180807200Y-101582857D01*
X180807200Y-101582857D02*
X180854819Y-101678095D01*
X180854819Y-101678095D02*
X180854819Y-102059047D01*
X180854819Y-102059047D02*
X179854819Y-102059047D01*
X179854819Y-102059047D02*
X179854819Y-101725714D01*
X179854819Y-101725714D02*
X179902438Y-101630476D01*
X179902438Y-101630476D02*
X179950057Y-101582857D01*
X179950057Y-101582857D02*
X180045295Y-101535238D01*
X180045295Y-101535238D02*
X180140533Y-101535238D01*
X180140533Y-101535238D02*
X180235771Y-101582857D01*
X180235771Y-101582857D02*
X180283390Y-101630476D01*
X180283390Y-101630476D02*
X180331009Y-101725714D01*
X180331009Y-101725714D02*
X180331009Y-102059047D01*
X179950057Y-100344761D02*
X179902438Y-100297142D01*
X179902438Y-100297142D02*
X179854819Y-100201904D01*
X179854819Y-100201904D02*
X179854819Y-99963809D01*
X179854819Y-99963809D02*
X179902438Y-99868571D01*
X179902438Y-99868571D02*
X179950057Y-99820952D01*
X179950057Y-99820952D02*
X180045295Y-99773333D01*
X180045295Y-99773333D02*
X180140533Y-99773333D01*
X180140533Y-99773333D02*
X180283390Y-99820952D01*
X180283390Y-99820952D02*
X180854819Y-100392380D01*
X180854819Y-100392380D02*
X180854819Y-99773333D01*
X152019524Y-97661009D02*
X152352857Y-97661009D01*
X152495714Y-98184819D02*
X152019524Y-98184819D01*
X152019524Y-98184819D02*
X152019524Y-97184819D01*
X152019524Y-97184819D02*
X152495714Y-97184819D01*
X152876667Y-97280057D02*
X152924286Y-97232438D01*
X152924286Y-97232438D02*
X153019524Y-97184819D01*
X153019524Y-97184819D02*
X153257619Y-97184819D01*
X153257619Y-97184819D02*
X153352857Y-97232438D01*
X153352857Y-97232438D02*
X153400476Y-97280057D01*
X153400476Y-97280057D02*
X153448095Y-97375295D01*
X153448095Y-97375295D02*
X153448095Y-97470533D01*
X153448095Y-97470533D02*
X153400476Y-97613390D01*
X153400476Y-97613390D02*
X152829048Y-98184819D01*
X152829048Y-98184819D02*
X153448095Y-98184819D01*
X154210000Y-97661009D02*
X154352857Y-97708628D01*
X154352857Y-97708628D02*
X154400476Y-97756247D01*
X154400476Y-97756247D02*
X154448095Y-97851485D01*
X154448095Y-97851485D02*
X154448095Y-97994342D01*
X154448095Y-97994342D02*
X154400476Y-98089580D01*
X154400476Y-98089580D02*
X154352857Y-98137200D01*
X154352857Y-98137200D02*
X154257619Y-98184819D01*
X154257619Y-98184819D02*
X153876667Y-98184819D01*
X153876667Y-98184819D02*
X153876667Y-97184819D01*
X153876667Y-97184819D02*
X154210000Y-97184819D01*
X154210000Y-97184819D02*
X154305238Y-97232438D01*
X154305238Y-97232438D02*
X154352857Y-97280057D01*
X154352857Y-97280057D02*
X154400476Y-97375295D01*
X154400476Y-97375295D02*
X154400476Y-97470533D01*
X154400476Y-97470533D02*
X154352857Y-97565771D01*
X154352857Y-97565771D02*
X154305238Y-97613390D01*
X154305238Y-97613390D02*
X154210000Y-97661009D01*
X154210000Y-97661009D02*
X153876667Y-97661009D01*
X157471009Y-45648571D02*
X157518628Y-45505714D01*
X157518628Y-45505714D02*
X157566247Y-45458095D01*
X157566247Y-45458095D02*
X157661485Y-45410476D01*
X157661485Y-45410476D02*
X157804342Y-45410476D01*
X157804342Y-45410476D02*
X157899580Y-45458095D01*
X157899580Y-45458095D02*
X157947200Y-45505714D01*
X157947200Y-45505714D02*
X157994819Y-45600952D01*
X157994819Y-45600952D02*
X157994819Y-45981904D01*
X157994819Y-45981904D02*
X156994819Y-45981904D01*
X156994819Y-45981904D02*
X156994819Y-45648571D01*
X156994819Y-45648571D02*
X157042438Y-45553333D01*
X157042438Y-45553333D02*
X157090057Y-45505714D01*
X157090057Y-45505714D02*
X157185295Y-45458095D01*
X157185295Y-45458095D02*
X157280533Y-45458095D01*
X157280533Y-45458095D02*
X157375771Y-45505714D01*
X157375771Y-45505714D02*
X157423390Y-45553333D01*
X157423390Y-45553333D02*
X157471009Y-45648571D01*
X157471009Y-45648571D02*
X157471009Y-45981904D01*
X157994819Y-44981904D02*
X156994819Y-44981904D01*
X156994819Y-44981904D02*
X157994819Y-44410476D01*
X157994819Y-44410476D02*
X156994819Y-44410476D01*
X157090057Y-43981904D02*
X157042438Y-43934285D01*
X157042438Y-43934285D02*
X156994819Y-43839047D01*
X156994819Y-43839047D02*
X156994819Y-43600952D01*
X156994819Y-43600952D02*
X157042438Y-43505714D01*
X157042438Y-43505714D02*
X157090057Y-43458095D01*
X157090057Y-43458095D02*
X157185295Y-43410476D01*
X157185295Y-43410476D02*
X157280533Y-43410476D01*
X157280533Y-43410476D02*
X157423390Y-43458095D01*
X157423390Y-43458095D02*
X157994819Y-44029523D01*
X157994819Y-44029523D02*
X157994819Y-43410476D01*
X136923333Y-45894819D02*
X136590000Y-45418628D01*
X136351905Y-45894819D02*
X136351905Y-44894819D01*
X136351905Y-44894819D02*
X136732857Y-44894819D01*
X136732857Y-44894819D02*
X136828095Y-44942438D01*
X136828095Y-44942438D02*
X136875714Y-44990057D01*
X136875714Y-44990057D02*
X136923333Y-45085295D01*
X136923333Y-45085295D02*
X136923333Y-45228152D01*
X136923333Y-45228152D02*
X136875714Y-45323390D01*
X136875714Y-45323390D02*
X136828095Y-45371009D01*
X136828095Y-45371009D02*
X136732857Y-45418628D01*
X136732857Y-45418628D02*
X136351905Y-45418628D01*
X137304286Y-44990057D02*
X137351905Y-44942438D01*
X137351905Y-44942438D02*
X137447143Y-44894819D01*
X137447143Y-44894819D02*
X137685238Y-44894819D01*
X137685238Y-44894819D02*
X137780476Y-44942438D01*
X137780476Y-44942438D02*
X137828095Y-44990057D01*
X137828095Y-44990057D02*
X137875714Y-45085295D01*
X137875714Y-45085295D02*
X137875714Y-45180533D01*
X137875714Y-45180533D02*
X137828095Y-45323390D01*
X137828095Y-45323390D02*
X137256667Y-45894819D01*
X137256667Y-45894819D02*
X137875714Y-45894819D01*
X140064819Y-67846904D02*
X140874342Y-67846904D01*
X140874342Y-67846904D02*
X140969580Y-67799285D01*
X140969580Y-67799285D02*
X141017200Y-67751666D01*
X141017200Y-67751666D02*
X141064819Y-67656428D01*
X141064819Y-67656428D02*
X141064819Y-67465952D01*
X141064819Y-67465952D02*
X141017200Y-67370714D01*
X141017200Y-67370714D02*
X140969580Y-67323095D01*
X140969580Y-67323095D02*
X140874342Y-67275476D01*
X140874342Y-67275476D02*
X140064819Y-67275476D01*
X141064819Y-66275476D02*
X141064819Y-66846904D01*
X141064819Y-66561190D02*
X140064819Y-66561190D01*
X140064819Y-66561190D02*
X140207676Y-66656428D01*
X140207676Y-66656428D02*
X140302914Y-66751666D01*
X140302914Y-66751666D02*
X140350533Y-66846904D01*
X127083333Y-83584819D02*
X126750000Y-83108628D01*
X126511905Y-83584819D02*
X126511905Y-82584819D01*
X126511905Y-82584819D02*
X126892857Y-82584819D01*
X126892857Y-82584819D02*
X126988095Y-82632438D01*
X126988095Y-82632438D02*
X127035714Y-82680057D01*
X127035714Y-82680057D02*
X127083333Y-82775295D01*
X127083333Y-82775295D02*
X127083333Y-82918152D01*
X127083333Y-82918152D02*
X127035714Y-83013390D01*
X127035714Y-83013390D02*
X126988095Y-83061009D01*
X126988095Y-83061009D02*
X126892857Y-83108628D01*
X126892857Y-83108628D02*
X126511905Y-83108628D01*
X127559524Y-83584819D02*
X127750000Y-83584819D01*
X127750000Y-83584819D02*
X127845238Y-83537200D01*
X127845238Y-83537200D02*
X127892857Y-83489580D01*
X127892857Y-83489580D02*
X127988095Y-83346723D01*
X127988095Y-83346723D02*
X128035714Y-83156247D01*
X128035714Y-83156247D02*
X128035714Y-82775295D01*
X128035714Y-82775295D02*
X127988095Y-82680057D01*
X127988095Y-82680057D02*
X127940476Y-82632438D01*
X127940476Y-82632438D02*
X127845238Y-82584819D01*
X127845238Y-82584819D02*
X127654762Y-82584819D01*
X127654762Y-82584819D02*
X127559524Y-82632438D01*
X127559524Y-82632438D02*
X127511905Y-82680057D01*
X127511905Y-82680057D02*
X127464286Y-82775295D01*
X127464286Y-82775295D02*
X127464286Y-83013390D01*
X127464286Y-83013390D02*
X127511905Y-83108628D01*
X127511905Y-83108628D02*
X127559524Y-83156247D01*
X127559524Y-83156247D02*
X127654762Y-83203866D01*
X127654762Y-83203866D02*
X127845238Y-83203866D01*
X127845238Y-83203866D02*
X127940476Y-83156247D01*
X127940476Y-83156247D02*
X127988095Y-83108628D01*
X127988095Y-83108628D02*
X128035714Y-83013390D01*
X140423333Y-45914819D02*
X140090000Y-45438628D01*
X139851905Y-45914819D02*
X139851905Y-44914819D01*
X139851905Y-44914819D02*
X140232857Y-44914819D01*
X140232857Y-44914819D02*
X140328095Y-44962438D01*
X140328095Y-44962438D02*
X140375714Y-45010057D01*
X140375714Y-45010057D02*
X140423333Y-45105295D01*
X140423333Y-45105295D02*
X140423333Y-45248152D01*
X140423333Y-45248152D02*
X140375714Y-45343390D01*
X140375714Y-45343390D02*
X140328095Y-45391009D01*
X140328095Y-45391009D02*
X140232857Y-45438628D01*
X140232857Y-45438628D02*
X139851905Y-45438628D01*
X140756667Y-44914819D02*
X141375714Y-44914819D01*
X141375714Y-44914819D02*
X141042381Y-45295771D01*
X141042381Y-45295771D02*
X141185238Y-45295771D01*
X141185238Y-45295771D02*
X141280476Y-45343390D01*
X141280476Y-45343390D02*
X141328095Y-45391009D01*
X141328095Y-45391009D02*
X141375714Y-45486247D01*
X141375714Y-45486247D02*
X141375714Y-45724342D01*
X141375714Y-45724342D02*
X141328095Y-45819580D01*
X141328095Y-45819580D02*
X141280476Y-45867200D01*
X141280476Y-45867200D02*
X141185238Y-45914819D01*
X141185238Y-45914819D02*
X140899524Y-45914819D01*
X140899524Y-45914819D02*
X140804286Y-45867200D01*
X140804286Y-45867200D02*
X140756667Y-45819580D01*
X97594642Y-95829580D02*
X97547023Y-95877200D01*
X97547023Y-95877200D02*
X97404166Y-95924819D01*
X97404166Y-95924819D02*
X97308928Y-95924819D01*
X97308928Y-95924819D02*
X97166071Y-95877200D01*
X97166071Y-95877200D02*
X97070833Y-95781961D01*
X97070833Y-95781961D02*
X97023214Y-95686723D01*
X97023214Y-95686723D02*
X96975595Y-95496247D01*
X96975595Y-95496247D02*
X96975595Y-95353390D01*
X96975595Y-95353390D02*
X97023214Y-95162914D01*
X97023214Y-95162914D02*
X97070833Y-95067676D01*
X97070833Y-95067676D02*
X97166071Y-94972438D01*
X97166071Y-94972438D02*
X97308928Y-94924819D01*
X97308928Y-94924819D02*
X97404166Y-94924819D01*
X97404166Y-94924819D02*
X97547023Y-94972438D01*
X97547023Y-94972438D02*
X97594642Y-95020057D01*
X98547023Y-95924819D02*
X97975595Y-95924819D01*
X98261309Y-95924819D02*
X98261309Y-94924819D01*
X98261309Y-94924819D02*
X98166071Y-95067676D01*
X98166071Y-95067676D02*
X98070833Y-95162914D01*
X98070833Y-95162914D02*
X97975595Y-95210533D01*
X98927976Y-95020057D02*
X98975595Y-94972438D01*
X98975595Y-94972438D02*
X99070833Y-94924819D01*
X99070833Y-94924819D02*
X99308928Y-94924819D01*
X99308928Y-94924819D02*
X99404166Y-94972438D01*
X99404166Y-94972438D02*
X99451785Y-95020057D01*
X99451785Y-95020057D02*
X99499404Y-95115295D01*
X99499404Y-95115295D02*
X99499404Y-95210533D01*
X99499404Y-95210533D02*
X99451785Y-95353390D01*
X99451785Y-95353390D02*
X98880357Y-95924819D01*
X98880357Y-95924819D02*
X99499404Y-95924819D01*
X123496666Y-101274819D02*
X123496666Y-101989104D01*
X123496666Y-101989104D02*
X123449047Y-102131961D01*
X123449047Y-102131961D02*
X123353809Y-102227200D01*
X123353809Y-102227200D02*
X123210952Y-102274819D01*
X123210952Y-102274819D02*
X123115714Y-102274819D01*
X124401428Y-101274819D02*
X124210952Y-101274819D01*
X124210952Y-101274819D02*
X124115714Y-101322438D01*
X124115714Y-101322438D02*
X124068095Y-101370057D01*
X124068095Y-101370057D02*
X123972857Y-101512914D01*
X123972857Y-101512914D02*
X123925238Y-101703390D01*
X123925238Y-101703390D02*
X123925238Y-102084342D01*
X123925238Y-102084342D02*
X123972857Y-102179580D01*
X123972857Y-102179580D02*
X124020476Y-102227200D01*
X124020476Y-102227200D02*
X124115714Y-102274819D01*
X124115714Y-102274819D02*
X124306190Y-102274819D01*
X124306190Y-102274819D02*
X124401428Y-102227200D01*
X124401428Y-102227200D02*
X124449047Y-102179580D01*
X124449047Y-102179580D02*
X124496666Y-102084342D01*
X124496666Y-102084342D02*
X124496666Y-101846247D01*
X124496666Y-101846247D02*
X124449047Y-101751009D01*
X124449047Y-101751009D02*
X124401428Y-101703390D01*
X124401428Y-101703390D02*
X124306190Y-101655771D01*
X124306190Y-101655771D02*
X124115714Y-101655771D01*
X124115714Y-101655771D02*
X124020476Y-101703390D01*
X124020476Y-101703390D02*
X123972857Y-101751009D01*
X123972857Y-101751009D02*
X123925238Y-101846247D01*
X178146666Y-31054819D02*
X178146666Y-31769104D01*
X178146666Y-31769104D02*
X178099047Y-31911961D01*
X178099047Y-31911961D02*
X178003809Y-32007200D01*
X178003809Y-32007200D02*
X177860952Y-32054819D01*
X177860952Y-32054819D02*
X177765714Y-32054819D01*
X178670476Y-32054819D02*
X178860952Y-32054819D01*
X178860952Y-32054819D02*
X178956190Y-32007200D01*
X178956190Y-32007200D02*
X179003809Y-31959580D01*
X179003809Y-31959580D02*
X179099047Y-31816723D01*
X179099047Y-31816723D02*
X179146666Y-31626247D01*
X179146666Y-31626247D02*
X179146666Y-31245295D01*
X179146666Y-31245295D02*
X179099047Y-31150057D01*
X179099047Y-31150057D02*
X179051428Y-31102438D01*
X179051428Y-31102438D02*
X178956190Y-31054819D01*
X178956190Y-31054819D02*
X178765714Y-31054819D01*
X178765714Y-31054819D02*
X178670476Y-31102438D01*
X178670476Y-31102438D02*
X178622857Y-31150057D01*
X178622857Y-31150057D02*
X178575238Y-31245295D01*
X178575238Y-31245295D02*
X178575238Y-31483390D01*
X178575238Y-31483390D02*
X178622857Y-31578628D01*
X178622857Y-31578628D02*
X178670476Y-31626247D01*
X178670476Y-31626247D02*
X178765714Y-31673866D01*
X178765714Y-31673866D02*
X178956190Y-31673866D01*
X178956190Y-31673866D02*
X179051428Y-31626247D01*
X179051428Y-31626247D02*
X179099047Y-31578628D01*
X179099047Y-31578628D02*
X179146666Y-31483390D01*
X159194819Y-95403333D02*
X159909104Y-95403333D01*
X159909104Y-95403333D02*
X160051961Y-95450952D01*
X160051961Y-95450952D02*
X160147200Y-95546190D01*
X160147200Y-95546190D02*
X160194819Y-95689047D01*
X160194819Y-95689047D02*
X160194819Y-95784285D01*
X159623390Y-94784285D02*
X159575771Y-94879523D01*
X159575771Y-94879523D02*
X159528152Y-94927142D01*
X159528152Y-94927142D02*
X159432914Y-94974761D01*
X159432914Y-94974761D02*
X159385295Y-94974761D01*
X159385295Y-94974761D02*
X159290057Y-94927142D01*
X159290057Y-94927142D02*
X159242438Y-94879523D01*
X159242438Y-94879523D02*
X159194819Y-94784285D01*
X159194819Y-94784285D02*
X159194819Y-94593809D01*
X159194819Y-94593809D02*
X159242438Y-94498571D01*
X159242438Y-94498571D02*
X159290057Y-94450952D01*
X159290057Y-94450952D02*
X159385295Y-94403333D01*
X159385295Y-94403333D02*
X159432914Y-94403333D01*
X159432914Y-94403333D02*
X159528152Y-94450952D01*
X159528152Y-94450952D02*
X159575771Y-94498571D01*
X159575771Y-94498571D02*
X159623390Y-94593809D01*
X159623390Y-94593809D02*
X159623390Y-94784285D01*
X159623390Y-94784285D02*
X159671009Y-94879523D01*
X159671009Y-94879523D02*
X159718628Y-94927142D01*
X159718628Y-94927142D02*
X159813866Y-94974761D01*
X159813866Y-94974761D02*
X160004342Y-94974761D01*
X160004342Y-94974761D02*
X160099580Y-94927142D01*
X160099580Y-94927142D02*
X160147200Y-94879523D01*
X160147200Y-94879523D02*
X160194819Y-94784285D01*
X160194819Y-94784285D02*
X160194819Y-94593809D01*
X160194819Y-94593809D02*
X160147200Y-94498571D01*
X160147200Y-94498571D02*
X160099580Y-94450952D01*
X160099580Y-94450952D02*
X160004342Y-94403333D01*
X160004342Y-94403333D02*
X159813866Y-94403333D01*
X159813866Y-94403333D02*
X159718628Y-94450952D01*
X159718628Y-94450952D02*
X159671009Y-94498571D01*
X159671009Y-94498571D02*
X159623390Y-94593809D01*
X176146666Y-81974819D02*
X176146666Y-82689104D01*
X176146666Y-82689104D02*
X176099047Y-82831961D01*
X176099047Y-82831961D02*
X176003809Y-82927200D01*
X176003809Y-82927200D02*
X175860952Y-82974819D01*
X175860952Y-82974819D02*
X175765714Y-82974819D01*
X176575238Y-82070057D02*
X176622857Y-82022438D01*
X176622857Y-82022438D02*
X176718095Y-81974819D01*
X176718095Y-81974819D02*
X176956190Y-81974819D01*
X176956190Y-81974819D02*
X177051428Y-82022438D01*
X177051428Y-82022438D02*
X177099047Y-82070057D01*
X177099047Y-82070057D02*
X177146666Y-82165295D01*
X177146666Y-82165295D02*
X177146666Y-82260533D01*
X177146666Y-82260533D02*
X177099047Y-82403390D01*
X177099047Y-82403390D02*
X176527619Y-82974819D01*
X176527619Y-82974819D02*
X177146666Y-82974819D01*
X146894819Y-32253094D02*
X145894819Y-32253094D01*
X145894819Y-32253094D02*
X145894819Y-32014999D01*
X145894819Y-32014999D02*
X145942438Y-31872142D01*
X145942438Y-31872142D02*
X146037676Y-31776904D01*
X146037676Y-31776904D02*
X146132914Y-31729285D01*
X146132914Y-31729285D02*
X146323390Y-31681666D01*
X146323390Y-31681666D02*
X146466247Y-31681666D01*
X146466247Y-31681666D02*
X146656723Y-31729285D01*
X146656723Y-31729285D02*
X146751961Y-31776904D01*
X146751961Y-31776904D02*
X146847200Y-31872142D01*
X146847200Y-31872142D02*
X146894819Y-32014999D01*
X146894819Y-32014999D02*
X146894819Y-32253094D01*
X146228152Y-30824523D02*
X146894819Y-30824523D01*
X145847200Y-31062618D02*
X146561485Y-31300713D01*
X146561485Y-31300713D02*
X146561485Y-30681666D01*
X124870057Y-78735238D02*
X124822438Y-78830476D01*
X124822438Y-78830476D02*
X124727200Y-78925714D01*
X124727200Y-78925714D02*
X124584342Y-79068571D01*
X124584342Y-79068571D02*
X124536723Y-79163809D01*
X124536723Y-79163809D02*
X124536723Y-79259047D01*
X124774819Y-79211428D02*
X124727200Y-79306666D01*
X124727200Y-79306666D02*
X124631961Y-79401904D01*
X124631961Y-79401904D02*
X124441485Y-79449523D01*
X124441485Y-79449523D02*
X124108152Y-79449523D01*
X124108152Y-79449523D02*
X123917676Y-79401904D01*
X123917676Y-79401904D02*
X123822438Y-79306666D01*
X123822438Y-79306666D02*
X123774819Y-79211428D01*
X123774819Y-79211428D02*
X123774819Y-79020952D01*
X123774819Y-79020952D02*
X123822438Y-78925714D01*
X123822438Y-78925714D02*
X123917676Y-78830476D01*
X123917676Y-78830476D02*
X124108152Y-78782857D01*
X124108152Y-78782857D02*
X124441485Y-78782857D01*
X124441485Y-78782857D02*
X124631961Y-78830476D01*
X124631961Y-78830476D02*
X124727200Y-78925714D01*
X124727200Y-78925714D02*
X124774819Y-79020952D01*
X124774819Y-79020952D02*
X124774819Y-79211428D01*
X124774819Y-77830476D02*
X124774819Y-78401904D01*
X124774819Y-78116190D02*
X123774819Y-78116190D01*
X123774819Y-78116190D02*
X123917676Y-78211428D01*
X123917676Y-78211428D02*
X124012914Y-78306666D01*
X124012914Y-78306666D02*
X124060533Y-78401904D01*
X131244819Y-79928094D02*
X130244819Y-79928094D01*
X130244819Y-79928094D02*
X130244819Y-79689999D01*
X130244819Y-79689999D02*
X130292438Y-79547142D01*
X130292438Y-79547142D02*
X130387676Y-79451904D01*
X130387676Y-79451904D02*
X130482914Y-79404285D01*
X130482914Y-79404285D02*
X130673390Y-79356666D01*
X130673390Y-79356666D02*
X130816247Y-79356666D01*
X130816247Y-79356666D02*
X131006723Y-79404285D01*
X131006723Y-79404285D02*
X131101961Y-79451904D01*
X131101961Y-79451904D02*
X131197200Y-79547142D01*
X131197200Y-79547142D02*
X131244819Y-79689999D01*
X131244819Y-79689999D02*
X131244819Y-79928094D01*
X130244819Y-79023332D02*
X130244819Y-78404285D01*
X130244819Y-78404285D02*
X130625771Y-78737618D01*
X130625771Y-78737618D02*
X130625771Y-78594761D01*
X130625771Y-78594761D02*
X130673390Y-78499523D01*
X130673390Y-78499523D02*
X130721009Y-78451904D01*
X130721009Y-78451904D02*
X130816247Y-78404285D01*
X130816247Y-78404285D02*
X131054342Y-78404285D01*
X131054342Y-78404285D02*
X131149580Y-78451904D01*
X131149580Y-78451904D02*
X131197200Y-78499523D01*
X131197200Y-78499523D02*
X131244819Y-78594761D01*
X131244819Y-78594761D02*
X131244819Y-78880475D01*
X131244819Y-78880475D02*
X131197200Y-78975713D01*
X131197200Y-78975713D02*
X131149580Y-79023332D01*
X149340833Y-81994819D02*
X149007500Y-81518628D01*
X148769405Y-81994819D02*
X148769405Y-80994819D01*
X148769405Y-80994819D02*
X149150357Y-80994819D01*
X149150357Y-80994819D02*
X149245595Y-81042438D01*
X149245595Y-81042438D02*
X149293214Y-81090057D01*
X149293214Y-81090057D02*
X149340833Y-81185295D01*
X149340833Y-81185295D02*
X149340833Y-81328152D01*
X149340833Y-81328152D02*
X149293214Y-81423390D01*
X149293214Y-81423390D02*
X149245595Y-81471009D01*
X149245595Y-81471009D02*
X149150357Y-81518628D01*
X149150357Y-81518628D02*
X148769405Y-81518628D01*
X150245595Y-80994819D02*
X149769405Y-80994819D01*
X149769405Y-80994819D02*
X149721786Y-81471009D01*
X149721786Y-81471009D02*
X149769405Y-81423390D01*
X149769405Y-81423390D02*
X149864643Y-81375771D01*
X149864643Y-81375771D02*
X150102738Y-81375771D01*
X150102738Y-81375771D02*
X150197976Y-81423390D01*
X150197976Y-81423390D02*
X150245595Y-81471009D01*
X150245595Y-81471009D02*
X150293214Y-81566247D01*
X150293214Y-81566247D02*
X150293214Y-81804342D01*
X150293214Y-81804342D02*
X150245595Y-81899580D01*
X150245595Y-81899580D02*
X150197976Y-81947200D01*
X150197976Y-81947200D02*
X150102738Y-81994819D01*
X150102738Y-81994819D02*
X149864643Y-81994819D01*
X149864643Y-81994819D02*
X149769405Y-81947200D01*
X149769405Y-81947200D02*
X149721786Y-81899580D01*
D12*
X97928809Y-102874318D02*
X97324047Y-102874318D01*
X97324047Y-102874318D02*
X97324047Y-101604318D01*
X98352142Y-102209080D02*
X98775476Y-102209080D01*
X98956904Y-102874318D02*
X98352142Y-102874318D01*
X98352142Y-102874318D02*
X98352142Y-101604318D01*
X98352142Y-101604318D02*
X98956904Y-101604318D01*
X99501190Y-102874318D02*
X99501190Y-101604318D01*
X99501190Y-101604318D02*
X99803571Y-101604318D01*
X99803571Y-101604318D02*
X99985000Y-101664794D01*
X99985000Y-101664794D02*
X100105952Y-101785746D01*
X100105952Y-101785746D02*
X100166429Y-101906699D01*
X100166429Y-101906699D02*
X100226905Y-102148603D01*
X100226905Y-102148603D02*
X100226905Y-102330032D01*
X100226905Y-102330032D02*
X100166429Y-102571937D01*
X100166429Y-102571937D02*
X100105952Y-102692889D01*
X100105952Y-102692889D02*
X99985000Y-102813842D01*
X99985000Y-102813842D02*
X99803571Y-102874318D01*
X99803571Y-102874318D02*
X99501190Y-102874318D01*
X101436429Y-102874318D02*
X100710714Y-102874318D01*
X101073571Y-102874318D02*
X101073571Y-101604318D01*
X101073571Y-101604318D02*
X100952619Y-101785746D01*
X100952619Y-101785746D02*
X100831667Y-101906699D01*
X100831667Y-101906699D02*
X100710714Y-101967175D01*
D11*
X142436666Y-43931009D02*
X142103333Y-43931009D01*
X142103333Y-44454819D02*
X142103333Y-43454819D01*
X142103333Y-43454819D02*
X142579523Y-43454819D01*
X143484285Y-44454819D02*
X142912857Y-44454819D01*
X143198571Y-44454819D02*
X143198571Y-43454819D01*
X143198571Y-43454819D02*
X143103333Y-43597676D01*
X143103333Y-43597676D02*
X143008095Y-43692914D01*
X143008095Y-43692914D02*
X142912857Y-43740533D01*
X136279580Y-77956666D02*
X136327200Y-78004285D01*
X136327200Y-78004285D02*
X136374819Y-78147142D01*
X136374819Y-78147142D02*
X136374819Y-78242380D01*
X136374819Y-78242380D02*
X136327200Y-78385237D01*
X136327200Y-78385237D02*
X136231961Y-78480475D01*
X136231961Y-78480475D02*
X136136723Y-78528094D01*
X136136723Y-78528094D02*
X135946247Y-78575713D01*
X135946247Y-78575713D02*
X135803390Y-78575713D01*
X135803390Y-78575713D02*
X135612914Y-78528094D01*
X135612914Y-78528094D02*
X135517676Y-78480475D01*
X135517676Y-78480475D02*
X135422438Y-78385237D01*
X135422438Y-78385237D02*
X135374819Y-78242380D01*
X135374819Y-78242380D02*
X135374819Y-78147142D01*
X135374819Y-78147142D02*
X135422438Y-78004285D01*
X135422438Y-78004285D02*
X135470057Y-77956666D01*
X136374819Y-77480475D02*
X136374819Y-77289999D01*
X136374819Y-77289999D02*
X136327200Y-77194761D01*
X136327200Y-77194761D02*
X136279580Y-77147142D01*
X136279580Y-77147142D02*
X136136723Y-77051904D01*
X136136723Y-77051904D02*
X135946247Y-77004285D01*
X135946247Y-77004285D02*
X135565295Y-77004285D01*
X135565295Y-77004285D02*
X135470057Y-77051904D01*
X135470057Y-77051904D02*
X135422438Y-77099523D01*
X135422438Y-77099523D02*
X135374819Y-77194761D01*
X135374819Y-77194761D02*
X135374819Y-77385237D01*
X135374819Y-77385237D02*
X135422438Y-77480475D01*
X135422438Y-77480475D02*
X135470057Y-77528094D01*
X135470057Y-77528094D02*
X135565295Y-77575713D01*
X135565295Y-77575713D02*
X135803390Y-77575713D01*
X135803390Y-77575713D02*
X135898628Y-77528094D01*
X135898628Y-77528094D02*
X135946247Y-77480475D01*
X135946247Y-77480475D02*
X135993866Y-77385237D01*
X135993866Y-77385237D02*
X135993866Y-77194761D01*
X135993866Y-77194761D02*
X135946247Y-77099523D01*
X135946247Y-77099523D02*
X135898628Y-77051904D01*
X135898628Y-77051904D02*
X135803390Y-77004285D01*
X125697142Y-73724819D02*
X125363809Y-73248628D01*
X125125714Y-73724819D02*
X125125714Y-72724819D01*
X125125714Y-72724819D02*
X125506666Y-72724819D01*
X125506666Y-72724819D02*
X125601904Y-72772438D01*
X125601904Y-72772438D02*
X125649523Y-72820057D01*
X125649523Y-72820057D02*
X125697142Y-72915295D01*
X125697142Y-72915295D02*
X125697142Y-73058152D01*
X125697142Y-73058152D02*
X125649523Y-73153390D01*
X125649523Y-73153390D02*
X125601904Y-73201009D01*
X125601904Y-73201009D02*
X125506666Y-73248628D01*
X125506666Y-73248628D02*
X125125714Y-73248628D01*
X126649523Y-73724819D02*
X126078095Y-73724819D01*
X126363809Y-73724819D02*
X126363809Y-72724819D01*
X126363809Y-72724819D02*
X126268571Y-72867676D01*
X126268571Y-72867676D02*
X126173333Y-72962914D01*
X126173333Y-72962914D02*
X126078095Y-73010533D01*
X127268571Y-72724819D02*
X127363809Y-72724819D01*
X127363809Y-72724819D02*
X127459047Y-72772438D01*
X127459047Y-72772438D02*
X127506666Y-72820057D01*
X127506666Y-72820057D02*
X127554285Y-72915295D01*
X127554285Y-72915295D02*
X127601904Y-73105771D01*
X127601904Y-73105771D02*
X127601904Y-73343866D01*
X127601904Y-73343866D02*
X127554285Y-73534342D01*
X127554285Y-73534342D02*
X127506666Y-73629580D01*
X127506666Y-73629580D02*
X127459047Y-73677200D01*
X127459047Y-73677200D02*
X127363809Y-73724819D01*
X127363809Y-73724819D02*
X127268571Y-73724819D01*
X127268571Y-73724819D02*
X127173333Y-73677200D01*
X127173333Y-73677200D02*
X127125714Y-73629580D01*
X127125714Y-73629580D02*
X127078095Y-73534342D01*
X127078095Y-73534342D02*
X127030476Y-73343866D01*
X127030476Y-73343866D02*
X127030476Y-73105771D01*
X127030476Y-73105771D02*
X127078095Y-72915295D01*
X127078095Y-72915295D02*
X127125714Y-72820057D01*
X127125714Y-72820057D02*
X127173333Y-72772438D01*
X127173333Y-72772438D02*
X127268571Y-72724819D01*
X112844819Y-40373333D02*
X113559104Y-40373333D01*
X113559104Y-40373333D02*
X113701961Y-40420952D01*
X113701961Y-40420952D02*
X113797200Y-40516190D01*
X113797200Y-40516190D02*
X113844819Y-40659047D01*
X113844819Y-40659047D02*
X113844819Y-40754285D01*
X113178152Y-39468571D02*
X113844819Y-39468571D01*
X112797200Y-39706666D02*
X113511485Y-39944761D01*
X113511485Y-39944761D02*
X113511485Y-39325714D01*
X178933333Y-86904819D02*
X178600000Y-86428628D01*
X178361905Y-86904819D02*
X178361905Y-85904819D01*
X178361905Y-85904819D02*
X178742857Y-85904819D01*
X178742857Y-85904819D02*
X178838095Y-85952438D01*
X178838095Y-85952438D02*
X178885714Y-86000057D01*
X178885714Y-86000057D02*
X178933333Y-86095295D01*
X178933333Y-86095295D02*
X178933333Y-86238152D01*
X178933333Y-86238152D02*
X178885714Y-86333390D01*
X178885714Y-86333390D02*
X178838095Y-86381009D01*
X178838095Y-86381009D02*
X178742857Y-86428628D01*
X178742857Y-86428628D02*
X178361905Y-86428628D01*
X179504762Y-86333390D02*
X179409524Y-86285771D01*
X179409524Y-86285771D02*
X179361905Y-86238152D01*
X179361905Y-86238152D02*
X179314286Y-86142914D01*
X179314286Y-86142914D02*
X179314286Y-86095295D01*
X179314286Y-86095295D02*
X179361905Y-86000057D01*
X179361905Y-86000057D02*
X179409524Y-85952438D01*
X179409524Y-85952438D02*
X179504762Y-85904819D01*
X179504762Y-85904819D02*
X179695238Y-85904819D01*
X179695238Y-85904819D02*
X179790476Y-85952438D01*
X179790476Y-85952438D02*
X179838095Y-86000057D01*
X179838095Y-86000057D02*
X179885714Y-86095295D01*
X179885714Y-86095295D02*
X179885714Y-86142914D01*
X179885714Y-86142914D02*
X179838095Y-86238152D01*
X179838095Y-86238152D02*
X179790476Y-86285771D01*
X179790476Y-86285771D02*
X179695238Y-86333390D01*
X179695238Y-86333390D02*
X179504762Y-86333390D01*
X179504762Y-86333390D02*
X179409524Y-86381009D01*
X179409524Y-86381009D02*
X179361905Y-86428628D01*
X179361905Y-86428628D02*
X179314286Y-86523866D01*
X179314286Y-86523866D02*
X179314286Y-86714342D01*
X179314286Y-86714342D02*
X179361905Y-86809580D01*
X179361905Y-86809580D02*
X179409524Y-86857200D01*
X179409524Y-86857200D02*
X179504762Y-86904819D01*
X179504762Y-86904819D02*
X179695238Y-86904819D01*
X179695238Y-86904819D02*
X179790476Y-86857200D01*
X179790476Y-86857200D02*
X179838095Y-86809580D01*
X179838095Y-86809580D02*
X179885714Y-86714342D01*
X179885714Y-86714342D02*
X179885714Y-86523866D01*
X179885714Y-86523866D02*
X179838095Y-86428628D01*
X179838095Y-86428628D02*
X179790476Y-86381009D01*
X179790476Y-86381009D02*
X179695238Y-86333390D01*
X96284819Y-50829523D02*
X96999104Y-50829523D01*
X96999104Y-50829523D02*
X97141961Y-50877142D01*
X97141961Y-50877142D02*
X97237200Y-50972380D01*
X97237200Y-50972380D02*
X97284819Y-51115237D01*
X97284819Y-51115237D02*
X97284819Y-51210475D01*
X97284819Y-49829523D02*
X97284819Y-50400951D01*
X97284819Y-50115237D02*
X96284819Y-50115237D01*
X96284819Y-50115237D02*
X96427676Y-50210475D01*
X96427676Y-50210475D02*
X96522914Y-50305713D01*
X96522914Y-50305713D02*
X96570533Y-50400951D01*
X97284819Y-48877142D02*
X97284819Y-49448570D01*
X97284819Y-49162856D02*
X96284819Y-49162856D01*
X96284819Y-49162856D02*
X96427676Y-49258094D01*
X96427676Y-49258094D02*
X96522914Y-49353332D01*
X96522914Y-49353332D02*
X96570533Y-49448570D01*
X134773333Y-58799580D02*
X134725714Y-58847200D01*
X134725714Y-58847200D02*
X134582857Y-58894819D01*
X134582857Y-58894819D02*
X134487619Y-58894819D01*
X134487619Y-58894819D02*
X134344762Y-58847200D01*
X134344762Y-58847200D02*
X134249524Y-58751961D01*
X134249524Y-58751961D02*
X134201905Y-58656723D01*
X134201905Y-58656723D02*
X134154286Y-58466247D01*
X134154286Y-58466247D02*
X134154286Y-58323390D01*
X134154286Y-58323390D02*
X134201905Y-58132914D01*
X134201905Y-58132914D02*
X134249524Y-58037676D01*
X134249524Y-58037676D02*
X134344762Y-57942438D01*
X134344762Y-57942438D02*
X134487619Y-57894819D01*
X134487619Y-57894819D02*
X134582857Y-57894819D01*
X134582857Y-57894819D02*
X134725714Y-57942438D01*
X134725714Y-57942438D02*
X134773333Y-57990057D01*
X135154286Y-57990057D02*
X135201905Y-57942438D01*
X135201905Y-57942438D02*
X135297143Y-57894819D01*
X135297143Y-57894819D02*
X135535238Y-57894819D01*
X135535238Y-57894819D02*
X135630476Y-57942438D01*
X135630476Y-57942438D02*
X135678095Y-57990057D01*
X135678095Y-57990057D02*
X135725714Y-58085295D01*
X135725714Y-58085295D02*
X135725714Y-58180533D01*
X135725714Y-58180533D02*
X135678095Y-58323390D01*
X135678095Y-58323390D02*
X135106667Y-58894819D01*
X135106667Y-58894819D02*
X135725714Y-58894819D01*
X133344819Y-79316666D02*
X132868628Y-79649999D01*
X133344819Y-79888094D02*
X132344819Y-79888094D01*
X132344819Y-79888094D02*
X132344819Y-79507142D01*
X132344819Y-79507142D02*
X132392438Y-79411904D01*
X132392438Y-79411904D02*
X132440057Y-79364285D01*
X132440057Y-79364285D02*
X132535295Y-79316666D01*
X132535295Y-79316666D02*
X132678152Y-79316666D01*
X132678152Y-79316666D02*
X132773390Y-79364285D01*
X132773390Y-79364285D02*
X132821009Y-79411904D01*
X132821009Y-79411904D02*
X132868628Y-79507142D01*
X132868628Y-79507142D02*
X132868628Y-79888094D01*
X132344819Y-78459523D02*
X132344819Y-78649999D01*
X132344819Y-78649999D02*
X132392438Y-78745237D01*
X132392438Y-78745237D02*
X132440057Y-78792856D01*
X132440057Y-78792856D02*
X132582914Y-78888094D01*
X132582914Y-78888094D02*
X132773390Y-78935713D01*
X132773390Y-78935713D02*
X133154342Y-78935713D01*
X133154342Y-78935713D02*
X133249580Y-78888094D01*
X133249580Y-78888094D02*
X133297200Y-78840475D01*
X133297200Y-78840475D02*
X133344819Y-78745237D01*
X133344819Y-78745237D02*
X133344819Y-78554761D01*
X133344819Y-78554761D02*
X133297200Y-78459523D01*
X133297200Y-78459523D02*
X133249580Y-78411904D01*
X133249580Y-78411904D02*
X133154342Y-78364285D01*
X133154342Y-78364285D02*
X132916247Y-78364285D01*
X132916247Y-78364285D02*
X132821009Y-78411904D01*
X132821009Y-78411904D02*
X132773390Y-78459523D01*
X132773390Y-78459523D02*
X132725771Y-78554761D01*
X132725771Y-78554761D02*
X132725771Y-78745237D01*
X132725771Y-78745237D02*
X132773390Y-78840475D01*
X132773390Y-78840475D02*
X132821009Y-78888094D01*
X132821009Y-78888094D02*
X132916247Y-78935713D01*
X152894819Y-31651666D02*
X152418628Y-31984999D01*
X152894819Y-32223094D02*
X151894819Y-32223094D01*
X151894819Y-32223094D02*
X151894819Y-31842142D01*
X151894819Y-31842142D02*
X151942438Y-31746904D01*
X151942438Y-31746904D02*
X151990057Y-31699285D01*
X151990057Y-31699285D02*
X152085295Y-31651666D01*
X152085295Y-31651666D02*
X152228152Y-31651666D01*
X152228152Y-31651666D02*
X152323390Y-31699285D01*
X152323390Y-31699285D02*
X152371009Y-31746904D01*
X152371009Y-31746904D02*
X152418628Y-31842142D01*
X152418628Y-31842142D02*
X152418628Y-32223094D01*
X151894819Y-31318332D02*
X151894819Y-30651666D01*
X151894819Y-30651666D02*
X152894819Y-31080237D01*
X151239580Y-71096666D02*
X151287200Y-71144285D01*
X151287200Y-71144285D02*
X151334819Y-71287142D01*
X151334819Y-71287142D02*
X151334819Y-71382380D01*
X151334819Y-71382380D02*
X151287200Y-71525237D01*
X151287200Y-71525237D02*
X151191961Y-71620475D01*
X151191961Y-71620475D02*
X151096723Y-71668094D01*
X151096723Y-71668094D02*
X150906247Y-71715713D01*
X150906247Y-71715713D02*
X150763390Y-71715713D01*
X150763390Y-71715713D02*
X150572914Y-71668094D01*
X150572914Y-71668094D02*
X150477676Y-71620475D01*
X150477676Y-71620475D02*
X150382438Y-71525237D01*
X150382438Y-71525237D02*
X150334819Y-71382380D01*
X150334819Y-71382380D02*
X150334819Y-71287142D01*
X150334819Y-71287142D02*
X150382438Y-71144285D01*
X150382438Y-71144285D02*
X150430057Y-71096666D01*
X150668152Y-70239523D02*
X151334819Y-70239523D01*
X150287200Y-70477618D02*
X151001485Y-70715713D01*
X151001485Y-70715713D02*
X151001485Y-70096666D01*
X135584819Y-49411904D02*
X136394342Y-49411904D01*
X136394342Y-49411904D02*
X136489580Y-49364285D01*
X136489580Y-49364285D02*
X136537200Y-49316666D01*
X136537200Y-49316666D02*
X136584819Y-49221428D01*
X136584819Y-49221428D02*
X136584819Y-49030952D01*
X136584819Y-49030952D02*
X136537200Y-48935714D01*
X136537200Y-48935714D02*
X136489580Y-48888095D01*
X136489580Y-48888095D02*
X136394342Y-48840476D01*
X136394342Y-48840476D02*
X135584819Y-48840476D01*
X135680057Y-48411904D02*
X135632438Y-48364285D01*
X135632438Y-48364285D02*
X135584819Y-48269047D01*
X135584819Y-48269047D02*
X135584819Y-48030952D01*
X135584819Y-48030952D02*
X135632438Y-47935714D01*
X135632438Y-47935714D02*
X135680057Y-47888095D01*
X135680057Y-47888095D02*
X135775295Y-47840476D01*
X135775295Y-47840476D02*
X135870533Y-47840476D01*
X135870533Y-47840476D02*
X136013390Y-47888095D01*
X136013390Y-47888095D02*
X136584819Y-48459523D01*
X136584819Y-48459523D02*
X136584819Y-47840476D01*
X149883333Y-76759580D02*
X149835714Y-76807200D01*
X149835714Y-76807200D02*
X149692857Y-76854819D01*
X149692857Y-76854819D02*
X149597619Y-76854819D01*
X149597619Y-76854819D02*
X149454762Y-76807200D01*
X149454762Y-76807200D02*
X149359524Y-76711961D01*
X149359524Y-76711961D02*
X149311905Y-76616723D01*
X149311905Y-76616723D02*
X149264286Y-76426247D01*
X149264286Y-76426247D02*
X149264286Y-76283390D01*
X149264286Y-76283390D02*
X149311905Y-76092914D01*
X149311905Y-76092914D02*
X149359524Y-75997676D01*
X149359524Y-75997676D02*
X149454762Y-75902438D01*
X149454762Y-75902438D02*
X149597619Y-75854819D01*
X149597619Y-75854819D02*
X149692857Y-75854819D01*
X149692857Y-75854819D02*
X149835714Y-75902438D01*
X149835714Y-75902438D02*
X149883333Y-75950057D01*
X150788095Y-75854819D02*
X150311905Y-75854819D01*
X150311905Y-75854819D02*
X150264286Y-76331009D01*
X150264286Y-76331009D02*
X150311905Y-76283390D01*
X150311905Y-76283390D02*
X150407143Y-76235771D01*
X150407143Y-76235771D02*
X150645238Y-76235771D01*
X150645238Y-76235771D02*
X150740476Y-76283390D01*
X150740476Y-76283390D02*
X150788095Y-76331009D01*
X150788095Y-76331009D02*
X150835714Y-76426247D01*
X150835714Y-76426247D02*
X150835714Y-76664342D01*
X150835714Y-76664342D02*
X150788095Y-76759580D01*
X150788095Y-76759580D02*
X150740476Y-76807200D01*
X150740476Y-76807200D02*
X150645238Y-76854819D01*
X150645238Y-76854819D02*
X150407143Y-76854819D01*
X150407143Y-76854819D02*
X150311905Y-76807200D01*
X150311905Y-76807200D02*
X150264286Y-76759580D01*
X131056666Y-102994819D02*
X131056666Y-103709104D01*
X131056666Y-103709104D02*
X131009047Y-103851961D01*
X131009047Y-103851961D02*
X130913809Y-103947200D01*
X130913809Y-103947200D02*
X130770952Y-103994819D01*
X130770952Y-103994819D02*
X130675714Y-103994819D01*
X131437619Y-102994819D02*
X132056666Y-102994819D01*
X132056666Y-102994819D02*
X131723333Y-103375771D01*
X131723333Y-103375771D02*
X131866190Y-103375771D01*
X131866190Y-103375771D02*
X131961428Y-103423390D01*
X131961428Y-103423390D02*
X132009047Y-103471009D01*
X132009047Y-103471009D02*
X132056666Y-103566247D01*
X132056666Y-103566247D02*
X132056666Y-103804342D01*
X132056666Y-103804342D02*
X132009047Y-103899580D01*
X132009047Y-103899580D02*
X131961428Y-103947200D01*
X131961428Y-103947200D02*
X131866190Y-103994819D01*
X131866190Y-103994819D02*
X131580476Y-103994819D01*
X131580476Y-103994819D02*
X131485238Y-103947200D01*
X131485238Y-103947200D02*
X131437619Y-103899580D01*
X155926666Y-50674819D02*
X155926666Y-51389104D01*
X155926666Y-51389104D02*
X155879047Y-51531961D01*
X155879047Y-51531961D02*
X155783809Y-51627200D01*
X155783809Y-51627200D02*
X155640952Y-51674819D01*
X155640952Y-51674819D02*
X155545714Y-51674819D01*
X156307619Y-50674819D02*
X156974285Y-50674819D01*
X156974285Y-50674819D02*
X156545714Y-51674819D01*
X135213809Y-80008628D02*
X135213809Y-80484819D01*
X134880476Y-79484819D02*
X135213809Y-80008628D01*
X135213809Y-80008628D02*
X135547142Y-79484819D01*
X135832857Y-79580057D02*
X135880476Y-79532438D01*
X135880476Y-79532438D02*
X135975714Y-79484819D01*
X135975714Y-79484819D02*
X136213809Y-79484819D01*
X136213809Y-79484819D02*
X136309047Y-79532438D01*
X136309047Y-79532438D02*
X136356666Y-79580057D01*
X136356666Y-79580057D02*
X136404285Y-79675295D01*
X136404285Y-79675295D02*
X136404285Y-79770533D01*
X136404285Y-79770533D02*
X136356666Y-79913390D01*
X136356666Y-79913390D02*
X135785238Y-80484819D01*
X135785238Y-80484819D02*
X136404285Y-80484819D01*
D12*
X135876666Y-84793842D02*
X136058095Y-84854318D01*
X136058095Y-84854318D02*
X136360476Y-84854318D01*
X136360476Y-84854318D02*
X136481428Y-84793842D01*
X136481428Y-84793842D02*
X136541904Y-84733365D01*
X136541904Y-84733365D02*
X136602381Y-84612413D01*
X136602381Y-84612413D02*
X136602381Y-84491461D01*
X136602381Y-84491461D02*
X136541904Y-84370508D01*
X136541904Y-84370508D02*
X136481428Y-84310032D01*
X136481428Y-84310032D02*
X136360476Y-84249556D01*
X136360476Y-84249556D02*
X136118571Y-84189080D01*
X136118571Y-84189080D02*
X135997619Y-84128603D01*
X135997619Y-84128603D02*
X135937142Y-84068127D01*
X135937142Y-84068127D02*
X135876666Y-83947175D01*
X135876666Y-83947175D02*
X135876666Y-83826222D01*
X135876666Y-83826222D02*
X135937142Y-83705270D01*
X135937142Y-83705270D02*
X135997619Y-83644794D01*
X135997619Y-83644794D02*
X136118571Y-83584318D01*
X136118571Y-83584318D02*
X136420952Y-83584318D01*
X136420952Y-83584318D02*
X136602381Y-83644794D01*
X137025714Y-83584318D02*
X137328095Y-84854318D01*
X137328095Y-84854318D02*
X137570000Y-83947175D01*
X137570000Y-83947175D02*
X137811905Y-84854318D01*
X137811905Y-84854318D02*
X138114286Y-83584318D01*
X139263334Y-84854318D02*
X138537619Y-84854318D01*
X138900476Y-84854318D02*
X138900476Y-83584318D01*
X138900476Y-83584318D02*
X138779524Y-83765746D01*
X138779524Y-83765746D02*
X138658572Y-83886699D01*
X138658572Y-83886699D02*
X138537619Y-83947175D01*
D11*
X149833333Y-79039580D02*
X149785714Y-79087200D01*
X149785714Y-79087200D02*
X149642857Y-79134819D01*
X149642857Y-79134819D02*
X149547619Y-79134819D01*
X149547619Y-79134819D02*
X149404762Y-79087200D01*
X149404762Y-79087200D02*
X149309524Y-78991961D01*
X149309524Y-78991961D02*
X149261905Y-78896723D01*
X149261905Y-78896723D02*
X149214286Y-78706247D01*
X149214286Y-78706247D02*
X149214286Y-78563390D01*
X149214286Y-78563390D02*
X149261905Y-78372914D01*
X149261905Y-78372914D02*
X149309524Y-78277676D01*
X149309524Y-78277676D02*
X149404762Y-78182438D01*
X149404762Y-78182438D02*
X149547619Y-78134819D01*
X149547619Y-78134819D02*
X149642857Y-78134819D01*
X149642857Y-78134819D02*
X149785714Y-78182438D01*
X149785714Y-78182438D02*
X149833333Y-78230057D01*
X150690476Y-78134819D02*
X150500000Y-78134819D01*
X150500000Y-78134819D02*
X150404762Y-78182438D01*
X150404762Y-78182438D02*
X150357143Y-78230057D01*
X150357143Y-78230057D02*
X150261905Y-78372914D01*
X150261905Y-78372914D02*
X150214286Y-78563390D01*
X150214286Y-78563390D02*
X150214286Y-78944342D01*
X150214286Y-78944342D02*
X150261905Y-79039580D01*
X150261905Y-79039580D02*
X150309524Y-79087200D01*
X150309524Y-79087200D02*
X150404762Y-79134819D01*
X150404762Y-79134819D02*
X150595238Y-79134819D01*
X150595238Y-79134819D02*
X150690476Y-79087200D01*
X150690476Y-79087200D02*
X150738095Y-79039580D01*
X150738095Y-79039580D02*
X150785714Y-78944342D01*
X150785714Y-78944342D02*
X150785714Y-78706247D01*
X150785714Y-78706247D02*
X150738095Y-78611009D01*
X150738095Y-78611009D02*
X150690476Y-78563390D01*
X150690476Y-78563390D02*
X150595238Y-78515771D01*
X150595238Y-78515771D02*
X150404762Y-78515771D01*
X150404762Y-78515771D02*
X150309524Y-78563390D01*
X150309524Y-78563390D02*
X150261905Y-78611009D01*
X150261905Y-78611009D02*
X150214286Y-78706247D01*
X112666666Y-101179819D02*
X112666666Y-101894104D01*
X112666666Y-101894104D02*
X112619047Y-102036961D01*
X112619047Y-102036961D02*
X112523809Y-102132200D01*
X112523809Y-102132200D02*
X112380952Y-102179819D01*
X112380952Y-102179819D02*
X112285714Y-102179819D01*
X113619047Y-101179819D02*
X113142857Y-101179819D01*
X113142857Y-101179819D02*
X113095238Y-101656009D01*
X113095238Y-101656009D02*
X113142857Y-101608390D01*
X113142857Y-101608390D02*
X113238095Y-101560771D01*
X113238095Y-101560771D02*
X113476190Y-101560771D01*
X113476190Y-101560771D02*
X113571428Y-101608390D01*
X113571428Y-101608390D02*
X113619047Y-101656009D01*
X113619047Y-101656009D02*
X113666666Y-101751247D01*
X113666666Y-101751247D02*
X113666666Y-101989342D01*
X113666666Y-101989342D02*
X113619047Y-102084580D01*
X113619047Y-102084580D02*
X113571428Y-102132200D01*
X113571428Y-102132200D02*
X113476190Y-102179819D01*
X113476190Y-102179819D02*
X113238095Y-102179819D01*
X113238095Y-102179819D02*
X113142857Y-102132200D01*
X113142857Y-102132200D02*
X113095238Y-102084580D01*
X150781905Y-84404819D02*
X150781905Y-83404819D01*
X150781905Y-83404819D02*
X151020000Y-83404819D01*
X151020000Y-83404819D02*
X151162857Y-83452438D01*
X151162857Y-83452438D02*
X151258095Y-83547676D01*
X151258095Y-83547676D02*
X151305714Y-83642914D01*
X151305714Y-83642914D02*
X151353333Y-83833390D01*
X151353333Y-83833390D02*
X151353333Y-83976247D01*
X151353333Y-83976247D02*
X151305714Y-84166723D01*
X151305714Y-84166723D02*
X151258095Y-84261961D01*
X151258095Y-84261961D02*
X151162857Y-84357200D01*
X151162857Y-84357200D02*
X151020000Y-84404819D01*
X151020000Y-84404819D02*
X150781905Y-84404819D01*
X151734286Y-83500057D02*
X151781905Y-83452438D01*
X151781905Y-83452438D02*
X151877143Y-83404819D01*
X151877143Y-83404819D02*
X152115238Y-83404819D01*
X152115238Y-83404819D02*
X152210476Y-83452438D01*
X152210476Y-83452438D02*
X152258095Y-83500057D01*
X152258095Y-83500057D02*
X152305714Y-83595295D01*
X152305714Y-83595295D02*
X152305714Y-83690533D01*
X152305714Y-83690533D02*
X152258095Y-83833390D01*
X152258095Y-83833390D02*
X151686667Y-84404819D01*
X151686667Y-84404819D02*
X152305714Y-84404819D01*
X130819580Y-72846666D02*
X130867200Y-72894285D01*
X130867200Y-72894285D02*
X130914819Y-73037142D01*
X130914819Y-73037142D02*
X130914819Y-73132380D01*
X130914819Y-73132380D02*
X130867200Y-73275237D01*
X130867200Y-73275237D02*
X130771961Y-73370475D01*
X130771961Y-73370475D02*
X130676723Y-73418094D01*
X130676723Y-73418094D02*
X130486247Y-73465713D01*
X130486247Y-73465713D02*
X130343390Y-73465713D01*
X130343390Y-73465713D02*
X130152914Y-73418094D01*
X130152914Y-73418094D02*
X130057676Y-73370475D01*
X130057676Y-73370475D02*
X129962438Y-73275237D01*
X129962438Y-73275237D02*
X129914819Y-73132380D01*
X129914819Y-73132380D02*
X129914819Y-73037142D01*
X129914819Y-73037142D02*
X129962438Y-72894285D01*
X129962438Y-72894285D02*
X130010057Y-72846666D01*
X130914819Y-71894285D02*
X130914819Y-72465713D01*
X130914819Y-72179999D02*
X129914819Y-72179999D01*
X129914819Y-72179999D02*
X130057676Y-72275237D01*
X130057676Y-72275237D02*
X130152914Y-72370475D01*
X130152914Y-72370475D02*
X130200533Y-72465713D01*
D12*
X174138809Y-102714318D02*
X173534047Y-102714318D01*
X173534047Y-102714318D02*
X173534047Y-101444318D01*
X174562142Y-102049080D02*
X174985476Y-102049080D01*
X175166904Y-102714318D02*
X174562142Y-102714318D01*
X174562142Y-102714318D02*
X174562142Y-101444318D01*
X174562142Y-101444318D02*
X175166904Y-101444318D01*
X175711190Y-102714318D02*
X175711190Y-101444318D01*
X175711190Y-101444318D02*
X176013571Y-101444318D01*
X176013571Y-101444318D02*
X176195000Y-101504794D01*
X176195000Y-101504794D02*
X176315952Y-101625746D01*
X176315952Y-101625746D02*
X176376429Y-101746699D01*
X176376429Y-101746699D02*
X176436905Y-101988603D01*
X176436905Y-101988603D02*
X176436905Y-102170032D01*
X176436905Y-102170032D02*
X176376429Y-102411937D01*
X176376429Y-102411937D02*
X176315952Y-102532889D01*
X176315952Y-102532889D02*
X176195000Y-102653842D01*
X176195000Y-102653842D02*
X176013571Y-102714318D01*
X176013571Y-102714318D02*
X175711190Y-102714318D01*
X176920714Y-101565270D02*
X176981190Y-101504794D01*
X176981190Y-101504794D02*
X177102143Y-101444318D01*
X177102143Y-101444318D02*
X177404524Y-101444318D01*
X177404524Y-101444318D02*
X177525476Y-101504794D01*
X177525476Y-101504794D02*
X177585952Y-101565270D01*
X177585952Y-101565270D02*
X177646429Y-101686222D01*
X177646429Y-101686222D02*
X177646429Y-101807175D01*
X177646429Y-101807175D02*
X177585952Y-101988603D01*
X177585952Y-101988603D02*
X176860238Y-102714318D01*
X176860238Y-102714318D02*
X177646429Y-102714318D01*
D11*
X142499580Y-78806666D02*
X142547200Y-78854285D01*
X142547200Y-78854285D02*
X142594819Y-78997142D01*
X142594819Y-78997142D02*
X142594819Y-79092380D01*
X142594819Y-79092380D02*
X142547200Y-79235237D01*
X142547200Y-79235237D02*
X142451961Y-79330475D01*
X142451961Y-79330475D02*
X142356723Y-79378094D01*
X142356723Y-79378094D02*
X142166247Y-79425713D01*
X142166247Y-79425713D02*
X142023390Y-79425713D01*
X142023390Y-79425713D02*
X141832914Y-79378094D01*
X141832914Y-79378094D02*
X141737676Y-79330475D01*
X141737676Y-79330475D02*
X141642438Y-79235237D01*
X141642438Y-79235237D02*
X141594819Y-79092380D01*
X141594819Y-79092380D02*
X141594819Y-78997142D01*
X141594819Y-78997142D02*
X141642438Y-78854285D01*
X141642438Y-78854285D02*
X141690057Y-78806666D01*
X142023390Y-78235237D02*
X141975771Y-78330475D01*
X141975771Y-78330475D02*
X141928152Y-78378094D01*
X141928152Y-78378094D02*
X141832914Y-78425713D01*
X141832914Y-78425713D02*
X141785295Y-78425713D01*
X141785295Y-78425713D02*
X141690057Y-78378094D01*
X141690057Y-78378094D02*
X141642438Y-78330475D01*
X141642438Y-78330475D02*
X141594819Y-78235237D01*
X141594819Y-78235237D02*
X141594819Y-78044761D01*
X141594819Y-78044761D02*
X141642438Y-77949523D01*
X141642438Y-77949523D02*
X141690057Y-77901904D01*
X141690057Y-77901904D02*
X141785295Y-77854285D01*
X141785295Y-77854285D02*
X141832914Y-77854285D01*
X141832914Y-77854285D02*
X141928152Y-77901904D01*
X141928152Y-77901904D02*
X141975771Y-77949523D01*
X141975771Y-77949523D02*
X142023390Y-78044761D01*
X142023390Y-78044761D02*
X142023390Y-78235237D01*
X142023390Y-78235237D02*
X142071009Y-78330475D01*
X142071009Y-78330475D02*
X142118628Y-78378094D01*
X142118628Y-78378094D02*
X142213866Y-78425713D01*
X142213866Y-78425713D02*
X142404342Y-78425713D01*
X142404342Y-78425713D02*
X142499580Y-78378094D01*
X142499580Y-78378094D02*
X142547200Y-78330475D01*
X142547200Y-78330475D02*
X142594819Y-78235237D01*
X142594819Y-78235237D02*
X142594819Y-78044761D01*
X142594819Y-78044761D02*
X142547200Y-77949523D01*
X142547200Y-77949523D02*
X142499580Y-77901904D01*
X142499580Y-77901904D02*
X142404342Y-77854285D01*
X142404342Y-77854285D02*
X142213866Y-77854285D01*
X142213866Y-77854285D02*
X142118628Y-77901904D01*
X142118628Y-77901904D02*
X142071009Y-77949523D01*
X142071009Y-77949523D02*
X142023390Y-78044761D01*
X118084819Y-69956666D02*
X117608628Y-70289999D01*
X118084819Y-70528094D02*
X117084819Y-70528094D01*
X117084819Y-70528094D02*
X117084819Y-70147142D01*
X117084819Y-70147142D02*
X117132438Y-70051904D01*
X117132438Y-70051904D02*
X117180057Y-70004285D01*
X117180057Y-70004285D02*
X117275295Y-69956666D01*
X117275295Y-69956666D02*
X117418152Y-69956666D01*
X117418152Y-69956666D02*
X117513390Y-70004285D01*
X117513390Y-70004285D02*
X117561009Y-70051904D01*
X117561009Y-70051904D02*
X117608628Y-70147142D01*
X117608628Y-70147142D02*
X117608628Y-70528094D01*
X118084819Y-69004285D02*
X118084819Y-69575713D01*
X118084819Y-69289999D02*
X117084819Y-69289999D01*
X117084819Y-69289999D02*
X117227676Y-69385237D01*
X117227676Y-69385237D02*
X117322914Y-69480475D01*
X117322914Y-69480475D02*
X117370533Y-69575713D01*
X98824819Y-73349523D02*
X99539104Y-73349523D01*
X99539104Y-73349523D02*
X99681961Y-73397142D01*
X99681961Y-73397142D02*
X99777200Y-73492380D01*
X99777200Y-73492380D02*
X99824819Y-73635237D01*
X99824819Y-73635237D02*
X99824819Y-73730475D01*
X99824819Y-72349523D02*
X99824819Y-72920951D01*
X99824819Y-72635237D02*
X98824819Y-72635237D01*
X98824819Y-72635237D02*
X98967676Y-72730475D01*
X98967676Y-72730475D02*
X99062914Y-72825713D01*
X99062914Y-72825713D02*
X99110533Y-72920951D01*
X98824819Y-71730475D02*
X98824819Y-71635237D01*
X98824819Y-71635237D02*
X98872438Y-71539999D01*
X98872438Y-71539999D02*
X98920057Y-71492380D01*
X98920057Y-71492380D02*
X99015295Y-71444761D01*
X99015295Y-71444761D02*
X99205771Y-71397142D01*
X99205771Y-71397142D02*
X99443866Y-71397142D01*
X99443866Y-71397142D02*
X99634342Y-71444761D01*
X99634342Y-71444761D02*
X99729580Y-71492380D01*
X99729580Y-71492380D02*
X99777200Y-71539999D01*
X99777200Y-71539999D02*
X99824819Y-71635237D01*
X99824819Y-71635237D02*
X99824819Y-71730475D01*
X99824819Y-71730475D02*
X99777200Y-71825713D01*
X99777200Y-71825713D02*
X99729580Y-71873332D01*
X99729580Y-71873332D02*
X99634342Y-71920951D01*
X99634342Y-71920951D02*
X99443866Y-71968570D01*
X99443866Y-71968570D02*
X99205771Y-71968570D01*
X99205771Y-71968570D02*
X99015295Y-71920951D01*
X99015295Y-71920951D02*
X98920057Y-71873332D01*
X98920057Y-71873332D02*
X98872438Y-71825713D01*
X98872438Y-71825713D02*
X98824819Y-71730475D01*
X149769580Y-60646666D02*
X149817200Y-60694285D01*
X149817200Y-60694285D02*
X149864819Y-60837142D01*
X149864819Y-60837142D02*
X149864819Y-60932380D01*
X149864819Y-60932380D02*
X149817200Y-61075237D01*
X149817200Y-61075237D02*
X149721961Y-61170475D01*
X149721961Y-61170475D02*
X149626723Y-61218094D01*
X149626723Y-61218094D02*
X149436247Y-61265713D01*
X149436247Y-61265713D02*
X149293390Y-61265713D01*
X149293390Y-61265713D02*
X149102914Y-61218094D01*
X149102914Y-61218094D02*
X149007676Y-61170475D01*
X149007676Y-61170475D02*
X148912438Y-61075237D01*
X148912438Y-61075237D02*
X148864819Y-60932380D01*
X148864819Y-60932380D02*
X148864819Y-60837142D01*
X148864819Y-60837142D02*
X148912438Y-60694285D01*
X148912438Y-60694285D02*
X148960057Y-60646666D01*
X148864819Y-60313332D02*
X148864819Y-59694285D01*
X148864819Y-59694285D02*
X149245771Y-60027618D01*
X149245771Y-60027618D02*
X149245771Y-59884761D01*
X149245771Y-59884761D02*
X149293390Y-59789523D01*
X149293390Y-59789523D02*
X149341009Y-59741904D01*
X149341009Y-59741904D02*
X149436247Y-59694285D01*
X149436247Y-59694285D02*
X149674342Y-59694285D01*
X149674342Y-59694285D02*
X149769580Y-59741904D01*
X149769580Y-59741904D02*
X149817200Y-59789523D01*
X149817200Y-59789523D02*
X149864819Y-59884761D01*
X149864819Y-59884761D02*
X149864819Y-60170475D01*
X149864819Y-60170475D02*
X149817200Y-60265713D01*
X149817200Y-60265713D02*
X149769580Y-60313332D01*
X176007200Y-92793332D02*
X176054819Y-92650475D01*
X176054819Y-92650475D02*
X176054819Y-92412380D01*
X176054819Y-92412380D02*
X176007200Y-92317142D01*
X176007200Y-92317142D02*
X175959580Y-92269523D01*
X175959580Y-92269523D02*
X175864342Y-92221904D01*
X175864342Y-92221904D02*
X175769104Y-92221904D01*
X175769104Y-92221904D02*
X175673866Y-92269523D01*
X175673866Y-92269523D02*
X175626247Y-92317142D01*
X175626247Y-92317142D02*
X175578628Y-92412380D01*
X175578628Y-92412380D02*
X175531009Y-92602856D01*
X175531009Y-92602856D02*
X175483390Y-92698094D01*
X175483390Y-92698094D02*
X175435771Y-92745713D01*
X175435771Y-92745713D02*
X175340533Y-92793332D01*
X175340533Y-92793332D02*
X175245295Y-92793332D01*
X175245295Y-92793332D02*
X175150057Y-92745713D01*
X175150057Y-92745713D02*
X175102438Y-92698094D01*
X175102438Y-92698094D02*
X175054819Y-92602856D01*
X175054819Y-92602856D02*
X175054819Y-92364761D01*
X175054819Y-92364761D02*
X175102438Y-92221904D01*
X175054819Y-91888570D02*
X176054819Y-91650475D01*
X176054819Y-91650475D02*
X175340533Y-91459999D01*
X175340533Y-91459999D02*
X176054819Y-91269523D01*
X176054819Y-91269523D02*
X175054819Y-91031428D01*
X175150057Y-90698094D02*
X175102438Y-90650475D01*
X175102438Y-90650475D02*
X175054819Y-90555237D01*
X175054819Y-90555237D02*
X175054819Y-90317142D01*
X175054819Y-90317142D02*
X175102438Y-90221904D01*
X175102438Y-90221904D02*
X175150057Y-90174285D01*
X175150057Y-90174285D02*
X175245295Y-90126666D01*
X175245295Y-90126666D02*
X175340533Y-90126666D01*
X175340533Y-90126666D02*
X175483390Y-90174285D01*
X175483390Y-90174285D02*
X176054819Y-90745713D01*
X176054819Y-90745713D02*
X176054819Y-90126666D01*
X146451905Y-44562319D02*
X146451905Y-43562319D01*
X146451905Y-43562319D02*
X146690000Y-43562319D01*
X146690000Y-43562319D02*
X146832857Y-43609938D01*
X146832857Y-43609938D02*
X146928095Y-43705176D01*
X146928095Y-43705176D02*
X146975714Y-43800414D01*
X146975714Y-43800414D02*
X147023333Y-43990890D01*
X147023333Y-43990890D02*
X147023333Y-44133747D01*
X147023333Y-44133747D02*
X146975714Y-44324223D01*
X146975714Y-44324223D02*
X146928095Y-44419461D01*
X146928095Y-44419461D02*
X146832857Y-44514700D01*
X146832857Y-44514700D02*
X146690000Y-44562319D01*
X146690000Y-44562319D02*
X146451905Y-44562319D01*
X147975714Y-44562319D02*
X147404286Y-44562319D01*
X147690000Y-44562319D02*
X147690000Y-43562319D01*
X147690000Y-43562319D02*
X147594762Y-43705176D01*
X147594762Y-43705176D02*
X147499524Y-43800414D01*
X147499524Y-43800414D02*
X147404286Y-43848033D01*
X118348095Y-76037200D02*
X118490952Y-76084819D01*
X118490952Y-76084819D02*
X118729047Y-76084819D01*
X118729047Y-76084819D02*
X118824285Y-76037200D01*
X118824285Y-76037200D02*
X118871904Y-75989580D01*
X118871904Y-75989580D02*
X118919523Y-75894342D01*
X118919523Y-75894342D02*
X118919523Y-75799104D01*
X118919523Y-75799104D02*
X118871904Y-75703866D01*
X118871904Y-75703866D02*
X118824285Y-75656247D01*
X118824285Y-75656247D02*
X118729047Y-75608628D01*
X118729047Y-75608628D02*
X118538571Y-75561009D01*
X118538571Y-75561009D02*
X118443333Y-75513390D01*
X118443333Y-75513390D02*
X118395714Y-75465771D01*
X118395714Y-75465771D02*
X118348095Y-75370533D01*
X118348095Y-75370533D02*
X118348095Y-75275295D01*
X118348095Y-75275295D02*
X118395714Y-75180057D01*
X118395714Y-75180057D02*
X118443333Y-75132438D01*
X118443333Y-75132438D02*
X118538571Y-75084819D01*
X118538571Y-75084819D02*
X118776666Y-75084819D01*
X118776666Y-75084819D02*
X118919523Y-75132438D01*
X119871904Y-76084819D02*
X119300476Y-76084819D01*
X119586190Y-76084819D02*
X119586190Y-75084819D01*
X119586190Y-75084819D02*
X119490952Y-75227676D01*
X119490952Y-75227676D02*
X119395714Y-75322914D01*
X119395714Y-75322914D02*
X119300476Y-75370533D01*
X172577142Y-107519580D02*
X172529523Y-107567200D01*
X172529523Y-107567200D02*
X172386666Y-107614819D01*
X172386666Y-107614819D02*
X172291428Y-107614819D01*
X172291428Y-107614819D02*
X172148571Y-107567200D01*
X172148571Y-107567200D02*
X172053333Y-107471961D01*
X172053333Y-107471961D02*
X172005714Y-107376723D01*
X172005714Y-107376723D02*
X171958095Y-107186247D01*
X171958095Y-107186247D02*
X171958095Y-107043390D01*
X171958095Y-107043390D02*
X172005714Y-106852914D01*
X172005714Y-106852914D02*
X172053333Y-106757676D01*
X172053333Y-106757676D02*
X172148571Y-106662438D01*
X172148571Y-106662438D02*
X172291428Y-106614819D01*
X172291428Y-106614819D02*
X172386666Y-106614819D01*
X172386666Y-106614819D02*
X172529523Y-106662438D01*
X172529523Y-106662438D02*
X172577142Y-106710057D01*
X173529523Y-107614819D02*
X172958095Y-107614819D01*
X173243809Y-107614819D02*
X173243809Y-106614819D01*
X173243809Y-106614819D02*
X173148571Y-106757676D01*
X173148571Y-106757676D02*
X173053333Y-106852914D01*
X173053333Y-106852914D02*
X172958095Y-106900533D01*
X174481904Y-107614819D02*
X173910476Y-107614819D01*
X174196190Y-107614819D02*
X174196190Y-106614819D01*
X174196190Y-106614819D02*
X174100952Y-106757676D01*
X174100952Y-106757676D02*
X174005714Y-106852914D01*
X174005714Y-106852914D02*
X173910476Y-106900533D01*
X138046666Y-29894819D02*
X138046666Y-30609104D01*
X138046666Y-30609104D02*
X137999047Y-30751961D01*
X137999047Y-30751961D02*
X137903809Y-30847200D01*
X137903809Y-30847200D02*
X137760952Y-30894819D01*
X137760952Y-30894819D02*
X137665714Y-30894819D01*
X139046666Y-30894819D02*
X138475238Y-30894819D01*
X138760952Y-30894819D02*
X138760952Y-29894819D01*
X138760952Y-29894819D02*
X138665714Y-30037676D01*
X138665714Y-30037676D02*
X138570476Y-30132914D01*
X138570476Y-30132914D02*
X138475238Y-30180533D01*
X137043333Y-90669580D02*
X136995714Y-90717200D01*
X136995714Y-90717200D02*
X136852857Y-90764819D01*
X136852857Y-90764819D02*
X136757619Y-90764819D01*
X136757619Y-90764819D02*
X136614762Y-90717200D01*
X136614762Y-90717200D02*
X136519524Y-90621961D01*
X136519524Y-90621961D02*
X136471905Y-90526723D01*
X136471905Y-90526723D02*
X136424286Y-90336247D01*
X136424286Y-90336247D02*
X136424286Y-90193390D01*
X136424286Y-90193390D02*
X136471905Y-90002914D01*
X136471905Y-90002914D02*
X136519524Y-89907676D01*
X136519524Y-89907676D02*
X136614762Y-89812438D01*
X136614762Y-89812438D02*
X136757619Y-89764819D01*
X136757619Y-89764819D02*
X136852857Y-89764819D01*
X136852857Y-89764819D02*
X136995714Y-89812438D01*
X136995714Y-89812438D02*
X137043333Y-89860057D01*
X137376667Y-89764819D02*
X138043333Y-89764819D01*
X138043333Y-89764819D02*
X137614762Y-90764819D01*
X144713333Y-44539819D02*
X144380000Y-44063628D01*
X144141905Y-44539819D02*
X144141905Y-43539819D01*
X144141905Y-43539819D02*
X144522857Y-43539819D01*
X144522857Y-43539819D02*
X144618095Y-43587438D01*
X144618095Y-43587438D02*
X144665714Y-43635057D01*
X144665714Y-43635057D02*
X144713333Y-43730295D01*
X144713333Y-43730295D02*
X144713333Y-43873152D01*
X144713333Y-43873152D02*
X144665714Y-43968390D01*
X144665714Y-43968390D02*
X144618095Y-44016009D01*
X144618095Y-44016009D02*
X144522857Y-44063628D01*
X144522857Y-44063628D02*
X144141905Y-44063628D01*
X145570476Y-43873152D02*
X145570476Y-44539819D01*
X145332381Y-43492200D02*
X145094286Y-44206485D01*
X145094286Y-44206485D02*
X145713333Y-44206485D01*
D13*
%TO.C,R2*%
X136945000Y-42487936D02*
X136945000Y-42942064D01*
X138415000Y-42487936D02*
X138415000Y-42942064D01*
%TO.C,U1*%
X135630000Y-61975000D02*
X136580000Y-61975000D01*
X135630000Y-62925000D02*
X135630000Y-61975000D01*
X135630000Y-71245000D02*
X135630000Y-72195000D01*
X135630000Y-72195000D02*
X136580000Y-72195000D01*
X145850000Y-61975000D02*
X144900000Y-61975000D01*
X145850000Y-62925000D02*
X145850000Y-61975000D01*
X145850000Y-71245000D02*
X145850000Y-72195000D01*
X145850000Y-72195000D02*
X144900000Y-72195000D01*
X136580000Y-72810000D02*
X136110000Y-73150000D01*
X136110000Y-72470000D01*
X136580000Y-72810000D01*
G36*
X136580000Y-72810000D02*
G01*
X136110000Y-73150000D01*
X136110000Y-72470000D01*
X136580000Y-72810000D01*
G37*
%TO.C,R9*%
X127344564Y-80565000D02*
X126890436Y-80565000D01*
X127344564Y-82035000D02*
X126890436Y-82035000D01*
%TO.C,R3*%
X139125000Y-42962064D02*
X139125000Y-42507936D01*
X140595000Y-42962064D02*
X140595000Y-42507936D01*
%TO.C,C12*%
X97976248Y-96415000D02*
X98498752Y-96415000D01*
X97976248Y-97885000D02*
X98498752Y-97885000D01*
%TO.C,J6*%
X119730000Y-97150000D02*
X119730000Y-98400000D01*
X120020000Y-97440000D02*
X120020000Y-103410000D01*
X120020000Y-103410000D02*
X127640000Y-103410000D01*
X120030000Y-97450000D02*
X120030000Y-98200000D01*
X120030000Y-98200000D02*
X121830000Y-98200000D01*
X120030000Y-99700000D02*
X120780000Y-99700000D01*
X120780000Y-99700000D02*
X120780000Y-102650000D01*
X120780000Y-102650000D02*
X123830000Y-102650000D01*
X120980000Y-97150000D02*
X119730000Y-97150000D01*
X121830000Y-97450000D02*
X120030000Y-97450000D01*
X121830000Y-98200000D02*
X121830000Y-97450000D01*
X123330000Y-97450000D02*
X123330000Y-98200000D01*
X123330000Y-98200000D02*
X124330000Y-98200000D01*
X124330000Y-97450000D02*
X123330000Y-97450000D01*
X124330000Y-98200000D02*
X124330000Y-97450000D01*
X125830000Y-97450000D02*
X125830000Y-98200000D01*
X125830000Y-98200000D02*
X127630000Y-98200000D01*
X126880000Y-99700000D02*
X126880000Y-102650000D01*
X126880000Y-102650000D02*
X123830000Y-102650000D01*
X127630000Y-97450000D02*
X125830000Y-97450000D01*
X127630000Y-98200000D02*
X127630000Y-97450000D01*
X127630000Y-99700000D02*
X126880000Y-99700000D01*
X127640000Y-97440000D02*
X120020000Y-97440000D01*
X127640000Y-103410000D02*
X127640000Y-97440000D01*
%TO.C,J9*%
X177170000Y-48530000D02*
X177170000Y-33230000D01*
X179830000Y-33230000D02*
X177170000Y-33230000D01*
X179830000Y-48530000D02*
X177170000Y-48530000D01*
X179830000Y-48530000D02*
X179830000Y-33230000D01*
X179830000Y-49800000D02*
X179830000Y-51130000D01*
X179830000Y-51130000D02*
X178500000Y-51130000D01*
%TO.C,J8*%
X155140000Y-101670000D02*
X155140000Y-102920000D01*
X155140000Y-102920000D02*
X156390000Y-102920000D01*
X155430000Y-87510000D02*
X155430000Y-102630000D01*
X155430000Y-102630000D02*
X161400000Y-102630000D01*
X155440000Y-87520000D02*
X155440000Y-89320000D01*
X155440000Y-89320000D02*
X156190000Y-89320000D01*
X155440000Y-90820000D02*
X155440000Y-99320000D01*
X155440000Y-99320000D02*
X156190000Y-99320000D01*
X155440000Y-100820000D02*
X155440000Y-102620000D01*
X155440000Y-102620000D02*
X156190000Y-102620000D01*
X156190000Y-87520000D02*
X155440000Y-87520000D01*
X156190000Y-89320000D02*
X156190000Y-87520000D01*
X156190000Y-90820000D02*
X155440000Y-90820000D01*
X156190000Y-99320000D02*
X156190000Y-90820000D01*
X156190000Y-100820000D02*
X155440000Y-100820000D01*
X156190000Y-102620000D02*
X156190000Y-100820000D01*
X157690000Y-87520000D02*
X157690000Y-88270000D01*
X157690000Y-88270000D02*
X160640000Y-88270000D01*
X157690000Y-101870000D02*
X160640000Y-101870000D01*
X157690000Y-102620000D02*
X157690000Y-101870000D01*
X160640000Y-88270000D02*
X160640000Y-95070000D01*
X160640000Y-101870000D02*
X160640000Y-95070000D01*
X161400000Y-87510000D02*
X155430000Y-87510000D01*
X161400000Y-102630000D02*
X161400000Y-87510000D01*
%TO.C,J2*%
X175135000Y-78565000D02*
X175135000Y-60725000D01*
X175135000Y-81165000D02*
X175135000Y-79835000D01*
X176465000Y-81165000D02*
X175135000Y-81165000D01*
X177795000Y-60725000D02*
X175135000Y-60725000D01*
X177795000Y-78565000D02*
X175135000Y-78565000D01*
X177795000Y-78565000D02*
X177795000Y-60725000D01*
%TO.C,D4*%
X147450000Y-31475000D02*
X147450000Y-34335000D01*
X147450000Y-34335000D02*
X149370000Y-34335000D01*
X149370000Y-34335000D02*
X149370000Y-31475000D01*
%TO.C,Q1*%
X127147500Y-76750000D02*
X126497500Y-76750000D01*
X127147500Y-76750000D02*
X127797500Y-76750000D01*
X127147500Y-79870000D02*
X126497500Y-79870000D01*
X127147500Y-79870000D02*
X127797500Y-79870000D01*
X125985000Y-76800000D02*
X125745000Y-76470000D01*
X126225000Y-76470000D01*
X125985000Y-76800000D01*
G36*
X125985000Y-76800000D02*
G01*
X125745000Y-76470000D01*
X126225000Y-76470000D01*
X125985000Y-76800000D01*
G37*
%TO.C,D3*%
X129730000Y-74320000D02*
X129730000Y-77180000D01*
X131650000Y-74320000D02*
X129730000Y-74320000D01*
X131650000Y-77180000D02*
X131650000Y-74320000D01*
%TO.C,R5*%
X146120436Y-80835000D02*
X146574564Y-80835000D01*
X146120436Y-82305000D02*
X146574564Y-82305000D01*
D10*
%TO.C,LED1*%
X96050000Y-100700000D02*
X96050000Y-100700000D01*
X96150000Y-100700000D02*
X96150000Y-100700000D01*
X96850000Y-101500000D02*
X96850000Y-103100000D01*
X97950000Y-99800000D02*
X100750000Y-99800000D01*
X97950000Y-104800000D02*
X100750000Y-104800000D01*
X101850000Y-101500000D02*
X101850000Y-103100000D01*
X96050000Y-100700000D02*
G75*
G02*
X96150000Y-100700000I50000J0D01*
G01*
X96150000Y-100700000D02*
G75*
G02*
X96050000Y-100700000I-50000J0D01*
G01*
D13*
%TO.C,F1*%
X141960000Y-40973748D02*
X141960000Y-41496252D01*
X143380000Y-40973748D02*
X143380000Y-41496252D01*
%TO.C,C9*%
X137561252Y-74995000D02*
X137038748Y-74995000D01*
X137561252Y-76465000D02*
X137038748Y-76465000D01*
%TO.C,R10*%
X127344564Y-74475000D02*
X126890436Y-74475000D01*
X127344564Y-75945000D02*
X126890436Y-75945000D01*
%TO.C,J4*%
X114830000Y-38710000D02*
X116160000Y-38710000D01*
X114830000Y-40040000D02*
X114830000Y-38710000D01*
X117430000Y-38710000D02*
X125110000Y-38710000D01*
X117430000Y-41370000D02*
X117430000Y-38710000D01*
X117430000Y-41370000D02*
X125110000Y-41370000D01*
X125110000Y-41370000D02*
X125110000Y-38710000D01*
%TO.C,R8*%
X175772936Y-85675000D02*
X176227064Y-85675000D01*
X175772936Y-87145000D02*
X176227064Y-87145000D01*
%TO.C,J11*%
X95210000Y-43710000D02*
X95210000Y-56330000D01*
X95210000Y-56330000D02*
X101180000Y-56330000D01*
X95970000Y-44470000D02*
X95970000Y-50020000D01*
X95970000Y-55570000D02*
X95970000Y-50020000D01*
X98920000Y-43720000D02*
X98920000Y-44470000D01*
X98920000Y-44470000D02*
X95970000Y-44470000D01*
X98920000Y-55570000D02*
X95970000Y-55570000D01*
X98920000Y-56320000D02*
X98920000Y-55570000D01*
X100420000Y-43720000D02*
X100420000Y-45520000D01*
X100420000Y-45520000D02*
X101170000Y-45520000D01*
X100420000Y-47020000D02*
X100420000Y-53020000D01*
X100420000Y-53020000D02*
X101170000Y-53020000D01*
X100420000Y-54520000D02*
X100420000Y-56320000D01*
X100420000Y-56320000D02*
X101170000Y-56320000D01*
X101170000Y-43720000D02*
X100420000Y-43720000D01*
X101170000Y-45520000D02*
X101170000Y-43720000D01*
X101170000Y-47020000D02*
X100420000Y-47020000D01*
X101170000Y-53020000D02*
X101170000Y-47020000D01*
X101170000Y-54520000D02*
X100420000Y-54520000D01*
X101170000Y-56320000D02*
X101170000Y-54520000D01*
X101180000Y-43710000D02*
X95210000Y-43710000D01*
X101180000Y-56330000D02*
X101180000Y-43710000D01*
X101470000Y-43420000D02*
X100220000Y-43420000D01*
X101470000Y-44670000D02*
X101470000Y-43420000D01*
D14*
%TO.C,MDBT42T-AT1*%
X154800000Y-38140000D02*
X154800000Y-36670000D01*
X154800000Y-38140000D02*
X155850000Y-38140000D01*
X162000000Y-31030000D02*
X162000000Y-35120000D01*
X162000000Y-38140000D02*
X160910000Y-38140000D01*
X162000000Y-38140000D02*
X162000000Y-36640000D01*
D13*
%TO.C,C2*%
X134801252Y-59605000D02*
X134278748Y-59605000D01*
X134801252Y-61075000D02*
X134278748Y-61075000D01*
%TO.C,R6*%
X132225000Y-75922936D02*
X132225000Y-76377064D01*
X133695000Y-75922936D02*
X133695000Y-76377064D01*
%TO.C,R7*%
X149905000Y-32702064D02*
X149905000Y-32247936D01*
X151375000Y-32702064D02*
X151375000Y-32247936D01*
%TO.C,C4*%
X148225000Y-71078748D02*
X148225000Y-71601252D01*
X149695000Y-71078748D02*
X149695000Y-71601252D01*
%TO.C,U2*%
X137220000Y-48647500D02*
X137220000Y-47847500D01*
X137220000Y-48647500D02*
X137220000Y-49447500D01*
X140340000Y-48647500D02*
X140340000Y-47847500D01*
X140340000Y-48647500D02*
X140340000Y-49447500D01*
X140620000Y-47587500D02*
X140290000Y-47347500D01*
X140620000Y-47107500D01*
X140620000Y-47587500D01*
G36*
X140620000Y-47587500D02*
G01*
X140290000Y-47347500D01*
X140620000Y-47107500D01*
X140620000Y-47587500D01*
G37*
%TO.C,C5*%
X146128748Y-75555000D02*
X146651252Y-75555000D01*
X146128748Y-77025000D02*
X146651252Y-77025000D01*
%TO.C,J3*%
X133130000Y-102155000D02*
X134460000Y-102155000D01*
X133130000Y-103485000D02*
X133130000Y-102155000D01*
X135730000Y-102155000D02*
X143410000Y-102155000D01*
X135730000Y-104815000D02*
X135730000Y-102155000D01*
X135730000Y-104815000D02*
X143410000Y-104815000D01*
X143410000Y-104815000D02*
X143410000Y-102155000D01*
%TO.C,J7*%
X149660000Y-46620000D02*
X149660000Y-47870000D01*
X149950000Y-46910000D02*
X149950000Y-52880000D01*
X149950000Y-52880000D02*
X162570000Y-52880000D01*
X149960000Y-46920000D02*
X149960000Y-47670000D01*
X149960000Y-47670000D02*
X151760000Y-47670000D01*
X149960000Y-49170000D02*
X150710000Y-49170000D01*
X150710000Y-49170000D02*
X150710000Y-52120000D01*
X150710000Y-52120000D02*
X156260000Y-52120000D01*
X150910000Y-46620000D02*
X149660000Y-46620000D01*
X151760000Y-46920000D02*
X149960000Y-46920000D01*
X151760000Y-47670000D02*
X151760000Y-46920000D01*
X153260000Y-46920000D02*
X153260000Y-47670000D01*
X153260000Y-47670000D02*
X159260000Y-47670000D01*
X159260000Y-46920000D02*
X153260000Y-46920000D01*
X159260000Y-47670000D02*
X159260000Y-46920000D01*
X160760000Y-46920000D02*
X160760000Y-47670000D01*
X160760000Y-47670000D02*
X162560000Y-47670000D01*
X161810000Y-49170000D02*
X161810000Y-52120000D01*
X161810000Y-52120000D02*
X156260000Y-52120000D01*
X162560000Y-46920000D02*
X160760000Y-46920000D01*
X162560000Y-47670000D02*
X162560000Y-46920000D01*
X162560000Y-49170000D02*
X161810000Y-49170000D01*
X162570000Y-46910000D02*
X149950000Y-46910000D01*
X162570000Y-52880000D02*
X162570000Y-46910000D01*
%TO.C,Y2*%
X137052500Y-77420000D02*
X137052500Y-80720000D01*
X137052500Y-80720000D02*
X141052500Y-80720000D01*
D15*
%TO.C,SW1*%
X132670000Y-84180000D02*
X132670000Y-84180000D01*
X132670000Y-84380000D02*
X132670000Y-84380000D01*
D10*
X134570000Y-82530000D02*
X140570000Y-82530000D01*
X134570000Y-83280000D02*
X134570000Y-82530000D01*
X134570000Y-85280000D02*
X134570000Y-86030000D01*
X134570000Y-86030000D02*
X140570000Y-86030000D01*
X140570000Y-82530000D02*
X140570000Y-83280000D01*
X140570000Y-86030000D02*
X140570000Y-85280000D01*
D15*
X132670000Y-84180000D02*
G75*
G02*
X132670000Y-84380000I0J-100000D01*
G01*
X132670000Y-84380000D02*
G75*
G02*
X132670000Y-84180000I0J100000D01*
G01*
D13*
%TO.C,C6*%
X146128748Y-77845000D02*
X146651252Y-77845000D01*
X146128748Y-79315000D02*
X146651252Y-79315000D01*
%TO.C,J5*%
X108900000Y-97125000D02*
X108900000Y-98375000D01*
X109190000Y-97415000D02*
X109190000Y-103385000D01*
X109190000Y-103385000D02*
X116810000Y-103385000D01*
X109200000Y-97425000D02*
X109200000Y-98175000D01*
X109200000Y-98175000D02*
X111000000Y-98175000D01*
X109200000Y-99675000D02*
X109950000Y-99675000D01*
X109950000Y-99675000D02*
X109950000Y-102625000D01*
X109950000Y-102625000D02*
X113000000Y-102625000D01*
X110150000Y-97125000D02*
X108900000Y-97125000D01*
X111000000Y-97425000D02*
X109200000Y-97425000D01*
X111000000Y-98175000D02*
X111000000Y-97425000D01*
X112500000Y-97425000D02*
X112500000Y-98175000D01*
X112500000Y-98175000D02*
X113500000Y-98175000D01*
X113500000Y-97425000D02*
X112500000Y-97425000D01*
X113500000Y-98175000D02*
X113500000Y-97425000D01*
X115000000Y-97425000D02*
X115000000Y-98175000D01*
X115000000Y-98175000D02*
X116800000Y-98175000D01*
X116050000Y-99675000D02*
X116050000Y-102625000D01*
X116050000Y-102625000D02*
X113000000Y-102625000D01*
X116800000Y-97425000D02*
X115000000Y-97425000D01*
X116800000Y-98175000D02*
X116800000Y-97425000D01*
X116800000Y-99675000D02*
X116050000Y-99675000D01*
X116810000Y-97415000D02*
X109190000Y-97415000D01*
X116810000Y-103385000D02*
X116810000Y-97415000D01*
%TO.C,D2*%
X147467500Y-84910000D02*
X150327500Y-84910000D01*
X150327500Y-82990000D02*
X147467500Y-82990000D01*
X150327500Y-84910000D02*
X150327500Y-82990000D01*
%TO.C,C1*%
X133361252Y-71955000D02*
X132838748Y-71955000D01*
X133361252Y-73425000D02*
X132838748Y-73425000D01*
D10*
%TO.C,LED2*%
X173060000Y-102940000D02*
X173060000Y-101340000D01*
X176960000Y-99640000D02*
X174160000Y-99640000D01*
X176960000Y-104640000D02*
X174160000Y-104640000D01*
X178060000Y-102940000D02*
X178060000Y-101340000D01*
X178760000Y-103740000D02*
X178760000Y-103740000D01*
X178860000Y-103740000D02*
X178860000Y-103740000D01*
X178760000Y-103740000D02*
G75*
G02*
X178860000Y-103740000I50000J0D01*
G01*
X178860000Y-103740000D02*
G75*
G02*
X178760000Y-103740000I-50000J0D01*
G01*
D13*
%TO.C,C8*%
X141088748Y-75405000D02*
X141611252Y-75405000D01*
X141088748Y-76875000D02*
X141611252Y-76875000D01*
%TO.C,R1*%
X120527064Y-69075000D02*
X120072936Y-69075000D01*
X120527064Y-70545000D02*
X120072936Y-70545000D01*
%TO.C,J10*%
X94760000Y-80360000D02*
X94760000Y-81610000D01*
X94760000Y-81610000D02*
X96010000Y-81610000D01*
X95050000Y-63700000D02*
X95050000Y-81320000D01*
X95050000Y-81320000D02*
X101020000Y-81320000D01*
X95060000Y-63710000D02*
X95060000Y-65510000D01*
X95060000Y-65510000D02*
X95810000Y-65510000D01*
X95060000Y-67010000D02*
X95060000Y-78010000D01*
X95060000Y-78010000D02*
X95810000Y-78010000D01*
X95060000Y-79510000D02*
X95060000Y-81310000D01*
X95060000Y-81310000D02*
X95810000Y-81310000D01*
X95810000Y-63710000D02*
X95060000Y-63710000D01*
X95810000Y-65510000D02*
X95810000Y-63710000D01*
X95810000Y-67010000D02*
X95060000Y-67010000D01*
X95810000Y-78010000D02*
X95810000Y-67010000D01*
X95810000Y-79510000D02*
X95060000Y-79510000D01*
X95810000Y-81310000D02*
X95810000Y-79510000D01*
X97310000Y-63710000D02*
X97310000Y-64460000D01*
X97310000Y-64460000D02*
X100260000Y-64460000D01*
X97310000Y-80560000D02*
X100260000Y-80560000D01*
X97310000Y-81310000D02*
X97310000Y-80560000D01*
X100260000Y-64460000D02*
X100260000Y-72510000D01*
X100260000Y-80560000D02*
X100260000Y-72510000D01*
X101020000Y-63700000D02*
X95050000Y-63700000D01*
X101020000Y-81320000D02*
X101020000Y-63700000D01*
%TO.C,C3*%
X146735000Y-60681252D02*
X146735000Y-60158748D01*
X148205000Y-60681252D02*
X148205000Y-60158748D01*
%TO.C,SW2*%
X173150000Y-89010000D02*
X173150000Y-93910000D01*
X173150000Y-89010000D02*
X173200000Y-89010000D01*
X173150000Y-93910000D02*
X173200000Y-93910000D01*
X176350000Y-89010000D02*
X174850000Y-89010000D01*
X176350000Y-93910000D02*
X174850000Y-93910000D01*
X178050000Y-89010000D02*
X178000000Y-89010000D01*
X178050000Y-89010000D02*
X178050000Y-93910000D01*
X178050000Y-93910000D02*
X178000000Y-93910000D01*
%TO.C,D1*%
X146200000Y-40185000D02*
X146200000Y-43045000D01*
X146200000Y-43045000D02*
X148120000Y-43045000D01*
X148120000Y-43045000D02*
X148120000Y-40185000D01*
D14*
%TO.C,S1*%
X114610000Y-73830000D02*
X114610000Y-77430000D01*
X114610000Y-77430000D02*
X115690000Y-77430000D01*
X115690000Y-73830000D02*
X114610000Y-73830000D01*
X122530000Y-77430000D02*
X123610000Y-77430000D01*
X123610000Y-73830000D02*
X122530000Y-73830000D01*
X123610000Y-77430000D02*
X123610000Y-73830000D01*
D15*
X123050000Y-72880000D02*
G75*
G02*
X122850000Y-72880000I-100000J0D01*
G01*
X122850000Y-72880000D02*
G75*
G02*
X123050000Y-72880000I100000J0D01*
G01*
D13*
%TO.C,C11*%
X176971252Y-106585000D02*
X176448748Y-106585000D01*
X176971252Y-108055000D02*
X176448748Y-108055000D01*
%TO.C,J1*%
X134470000Y-32560000D02*
X134470000Y-35790000D01*
X136270000Y-37710000D02*
X135190000Y-37710000D01*
X140490000Y-37710000D02*
X140490000Y-38140000D01*
X141570000Y-37710000D02*
X140490000Y-37710000D01*
X142290000Y-32560000D02*
X142290000Y-35790000D01*
%TO.C,C7*%
X137471252Y-87895000D02*
X136948748Y-87895000D01*
X137471252Y-89365000D02*
X136948748Y-89365000D01*
%TO.C,R4*%
X144145000Y-41442064D02*
X144145000Y-40987936D01*
X145615000Y-41442064D02*
X145615000Y-40987936D01*
%TD*%
M02*
